<?xml version="1.0" encoding="utf-8" standalone="no"?>
<!DOCTYPE svg PUBLIC "-//W3C//DTD SVG 1.1//EN"
  "http://www.w3.org/Graphics/SVG/1.1/DTD/svg11.dtd">
<svg xmlns:xlink="http://www.w3.org/1999/xlink" width="864pt" height="432pt" viewBox="0 0 864 432" xmlns="http://www.w3.org/2000/svg" version="1.1">
 <metadata>
  <rdf:RDF xmlns:dc="http://purl.org/dc/elements/1.1/" xmlns:cc="http://creativecommons.org/ns#" xmlns:rdf="http://www.w3.org/1999/02/22-rdf-syntax-ns#">
   <cc:Work>
    <dc:type rdf:resource="http://purl.org/dc/dcmitype/StillImage"/>
    <dc:date>2024-08-22T16:28:16.296615</dc:date>
    <dc:format>image/svg+xml</dc:format>
    <dc:creator>
     <cc:Agent>
      <dc:title>Matplotlib v3.9.0, https://matplotlib.org/</dc:title>
     </cc:Agent>
    </dc:creator>
   </cc:Work>
  </rdf:RDF>
 </metadata>
 <defs>
  <style type="text/css">*{stroke-linejoin: round; stroke-linecap: butt}</style>
 </defs>
 <g id="figure_1">
  <g id="patch_1">
   <path d="M 0 432 
L 864 432 
L 864 0 
L 0 0 
z
" style="fill: #ffffff"/>
  </g>
  <g id="axes_1">
   <g id="patch_2">
    <path d="M 70.41 379.14 
L 848.88 379.14 
L 848.88 15.12 
L 70.41 15.12 
z
" style="fill: #ffffff"/>
   </g>
   <g id="matplotlib.axis_1">
    <g id="xtick_1">
     <g id="line2d_1">
      <path d="M 217.537105 379.14 
L 217.537105 15.12 
" clip-path="url(#pfbcc9d5325)" style="fill: none; stroke: #000000"/>
     </g>
     <g id="line2d_2"/>
     <g id="text_1">
      <!-- 20 -->
      <g transform="translate(208.629605 393.277812) scale(0.14 -0.14)">
       <defs>
        <path id="DejaVuSans-32" d="M 1228 531 
L 3431 531 
L 3431 0 
L 469 0 
L 469 531 
Q 828 903 1448 1529 
Q 2069 2156 2228 2338 
Q 2531 2678 2651 2914 
Q 2772 3150 2772 3378 
Q 2772 3750 2511 3984 
Q 2250 4219 1831 4219 
Q 1534 4219 1204 4116 
Q 875 4013 500 3803 
L 500 4441 
Q 881 4594 1212 4672 
Q 1544 4750 1819 4750 
Q 2544 4750 2975 4387 
Q 3406 4025 3406 3419 
Q 3406 3131 3298 2873 
Q 3191 2616 2906 2266 
Q 2828 2175 2409 1742 
Q 1991 1309 1228 531 
z
" transform="scale(0.015625)"/>
        <path id="DejaVuSans-30" d="M 2034 4250 
Q 1547 4250 1301 3770 
Q 1056 3291 1056 2328 
Q 1056 1369 1301 889 
Q 1547 409 2034 409 
Q 2525 409 2770 889 
Q 3016 1369 3016 2328 
Q 3016 3291 2770 3770 
Q 2525 4250 2034 4250 
z
M 2034 4750 
Q 2819 4750 3233 4129 
Q 3647 3509 3647 2328 
Q 3647 1150 3233 529 
Q 2819 -91 2034 -91 
Q 1250 -91 836 529 
Q 422 1150 422 2328 
Q 422 3509 836 4129 
Q 1250 4750 2034 4750 
z
" transform="scale(0.015625)"/>
       </defs>
       <use xlink:href="#DejaVuSans-32"/>
       <use xlink:href="#DejaVuSans-30" x="63.623047"/>
      </g>
     </g>
    </g>
    <g id="xtick_2">
     <g id="line2d_3">
      <path d="M 366.526579 379.14 
L 366.526579 15.12 
" clip-path="url(#pfbcc9d5325)" style="fill: none; stroke: #000000"/>
     </g>
     <g id="line2d_4"/>
     <g id="text_2">
      <!-- 40 -->
      <g transform="translate(357.619079 393.277812) scale(0.14 -0.14)">
       <defs>
        <path id="DejaVuSans-34" d="M 2419 4116 
L 825 1625 
L 2419 1625 
L 2419 4116 
z
M 2253 4666 
L 3047 4666 
L 3047 1625 
L 3713 1625 
L 3713 1100 
L 3047 1100 
L 3047 0 
L 2419 0 
L 2419 1100 
L 313 1100 
L 313 1709 
L 2253 4666 
z
" transform="scale(0.015625)"/>
       </defs>
       <use xlink:href="#DejaVuSans-34"/>
       <use xlink:href="#DejaVuSans-30" x="63.623047"/>
      </g>
     </g>
    </g>
    <g id="xtick_3">
     <g id="line2d_5">
      <path d="M 515.516053 379.14 
L 515.516053 15.12 
" clip-path="url(#pfbcc9d5325)" style="fill: none; stroke: #000000"/>
     </g>
     <g id="line2d_6"/>
     <g id="text_3">
      <!-- 60 -->
      <g transform="translate(506.608553 393.277812) scale(0.14 -0.14)">
       <defs>
        <path id="DejaVuSans-36" d="M 2113 2584 
Q 1688 2584 1439 2293 
Q 1191 2003 1191 1497 
Q 1191 994 1439 701 
Q 1688 409 2113 409 
Q 2538 409 2786 701 
Q 3034 994 3034 1497 
Q 3034 2003 2786 2293 
Q 2538 2584 2113 2584 
z
M 3366 4563 
L 3366 3988 
Q 3128 4100 2886 4159 
Q 2644 4219 2406 4219 
Q 1781 4219 1451 3797 
Q 1122 3375 1075 2522 
Q 1259 2794 1537 2939 
Q 1816 3084 2150 3084 
Q 2853 3084 3261 2657 
Q 3669 2231 3669 1497 
Q 3669 778 3244 343 
Q 2819 -91 2113 -91 
Q 1303 -91 875 529 
Q 447 1150 447 2328 
Q 447 3434 972 4092 
Q 1497 4750 2381 4750 
Q 2619 4750 2861 4703 
Q 3103 4656 3366 4563 
z
" transform="scale(0.015625)"/>
       </defs>
       <use xlink:href="#DejaVuSans-36"/>
       <use xlink:href="#DejaVuSans-30" x="63.623047"/>
      </g>
     </g>
    </g>
    <g id="xtick_4">
     <g id="line2d_7">
      <path d="M 664.505526 379.14 
L 664.505526 15.12 
" clip-path="url(#pfbcc9d5325)" style="fill: none; stroke: #000000"/>
     </g>
     <g id="line2d_8"/>
     <g id="text_4">
      <!-- 80 -->
      <g transform="translate(655.598026 393.277812) scale(0.14 -0.14)">
       <defs>
        <path id="DejaVuSans-38" d="M 2034 2216 
Q 1584 2216 1326 1975 
Q 1069 1734 1069 1313 
Q 1069 891 1326 650 
Q 1584 409 2034 409 
Q 2484 409 2743 651 
Q 3003 894 3003 1313 
Q 3003 1734 2745 1975 
Q 2488 2216 2034 2216 
z
M 1403 2484 
Q 997 2584 770 2862 
Q 544 3141 544 3541 
Q 544 4100 942 4425 
Q 1341 4750 2034 4750 
Q 2731 4750 3128 4425 
Q 3525 4100 3525 3541 
Q 3525 3141 3298 2862 
Q 3072 2584 2669 2484 
Q 3125 2378 3379 2068 
Q 3634 1759 3634 1313 
Q 3634 634 3220 271 
Q 2806 -91 2034 -91 
Q 1263 -91 848 271 
Q 434 634 434 1313 
Q 434 1759 690 2068 
Q 947 2378 1403 2484 
z
M 1172 3481 
Q 1172 3119 1398 2916 
Q 1625 2713 2034 2713 
Q 2441 2713 2670 2916 
Q 2900 3119 2900 3481 
Q 2900 3844 2670 4047 
Q 2441 4250 2034 4250 
Q 1625 4250 1398 4047 
Q 1172 3844 1172 3481 
z
" transform="scale(0.015625)"/>
       </defs>
       <use xlink:href="#DejaVuSans-38"/>
       <use xlink:href="#DejaVuSans-30" x="63.623047"/>
      </g>
     </g>
    </g>
    <g id="xtick_5">
     <g id="line2d_9">
      <path d="M 813.495 379.14 
L 813.495 15.12 
" clip-path="url(#pfbcc9d5325)" style="fill: none; stroke: #000000"/>
     </g>
     <g id="line2d_10"/>
     <g id="text_5">
      <!-- 100 -->
      <g transform="translate(800.13375 393.277812) scale(0.14 -0.14)">
       <defs>
        <path id="DejaVuSans-31" d="M 794 531 
L 1825 531 
L 1825 4091 
L 703 3866 
L 703 4441 
L 1819 4666 
L 2450 4666 
L 2450 531 
L 3481 531 
L 3481 0 
L 794 0 
L 794 531 
z
" transform="scale(0.015625)"/>
       </defs>
       <use xlink:href="#DejaVuSans-31"/>
       <use xlink:href="#DejaVuSans-30" x="63.623047"/>
       <use xlink:href="#DejaVuSans-30" x="127.246094"/>
      </g>
     </g>
    </g>
    <g id="text_6">
     <!-- # of nodes -->
     <g transform="translate(408.87225 412.95475) scale(0.168 -0.168)">
      <defs>
       <path id="DejaVuSans-Bold-23" d="M 2847 4594 
L 2547 3391 
L 3372 3391 
L 3675 4594 
L 4366 4594 
L 4063 3391 
L 4928 3391 
L 4928 2725 
L 3897 2725 
L 3681 1869 
L 4569 1869 
L 4569 1197 
L 3519 1197 
L 3219 0 
L 2528 0 
L 2828 1197 
L 2003 1197 
L 1703 0 
L 1006 0 
L 1306 1197 
L 434 1197 
L 434 1869 
L 1459 1869 
L 1678 2725 
L 794 2725 
L 794 3391 
L 1850 3391 
L 2150 4594 
L 2847 4594 
z
M 3200 2725 
L 2375 2725 
L 2156 1869 
L 2981 1869 
L 3200 2725 
z
" transform="scale(0.015625)"/>
       <path id="DejaVuSans-Bold-20" transform="scale(0.015625)"/>
       <path id="DejaVuSans-Bold-6f" d="M 2203 2784 
Q 1831 2784 1636 2517 
Q 1441 2250 1441 1747 
Q 1441 1244 1636 976 
Q 1831 709 2203 709 
Q 2569 709 2762 976 
Q 2956 1244 2956 1747 
Q 2956 2250 2762 2517 
Q 2569 2784 2203 2784 
z
M 2203 3584 
Q 3106 3584 3614 3096 
Q 4122 2609 4122 1747 
Q 4122 884 3614 396 
Q 3106 -91 2203 -91 
Q 1297 -91 786 396 
Q 275 884 275 1747 
Q 275 2609 786 3096 
Q 1297 3584 2203 3584 
z
" transform="scale(0.015625)"/>
       <path id="DejaVuSans-Bold-66" d="M 2841 4863 
L 2841 4128 
L 2222 4128 
Q 1984 4128 1890 4042 
Q 1797 3956 1797 3744 
L 1797 3500 
L 2753 3500 
L 2753 2700 
L 1797 2700 
L 1797 0 
L 678 0 
L 678 2700 
L 122 2700 
L 122 3500 
L 678 3500 
L 678 3744 
Q 678 4316 997 4589 
Q 1316 4863 1984 4863 
L 2841 4863 
z
" transform="scale(0.015625)"/>
       <path id="DejaVuSans-Bold-6e" d="M 4056 2131 
L 4056 0 
L 2931 0 
L 2931 347 
L 2931 1631 
Q 2931 2084 2911 2256 
Q 2891 2428 2841 2509 
Q 2775 2619 2662 2680 
Q 2550 2741 2406 2741 
Q 2056 2741 1856 2470 
Q 1656 2200 1656 1722 
L 1656 0 
L 538 0 
L 538 3500 
L 1656 3500 
L 1656 2988 
Q 1909 3294 2193 3439 
Q 2478 3584 2822 3584 
Q 3428 3584 3742 3212 
Q 4056 2841 4056 2131 
z
" transform="scale(0.015625)"/>
       <path id="DejaVuSans-Bold-64" d="M 2919 2988 
L 2919 4863 
L 4044 4863 
L 4044 0 
L 2919 0 
L 2919 506 
Q 2688 197 2409 53 
Q 2131 -91 1766 -91 
Q 1119 -91 703 423 
Q 288 938 288 1747 
Q 288 2556 703 3070 
Q 1119 3584 1766 3584 
Q 2128 3584 2408 3439 
Q 2688 3294 2919 2988 
z
M 2181 722 
Q 2541 722 2730 984 
Q 2919 1247 2919 1747 
Q 2919 2247 2730 2509 
Q 2541 2772 2181 2772 
Q 1825 2772 1636 2509 
Q 1447 2247 1447 1747 
Q 1447 1247 1636 984 
Q 1825 722 2181 722 
z
" transform="scale(0.015625)"/>
       <path id="DejaVuSans-Bold-65" d="M 4031 1759 
L 4031 1441 
L 1416 1441 
Q 1456 1047 1700 850 
Q 1944 653 2381 653 
Q 2734 653 3104 758 
Q 3475 863 3866 1075 
L 3866 213 
Q 3469 63 3072 -14 
Q 2675 -91 2278 -91 
Q 1328 -91 801 392 
Q 275 875 275 1747 
Q 275 2603 792 3093 
Q 1309 3584 2216 3584 
Q 3041 3584 3536 3087 
Q 4031 2591 4031 1759 
z
M 2881 2131 
Q 2881 2450 2695 2645 
Q 2509 2841 2209 2841 
Q 1884 2841 1681 2658 
Q 1478 2475 1428 2131 
L 2881 2131 
z
" transform="scale(0.015625)"/>
       <path id="DejaVuSans-Bold-73" d="M 3272 3391 
L 3272 2541 
Q 2913 2691 2578 2766 
Q 2244 2841 1947 2841 
Q 1628 2841 1473 2761 
Q 1319 2681 1319 2516 
Q 1319 2381 1436 2309 
Q 1553 2238 1856 2203 
L 2053 2175 
Q 2913 2066 3209 1816 
Q 3506 1566 3506 1031 
Q 3506 472 3093 190 
Q 2681 -91 1863 -91 
Q 1516 -91 1145 -36 
Q 775 19 384 128 
L 384 978 
Q 719 816 1070 734 
Q 1422 653 1784 653 
Q 2113 653 2278 743 
Q 2444 834 2444 1013 
Q 2444 1163 2330 1236 
Q 2216 1309 1875 1350 
L 1678 1375 
Q 931 1469 631 1722 
Q 331 1975 331 2491 
Q 331 3047 712 3315 
Q 1094 3584 1881 3584 
Q 2191 3584 2531 3537 
Q 2872 3491 3272 3391 
z
" transform="scale(0.015625)"/>
      </defs>
      <use xlink:href="#DejaVuSans-Bold-23"/>
      <use xlink:href="#DejaVuSans-Bold-20" x="83.789062"/>
      <use xlink:href="#DejaVuSans-Bold-6f" x="118.603516"/>
      <use xlink:href="#DejaVuSans-Bold-66" x="187.304688"/>
      <use xlink:href="#DejaVuSans-Bold-20" x="230.810547"/>
      <use xlink:href="#DejaVuSans-Bold-6e" x="265.625"/>
      <use xlink:href="#DejaVuSans-Bold-6f" x="336.816406"/>
      <use xlink:href="#DejaVuSans-Bold-64" x="405.517578"/>
      <use xlink:href="#DejaVuSans-Bold-65" x="477.099609"/>
      <use xlink:href="#DejaVuSans-Bold-73" x="544.921875"/>
     </g>
    </g>
   </g>
   <g id="matplotlib.axis_2">
    <g id="ytick_1">
     <g id="line2d_11">
      <path d="M 70.41 379.14 
L 848.88 379.14 
" clip-path="url(#pfbcc9d5325)" style="fill: none; stroke: #000000"/>
     </g>
     <g id="line2d_12"/>
     <g id="text_7">
      <!-- 0.00 -->
      <g transform="translate(35.738125 384.458906) scale(0.14 -0.14)">
       <defs>
        <path id="DejaVuSans-2e" d="M 684 794 
L 1344 794 
L 1344 0 
L 684 0 
L 684 794 
z
" transform="scale(0.015625)"/>
       </defs>
       <use xlink:href="#DejaVuSans-30"/>
       <use xlink:href="#DejaVuSans-2e" x="63.623047"/>
       <use xlink:href="#DejaVuSans-30" x="95.410156"/>
       <use xlink:href="#DejaVuSans-30" x="159.033203"/>
      </g>
     </g>
    </g>
    <g id="ytick_2">
     <g id="line2d_13">
      <path d="M 70.41 324.73508 
L 848.88 324.73508 
" clip-path="url(#pfbcc9d5325)" style="fill: none; stroke: #000000"/>
     </g>
     <g id="line2d_14"/>
     <g id="text_8">
      <!-- 0.05 -->
      <g transform="translate(35.738125 330.053987) scale(0.14 -0.14)">
       <defs>
        <path id="DejaVuSans-35" d="M 691 4666 
L 3169 4666 
L 3169 4134 
L 1269 4134 
L 1269 2991 
Q 1406 3038 1543 3061 
Q 1681 3084 1819 3084 
Q 2600 3084 3056 2656 
Q 3513 2228 3513 1497 
Q 3513 744 3044 326 
Q 2575 -91 1722 -91 
Q 1428 -91 1123 -41 
Q 819 9 494 109 
L 494 744 
Q 775 591 1075 516 
Q 1375 441 1709 441 
Q 2250 441 2565 725 
Q 2881 1009 2881 1497 
Q 2881 1984 2565 2268 
Q 2250 2553 1709 2553 
Q 1456 2553 1204 2497 
Q 953 2441 691 2322 
L 691 4666 
z
" transform="scale(0.015625)"/>
       </defs>
       <use xlink:href="#DejaVuSans-30"/>
       <use xlink:href="#DejaVuSans-2e" x="63.623047"/>
       <use xlink:href="#DejaVuSans-30" x="95.410156"/>
       <use xlink:href="#DejaVuSans-35" x="159.033203"/>
      </g>
     </g>
    </g>
    <g id="ytick_3">
     <g id="line2d_15">
      <path d="M 70.41 270.330161 
L 848.88 270.330161 
" clip-path="url(#pfbcc9d5325)" style="fill: none; stroke: #000000"/>
     </g>
     <g id="line2d_16"/>
     <g id="text_9">
      <!-- 0.10 -->
      <g transform="translate(35.738125 275.649067) scale(0.14 -0.14)">
       <use xlink:href="#DejaVuSans-30"/>
       <use xlink:href="#DejaVuSans-2e" x="63.623047"/>
       <use xlink:href="#DejaVuSans-31" x="95.410156"/>
       <use xlink:href="#DejaVuSans-30" x="159.033203"/>
      </g>
     </g>
    </g>
    <g id="ytick_4">
     <g id="line2d_17">
      <path d="M 70.41 215.925241 
L 848.88 215.925241 
" clip-path="url(#pfbcc9d5325)" style="fill: none; stroke: #000000"/>
     </g>
     <g id="line2d_18"/>
     <g id="text_10">
      <!-- 0.15 -->
      <g transform="translate(35.738125 221.244147) scale(0.14 -0.14)">
       <use xlink:href="#DejaVuSans-30"/>
       <use xlink:href="#DejaVuSans-2e" x="63.623047"/>
       <use xlink:href="#DejaVuSans-31" x="95.410156"/>
       <use xlink:href="#DejaVuSans-35" x="159.033203"/>
      </g>
     </g>
    </g>
    <g id="ytick_5">
     <g id="line2d_19">
      <path d="M 70.41 161.520321 
L 848.88 161.520321 
" clip-path="url(#pfbcc9d5325)" style="fill: none; stroke: #000000"/>
     </g>
     <g id="line2d_20"/>
     <g id="text_11">
      <!-- 0.20 -->
      <g transform="translate(35.738125 166.839227) scale(0.14 -0.14)">
       <use xlink:href="#DejaVuSans-30"/>
       <use xlink:href="#DejaVuSans-2e" x="63.623047"/>
       <use xlink:href="#DejaVuSans-32" x="95.410156"/>
       <use xlink:href="#DejaVuSans-30" x="159.033203"/>
      </g>
     </g>
    </g>
    <g id="ytick_6">
     <g id="line2d_21">
      <path d="M 70.41 107.115401 
L 848.88 107.115401 
" clip-path="url(#pfbcc9d5325)" style="fill: none; stroke: #000000"/>
     </g>
     <g id="line2d_22"/>
     <g id="text_12">
      <!-- 0.25 -->
      <g transform="translate(35.738125 112.434308) scale(0.14 -0.14)">
       <use xlink:href="#DejaVuSans-30"/>
       <use xlink:href="#DejaVuSans-2e" x="63.623047"/>
       <use xlink:href="#DejaVuSans-32" x="95.410156"/>
       <use xlink:href="#DejaVuSans-35" x="159.033203"/>
      </g>
     </g>
    </g>
    <g id="ytick_7">
     <g id="line2d_23">
      <path d="M 70.41 52.710482 
L 848.88 52.710482 
" clip-path="url(#pfbcc9d5325)" style="fill: none; stroke: #000000"/>
     </g>
     <g id="line2d_24"/>
     <g id="text_13">
      <!-- 0.30 -->
      <g transform="translate(35.738125 58.029388) scale(0.14 -0.14)">
       <defs>
        <path id="DejaVuSans-33" d="M 2597 2516 
Q 3050 2419 3304 2112 
Q 3559 1806 3559 1356 
Q 3559 666 3084 287 
Q 2609 -91 1734 -91 
Q 1441 -91 1130 -33 
Q 819 25 488 141 
L 488 750 
Q 750 597 1062 519 
Q 1375 441 1716 441 
Q 2309 441 2620 675 
Q 2931 909 2931 1356 
Q 2931 1769 2642 2001 
Q 2353 2234 1838 2234 
L 1294 2234 
L 1294 2753 
L 1863 2753 
Q 2328 2753 2575 2939 
Q 2822 3125 2822 3475 
Q 2822 3834 2567 4026 
Q 2313 4219 1838 4219 
Q 1578 4219 1281 4162 
Q 984 4106 628 3988 
L 628 4550 
Q 988 4650 1302 4700 
Q 1616 4750 1894 4750 
Q 2613 4750 3031 4423 
Q 3450 4097 3450 3541 
Q 3450 3153 3228 2886 
Q 3006 2619 2597 2516 
z
" transform="scale(0.015625)"/>
       </defs>
       <use xlink:href="#DejaVuSans-30"/>
       <use xlink:href="#DejaVuSans-2e" x="63.623047"/>
       <use xlink:href="#DejaVuSans-33" x="95.410156"/>
       <use xlink:href="#DejaVuSans-30" x="159.033203"/>
      </g>
     </g>
    </g>
    <g id="text_14">
     <!-- Latency (s) -->
     <g transform="translate(28.113 249.900375) rotate(-90) scale(0.168 -0.168)">
      <defs>
       <path id="DejaVuSans-Bold-4c" d="M 588 4666 
L 1791 4666 
L 1791 909 
L 3903 909 
L 3903 0 
L 588 0 
L 588 4666 
z
" transform="scale(0.015625)"/>
       <path id="DejaVuSans-Bold-61" d="M 2106 1575 
Q 1756 1575 1579 1456 
Q 1403 1338 1403 1106 
Q 1403 894 1545 773 
Q 1688 653 1941 653 
Q 2256 653 2472 879 
Q 2688 1106 2688 1447 
L 2688 1575 
L 2106 1575 
z
M 3816 1997 
L 3816 0 
L 2688 0 
L 2688 519 
Q 2463 200 2181 54 
Q 1900 -91 1497 -91 
Q 953 -91 614 226 
Q 275 544 275 1050 
Q 275 1666 698 1953 
Q 1122 2241 2028 2241 
L 2688 2241 
L 2688 2328 
Q 2688 2594 2478 2717 
Q 2269 2841 1825 2841 
Q 1466 2841 1156 2769 
Q 847 2697 581 2553 
L 581 3406 
Q 941 3494 1303 3539 
Q 1666 3584 2028 3584 
Q 2975 3584 3395 3211 
Q 3816 2838 3816 1997 
z
" transform="scale(0.015625)"/>
       <path id="DejaVuSans-Bold-74" d="M 1759 4494 
L 1759 3500 
L 2913 3500 
L 2913 2700 
L 1759 2700 
L 1759 1216 
Q 1759 972 1856 886 
Q 1953 800 2241 800 
L 2816 800 
L 2816 0 
L 1856 0 
Q 1194 0 917 276 
Q 641 553 641 1216 
L 641 2700 
L 84 2700 
L 84 3500 
L 641 3500 
L 641 4494 
L 1759 4494 
z
" transform="scale(0.015625)"/>
       <path id="DejaVuSans-Bold-63" d="M 3366 3391 
L 3366 2478 
Q 3138 2634 2908 2709 
Q 2678 2784 2431 2784 
Q 1963 2784 1702 2511 
Q 1441 2238 1441 1747 
Q 1441 1256 1702 982 
Q 1963 709 2431 709 
Q 2694 709 2930 787 
Q 3166 866 3366 1019 
L 3366 103 
Q 3103 6 2833 -42 
Q 2563 -91 2291 -91 
Q 1344 -91 809 395 
Q 275 881 275 1747 
Q 275 2613 809 3098 
Q 1344 3584 2291 3584 
Q 2566 3584 2833 3536 
Q 3100 3488 3366 3391 
z
" transform="scale(0.015625)"/>
       <path id="DejaVuSans-Bold-79" d="M 78 3500 
L 1197 3500 
L 2138 1125 
L 2938 3500 
L 4056 3500 
L 2584 -331 
Q 2363 -916 2067 -1148 
Q 1772 -1381 1288 -1381 
L 641 -1381 
L 641 -647 
L 991 -647 
Q 1275 -647 1404 -556 
Q 1534 -466 1606 -231 
L 1638 -134 
L 78 3500 
z
" transform="scale(0.015625)"/>
       <path id="DejaVuSans-Bold-28" d="M 2413 -844 
L 1484 -844 
Q 1006 -72 778 623 
Q 550 1319 550 2003 
Q 550 2688 779 3389 
Q 1009 4091 1484 4856 
L 2413 4856 
Q 2013 4116 1813 3408 
Q 1613 2700 1613 2009 
Q 1613 1319 1811 609 
Q 2009 -100 2413 -844 
z
" transform="scale(0.015625)"/>
       <path id="DejaVuSans-Bold-29" d="M 513 -844 
Q 913 -100 1113 609 
Q 1313 1319 1313 2009 
Q 1313 2700 1113 3408 
Q 913 4116 513 4856 
L 1441 4856 
Q 1916 4091 2145 3389 
Q 2375 2688 2375 2003 
Q 2375 1319 2147 623 
Q 1919 -72 1441 -844 
L 513 -844 
z
" transform="scale(0.015625)"/>
      </defs>
      <use xlink:href="#DejaVuSans-Bold-4c"/>
      <use xlink:href="#DejaVuSans-Bold-61" x="63.720703"/>
      <use xlink:href="#DejaVuSans-Bold-74" x="131.201172"/>
      <use xlink:href="#DejaVuSans-Bold-65" x="179.003906"/>
      <use xlink:href="#DejaVuSans-Bold-6e" x="246.826172"/>
      <use xlink:href="#DejaVuSans-Bold-63" x="318.017578"/>
      <use xlink:href="#DejaVuSans-Bold-79" x="377.294922"/>
      <use xlink:href="#DejaVuSans-Bold-20" x="442.480469"/>
      <use xlink:href="#DejaVuSans-Bold-28" x="477.294922"/>
      <use xlink:href="#DejaVuSans-Bold-73" x="522.998047"/>
      <use xlink:href="#DejaVuSans-Bold-29" x="582.519531"/>
     </g>
    </g>
   </g>
   <g id="line2d_25">
    <path d="M 105.795 364.828032 
L 113.244474 361.393925 
L 120.693947 357.978516 
L 128.143421 354.313983 
L 135.592895 351.078605 
L 143.042368 347.528 
L 150.491842 344.154743 
L 157.941316 340.839291 
L 165.390789 337.443835 
L 172.840263 333.458455 
L 180.289737 329.973728 
L 187.739211 326.699666 
L 195.188684 323.10646 
L 202.638158 319.868903 
L 210.087632 316.304288 
L 217.537105 312.91502 
L 224.986579 309.339523 
L 232.436053 306.106183 
L 239.885526 301.890423 
L 247.335 298.914811 
L 254.784474 294.86702 
L 262.233947 291.271398 
L 269.683421 288.103192 
L 277.132895 285.21731 
L 284.582368 281.123288 
L 292.031842 277.684803 
L 299.481316 274.504255 
L 306.930789 270.690879 
L 314.380263 267.180299 
L 321.829737 263.493867 
L 329.279211 260.662402 
L 336.728684 256.524813 
L 344.178158 252.778844 
L 351.627632 249.886291 
L 359.077105 245.9599 
L 366.526579 242.643724 
L 373.976053 238.746531 
L 381.425526 236.08031 
L 388.875 231.640688 
L 396.324474 228.468158 
L 403.773947 225.611529 
L 411.223421 222.1251 
L 418.672895 218.018025 
L 426.122368 214.054857 
L 433.571842 210.890341 
L 441.021316 208.029528 
L 448.470789 203.423681 
L 455.920263 200.876914 
L 463.369737 196.599899 
L 470.819211 193.14522 
L 478.268684 189.759931 
L 485.718158 186.989108 
L 493.167632 182.298492 
L 500.617105 179.07606 
L 508.066579 175.970729 
L 515.516053 171.874099 
L 522.965526 168.963248 
L 530.415 164.669406 
L 537.864474 161.568916 
L 545.313947 158.081502 
L 552.763421 155.102895 
L 560.212895 150.769373 
L 567.662368 147.715347 
L 575.111842 144.577417 
L 582.561316 140.444951 
L 590.010789 137.362007 
L 597.460263 134.18091 
L 604.909737 130.150043 
L 612.359211 126.608295 
L 619.808684 122.989786 
L 627.258158 119.805358 
L 634.707632 115.88137 
L 642.157105 112.551365 
L 649.606579 108.545336 
L 657.056053 105.518614 
L 664.505526 102.284962 
L 671.955 97.868107 
L 679.404474 95.392019 
L 686.853947 91.474482 
L 694.303421 88.504697 
L 701.752895 84.680891 
L 709.202368 80.660332 
L 716.651842 77.330521 
L 724.101316 73.577033 
L 731.550789 70.553525 
L 739.000263 66.66256 
L 746.449737 63.481881 
L 753.899211 58.958239 
L 761.348684 55.985512 
L 768.798158 52.285753 
L 776.247632 48.768409 
L 783.697105 45.165378 
L 791.146579 41.718529 
L 798.596053 38.488474 
L 806.045526 34.758312 
L 813.495 32.035547 
" clip-path="url(#pfbcc9d5325)" style="fill: none; stroke: #ff0000; stroke-width: 5"/>
   </g>
   <g id="line2d_26">
    <path d="M 105.795 370.192281 
L 113.244474 370.267612 
L 120.693947 370.019823 
L 128.143421 370.051697 
L 135.592895 370.035641 
L 143.042368 370.106372 
L 150.491842 370.173506 
L 157.941316 370.1523 
L 165.390789 369.969102 
L 172.840263 370.105308 
L 180.289737 369.974379 
L 187.739211 370.116954 
L 195.188684 370.106168 
L 202.638158 370.234037 
L 210.087632 370.047806 
L 217.537105 370.058204 
L 224.986579 370.092271 
L 232.436053 370.018121 
L 239.885526 370.154609 
L 247.335 370.055254 
L 254.784474 370.055297 
L 262.233947 370.277945 
L 269.683421 370.242204 
L 277.132895 370.086726 
L 284.582368 370.057609 
L 292.031842 370.227077 
L 299.481316 370.117038 
L 306.930789 370.101599 
L 314.380263 370.092845 
L 321.829737 370.093403 
L 329.279211 370.060586 
L 336.728684 370.058139 
L 344.178158 370.092171 
L 351.627632 370.150763 
L 359.077105 370.188984 
L 366.526579 370.161421 
L 373.976053 370.072364 
L 381.425526 370.143052 
L 388.875 370.288947 
L 396.324474 370.245838 
L 403.773947 370.11435 
L 411.223421 370.129268 
L 418.672895 370.096169 
L 426.122368 370.023781 
L 433.571842 370.231927 
L 441.021316 370.199603 
L 448.470789 370.011569 
L 455.920263 370.06764 
L 463.369737 370.090874 
L 470.819211 370.131233 
L 478.268684 370.016688 
L 485.718158 370.108344 
L 493.167632 370.178701 
L 500.617105 370.098845 
L 508.066579 370.135909 
L 515.516053 370.164534 
L 522.965526 370.011731 
L 530.415 370.074958 
L 537.864474 370.118281 
L 545.313947 370.227332 
L 552.763421 370.127272 
L 560.212895 370.193821 
L 567.662368 370.030434 
L 575.111842 370.089936 
L 582.561316 370.114464 
L 590.010789 370.0687 
L 597.460263 370.067818 
L 604.909737 370.141065 
L 612.359211 370.119243 
L 619.808684 370.115843 
L 627.258158 370.086172 
L 634.707632 370.125993 
L 642.157105 370.089747 
L 649.606579 370.150063 
L 657.056053 370.116933 
L 664.505526 370.174681 
L 671.955 370.015258 
L 679.404474 370.06831 
L 686.853947 370.018287 
L 694.303421 370.066481 
L 701.752895 369.999582 
L 709.202368 370.346487 
L 716.651842 370.330421 
L 724.101316 370.224129 
L 731.550789 370.116717 
L 739.000263 370.049351 
L 746.449737 370.068462 
L 753.899211 370.152635 
L 761.348684 369.975256 
L 768.798158 369.996956 
L 776.247632 370.285081 
L 783.697105 370.010275 
L 791.146579 370.0324 
L 798.596053 370.0421 
L 806.045526 370.045198 
L 813.495 370.184619 
" clip-path="url(#pfbcc9d5325)" style="fill: none; stroke: #0000ff; stroke-width: 5"/>
   </g>
   <g id="patch_3">
    <path d="M 70.41 379.14 
L 70.41 15.12 
" style="fill: none; stroke: #000000; stroke-width: 3; stroke-linejoin: miter; stroke-linecap: square"/>
   </g>
   <g id="patch_4">
    <path d="M 848.88 379.14 
L 848.88 15.12 
" style="fill: none; stroke: #000000; stroke-width: 3; stroke-linejoin: miter; stroke-linecap: square"/>
   </g>
   <g id="patch_5">
    <path d="M 70.41 379.14 
L 848.88 379.14 
" style="fill: none; stroke: #000000; stroke-width: 3; stroke-linejoin: miter; stroke-linecap: square"/>
   </g>
   <g id="patch_6">
    <path d="M 70.41 15.12 
L 848.88 15.12 
" style="fill: none; stroke: #000000; stroke-width: 3; stroke-linejoin: miter; stroke-linecap: square"/>
   </g>
   <g id="legend_1">
    <g id="patch_7">
     <path d="M 80.21 67.41875 
L 187.235625 67.41875 
Q 190.035625 67.41875 190.035625 64.61875 
L 190.035625 24.92 
Q 190.035625 22.12 187.235625 22.12 
L 80.21 22.12 
Q 77.41 22.12 77.41 24.92 
L 77.41 64.61875 
Q 77.41 67.41875 80.21 67.41875 
z
" style="fill: #ffffff; opacity: 0.8; stroke: #cccccc; stroke-width: 0.5; stroke-linejoin: miter"/>
    </g>
    <g id="line2d_27">
     <path d="M 83.01 33.457812 
L 97.01 33.457812 
L 111.01 33.457812 
" style="fill: none; stroke: #ff0000; stroke-width: 5"/>
    </g>
    <g id="text_15">
     <!-- no vlinks -->
     <g transform="translate(122.21 38.357812) scale(0.14 -0.14)">
      <defs>
       <path id="DejaVuSans-6e" d="M 3513 2113 
L 3513 0 
L 2938 0 
L 2938 2094 
Q 2938 2591 2744 2837 
Q 2550 3084 2163 3084 
Q 1697 3084 1428 2787 
Q 1159 2491 1159 1978 
L 1159 0 
L 581 0 
L 581 3500 
L 1159 3500 
L 1159 2956 
Q 1366 3272 1645 3428 
Q 1925 3584 2291 3584 
Q 2894 3584 3203 3211 
Q 3513 2838 3513 2113 
z
" transform="scale(0.015625)"/>
       <path id="DejaVuSans-6f" d="M 1959 3097 
Q 1497 3097 1228 2736 
Q 959 2375 959 1747 
Q 959 1119 1226 758 
Q 1494 397 1959 397 
Q 2419 397 2687 759 
Q 2956 1122 2956 1747 
Q 2956 2369 2687 2733 
Q 2419 3097 1959 3097 
z
M 1959 3584 
Q 2709 3584 3137 3096 
Q 3566 2609 3566 1747 
Q 3566 888 3137 398 
Q 2709 -91 1959 -91 
Q 1206 -91 779 398 
Q 353 888 353 1747 
Q 353 2609 779 3096 
Q 1206 3584 1959 3584 
z
" transform="scale(0.015625)"/>
       <path id="DejaVuSans-20" transform="scale(0.015625)"/>
       <path id="DejaVuSans-76" d="M 191 3500 
L 800 3500 
L 1894 563 
L 2988 3500 
L 3597 3500 
L 2284 0 
L 1503 0 
L 191 3500 
z
" transform="scale(0.015625)"/>
       <path id="DejaVuSans-6c" d="M 603 4863 
L 1178 4863 
L 1178 0 
L 603 0 
L 603 4863 
z
" transform="scale(0.015625)"/>
       <path id="DejaVuSans-69" d="M 603 3500 
L 1178 3500 
L 1178 0 
L 603 0 
L 603 3500 
z
M 603 4863 
L 1178 4863 
L 1178 4134 
L 603 4134 
L 603 4863 
z
" transform="scale(0.015625)"/>
       <path id="DejaVuSans-6b" d="M 581 4863 
L 1159 4863 
L 1159 1991 
L 2875 3500 
L 3609 3500 
L 1753 1863 
L 3688 0 
L 2938 0 
L 1159 1709 
L 1159 0 
L 581 0 
L 581 4863 
z
" transform="scale(0.015625)"/>
       <path id="DejaVuSans-73" d="M 2834 3397 
L 2834 2853 
Q 2591 2978 2328 3040 
Q 2066 3103 1784 3103 
Q 1356 3103 1142 2972 
Q 928 2841 928 2578 
Q 928 2378 1081 2264 
Q 1234 2150 1697 2047 
L 1894 2003 
Q 2506 1872 2764 1633 
Q 3022 1394 3022 966 
Q 3022 478 2636 193 
Q 2250 -91 1575 -91 
Q 1294 -91 989 -36 
Q 684 19 347 128 
L 347 722 
Q 666 556 975 473 
Q 1284 391 1588 391 
Q 1994 391 2212 530 
Q 2431 669 2431 922 
Q 2431 1156 2273 1281 
Q 2116 1406 1581 1522 
L 1381 1569 
Q 847 1681 609 1914 
Q 372 2147 372 2553 
Q 372 3047 722 3315 
Q 1072 3584 1716 3584 
Q 2034 3584 2315 3537 
Q 2597 3491 2834 3397 
z
" transform="scale(0.015625)"/>
      </defs>
      <use xlink:href="#DejaVuSans-6e"/>
      <use xlink:href="#DejaVuSans-6f" x="63.378906"/>
      <use xlink:href="#DejaVuSans-20" x="124.560547"/>
      <use xlink:href="#DejaVuSans-76" x="156.347656"/>
      <use xlink:href="#DejaVuSans-6c" x="215.527344"/>
      <use xlink:href="#DejaVuSans-69" x="243.310547"/>
      <use xlink:href="#DejaVuSans-6e" x="271.09375"/>
      <use xlink:href="#DejaVuSans-6b" x="334.472656"/>
      <use xlink:href="#DejaVuSans-73" x="392.382812"/>
     </g>
    </g>
    <g id="line2d_28">
     <path d="M 83.01 54.007187 
L 97.01 54.007187 
L 111.01 54.007187 
" style="fill: none; stroke: #0000ff; stroke-width: 5"/>
    </g>
    <g id="text_16">
     <!-- vlinks -->
     <g transform="translate(122.21 58.907187) scale(0.14 -0.14)">
      <use xlink:href="#DejaVuSans-76"/>
      <use xlink:href="#DejaVuSans-6c" x="59.179688"/>
      <use xlink:href="#DejaVuSans-69" x="86.962891"/>
      <use xlink:href="#DejaVuSans-6e" x="114.746094"/>
      <use xlink:href="#DejaVuSans-6b" x="178.125"/>
      <use xlink:href="#DejaVuSans-73" x="236.035156"/>
     </g>
    </g>
   </g>
  </g>
 </g>
 <defs>
  <clipPath id="pfbcc9d5325">
   <rect x="70.41" y="15.12" width="778.47" height="364.02"/>
  </clipPath>
 </defs>
</svg>
