<?xml version="1.0" encoding="utf-8" standalone="no"?>
<!DOCTYPE svg PUBLIC "-//W3C//DTD SVG 1.1//EN"
  "http://www.w3.org/Graphics/SVG/1.1/DTD/svg11.dtd">
<svg xmlns:xlink="http://www.w3.org/1999/xlink" width="864pt" height="288pt" viewBox="0 0 864 288" xmlns="http://www.w3.org/2000/svg" version="1.1">
 <metadata>
  <rdf:RDF xmlns:dc="http://purl.org/dc/elements/1.1/" xmlns:cc="http://creativecommons.org/ns#" xmlns:rdf="http://www.w3.org/1999/02/22-rdf-syntax-ns#">
   <cc:Work>
    <dc:type rdf:resource="http://purl.org/dc/dcmitype/StillImage"/>
    <dc:date>2024-08-22T16:28:17.294945</dc:date>
    <dc:format>image/svg+xml</dc:format>
    <dc:creator>
     <cc:Agent>
      <dc:title>Matplotlib v3.9.0, https://matplotlib.org/</dc:title>
     </cc:Agent>
    </dc:creator>
   </cc:Work>
  </rdf:RDF>
 </metadata>
 <defs>
  <style type="text/css">*{stroke-linejoin: round; stroke-linecap: butt}</style>
 </defs>
 <g id="figure_1">
  <g id="patch_1">
   <path d="M 0 288 
L 864 288 
L 864 0 
L 0 0 
z
" style="fill: #ffffff"/>
  </g>
  <g id="axes_1">
   <g id="patch_2">
    <path d="M 84.882 235.14 
L 426.51 235.14 
L 426.51 15.12 
L 84.882 15.12 
z
" style="fill: #ffffff"/>
   </g>
   <g id="matplotlib.axis_1">
    <g id="xtick_1">
     <g id="line2d_1">
      <path d="M 149.448057 235.14 
L 149.448057 15.12 
" clip-path="url(#pb24f4f612a)" style="fill: none; stroke: #000000"/>
     </g>
     <g id="line2d_2"/>
     <g id="text_1">
      <!-- 20 -->
      <g transform="translate(140.540557 249.277812) scale(0.14 -0.14)">
       <defs>
        <path id="DejaVuSans-32" d="M 1228 531 
L 3431 531 
L 3431 0 
L 469 0 
L 469 531 
Q 828 903 1448 1529 
Q 2069 2156 2228 2338 
Q 2531 2678 2651 2914 
Q 2772 3150 2772 3378 
Q 2772 3750 2511 3984 
Q 2250 4219 1831 4219 
Q 1534 4219 1204 4116 
Q 875 4013 500 3803 
L 500 4441 
Q 881 4594 1212 4672 
Q 1544 4750 1819 4750 
Q 2544 4750 2975 4387 
Q 3406 4025 3406 3419 
Q 3406 3131 3298 2873 
Q 3191 2616 2906 2266 
Q 2828 2175 2409 1742 
Q 1991 1309 1228 531 
z
" transform="scale(0.015625)"/>
        <path id="DejaVuSans-30" d="M 2034 4250 
Q 1547 4250 1301 3770 
Q 1056 3291 1056 2328 
Q 1056 1369 1301 889 
Q 1547 409 2034 409 
Q 2525 409 2770 889 
Q 3016 1369 3016 2328 
Q 3016 3291 2770 3770 
Q 2525 4250 2034 4250 
z
M 2034 4750 
Q 2819 4750 3233 4129 
Q 3647 3509 3647 2328 
Q 3647 1150 3233 529 
Q 2819 -91 2034 -91 
Q 1250 -91 836 529 
Q 422 1150 422 2328 
Q 422 3509 836 4129 
Q 1250 4750 2034 4750 
z
" transform="scale(0.015625)"/>
       </defs>
       <use xlink:href="#DejaVuSans-32"/>
       <use xlink:href="#DejaVuSans-30" x="63.623047"/>
      </g>
     </g>
    </g>
    <g id="xtick_2">
     <g id="line2d_3">
      <path d="M 214.831407 235.14 
L 214.831407 15.12 
" clip-path="url(#pb24f4f612a)" style="fill: none; stroke: #000000"/>
     </g>
     <g id="line2d_4"/>
     <g id="text_2">
      <!-- 40 -->
      <g transform="translate(205.923907 249.277812) scale(0.14 -0.14)">
       <defs>
        <path id="DejaVuSans-34" d="M 2419 4116 
L 825 1625 
L 2419 1625 
L 2419 4116 
z
M 2253 4666 
L 3047 4666 
L 3047 1625 
L 3713 1625 
L 3713 1100 
L 3047 1100 
L 3047 0 
L 2419 0 
L 2419 1100 
L 313 1100 
L 313 1709 
L 2253 4666 
z
" transform="scale(0.015625)"/>
       </defs>
       <use xlink:href="#DejaVuSans-34"/>
       <use xlink:href="#DejaVuSans-30" x="63.623047"/>
      </g>
     </g>
    </g>
    <g id="xtick_3">
     <g id="line2d_5">
      <path d="M 280.214756 235.14 
L 280.214756 15.12 
" clip-path="url(#pb24f4f612a)" style="fill: none; stroke: #000000"/>
     </g>
     <g id="line2d_6"/>
     <g id="text_3">
      <!-- 60 -->
      <g transform="translate(271.307256 249.277812) scale(0.14 -0.14)">
       <defs>
        <path id="DejaVuSans-36" d="M 2113 2584 
Q 1688 2584 1439 2293 
Q 1191 2003 1191 1497 
Q 1191 994 1439 701 
Q 1688 409 2113 409 
Q 2538 409 2786 701 
Q 3034 994 3034 1497 
Q 3034 2003 2786 2293 
Q 2538 2584 2113 2584 
z
M 3366 4563 
L 3366 3988 
Q 3128 4100 2886 4159 
Q 2644 4219 2406 4219 
Q 1781 4219 1451 3797 
Q 1122 3375 1075 2522 
Q 1259 2794 1537 2939 
Q 1816 3084 2150 3084 
Q 2853 3084 3261 2657 
Q 3669 2231 3669 1497 
Q 3669 778 3244 343 
Q 2819 -91 2113 -91 
Q 1303 -91 875 529 
Q 447 1150 447 2328 
Q 447 3434 972 4092 
Q 1497 4750 2381 4750 
Q 2619 4750 2861 4703 
Q 3103 4656 3366 4563 
z
" transform="scale(0.015625)"/>
       </defs>
       <use xlink:href="#DejaVuSans-36"/>
       <use xlink:href="#DejaVuSans-30" x="63.623047"/>
      </g>
     </g>
    </g>
    <g id="xtick_4">
     <g id="line2d_7">
      <path d="M 345.598105 235.14 
L 345.598105 15.12 
" clip-path="url(#pb24f4f612a)" style="fill: none; stroke: #000000"/>
     </g>
     <g id="line2d_8"/>
     <g id="text_4">
      <!-- 80 -->
      <g transform="translate(336.690605 249.277812) scale(0.14 -0.14)">
       <defs>
        <path id="DejaVuSans-38" d="M 2034 2216 
Q 1584 2216 1326 1975 
Q 1069 1734 1069 1313 
Q 1069 891 1326 650 
Q 1584 409 2034 409 
Q 2484 409 2743 651 
Q 3003 894 3003 1313 
Q 3003 1734 2745 1975 
Q 2488 2216 2034 2216 
z
M 1403 2484 
Q 997 2584 770 2862 
Q 544 3141 544 3541 
Q 544 4100 942 4425 
Q 1341 4750 2034 4750 
Q 2731 4750 3128 4425 
Q 3525 4100 3525 3541 
Q 3525 3141 3298 2862 
Q 3072 2584 2669 2484 
Q 3125 2378 3379 2068 
Q 3634 1759 3634 1313 
Q 3634 634 3220 271 
Q 2806 -91 2034 -91 
Q 1263 -91 848 271 
Q 434 634 434 1313 
Q 434 1759 690 2068 
Q 947 2378 1403 2484 
z
M 1172 3481 
Q 1172 3119 1398 2916 
Q 1625 2713 2034 2713 
Q 2441 2713 2670 2916 
Q 2900 3119 2900 3481 
Q 2900 3844 2670 4047 
Q 2441 4250 2034 4250 
Q 1625 4250 1398 4047 
Q 1172 3844 1172 3481 
z
" transform="scale(0.015625)"/>
       </defs>
       <use xlink:href="#DejaVuSans-38"/>
       <use xlink:href="#DejaVuSans-30" x="63.623047"/>
      </g>
     </g>
    </g>
    <g id="xtick_5">
     <g id="line2d_9">
      <path d="M 410.981455 235.14 
L 410.981455 15.12 
" clip-path="url(#pb24f4f612a)" style="fill: none; stroke: #000000"/>
     </g>
     <g id="line2d_10"/>
     <g id="text_5">
      <!-- 100 -->
      <g transform="translate(397.620205 249.277812) scale(0.14 -0.14)">
       <defs>
        <path id="DejaVuSans-31" d="M 794 531 
L 1825 531 
L 1825 4091 
L 703 3866 
L 703 4441 
L 1819 4666 
L 2450 4666 
L 2450 531 
L 3481 531 
L 3481 0 
L 794 0 
L 794 531 
z
" transform="scale(0.015625)"/>
       </defs>
       <use xlink:href="#DejaVuSans-31"/>
       <use xlink:href="#DejaVuSans-30" x="63.623047"/>
       <use xlink:href="#DejaVuSans-30" x="127.246094"/>
      </g>
     </g>
    </g>
    <g id="text_6">
     <!-- # of nodes -->
     <g transform="translate(209.880562 268.95475) scale(0.168 -0.168)">
      <defs>
       <path id="DejaVuSans-23" d="M 3272 2816 
L 2363 2816 
L 2100 1772 
L 3016 1772 
L 3272 2816 
z
M 2803 4594 
L 2478 3297 
L 3391 3297 
L 3719 4594 
L 4219 4594 
L 3897 3297 
L 4872 3297 
L 4872 2816 
L 3775 2816 
L 3519 1772 
L 4513 1772 
L 4513 1294 
L 3397 1294 
L 3072 0 
L 2572 0 
L 2894 1294 
L 1978 1294 
L 1656 0 
L 1153 0 
L 1478 1294 
L 494 1294 
L 494 1772 
L 1594 1772 
L 1856 2816 
L 850 2816 
L 850 3297 
L 1978 3297 
L 2297 4594 
L 2803 4594 
z
" transform="scale(0.015625)"/>
       <path id="DejaVuSans-20" transform="scale(0.015625)"/>
       <path id="DejaVuSans-6f" d="M 1959 3097 
Q 1497 3097 1228 2736 
Q 959 2375 959 1747 
Q 959 1119 1226 758 
Q 1494 397 1959 397 
Q 2419 397 2687 759 
Q 2956 1122 2956 1747 
Q 2956 2369 2687 2733 
Q 2419 3097 1959 3097 
z
M 1959 3584 
Q 2709 3584 3137 3096 
Q 3566 2609 3566 1747 
Q 3566 888 3137 398 
Q 2709 -91 1959 -91 
Q 1206 -91 779 398 
Q 353 888 353 1747 
Q 353 2609 779 3096 
Q 1206 3584 1959 3584 
z
" transform="scale(0.015625)"/>
       <path id="DejaVuSans-66" d="M 2375 4863 
L 2375 4384 
L 1825 4384 
Q 1516 4384 1395 4259 
Q 1275 4134 1275 3809 
L 1275 3500 
L 2222 3500 
L 2222 3053 
L 1275 3053 
L 1275 0 
L 697 0 
L 697 3053 
L 147 3053 
L 147 3500 
L 697 3500 
L 697 3744 
Q 697 4328 969 4595 
Q 1241 4863 1831 4863 
L 2375 4863 
z
" transform="scale(0.015625)"/>
       <path id="DejaVuSans-6e" d="M 3513 2113 
L 3513 0 
L 2938 0 
L 2938 2094 
Q 2938 2591 2744 2837 
Q 2550 3084 2163 3084 
Q 1697 3084 1428 2787 
Q 1159 2491 1159 1978 
L 1159 0 
L 581 0 
L 581 3500 
L 1159 3500 
L 1159 2956 
Q 1366 3272 1645 3428 
Q 1925 3584 2291 3584 
Q 2894 3584 3203 3211 
Q 3513 2838 3513 2113 
z
" transform="scale(0.015625)"/>
       <path id="DejaVuSans-64" d="M 2906 2969 
L 2906 4863 
L 3481 4863 
L 3481 0 
L 2906 0 
L 2906 525 
Q 2725 213 2448 61 
Q 2172 -91 1784 -91 
Q 1150 -91 751 415 
Q 353 922 353 1747 
Q 353 2572 751 3078 
Q 1150 3584 1784 3584 
Q 2172 3584 2448 3432 
Q 2725 3281 2906 2969 
z
M 947 1747 
Q 947 1113 1208 752 
Q 1469 391 1925 391 
Q 2381 391 2643 752 
Q 2906 1113 2906 1747 
Q 2906 2381 2643 2742 
Q 2381 3103 1925 3103 
Q 1469 3103 1208 2742 
Q 947 2381 947 1747 
z
" transform="scale(0.015625)"/>
       <path id="DejaVuSans-65" d="M 3597 1894 
L 3597 1613 
L 953 1613 
Q 991 1019 1311 708 
Q 1631 397 2203 397 
Q 2534 397 2845 478 
Q 3156 559 3463 722 
L 3463 178 
Q 3153 47 2828 -22 
Q 2503 -91 2169 -91 
Q 1331 -91 842 396 
Q 353 884 353 1716 
Q 353 2575 817 3079 
Q 1281 3584 2069 3584 
Q 2775 3584 3186 3129 
Q 3597 2675 3597 1894 
z
M 3022 2063 
Q 3016 2534 2758 2815 
Q 2500 3097 2075 3097 
Q 1594 3097 1305 2825 
Q 1016 2553 972 2059 
L 3022 2063 
z
" transform="scale(0.015625)"/>
       <path id="DejaVuSans-73" d="M 2834 3397 
L 2834 2853 
Q 2591 2978 2328 3040 
Q 2066 3103 1784 3103 
Q 1356 3103 1142 2972 
Q 928 2841 928 2578 
Q 928 2378 1081 2264 
Q 1234 2150 1697 2047 
L 1894 2003 
Q 2506 1872 2764 1633 
Q 3022 1394 3022 966 
Q 3022 478 2636 193 
Q 2250 -91 1575 -91 
Q 1294 -91 989 -36 
Q 684 19 347 128 
L 347 722 
Q 666 556 975 473 
Q 1284 391 1588 391 
Q 1994 391 2212 530 
Q 2431 669 2431 922 
Q 2431 1156 2273 1281 
Q 2116 1406 1581 1522 
L 1381 1569 
Q 847 1681 609 1914 
Q 372 2147 372 2553 
Q 372 3047 722 3315 
Q 1072 3584 1716 3584 
Q 2034 3584 2315 3537 
Q 2597 3491 2834 3397 
z
" transform="scale(0.015625)"/>
      </defs>
      <use xlink:href="#DejaVuSans-23"/>
      <use xlink:href="#DejaVuSans-20" x="83.789062"/>
      <use xlink:href="#DejaVuSans-6f" x="115.576172"/>
      <use xlink:href="#DejaVuSans-66" x="176.757812"/>
      <use xlink:href="#DejaVuSans-20" x="211.962891"/>
      <use xlink:href="#DejaVuSans-6e" x="243.75"/>
      <use xlink:href="#DejaVuSans-6f" x="307.128906"/>
      <use xlink:href="#DejaVuSans-64" x="368.310547"/>
      <use xlink:href="#DejaVuSans-65" x="431.787109"/>
      <use xlink:href="#DejaVuSans-73" x="493.310547"/>
     </g>
    </g>
   </g>
   <g id="matplotlib.axis_2">
    <g id="ytick_1">
     <g id="line2d_11">
      <path d="M 84.882 235.14 
L 426.51 235.14 
" clip-path="url(#pb24f4f612a)" style="fill: none; stroke: #000000"/>
     </g>
     <g id="line2d_12"/>
     <g id="text_7">
      <!-- 0 -->
      <g transform="translate(72.4745 240.458906) scale(0.14 -0.14)">
       <use xlink:href="#DejaVuSans-30"/>
      </g>
     </g>
    </g>
    <g id="ytick_2">
     <g id="line2d_13">
      <path d="M 84.882 192.473388 
L 426.51 192.473388 
" clip-path="url(#pb24f4f612a)" style="fill: none; stroke: #000000"/>
     </g>
     <g id="line2d_14"/>
     <g id="text_8">
      <!-- 20 -->
      <g transform="translate(63.567 197.792294) scale(0.14 -0.14)">
       <use xlink:href="#DejaVuSans-32"/>
       <use xlink:href="#DejaVuSans-30" x="63.623047"/>
      </g>
     </g>
    </g>
    <g id="ytick_3">
     <g id="line2d_15">
      <path d="M 84.882 149.806776 
L 426.51 149.806776 
" clip-path="url(#pb24f4f612a)" style="fill: none; stroke: #000000"/>
     </g>
     <g id="line2d_16"/>
     <g id="text_9">
      <!-- 40 -->
      <g transform="translate(63.567 155.125682) scale(0.14 -0.14)">
       <use xlink:href="#DejaVuSans-34"/>
       <use xlink:href="#DejaVuSans-30" x="63.623047"/>
      </g>
     </g>
    </g>
    <g id="ytick_4">
     <g id="line2d_17">
      <path d="M 84.882 107.140164 
L 426.51 107.140164 
" clip-path="url(#pb24f4f612a)" style="fill: none; stroke: #000000"/>
     </g>
     <g id="line2d_18"/>
     <g id="text_10">
      <!-- 60 -->
      <g transform="translate(63.567 112.45907) scale(0.14 -0.14)">
       <use xlink:href="#DejaVuSans-36"/>
       <use xlink:href="#DejaVuSans-30" x="63.623047"/>
      </g>
     </g>
    </g>
    <g id="ytick_5">
     <g id="line2d_19">
      <path d="M 84.882 64.473552 
L 426.51 64.473552 
" clip-path="url(#pb24f4f612a)" style="fill: none; stroke: #000000"/>
     </g>
     <g id="line2d_20"/>
     <g id="text_11">
      <!-- 80 -->
      <g transform="translate(63.567 69.792458) scale(0.14 -0.14)">
       <use xlink:href="#DejaVuSans-38"/>
       <use xlink:href="#DejaVuSans-30" x="63.623047"/>
      </g>
     </g>
    </g>
    <g id="ytick_6">
     <g id="line2d_21">
      <path d="M 84.882 21.80694 
L 426.51 21.80694 
" clip-path="url(#pb24f4f612a)" style="fill: none; stroke: #000000"/>
     </g>
     <g id="line2d_22"/>
     <g id="text_12">
      <!-- 100 -->
      <g transform="translate(54.6595 27.125846) scale(0.14 -0.14)">
       <use xlink:href="#DejaVuSans-31"/>
       <use xlink:href="#DejaVuSans-30" x="63.623047"/>
       <use xlink:href="#DejaVuSans-30" x="127.246094"/>
      </g>
     </g>
    </g>
    <g id="text_13">
     <!-- Average # of -->
     <g transform="translate(28.3533 180.100125) rotate(-90) scale(0.168 -0.168)">
      <defs>
       <path id="DejaVuSans-41" d="M 2188 4044 
L 1331 1722 
L 3047 1722 
L 2188 4044 
z
M 1831 4666 
L 2547 4666 
L 4325 0 
L 3669 0 
L 3244 1197 
L 1141 1197 
L 716 0 
L 50 0 
L 1831 4666 
z
" transform="scale(0.015625)"/>
       <path id="DejaVuSans-76" d="M 191 3500 
L 800 3500 
L 1894 563 
L 2988 3500 
L 3597 3500 
L 2284 0 
L 1503 0 
L 191 3500 
z
" transform="scale(0.015625)"/>
       <path id="DejaVuSans-72" d="M 2631 2963 
Q 2534 3019 2420 3045 
Q 2306 3072 2169 3072 
Q 1681 3072 1420 2755 
Q 1159 2438 1159 1844 
L 1159 0 
L 581 0 
L 581 3500 
L 1159 3500 
L 1159 2956 
Q 1341 3275 1631 3429 
Q 1922 3584 2338 3584 
Q 2397 3584 2469 3576 
Q 2541 3569 2628 3553 
L 2631 2963 
z
" transform="scale(0.015625)"/>
       <path id="DejaVuSans-61" d="M 2194 1759 
Q 1497 1759 1228 1600 
Q 959 1441 959 1056 
Q 959 750 1161 570 
Q 1363 391 1709 391 
Q 2188 391 2477 730 
Q 2766 1069 2766 1631 
L 2766 1759 
L 2194 1759 
z
M 3341 1997 
L 3341 0 
L 2766 0 
L 2766 531 
Q 2569 213 2275 61 
Q 1981 -91 1556 -91 
Q 1019 -91 701 211 
Q 384 513 384 1019 
Q 384 1609 779 1909 
Q 1175 2209 1959 2209 
L 2766 2209 
L 2766 2266 
Q 2766 2663 2505 2880 
Q 2244 3097 1772 3097 
Q 1472 3097 1187 3025 
Q 903 2953 641 2809 
L 641 3341 
Q 956 3463 1253 3523 
Q 1550 3584 1831 3584 
Q 2591 3584 2966 3190 
Q 3341 2797 3341 1997 
z
" transform="scale(0.015625)"/>
       <path id="DejaVuSans-67" d="M 2906 1791 
Q 2906 2416 2648 2759 
Q 2391 3103 1925 3103 
Q 1463 3103 1205 2759 
Q 947 2416 947 1791 
Q 947 1169 1205 825 
Q 1463 481 1925 481 
Q 2391 481 2648 825 
Q 2906 1169 2906 1791 
z
M 3481 434 
Q 3481 -459 3084 -895 
Q 2688 -1331 1869 -1331 
Q 1566 -1331 1297 -1286 
Q 1028 -1241 775 -1147 
L 775 -588 
Q 1028 -725 1275 -790 
Q 1522 -856 1778 -856 
Q 2344 -856 2625 -561 
Q 2906 -266 2906 331 
L 2906 616 
Q 2728 306 2450 153 
Q 2172 0 1784 0 
Q 1141 0 747 490 
Q 353 981 353 1791 
Q 353 2603 747 3093 
Q 1141 3584 1784 3584 
Q 2172 3584 2450 3431 
Q 2728 3278 2906 2969 
L 2906 3500 
L 3481 3500 
L 3481 434 
z
" transform="scale(0.015625)"/>
      </defs>
      <use xlink:href="#DejaVuSans-41"/>
      <use xlink:href="#DejaVuSans-76" x="62.533203"/>
      <use xlink:href="#DejaVuSans-65" x="121.712891"/>
      <use xlink:href="#DejaVuSans-72" x="183.236328"/>
      <use xlink:href="#DejaVuSans-61" x="224.349609"/>
      <use xlink:href="#DejaVuSans-67" x="285.628906"/>
      <use xlink:href="#DejaVuSans-65" x="349.105469"/>
      <use xlink:href="#DejaVuSans-20" x="410.628906"/>
      <use xlink:href="#DejaVuSans-23" x="442.416016"/>
      <use xlink:href="#DejaVuSans-20" x="526.205078"/>
      <use xlink:href="#DejaVuSans-6f" x="557.992188"/>
      <use xlink:href="#DejaVuSans-66" x="619.173828"/>
     </g>
     <!-- swap operations -->
     <g transform="translate(47.165625 194.233125) rotate(-90) scale(0.168 -0.168)">
      <defs>
       <path id="DejaVuSans-77" d="M 269 3500 
L 844 3500 
L 1563 769 
L 2278 3500 
L 2956 3500 
L 3675 769 
L 4391 3500 
L 4966 3500 
L 4050 0 
L 3372 0 
L 2619 2869 
L 1863 0 
L 1184 0 
L 269 3500 
z
" transform="scale(0.015625)"/>
       <path id="DejaVuSans-70" d="M 1159 525 
L 1159 -1331 
L 581 -1331 
L 581 3500 
L 1159 3500 
L 1159 2969 
Q 1341 3281 1617 3432 
Q 1894 3584 2278 3584 
Q 2916 3584 3314 3078 
Q 3713 2572 3713 1747 
Q 3713 922 3314 415 
Q 2916 -91 2278 -91 
Q 1894 -91 1617 61 
Q 1341 213 1159 525 
z
M 3116 1747 
Q 3116 2381 2855 2742 
Q 2594 3103 2138 3103 
Q 1681 3103 1420 2742 
Q 1159 2381 1159 1747 
Q 1159 1113 1420 752 
Q 1681 391 2138 391 
Q 2594 391 2855 752 
Q 3116 1113 3116 1747 
z
" transform="scale(0.015625)"/>
       <path id="DejaVuSans-74" d="M 1172 4494 
L 1172 3500 
L 2356 3500 
L 2356 3053 
L 1172 3053 
L 1172 1153 
Q 1172 725 1289 603 
Q 1406 481 1766 481 
L 2356 481 
L 2356 0 
L 1766 0 
Q 1100 0 847 248 
Q 594 497 594 1153 
L 594 3053 
L 172 3053 
L 172 3500 
L 594 3500 
L 594 4494 
L 1172 4494 
z
" transform="scale(0.015625)"/>
       <path id="DejaVuSans-69" d="M 603 3500 
L 1178 3500 
L 1178 0 
L 603 0 
L 603 3500 
z
M 603 4863 
L 1178 4863 
L 1178 4134 
L 603 4134 
L 603 4863 
z
" transform="scale(0.015625)"/>
      </defs>
      <use xlink:href="#DejaVuSans-73"/>
      <use xlink:href="#DejaVuSans-77" x="52.099609"/>
      <use xlink:href="#DejaVuSans-61" x="133.886719"/>
      <use xlink:href="#DejaVuSans-70" x="195.166016"/>
      <use xlink:href="#DejaVuSans-20" x="258.642578"/>
      <use xlink:href="#DejaVuSans-6f" x="290.429688"/>
      <use xlink:href="#DejaVuSans-70" x="351.611328"/>
      <use xlink:href="#DejaVuSans-65" x="415.087891"/>
      <use xlink:href="#DejaVuSans-72" x="476.611328"/>
      <use xlink:href="#DejaVuSans-61" x="517.724609"/>
      <use xlink:href="#DejaVuSans-74" x="579.003906"/>
      <use xlink:href="#DejaVuSans-69" x="618.212891"/>
      <use xlink:href="#DejaVuSans-6f" x="645.996094"/>
      <use xlink:href="#DejaVuSans-6e" x="707.177734"/>
      <use xlink:href="#DejaVuSans-73" x="770.556641"/>
     </g>
    </g>
   </g>
   <g id="line2d_23">
    <path d="M 100.410545 228.740008 
L 103.679713 226.606678 
L 106.94888 224.473347 
L 110.218048 222.340016 
L 113.487215 220.206686 
L 116.756383 218.073355 
L 120.02555 215.940025 
L 123.294718 213.806694 
L 126.563885 211.673363 
L 129.833053 209.540033 
L 133.10222 207.406702 
L 136.371388 205.273372 
L 139.640555 203.140041 
L 142.909722 201.00671 
L 146.17889 198.87338 
L 149.448057 196.740049 
L 152.717225 194.606719 
L 155.986392 192.473388 
L 159.25556 190.340057 
L 162.524727 188.206727 
L 165.793895 186.073396 
L 169.063062 183.940066 
L 172.33223 181.806735 
L 175.601397 179.673404 
L 178.870565 177.540074 
L 182.139732 175.406743 
L 185.4089 173.273413 
L 188.678067 171.016101 
L 191.947234 168.88277 
L 195.216402 166.74944 
L 198.485569 164.616109 
L 201.754737 162.478503 
L 205.023904 160.345173 
L 208.293072 158.216117 
L 211.562239 156.078511 
L 214.831407 153.949456 
L 218.100574 151.816125 
L 221.369742 149.67852 
L 224.638909 147.549464 
L 227.908077 145.411858 
L 231.177244 143.282803 
L 234.446411 141.149472 
L 237.715579 139.016142 
L 240.984746 136.882811 
L 244.253914 134.745205 
L 247.523081 132.61615 
L 250.792249 130.482819 
L 254.061416 128.349489 
L 257.330584 126.216158 
L 260.599751 124.078552 
L 263.868919 121.949497 
L 267.138086 119.811891 
L 270.407254 117.682836 
L 273.676421 115.54523 
L 276.945589 113.416175 
L 280.214756 111.282844 
L 283.483923 109.145238 
L 286.753091 107.016183 
L 290.022258 104.625575 
L 293.291426 102.492245 
L 296.560593 100.358914 
L 299.829761 98.217016 
L 303.098928 96.092253 
L 306.368096 93.958922 
L 309.637263 91.821308 
L 312.906431 89.687977 
L 316.175598 87.558931 
L 319.444766 85.4256 
L 322.713933 83.292269 
L 325.9831 81.154655 
L 329.252268 79.021324 
L 332.521435 76.892278 
L 335.790603 74.754663 
L 339.05977 72.621333 
L 342.328938 70.488002 
L 345.598105 68.350388 
L 348.867273 66.217057 
L 352.13644 64.08801 
L 355.405608 61.958963 
L 358.674775 59.821349 
L 361.943943 57.688018 
L 365.21311 55.554688 
L 368.482278 53.425641 
L 371.751445 51.29231 
L 375.020612 49.154696 
L 378.28978 47.025649 
L 381.558947 44.888035 
L 384.828115 42.758988 
L 388.097282 40.625657 
L 391.36645 38.096657 
L 394.635617 35.963327 
L 397.904785 33.834289 
L 401.173952 31.700958 
L 404.44312 29.563335 
L 407.712287 27.434297 
L 410.981455 25.292381 
" clip-path="url(#pb24f4f612a)" style="fill: none; stroke: #ff0000; stroke-width: 4"/>
   </g>
   <g id="patch_3">
    <path d="M 84.882 235.14 
L 84.882 15.12 
" style="fill: none; stroke: #000000; stroke-width: 3; stroke-linejoin: miter; stroke-linecap: square"/>
   </g>
   <g id="patch_4">
    <path d="M 426.51 235.14 
L 426.51 15.12 
" style="fill: none; stroke: #000000; stroke-width: 3; stroke-linejoin: miter; stroke-linecap: square"/>
   </g>
   <g id="patch_5">
    <path d="M 84.882 235.14 
L 426.51 235.14 
" style="fill: none; stroke: #000000; stroke-width: 3; stroke-linejoin: miter; stroke-linecap: square"/>
   </g>
   <g id="patch_6">
    <path d="M 84.882 15.12 
L 426.51 15.12 
" style="fill: none; stroke: #000000; stroke-width: 3; stroke-linejoin: miter; stroke-linecap: square"/>
   </g>
   <g id="legend_1">
    <g id="patch_7">
     <path d="M 94.682 46.869375 
L 201.707625 46.869375 
Q 204.507625 46.869375 204.507625 44.069375 
L 204.507625 24.92 
Q 204.507625 22.12 201.707625 22.12 
L 94.682 22.12 
Q 91.882 22.12 91.882 24.92 
L 91.882 44.069375 
Q 91.882 46.869375 94.682 46.869375 
z
" style="fill: #ffffff; opacity: 0.8; stroke: #cccccc; stroke-width: 0.5; stroke-linejoin: miter"/>
    </g>
    <g id="line2d_24">
     <path d="M 97.482 33.457812 
L 111.482 33.457812 
L 125.482 33.457812 
" style="fill: none; stroke: #ff0000; stroke-width: 4"/>
    </g>
    <g id="text_14">
     <!-- no vlinks -->
     <g transform="translate(136.682 38.357812) scale(0.14 -0.14)">
      <defs>
       <path id="DejaVuSans-6c" d="M 603 4863 
L 1178 4863 
L 1178 0 
L 603 0 
L 603 4863 
z
" transform="scale(0.015625)"/>
       <path id="DejaVuSans-6b" d="M 581 4863 
L 1159 4863 
L 1159 1991 
L 2875 3500 
L 3609 3500 
L 1753 1863 
L 3688 0 
L 2938 0 
L 1159 1709 
L 1159 0 
L 581 0 
L 581 4863 
z
" transform="scale(0.015625)"/>
      </defs>
      <use xlink:href="#DejaVuSans-6e"/>
      <use xlink:href="#DejaVuSans-6f" x="63.378906"/>
      <use xlink:href="#DejaVuSans-20" x="124.560547"/>
      <use xlink:href="#DejaVuSans-76" x="156.347656"/>
      <use xlink:href="#DejaVuSans-6c" x="215.527344"/>
      <use xlink:href="#DejaVuSans-69" x="243.310547"/>
      <use xlink:href="#DejaVuSans-6e" x="271.09375"/>
      <use xlink:href="#DejaVuSans-6b" x="334.472656"/>
      <use xlink:href="#DejaVuSans-73" x="392.382812"/>
     </g>
    </g>
   </g>
  </g>
  <g id="axes_2">
   <g id="patch_8">
    <path d="M 507.252 235.14 
L 848.88 235.14 
L 848.88 15.12 
L 507.252 15.12 
z
" style="fill: #ffffff"/>
   </g>
   <g id="matplotlib.axis_3">
    <g id="xtick_6">
     <g id="line2d_25">
      <path d="M 571.818057 235.14 
L 571.818057 15.12 
" clip-path="url(#pf6e65ab979)" style="fill: none; stroke: #000000"/>
     </g>
     <g id="line2d_26"/>
     <g id="text_15">
      <!-- 20 -->
      <g transform="translate(562.910557 249.277812) scale(0.14 -0.14)">
       <use xlink:href="#DejaVuSans-32"/>
       <use xlink:href="#DejaVuSans-30" x="63.623047"/>
      </g>
     </g>
    </g>
    <g id="xtick_7">
     <g id="line2d_27">
      <path d="M 637.201407 235.14 
L 637.201407 15.12 
" clip-path="url(#pf6e65ab979)" style="fill: none; stroke: #000000"/>
     </g>
     <g id="line2d_28"/>
     <g id="text_16">
      <!-- 40 -->
      <g transform="translate(628.293907 249.277812) scale(0.14 -0.14)">
       <use xlink:href="#DejaVuSans-34"/>
       <use xlink:href="#DejaVuSans-30" x="63.623047"/>
      </g>
     </g>
    </g>
    <g id="xtick_8">
     <g id="line2d_29">
      <path d="M 702.584756 235.14 
L 702.584756 15.12 
" clip-path="url(#pf6e65ab979)" style="fill: none; stroke: #000000"/>
     </g>
     <g id="line2d_30"/>
     <g id="text_17">
      <!-- 60 -->
      <g transform="translate(693.677256 249.277812) scale(0.14 -0.14)">
       <use xlink:href="#DejaVuSans-36"/>
       <use xlink:href="#DejaVuSans-30" x="63.623047"/>
      </g>
     </g>
    </g>
    <g id="xtick_9">
     <g id="line2d_31">
      <path d="M 767.968105 235.14 
L 767.968105 15.12 
" clip-path="url(#pf6e65ab979)" style="fill: none; stroke: #000000"/>
     </g>
     <g id="line2d_32"/>
     <g id="text_18">
      <!-- 80 -->
      <g transform="translate(759.060605 249.277812) scale(0.14 -0.14)">
       <use xlink:href="#DejaVuSans-38"/>
       <use xlink:href="#DejaVuSans-30" x="63.623047"/>
      </g>
     </g>
    </g>
    <g id="xtick_10">
     <g id="line2d_33">
      <path d="M 833.351455 235.14 
L 833.351455 15.12 
" clip-path="url(#pf6e65ab979)" style="fill: none; stroke: #000000"/>
     </g>
     <g id="line2d_34"/>
     <g id="text_19">
      <!-- 100 -->
      <g transform="translate(819.990205 249.277812) scale(0.14 -0.14)">
       <use xlink:href="#DejaVuSans-31"/>
       <use xlink:href="#DejaVuSans-30" x="63.623047"/>
       <use xlink:href="#DejaVuSans-30" x="127.246094"/>
      </g>
     </g>
    </g>
    <g id="text_20">
     <!-- # of nodes -->
     <g transform="translate(632.250562 268.95475) scale(0.168 -0.168)">
      <use xlink:href="#DejaVuSans-23"/>
      <use xlink:href="#DejaVuSans-20" x="83.789062"/>
      <use xlink:href="#DejaVuSans-6f" x="115.576172"/>
      <use xlink:href="#DejaVuSans-66" x="176.757812"/>
      <use xlink:href="#DejaVuSans-20" x="211.962891"/>
      <use xlink:href="#DejaVuSans-6e" x="243.75"/>
      <use xlink:href="#DejaVuSans-6f" x="307.128906"/>
      <use xlink:href="#DejaVuSans-64" x="368.310547"/>
      <use xlink:href="#DejaVuSans-65" x="431.787109"/>
      <use xlink:href="#DejaVuSans-73" x="493.310547"/>
     </g>
    </g>
   </g>
   <g id="matplotlib.axis_4">
    <g id="ytick_7">
     <g id="line2d_35">
      <path d="M 507.252 235.14 
L 848.88 235.14 
" clip-path="url(#pf6e65ab979)" style="fill: none; stroke: #000000"/>
     </g>
     <g id="line2d_36"/>
     <g id="text_21">
      <!-- 0.0 -->
      <g transform="translate(481.487625 240.458906) scale(0.14 -0.14)">
       <defs>
        <path id="DejaVuSans-2e" d="M 684 794 
L 1344 794 
L 1344 0 
L 684 0 
L 684 794 
z
" transform="scale(0.015625)"/>
       </defs>
       <use xlink:href="#DejaVuSans-30"/>
       <use xlink:href="#DejaVuSans-2e" x="63.623047"/>
       <use xlink:href="#DejaVuSans-30" x="95.410156"/>
      </g>
     </g>
    </g>
    <g id="ytick_8">
     <g id="line2d_37">
      <path d="M 507.252 183.002559 
L 848.88 183.002559 
" clip-path="url(#pf6e65ab979)" style="fill: none; stroke: #000000"/>
     </g>
     <g id="line2d_38"/>
     <g id="text_22">
      <!-- 0.5 -->
      <g transform="translate(481.487625 188.321465) scale(0.14 -0.14)">
       <defs>
        <path id="DejaVuSans-35" d="M 691 4666 
L 3169 4666 
L 3169 4134 
L 1269 4134 
L 1269 2991 
Q 1406 3038 1543 3061 
Q 1681 3084 1819 3084 
Q 2600 3084 3056 2656 
Q 3513 2228 3513 1497 
Q 3513 744 3044 326 
Q 2575 -91 1722 -91 
Q 1428 -91 1123 -41 
Q 819 9 494 109 
L 494 744 
Q 775 591 1075 516 
Q 1375 441 1709 441 
Q 2250 441 2565 725 
Q 2881 1009 2881 1497 
Q 2881 1984 2565 2268 
Q 2250 2553 1709 2553 
Q 1456 2553 1204 2497 
Q 953 2441 691 2322 
L 691 4666 
z
" transform="scale(0.015625)"/>
       </defs>
       <use xlink:href="#DejaVuSans-30"/>
       <use xlink:href="#DejaVuSans-2e" x="63.623047"/>
       <use xlink:href="#DejaVuSans-35" x="95.410156"/>
      </g>
     </g>
    </g>
    <g id="ytick_9">
     <g id="line2d_39">
      <path d="M 507.252 130.865118 
L 848.88 130.865118 
" clip-path="url(#pf6e65ab979)" style="fill: none; stroke: #000000"/>
     </g>
     <g id="line2d_40"/>
     <g id="text_23">
      <!-- 1.0 -->
      <g transform="translate(481.487625 136.184025) scale(0.14 -0.14)">
       <use xlink:href="#DejaVuSans-31"/>
       <use xlink:href="#DejaVuSans-2e" x="63.623047"/>
       <use xlink:href="#DejaVuSans-30" x="95.410156"/>
      </g>
     </g>
    </g>
    <g id="ytick_10">
     <g id="line2d_41">
      <path d="M 507.252 78.727678 
L 848.88 78.727678 
" clip-path="url(#pf6e65ab979)" style="fill: none; stroke: #000000"/>
     </g>
     <g id="line2d_42"/>
     <g id="text_24">
      <!-- 1.5 -->
      <g transform="translate(481.487625 84.046584) scale(0.14 -0.14)">
       <use xlink:href="#DejaVuSans-31"/>
       <use xlink:href="#DejaVuSans-2e" x="63.623047"/>
       <use xlink:href="#DejaVuSans-35" x="95.410156"/>
      </g>
     </g>
    </g>
    <g id="ytick_11">
     <g id="line2d_43">
      <path d="M 507.252 26.590237 
L 848.88 26.590237 
" clip-path="url(#pf6e65ab979)" style="fill: none; stroke: #000000"/>
     </g>
     <g id="line2d_44"/>
     <g id="text_25">
      <!-- 2.0 -->
      <g transform="translate(481.487625 31.909143) scale(0.14 -0.14)">
       <use xlink:href="#DejaVuSans-32"/>
       <use xlink:href="#DejaVuSans-2e" x="63.623047"/>
       <use xlink:href="#DejaVuSans-30" x="95.410156"/>
      </g>
     </g>
    </g>
    <g id="text_26">
     <!-- Average # of -->
     <g transform="translate(455.181425 180.100125) rotate(-90) scale(0.168 -0.168)">
      <use xlink:href="#DejaVuSans-41"/>
      <use xlink:href="#DejaVuSans-76" x="62.533203"/>
      <use xlink:href="#DejaVuSans-65" x="121.712891"/>
      <use xlink:href="#DejaVuSans-72" x="183.236328"/>
      <use xlink:href="#DejaVuSans-61" x="224.349609"/>
      <use xlink:href="#DejaVuSans-67" x="285.628906"/>
      <use xlink:href="#DejaVuSans-65" x="349.105469"/>
      <use xlink:href="#DejaVuSans-20" x="410.628906"/>
      <use xlink:href="#DejaVuSans-23" x="442.416016"/>
      <use xlink:href="#DejaVuSans-20" x="526.205078"/>
      <use xlink:href="#DejaVuSans-6f" x="557.992188"/>
      <use xlink:href="#DejaVuSans-66" x="619.173828"/>
     </g>
     <!-- swap operations -->
     <g transform="translate(473.99375 194.233125) rotate(-90) scale(0.168 -0.168)">
      <use xlink:href="#DejaVuSans-73"/>
      <use xlink:href="#DejaVuSans-77" x="52.099609"/>
      <use xlink:href="#DejaVuSans-61" x="133.886719"/>
      <use xlink:href="#DejaVuSans-70" x="195.166016"/>
      <use xlink:href="#DejaVuSans-20" x="258.642578"/>
      <use xlink:href="#DejaVuSans-6f" x="290.429688"/>
      <use xlink:href="#DejaVuSans-70" x="351.611328"/>
      <use xlink:href="#DejaVuSans-65" x="415.087891"/>
      <use xlink:href="#DejaVuSans-72" x="476.611328"/>
      <use xlink:href="#DejaVuSans-61" x="517.724609"/>
      <use xlink:href="#DejaVuSans-74" x="579.003906"/>
      <use xlink:href="#DejaVuSans-69" x="618.212891"/>
      <use xlink:href="#DejaVuSans-6f" x="645.996094"/>
      <use xlink:href="#DejaVuSans-6e" x="707.177734"/>
      <use xlink:href="#DejaVuSans-73" x="770.556641"/>
     </g>
    </g>
   </g>
   <g id="line2d_45">
    <path d="M 522.780545 26.590237 
L 526.049713 26.590237 
L 529.31888 26.590237 
L 532.588048 26.590237 
L 535.857215 26.590237 
L 539.126383 26.590237 
L 542.39555 26.590237 
L 545.664718 26.590237 
L 548.933885 26.590237 
L 552.203053 26.590237 
L 555.47222 26.590237 
L 558.741388 26.590237 
L 562.010555 26.590237 
L 565.279722 26.590237 
L 568.54889 26.590237 
L 571.818057 26.590237 
L 575.087225 26.590237 
L 578.356392 26.590237 
L 581.62556 26.590237 
L 584.894727 26.590237 
L 588.163895 26.590237 
L 591.433062 26.590237 
L 594.70223 26.590237 
L 597.971397 26.590237 
L 601.240565 26.590237 
L 604.509732 26.590237 
L 607.7789 26.590237 
L 611.048067 26.590237 
L 614.317234 26.590237 
L 617.586402 26.590237 
L 620.855569 26.590237 
L 624.124737 26.590237 
L 627.393904 26.590237 
L 630.663072 26.590237 
L 633.932239 26.590237 
L 637.201407 26.590237 
L 640.470574 26.590237 
L 643.739742 26.590237 
L 647.008909 26.590237 
L 650.278077 26.590237 
L 653.547244 26.590237 
L 656.816411 26.590237 
L 660.085579 26.590237 
L 663.354746 26.590237 
L 666.623914 26.590237 
L 669.893081 26.590237 
L 673.162249 26.590237 
L 676.431416 26.590237 
L 679.700584 26.590237 
L 682.969751 26.590237 
L 686.238919 26.590237 
L 689.508086 26.590237 
L 692.777254 26.590237 
L 696.046421 26.590237 
L 699.315589 26.590237 
L 702.584756 26.590237 
L 705.853923 26.590237 
L 709.123091 26.590237 
L 712.392258 26.590237 
L 715.661426 26.590237 
L 718.930593 26.590237 
L 722.199761 26.590237 
L 725.468928 26.590237 
L 728.738096 26.590237 
L 732.007263 26.590237 
L 735.276431 26.590237 
L 738.545598 26.590237 
L 741.814766 26.590237 
L 745.083933 26.590237 
L 748.3531 26.590237 
L 751.622268 26.590237 
L 754.891435 26.590237 
L 758.160603 26.590237 
L 761.42977 26.590237 
L 764.698938 26.590237 
L 767.968105 26.590237 
L 771.237273 26.590237 
L 774.50644 26.590237 
L 777.775608 26.590237 
L 781.044775 26.590237 
L 784.313943 26.590237 
L 787.58311 26.590237 
L 790.852278 26.590237 
L 794.121445 26.590237 
L 797.390612 26.590237 
L 800.65978 26.590237 
L 803.928947 26.590237 
L 807.198115 26.590237 
L 810.467282 26.590237 
L 813.73645 26.590237 
L 817.005617 26.590237 
L 820.274785 26.590237 
L 823.543952 26.590237 
L 826.81312 26.590237 
L 830.082287 26.590237 
L 833.351455 26.590237 
" clip-path="url(#pf6e65ab979)" style="fill: none; stroke: #0000ff; stroke-width: 4"/>
   </g>
   <g id="patch_9">
    <path d="M 507.252 235.14 
L 507.252 15.12 
" style="fill: none; stroke: #000000; stroke-width: 3; stroke-linejoin: miter; stroke-linecap: square"/>
   </g>
   <g id="patch_10">
    <path d="M 848.88 235.14 
L 848.88 15.12 
" style="fill: none; stroke: #000000; stroke-width: 3; stroke-linejoin: miter; stroke-linecap: square"/>
   </g>
   <g id="patch_11">
    <path d="M 507.252 235.14 
L 848.88 235.14 
" style="fill: none; stroke: #000000; stroke-width: 3; stroke-linejoin: miter; stroke-linecap: square"/>
   </g>
   <g id="patch_12">
    <path d="M 507.252 15.12 
L 848.88 15.12 
" style="fill: none; stroke: #000000; stroke-width: 3; stroke-linejoin: miter; stroke-linecap: square"/>
   </g>
   <g id="legend_2">
    <g id="patch_13">
     <path d="M 517.052 228.14 
L 602.1895 228.14 
Q 604.9895 228.14 604.9895 225.34 
L 604.9895 206.190625 
Q 604.9895 203.390625 602.1895 203.390625 
L 517.052 203.390625 
Q 514.252 203.390625 514.252 206.190625 
L 514.252 225.34 
Q 514.252 228.14 517.052 228.14 
z
" style="fill: #ffffff; opacity: 0.8; stroke: #cccccc; stroke-width: 0.5; stroke-linejoin: miter"/>
    </g>
    <g id="line2d_46">
     <path d="M 519.852 214.728437 
L 533.852 214.728437 
L 547.852 214.728437 
" style="fill: none; stroke: #0000ff; stroke-width: 4"/>
    </g>
    <g id="text_27">
     <!-- vlinks -->
     <g transform="translate(559.052 219.628437) scale(0.14 -0.14)">
      <use xlink:href="#DejaVuSans-76"/>
      <use xlink:href="#DejaVuSans-6c" x="59.179688"/>
      <use xlink:href="#DejaVuSans-69" x="86.962891"/>
      <use xlink:href="#DejaVuSans-6e" x="114.746094"/>
      <use xlink:href="#DejaVuSans-6b" x="178.125"/>
      <use xlink:href="#DejaVuSans-73" x="236.035156"/>
     </g>
    </g>
   </g>
  </g>
 </g>
 <defs>
  <clipPath id="pb24f4f612a">
   <rect x="84.882" y="15.12" width="341.628" height="220.02"/>
  </clipPath>
  <clipPath id="pf6e65ab979">
   <rect x="507.252" y="15.12" width="341.628" height="220.02"/>
  </clipPath>
 </defs>
</svg>
