<?xml version="1.0" encoding="utf-8" standalone="no"?>
<!DOCTYPE svg PUBLIC "-//W3C//DTD SVG 1.1//EN"
  "http://www.w3.org/Graphics/SVG/1.1/DTD/svg11.dtd">
<svg xmlns:xlink="http://www.w3.org/1999/xlink" width="864pt" height="288pt" viewBox="0 0 864 288" xmlns="http://www.w3.org/2000/svg" version="1.1">
 <metadata>
  <rdf:RDF xmlns:dc="http://purl.org/dc/elements/1.1/" xmlns:cc="http://creativecommons.org/ns#" xmlns:rdf="http://www.w3.org/1999/02/22-rdf-syntax-ns#">
   <cc:Work>
    <dc:type rdf:resource="http://purl.org/dc/dcmitype/StillImage"/>
    <dc:date>2024-08-30T20:48:55.260518</dc:date>
    <dc:format>image/svg+xml</dc:format>
    <dc:creator>
     <cc:Agent>
      <dc:title>Matplotlib v3.9.0, https://matplotlib.org/</dc:title>
     </cc:Agent>
    </dc:creator>
   </cc:Work>
  </rdf:RDF>
 </metadata>
 <defs>
  <style type="text/css">*{stroke-linejoin: round; stroke-linecap: butt}</style>
 </defs>
 <g id="figure_1">
  <g id="patch_1">
   <path d="M 0 288 
L 864 288 
L 864 0 
L 0 0 
z
" style="fill: #ffffff"/>
  </g>
  <g id="axes_1">
   <g id="patch_2">
    <path d="M 83.46 235.14 
L 428.895 235.14 
L 428.895 15.12 
L 83.46 15.12 
z
" style="fill: #ffffff"/>
   </g>
   <g id="matplotlib.axis_1">
    <g id="xtick_1">
     <g id="line2d_1">
      <path d="M 148.745562 235.14 
L 148.745562 15.12 
" clip-path="url(#p9b67e678fa)" style="fill: none; stroke: #000000"/>
     </g>
     <g id="line2d_2"/>
     <g id="text_1">
      <!-- 20 -->
      <g transform="translate(139.838062 249.277812) scale(0.14 -0.14)">
       <defs>
        <path id="DejaVuSans-32" d="M 1228 531 
L 3431 531 
L 3431 0 
L 469 0 
L 469 531 
Q 828 903 1448 1529 
Q 2069 2156 2228 2338 
Q 2531 2678 2651 2914 
Q 2772 3150 2772 3378 
Q 2772 3750 2511 3984 
Q 2250 4219 1831 4219 
Q 1534 4219 1204 4116 
Q 875 4013 500 3803 
L 500 4441 
Q 881 4594 1212 4672 
Q 1544 4750 1819 4750 
Q 2544 4750 2975 4387 
Q 3406 4025 3406 3419 
Q 3406 3131 3298 2873 
Q 3191 2616 2906 2266 
Q 2828 2175 2409 1742 
Q 1991 1309 1228 531 
z
" transform="scale(0.015625)"/>
        <path id="DejaVuSans-30" d="M 2034 4250 
Q 1547 4250 1301 3770 
Q 1056 3291 1056 2328 
Q 1056 1369 1301 889 
Q 1547 409 2034 409 
Q 2525 409 2770 889 
Q 3016 1369 3016 2328 
Q 3016 3291 2770 3770 
Q 2525 4250 2034 4250 
z
M 2034 4750 
Q 2819 4750 3233 4129 
Q 3647 3509 3647 2328 
Q 3647 1150 3233 529 
Q 2819 -91 2034 -91 
Q 1250 -91 836 529 
Q 422 1150 422 2328 
Q 422 3509 836 4129 
Q 1250 4750 2034 4750 
z
" transform="scale(0.015625)"/>
       </defs>
       <use xlink:href="#DejaVuSans-32"/>
       <use xlink:href="#DejaVuSans-30" x="63.623047"/>
      </g>
     </g>
    </g>
    <g id="xtick_2">
     <g id="line2d_3">
      <path d="M 214.857524 235.14 
L 214.857524 15.12 
" clip-path="url(#p9b67e678fa)" style="fill: none; stroke: #000000"/>
     </g>
     <g id="line2d_4"/>
     <g id="text_2">
      <!-- 40 -->
      <g transform="translate(205.950024 249.277812) scale(0.14 -0.14)">
       <defs>
        <path id="DejaVuSans-34" d="M 2419 4116 
L 825 1625 
L 2419 1625 
L 2419 4116 
z
M 2253 4666 
L 3047 4666 
L 3047 1625 
L 3713 1625 
L 3713 1100 
L 3047 1100 
L 3047 0 
L 2419 0 
L 2419 1100 
L 313 1100 
L 313 1709 
L 2253 4666 
z
" transform="scale(0.015625)"/>
       </defs>
       <use xlink:href="#DejaVuSans-34"/>
       <use xlink:href="#DejaVuSans-30" x="63.623047"/>
      </g>
     </g>
    </g>
    <g id="xtick_3">
     <g id="line2d_5">
      <path d="M 280.969486 235.14 
L 280.969486 15.12 
" clip-path="url(#p9b67e678fa)" style="fill: none; stroke: #000000"/>
     </g>
     <g id="line2d_6"/>
     <g id="text_3">
      <!-- 60 -->
      <g transform="translate(272.061986 249.277812) scale(0.14 -0.14)">
       <defs>
        <path id="DejaVuSans-36" d="M 2113 2584 
Q 1688 2584 1439 2293 
Q 1191 2003 1191 1497 
Q 1191 994 1439 701 
Q 1688 409 2113 409 
Q 2538 409 2786 701 
Q 3034 994 3034 1497 
Q 3034 2003 2786 2293 
Q 2538 2584 2113 2584 
z
M 3366 4563 
L 3366 3988 
Q 3128 4100 2886 4159 
Q 2644 4219 2406 4219 
Q 1781 4219 1451 3797 
Q 1122 3375 1075 2522 
Q 1259 2794 1537 2939 
Q 1816 3084 2150 3084 
Q 2853 3084 3261 2657 
Q 3669 2231 3669 1497 
Q 3669 778 3244 343 
Q 2819 -91 2113 -91 
Q 1303 -91 875 529 
Q 447 1150 447 2328 
Q 447 3434 972 4092 
Q 1497 4750 2381 4750 
Q 2619 4750 2861 4703 
Q 3103 4656 3366 4563 
z
" transform="scale(0.015625)"/>
       </defs>
       <use xlink:href="#DejaVuSans-36"/>
       <use xlink:href="#DejaVuSans-30" x="63.623047"/>
      </g>
     </g>
    </g>
    <g id="xtick_4">
     <g id="line2d_7">
      <path d="M 347.081447 235.14 
L 347.081447 15.12 
" clip-path="url(#p9b67e678fa)" style="fill: none; stroke: #000000"/>
     </g>
     <g id="line2d_8"/>
     <g id="text_4">
      <!-- 80 -->
      <g transform="translate(338.173947 249.277812) scale(0.14 -0.14)">
       <defs>
        <path id="DejaVuSans-38" d="M 2034 2216 
Q 1584 2216 1326 1975 
Q 1069 1734 1069 1313 
Q 1069 891 1326 650 
Q 1584 409 2034 409 
Q 2484 409 2743 651 
Q 3003 894 3003 1313 
Q 3003 1734 2745 1975 
Q 2488 2216 2034 2216 
z
M 1403 2484 
Q 997 2584 770 2862 
Q 544 3141 544 3541 
Q 544 4100 942 4425 
Q 1341 4750 2034 4750 
Q 2731 4750 3128 4425 
Q 3525 4100 3525 3541 
Q 3525 3141 3298 2862 
Q 3072 2584 2669 2484 
Q 3125 2378 3379 2068 
Q 3634 1759 3634 1313 
Q 3634 634 3220 271 
Q 2806 -91 2034 -91 
Q 1263 -91 848 271 
Q 434 634 434 1313 
Q 434 1759 690 2068 
Q 947 2378 1403 2484 
z
M 1172 3481 
Q 1172 3119 1398 2916 
Q 1625 2713 2034 2713 
Q 2441 2713 2670 2916 
Q 2900 3119 2900 3481 
Q 2900 3844 2670 4047 
Q 2441 4250 2034 4250 
Q 1625 4250 1398 4047 
Q 1172 3844 1172 3481 
z
" transform="scale(0.015625)"/>
       </defs>
       <use xlink:href="#DejaVuSans-38"/>
       <use xlink:href="#DejaVuSans-30" x="63.623047"/>
      </g>
     </g>
    </g>
    <g id="xtick_5">
     <g id="line2d_9">
      <path d="M 413.193409 235.14 
L 413.193409 15.12 
" clip-path="url(#p9b67e678fa)" style="fill: none; stroke: #000000"/>
     </g>
     <g id="line2d_10"/>
     <g id="text_5">
      <!-- 100 -->
      <g transform="translate(399.832159 249.277812) scale(0.14 -0.14)">
       <defs>
        <path id="DejaVuSans-31" d="M 794 531 
L 1825 531 
L 1825 4091 
L 703 3866 
L 703 4441 
L 1819 4666 
L 2450 4666 
L 2450 531 
L 3481 531 
L 3481 0 
L 794 0 
L 794 531 
z
" transform="scale(0.015625)"/>
       </defs>
       <use xlink:href="#DejaVuSans-31"/>
       <use xlink:href="#DejaVuSans-30" x="63.623047"/>
       <use xlink:href="#DejaVuSans-30" x="127.246094"/>
      </g>
     </g>
    </g>
    <g id="text_6">
     <!-- # of nodes -->
     <g transform="translate(210.362063 268.95475) scale(0.168 -0.168)">
      <defs>
       <path id="DejaVuSans-23" d="M 3272 2816 
L 2363 2816 
L 2100 1772 
L 3016 1772 
L 3272 2816 
z
M 2803 4594 
L 2478 3297 
L 3391 3297 
L 3719 4594 
L 4219 4594 
L 3897 3297 
L 4872 3297 
L 4872 2816 
L 3775 2816 
L 3519 1772 
L 4513 1772 
L 4513 1294 
L 3397 1294 
L 3072 0 
L 2572 0 
L 2894 1294 
L 1978 1294 
L 1656 0 
L 1153 0 
L 1478 1294 
L 494 1294 
L 494 1772 
L 1594 1772 
L 1856 2816 
L 850 2816 
L 850 3297 
L 1978 3297 
L 2297 4594 
L 2803 4594 
z
" transform="scale(0.015625)"/>
       <path id="DejaVuSans-20" transform="scale(0.015625)"/>
       <path id="DejaVuSans-6f" d="M 1959 3097 
Q 1497 3097 1228 2736 
Q 959 2375 959 1747 
Q 959 1119 1226 758 
Q 1494 397 1959 397 
Q 2419 397 2687 759 
Q 2956 1122 2956 1747 
Q 2956 2369 2687 2733 
Q 2419 3097 1959 3097 
z
M 1959 3584 
Q 2709 3584 3137 3096 
Q 3566 2609 3566 1747 
Q 3566 888 3137 398 
Q 2709 -91 1959 -91 
Q 1206 -91 779 398 
Q 353 888 353 1747 
Q 353 2609 779 3096 
Q 1206 3584 1959 3584 
z
" transform="scale(0.015625)"/>
       <path id="DejaVuSans-66" d="M 2375 4863 
L 2375 4384 
L 1825 4384 
Q 1516 4384 1395 4259 
Q 1275 4134 1275 3809 
L 1275 3500 
L 2222 3500 
L 2222 3053 
L 1275 3053 
L 1275 0 
L 697 0 
L 697 3053 
L 147 3053 
L 147 3500 
L 697 3500 
L 697 3744 
Q 697 4328 969 4595 
Q 1241 4863 1831 4863 
L 2375 4863 
z
" transform="scale(0.015625)"/>
       <path id="DejaVuSans-6e" d="M 3513 2113 
L 3513 0 
L 2938 0 
L 2938 2094 
Q 2938 2591 2744 2837 
Q 2550 3084 2163 3084 
Q 1697 3084 1428 2787 
Q 1159 2491 1159 1978 
L 1159 0 
L 581 0 
L 581 3500 
L 1159 3500 
L 1159 2956 
Q 1366 3272 1645 3428 
Q 1925 3584 2291 3584 
Q 2894 3584 3203 3211 
Q 3513 2838 3513 2113 
z
" transform="scale(0.015625)"/>
       <path id="DejaVuSans-64" d="M 2906 2969 
L 2906 4863 
L 3481 4863 
L 3481 0 
L 2906 0 
L 2906 525 
Q 2725 213 2448 61 
Q 2172 -91 1784 -91 
Q 1150 -91 751 415 
Q 353 922 353 1747 
Q 353 2572 751 3078 
Q 1150 3584 1784 3584 
Q 2172 3584 2448 3432 
Q 2725 3281 2906 2969 
z
M 947 1747 
Q 947 1113 1208 752 
Q 1469 391 1925 391 
Q 2381 391 2643 752 
Q 2906 1113 2906 1747 
Q 2906 2381 2643 2742 
Q 2381 3103 1925 3103 
Q 1469 3103 1208 2742 
Q 947 2381 947 1747 
z
" transform="scale(0.015625)"/>
       <path id="DejaVuSans-65" d="M 3597 1894 
L 3597 1613 
L 953 1613 
Q 991 1019 1311 708 
Q 1631 397 2203 397 
Q 2534 397 2845 478 
Q 3156 559 3463 722 
L 3463 178 
Q 3153 47 2828 -22 
Q 2503 -91 2169 -91 
Q 1331 -91 842 396 
Q 353 884 353 1716 
Q 353 2575 817 3079 
Q 1281 3584 2069 3584 
Q 2775 3584 3186 3129 
Q 3597 2675 3597 1894 
z
M 3022 2063 
Q 3016 2534 2758 2815 
Q 2500 3097 2075 3097 
Q 1594 3097 1305 2825 
Q 1016 2553 972 2059 
L 3022 2063 
z
" transform="scale(0.015625)"/>
       <path id="DejaVuSans-73" d="M 2834 3397 
L 2834 2853 
Q 2591 2978 2328 3040 
Q 2066 3103 1784 3103 
Q 1356 3103 1142 2972 
Q 928 2841 928 2578 
Q 928 2378 1081 2264 
Q 1234 2150 1697 2047 
L 1894 2003 
Q 2506 1872 2764 1633 
Q 3022 1394 3022 966 
Q 3022 478 2636 193 
Q 2250 -91 1575 -91 
Q 1294 -91 989 -36 
Q 684 19 347 128 
L 347 722 
Q 666 556 975 473 
Q 1284 391 1588 391 
Q 1994 391 2212 530 
Q 2431 669 2431 922 
Q 2431 1156 2273 1281 
Q 2116 1406 1581 1522 
L 1381 1569 
Q 847 1681 609 1914 
Q 372 2147 372 2553 
Q 372 3047 722 3315 
Q 1072 3584 1716 3584 
Q 2034 3584 2315 3537 
Q 2597 3491 2834 3397 
z
" transform="scale(0.015625)"/>
      </defs>
      <use xlink:href="#DejaVuSans-23"/>
      <use xlink:href="#DejaVuSans-20" x="83.789062"/>
      <use xlink:href="#DejaVuSans-6f" x="115.576172"/>
      <use xlink:href="#DejaVuSans-66" x="176.757812"/>
      <use xlink:href="#DejaVuSans-20" x="211.962891"/>
      <use xlink:href="#DejaVuSans-6e" x="243.75"/>
      <use xlink:href="#DejaVuSans-6f" x="307.128906"/>
      <use xlink:href="#DejaVuSans-64" x="368.310547"/>
      <use xlink:href="#DejaVuSans-65" x="431.787109"/>
      <use xlink:href="#DejaVuSans-73" x="493.310547"/>
     </g>
    </g>
   </g>
   <g id="matplotlib.axis_2">
    <g id="ytick_1">
     <g id="line2d_11">
      <path d="M 83.46 235.14 
L 428.895 235.14 
" clip-path="url(#p9b67e678fa)" style="fill: none; stroke: #000000"/>
     </g>
     <g id="line2d_12"/>
     <g id="text_7">
      <!-- 0 -->
      <g transform="translate(71.0525 240.458906) scale(0.14 -0.14)">
       <use xlink:href="#DejaVuSans-30"/>
      </g>
     </g>
    </g>
    <g id="ytick_2">
     <g id="line2d_13">
      <path d="M 83.46 192.630999 
L 428.895 192.630999 
" clip-path="url(#p9b67e678fa)" style="fill: none; stroke: #000000"/>
     </g>
     <g id="line2d_14"/>
     <g id="text_8">
      <!-- 10000 -->
      <g transform="translate(35.4225 197.949905) scale(0.14 -0.14)">
       <use xlink:href="#DejaVuSans-31"/>
       <use xlink:href="#DejaVuSans-30" x="63.623047"/>
       <use xlink:href="#DejaVuSans-30" x="127.246094"/>
       <use xlink:href="#DejaVuSans-30" x="190.869141"/>
       <use xlink:href="#DejaVuSans-30" x="254.492188"/>
      </g>
     </g>
    </g>
    <g id="ytick_3">
     <g id="line2d_15">
      <path d="M 83.46 150.121998 
L 428.895 150.121998 
" clip-path="url(#p9b67e678fa)" style="fill: none; stroke: #000000"/>
     </g>
     <g id="line2d_16"/>
     <g id="text_9">
      <!-- 20000 -->
      <g transform="translate(35.4225 155.440904) scale(0.14 -0.14)">
       <use xlink:href="#DejaVuSans-32"/>
       <use xlink:href="#DejaVuSans-30" x="63.623047"/>
       <use xlink:href="#DejaVuSans-30" x="127.246094"/>
       <use xlink:href="#DejaVuSans-30" x="190.869141"/>
       <use xlink:href="#DejaVuSans-30" x="254.492188"/>
      </g>
     </g>
    </g>
    <g id="ytick_4">
     <g id="line2d_17">
      <path d="M 83.46 107.612997 
L 428.895 107.612997 
" clip-path="url(#p9b67e678fa)" style="fill: none; stroke: #000000"/>
     </g>
     <g id="line2d_18"/>
     <g id="text_10">
      <!-- 30000 -->
      <g transform="translate(35.4225 112.931903) scale(0.14 -0.14)">
       <defs>
        <path id="DejaVuSans-33" d="M 2597 2516 
Q 3050 2419 3304 2112 
Q 3559 1806 3559 1356 
Q 3559 666 3084 287 
Q 2609 -91 1734 -91 
Q 1441 -91 1130 -33 
Q 819 25 488 141 
L 488 750 
Q 750 597 1062 519 
Q 1375 441 1716 441 
Q 2309 441 2620 675 
Q 2931 909 2931 1356 
Q 2931 1769 2642 2001 
Q 2353 2234 1838 2234 
L 1294 2234 
L 1294 2753 
L 1863 2753 
Q 2328 2753 2575 2939 
Q 2822 3125 2822 3475 
Q 2822 3834 2567 4026 
Q 2313 4219 1838 4219 
Q 1578 4219 1281 4162 
Q 984 4106 628 3988 
L 628 4550 
Q 988 4650 1302 4700 
Q 1616 4750 1894 4750 
Q 2613 4750 3031 4423 
Q 3450 4097 3450 3541 
Q 3450 3153 3228 2886 
Q 3006 2619 2597 2516 
z
" transform="scale(0.015625)"/>
       </defs>
       <use xlink:href="#DejaVuSans-33"/>
       <use xlink:href="#DejaVuSans-30" x="63.623047"/>
       <use xlink:href="#DejaVuSans-30" x="127.246094"/>
       <use xlink:href="#DejaVuSans-30" x="190.869141"/>
       <use xlink:href="#DejaVuSans-30" x="254.492188"/>
      </g>
     </g>
    </g>
    <g id="ytick_5">
     <g id="line2d_19">
      <path d="M 83.46 65.103996 
L 428.895 65.103996 
" clip-path="url(#p9b67e678fa)" style="fill: none; stroke: #000000"/>
     </g>
     <g id="line2d_20"/>
     <g id="text_11">
      <!-- 40000 -->
      <g transform="translate(35.4225 70.422902) scale(0.14 -0.14)">
       <use xlink:href="#DejaVuSans-34"/>
       <use xlink:href="#DejaVuSans-30" x="63.623047"/>
       <use xlink:href="#DejaVuSans-30" x="127.246094"/>
       <use xlink:href="#DejaVuSans-30" x="190.869141"/>
       <use xlink:href="#DejaVuSans-30" x="254.492188"/>
      </g>
     </g>
    </g>
    <g id="ytick_6">
     <g id="line2d_21">
      <path d="M 83.46 22.594995 
L 428.895 22.594995 
" clip-path="url(#p9b67e678fa)" style="fill: none; stroke: #000000"/>
     </g>
     <g id="line2d_22"/>
     <g id="text_12">
      <!-- 50000 -->
      <g transform="translate(35.4225 27.913902) scale(0.14 -0.14)">
       <defs>
        <path id="DejaVuSans-35" d="M 691 4666 
L 3169 4666 
L 3169 4134 
L 1269 4134 
L 1269 2991 
Q 1406 3038 1543 3061 
Q 1681 3084 1819 3084 
Q 2600 3084 3056 2656 
Q 3513 2228 3513 1497 
Q 3513 744 3044 326 
Q 2575 -91 1722 -91 
Q 1428 -91 1123 -41 
Q 819 9 494 109 
L 494 744 
Q 775 591 1075 516 
Q 1375 441 1709 441 
Q 2250 441 2565 725 
Q 2881 1009 2881 1497 
Q 2881 1984 2565 2268 
Q 2250 2553 1709 2553 
Q 1456 2553 1204 2497 
Q 953 2441 691 2322 
L 691 4666 
z
" transform="scale(0.015625)"/>
       </defs>
       <use xlink:href="#DejaVuSans-35"/>
       <use xlink:href="#DejaVuSans-30" x="63.623047"/>
       <use xlink:href="#DejaVuSans-30" x="127.246094"/>
       <use xlink:href="#DejaVuSans-30" x="190.869141"/>
       <use xlink:href="#DejaVuSans-30" x="254.492188"/>
      </g>
     </g>
    </g>
    <g id="text_13">
     <!-- Qubits sent -->
     <g transform="translate(27.928625 173.231812) rotate(-90) scale(0.168 -0.168)">
      <defs>
       <path id="DejaVuSans-51" d="M 2522 4238 
Q 1834 4238 1429 3725 
Q 1025 3213 1025 2328 
Q 1025 1447 1429 934 
Q 1834 422 2522 422 
Q 3209 422 3611 934 
Q 4013 1447 4013 2328 
Q 4013 3213 3611 3725 
Q 3209 4238 2522 4238 
z
M 3406 84 
L 4238 -825 
L 3475 -825 
L 2784 -78 
Q 2681 -84 2626 -87 
Q 2572 -91 2522 -91 
Q 1538 -91 948 567 
Q 359 1225 359 2328 
Q 359 3434 948 4092 
Q 1538 4750 2522 4750 
Q 3503 4750 4090 4092 
Q 4678 3434 4678 2328 
Q 4678 1516 4351 937 
Q 4025 359 3406 84 
z
" transform="scale(0.015625)"/>
       <path id="DejaVuSans-75" d="M 544 1381 
L 544 3500 
L 1119 3500 
L 1119 1403 
Q 1119 906 1312 657 
Q 1506 409 1894 409 
Q 2359 409 2629 706 
Q 2900 1003 2900 1516 
L 2900 3500 
L 3475 3500 
L 3475 0 
L 2900 0 
L 2900 538 
Q 2691 219 2414 64 
Q 2138 -91 1772 -91 
Q 1169 -91 856 284 
Q 544 659 544 1381 
z
M 1991 3584 
L 1991 3584 
z
" transform="scale(0.015625)"/>
       <path id="DejaVuSans-62" d="M 3116 1747 
Q 3116 2381 2855 2742 
Q 2594 3103 2138 3103 
Q 1681 3103 1420 2742 
Q 1159 2381 1159 1747 
Q 1159 1113 1420 752 
Q 1681 391 2138 391 
Q 2594 391 2855 752 
Q 3116 1113 3116 1747 
z
M 1159 2969 
Q 1341 3281 1617 3432 
Q 1894 3584 2278 3584 
Q 2916 3584 3314 3078 
Q 3713 2572 3713 1747 
Q 3713 922 3314 415 
Q 2916 -91 2278 -91 
Q 1894 -91 1617 61 
Q 1341 213 1159 525 
L 1159 0 
L 581 0 
L 581 4863 
L 1159 4863 
L 1159 2969 
z
" transform="scale(0.015625)"/>
       <path id="DejaVuSans-69" d="M 603 3500 
L 1178 3500 
L 1178 0 
L 603 0 
L 603 3500 
z
M 603 4863 
L 1178 4863 
L 1178 4134 
L 603 4134 
L 603 4863 
z
" transform="scale(0.015625)"/>
       <path id="DejaVuSans-74" d="M 1172 4494 
L 1172 3500 
L 2356 3500 
L 2356 3053 
L 1172 3053 
L 1172 1153 
Q 1172 725 1289 603 
Q 1406 481 1766 481 
L 2356 481 
L 2356 0 
L 1766 0 
Q 1100 0 847 248 
Q 594 497 594 1153 
L 594 3053 
L 172 3053 
L 172 3500 
L 594 3500 
L 594 4494 
L 1172 4494 
z
" transform="scale(0.015625)"/>
      </defs>
      <use xlink:href="#DejaVuSans-51"/>
      <use xlink:href="#DejaVuSans-75" x="78.710938"/>
      <use xlink:href="#DejaVuSans-62" x="142.089844"/>
      <use xlink:href="#DejaVuSans-69" x="205.566406"/>
      <use xlink:href="#DejaVuSans-74" x="233.349609"/>
      <use xlink:href="#DejaVuSans-73" x="272.558594"/>
      <use xlink:href="#DejaVuSans-20" x="324.658203"/>
      <use xlink:href="#DejaVuSans-73" x="356.445312"/>
      <use xlink:href="#DejaVuSans-65" x="408.544922"/>
      <use xlink:href="#DejaVuSans-6e" x="470.068359"/>
      <use xlink:href="#DejaVuSans-74" x="533.447266"/>
     </g>
    </g>
   </g>
   <g id="line2d_23">
    <path d="M 99.161591 226.6382 
L 102.467189 224.51275 
L 105.772787 222.3873 
L 109.078385 220.26185 
L 112.383983 218.1364 
L 115.689581 216.01095 
L 118.995179 213.8855 
L 122.300778 211.760049 
L 125.606376 209.634599 
L 128.911974 207.509149 
L 132.217572 205.383699 
L 135.52317 203.258249 
L 138.828768 201.132799 
L 142.134366 199.007349 
L 145.439964 196.881899 
L 148.745562 194.756449 
L 152.05116 192.630999 
L 155.356758 190.505549 
L 158.662356 188.380099 
L 161.967955 186.254649 
L 165.273553 184.129199 
L 168.579151 182.003749 
L 171.884749 179.878299 
L 175.190347 177.752849 
L 178.495945 175.627399 
L 181.801543 173.501949 
L 185.107141 171.376499 
L 188.412739 169.251049 
L 191.718337 167.129849 
L 195.023935 165.00865 
L 198.329533 162.887451 
L 201.635132 160.766252 
L 204.94073 158.640802 
L 208.246328 156.523854 
L 211.551926 154.398404 
L 214.857524 152.281455 
L 218.163122 150.160256 
L 221.46872 148.034806 
L 224.774318 145.917858 
L 228.079916 143.796659 
L 231.385514 141.67546 
L 234.691112 139.55426 
L 237.996711 137.433061 
L 241.302309 135.311862 
L 244.607907 133.190663 
L 247.913505 131.069464 
L 251.219103 128.948265 
L 254.524701 126.827066 
L 257.830299 124.705866 
L 261.135897 122.584667 
L 264.441495 120.463468 
L 267.747093 118.342269 
L 271.052691 116.22107 
L 274.358289 114.099871 
L 277.663888 111.978672 
L 280.969486 109.857472 
L 284.275084 107.736273 
L 287.580682 105.615074 
L 290.88628 103.493875 
L 294.191878 101.376927 
L 297.497476 99.259978 
L 300.803074 97.14303 
L 304.108672 95.026082 
L 307.41427 92.909134 
L 310.719868 90.792185 
L 314.025467 88.670986 
L 317.331065 86.558289 
L 320.636663 84.441341 
L 323.942261 82.324393 
L 327.247859 80.207444 
L 330.553457 78.090496 
L 333.859055 75.973548 
L 337.164653 73.8566 
L 340.470251 71.739651 
L 343.775849 69.622703 
L 347.081447 67.505755 
L 350.387045 65.388807 
L 353.692644 63.267607 
L 356.998242 61.15491 
L 360.30384 59.037962 
L 363.609438 56.921014 
L 366.915036 54.804065 
L 370.220634 52.687117 
L 373.526232 50.570169 
L 376.83183 48.453221 
L 380.137428 46.336272 
L 383.443026 44.219324 
L 386.748624 42.102376 
L 390.054222 39.985428 
L 393.359821 37.868479 
L 396.665419 35.764284 
L 399.971017 33.643085 
L 403.276615 31.530387 
L 406.582213 29.421941 
L 409.887811 27.304993 
L 413.193409 25.192295 
" clip-path="url(#p9b67e678fa)" style="fill: none; stroke: #ff0000; stroke-width: 4"/>
   </g>
   <g id="patch_3">
    <path d="M 83.46 235.14 
L 83.46 15.12 
" style="fill: none; stroke: #000000; stroke-width: 3; stroke-linejoin: miter; stroke-linecap: square"/>
   </g>
   <g id="patch_4">
    <path d="M 428.895 235.14 
L 428.895 15.12 
" style="fill: none; stroke: #000000; stroke-width: 3; stroke-linejoin: miter; stroke-linecap: square"/>
   </g>
   <g id="patch_5">
    <path d="M 83.46 235.14 
L 428.895 235.14 
" style="fill: none; stroke: #000000; stroke-width: 3; stroke-linejoin: miter; stroke-linecap: square"/>
   </g>
   <g id="patch_6">
    <path d="M 83.46 15.12 
L 428.895 15.12 
" style="fill: none; stroke: #000000; stroke-width: 3; stroke-linejoin: miter; stroke-linecap: square"/>
   </g>
   <g id="legend_1">
    <g id="patch_7">
     <path d="M 93.26 46.869375 
L 200.285625 46.869375 
Q 203.085625 46.869375 203.085625 44.069375 
L 203.085625 24.92 
Q 203.085625 22.12 200.285625 22.12 
L 93.26 22.12 
Q 90.46 22.12 90.46 24.92 
L 90.46 44.069375 
Q 90.46 46.869375 93.26 46.869375 
z
" style="fill: #ffffff; opacity: 0.8; stroke: #cccccc; stroke-width: 0.5; stroke-linejoin: miter"/>
    </g>
    <g id="line2d_24">
     <path d="M 96.06 33.457812 
L 110.06 33.457812 
L 124.06 33.457812 
" style="fill: none; stroke: #ff0000; stroke-width: 4"/>
    </g>
    <g id="text_14">
     <!-- no vlinks -->
     <g transform="translate(135.26 38.357812) scale(0.14 -0.14)">
      <defs>
       <path id="DejaVuSans-76" d="M 191 3500 
L 800 3500 
L 1894 563 
L 2988 3500 
L 3597 3500 
L 2284 0 
L 1503 0 
L 191 3500 
z
" transform="scale(0.015625)"/>
       <path id="DejaVuSans-6c" d="M 603 4863 
L 1178 4863 
L 1178 0 
L 603 0 
L 603 4863 
z
" transform="scale(0.015625)"/>
       <path id="DejaVuSans-6b" d="M 581 4863 
L 1159 4863 
L 1159 1991 
L 2875 3500 
L 3609 3500 
L 1753 1863 
L 3688 0 
L 2938 0 
L 1159 1709 
L 1159 0 
L 581 0 
L 581 4863 
z
" transform="scale(0.015625)"/>
      </defs>
      <use xlink:href="#DejaVuSans-6e"/>
      <use xlink:href="#DejaVuSans-6f" x="63.378906"/>
      <use xlink:href="#DejaVuSans-20" x="124.560547"/>
      <use xlink:href="#DejaVuSans-76" x="156.347656"/>
      <use xlink:href="#DejaVuSans-6c" x="215.527344"/>
      <use xlink:href="#DejaVuSans-69" x="243.310547"/>
      <use xlink:href="#DejaVuSans-6e" x="271.09375"/>
      <use xlink:href="#DejaVuSans-6b" x="334.472656"/>
      <use xlink:href="#DejaVuSans-73" x="392.382812"/>
     </g>
    </g>
   </g>
  </g>
  <g id="axes_2">
   <g id="patch_8">
    <path d="M 503.445 235.14 
L 848.88 235.14 
L 848.88 15.12 
L 503.445 15.12 
z
" style="fill: #ffffff"/>
   </g>
   <g id="matplotlib.axis_3">
    <g id="xtick_6">
     <g id="line2d_25">
      <path d="M 568.730562 235.14 
L 568.730562 15.12 
" clip-path="url(#p495ac74b00)" style="fill: none; stroke: #000000"/>
     </g>
     <g id="line2d_26"/>
     <g id="text_15">
      <!-- 20 -->
      <g transform="translate(559.823062 249.277812) scale(0.14 -0.14)">
       <use xlink:href="#DejaVuSans-32"/>
       <use xlink:href="#DejaVuSans-30" x="63.623047"/>
      </g>
     </g>
    </g>
    <g id="xtick_7">
     <g id="line2d_27">
      <path d="M 634.842524 235.14 
L 634.842524 15.12 
" clip-path="url(#p495ac74b00)" style="fill: none; stroke: #000000"/>
     </g>
     <g id="line2d_28"/>
     <g id="text_16">
      <!-- 40 -->
      <g transform="translate(625.935024 249.277812) scale(0.14 -0.14)">
       <use xlink:href="#DejaVuSans-34"/>
       <use xlink:href="#DejaVuSans-30" x="63.623047"/>
      </g>
     </g>
    </g>
    <g id="xtick_8">
     <g id="line2d_29">
      <path d="M 700.954486 235.14 
L 700.954486 15.12 
" clip-path="url(#p495ac74b00)" style="fill: none; stroke: #000000"/>
     </g>
     <g id="line2d_30"/>
     <g id="text_17">
      <!-- 60 -->
      <g transform="translate(692.046986 249.277812) scale(0.14 -0.14)">
       <use xlink:href="#DejaVuSans-36"/>
       <use xlink:href="#DejaVuSans-30" x="63.623047"/>
      </g>
     </g>
    </g>
    <g id="xtick_9">
     <g id="line2d_31">
      <path d="M 767.066447 235.14 
L 767.066447 15.12 
" clip-path="url(#p495ac74b00)" style="fill: none; stroke: #000000"/>
     </g>
     <g id="line2d_32"/>
     <g id="text_18">
      <!-- 80 -->
      <g transform="translate(758.158947 249.277812) scale(0.14 -0.14)">
       <use xlink:href="#DejaVuSans-38"/>
       <use xlink:href="#DejaVuSans-30" x="63.623047"/>
      </g>
     </g>
    </g>
    <g id="xtick_10">
     <g id="line2d_33">
      <path d="M 833.178409 235.14 
L 833.178409 15.12 
" clip-path="url(#p495ac74b00)" style="fill: none; stroke: #000000"/>
     </g>
     <g id="line2d_34"/>
     <g id="text_19">
      <!-- 100 -->
      <g transform="translate(819.817159 249.277812) scale(0.14 -0.14)">
       <use xlink:href="#DejaVuSans-31"/>
       <use xlink:href="#DejaVuSans-30" x="63.623047"/>
       <use xlink:href="#DejaVuSans-30" x="127.246094"/>
      </g>
     </g>
    </g>
    <g id="text_20">
     <!-- # of nodes -->
     <g transform="translate(630.347062 268.95475) scale(0.168 -0.168)">
      <use xlink:href="#DejaVuSans-23"/>
      <use xlink:href="#DejaVuSans-20" x="83.789062"/>
      <use xlink:href="#DejaVuSans-6f" x="115.576172"/>
      <use xlink:href="#DejaVuSans-66" x="176.757812"/>
      <use xlink:href="#DejaVuSans-20" x="211.962891"/>
      <use xlink:href="#DejaVuSans-6e" x="243.75"/>
      <use xlink:href="#DejaVuSans-6f" x="307.128906"/>
      <use xlink:href="#DejaVuSans-64" x="368.310547"/>
      <use xlink:href="#DejaVuSans-65" x="431.787109"/>
      <use xlink:href="#DejaVuSans-73" x="493.310547"/>
     </g>
    </g>
   </g>
   <g id="matplotlib.axis_4">
    <g id="ytick_7">
     <g id="line2d_35">
      <path d="M 503.445 235.14 
L 848.88 235.14 
" clip-path="url(#p495ac74b00)" style="fill: none; stroke: #000000"/>
     </g>
     <g id="line2d_36"/>
     <g id="text_21">
      <!-- 0 -->
      <g transform="translate(491.0375 240.458906) scale(0.14 -0.14)">
       <use xlink:href="#DejaVuSans-30"/>
      </g>
     </g>
    </g>
    <g id="ytick_8">
     <g id="line2d_37">
      <path d="M 503.445 193.430047 
L 848.88 193.430047 
" clip-path="url(#p495ac74b00)" style="fill: none; stroke: #000000"/>
     </g>
     <g id="line2d_38"/>
     <g id="text_22">
      <!-- 200 -->
      <g transform="translate(473.2225 198.748954) scale(0.14 -0.14)">
       <use xlink:href="#DejaVuSans-32"/>
       <use xlink:href="#DejaVuSans-30" x="63.623047"/>
       <use xlink:href="#DejaVuSans-30" x="127.246094"/>
      </g>
     </g>
    </g>
    <g id="ytick_9">
     <g id="line2d_39">
      <path d="M 503.445 151.720095 
L 848.88 151.720095 
" clip-path="url(#p495ac74b00)" style="fill: none; stroke: #000000"/>
     </g>
     <g id="line2d_40"/>
     <g id="text_23">
      <!-- 400 -->
      <g transform="translate(473.2225 157.039001) scale(0.14 -0.14)">
       <use xlink:href="#DejaVuSans-34"/>
       <use xlink:href="#DejaVuSans-30" x="63.623047"/>
       <use xlink:href="#DejaVuSans-30" x="127.246094"/>
      </g>
     </g>
    </g>
    <g id="ytick_10">
     <g id="line2d_41">
      <path d="M 503.445 110.010142 
L 848.88 110.010142 
" clip-path="url(#p495ac74b00)" style="fill: none; stroke: #000000"/>
     </g>
     <g id="line2d_42"/>
     <g id="text_24">
      <!-- 600 -->
      <g transform="translate(473.2225 115.329048) scale(0.14 -0.14)">
       <use xlink:href="#DejaVuSans-36"/>
       <use xlink:href="#DejaVuSans-30" x="63.623047"/>
       <use xlink:href="#DejaVuSans-30" x="127.246094"/>
      </g>
     </g>
    </g>
    <g id="ytick_11">
     <g id="line2d_43">
      <path d="M 503.445 68.30019 
L 848.88 68.30019 
" clip-path="url(#p495ac74b00)" style="fill: none; stroke: #000000"/>
     </g>
     <g id="line2d_44"/>
     <g id="text_25">
      <!-- 800 -->
      <g transform="translate(473.2225 73.619096) scale(0.14 -0.14)">
       <use xlink:href="#DejaVuSans-38"/>
       <use xlink:href="#DejaVuSans-30" x="63.623047"/>
       <use xlink:href="#DejaVuSans-30" x="127.246094"/>
      </g>
     </g>
    </g>
    <g id="ytick_12">
     <g id="line2d_45">
      <path d="M 503.445 26.590237 
L 848.88 26.590237 
" clip-path="url(#p495ac74b00)" style="fill: none; stroke: #000000"/>
     </g>
     <g id="line2d_46"/>
     <g id="text_26">
      <!-- 1000 -->
      <g transform="translate(464.315 31.909143) scale(0.14 -0.14)">
       <use xlink:href="#DejaVuSans-31"/>
       <use xlink:href="#DejaVuSans-30" x="63.623047"/>
       <use xlink:href="#DejaVuSans-30" x="127.246094"/>
       <use xlink:href="#DejaVuSans-30" x="190.869141"/>
      </g>
     </g>
    </g>
    <g id="text_27">
     <!-- Qubits sent -->
     <g transform="translate(456.821125 173.231812) rotate(-90) scale(0.168 -0.168)">
      <use xlink:href="#DejaVuSans-51"/>
      <use xlink:href="#DejaVuSans-75" x="78.710938"/>
      <use xlink:href="#DejaVuSans-62" x="142.089844"/>
      <use xlink:href="#DejaVuSans-69" x="205.566406"/>
      <use xlink:href="#DejaVuSans-74" x="233.349609"/>
      <use xlink:href="#DejaVuSans-73" x="272.558594"/>
      <use xlink:href="#DejaVuSans-20" x="324.658203"/>
      <use xlink:href="#DejaVuSans-73" x="356.445312"/>
      <use xlink:href="#DejaVuSans-65" x="408.544922"/>
      <use xlink:href="#DejaVuSans-6e" x="470.068359"/>
      <use xlink:href="#DejaVuSans-74" x="533.447266"/>
     </g>
    </g>
   </g>
   <g id="line2d_47">
    <path d="M 519.146591 26.590237 
L 522.452189 26.590237 
L 525.757787 26.590237 
L 529.063385 26.590237 
L 532.368983 26.590237 
L 535.674581 26.590237 
L 538.980179 26.590237 
L 542.285778 26.590237 
L 545.591376 26.590237 
L 548.896974 26.590237 
L 552.202572 26.590237 
L 555.50817 26.590237 
L 558.813768 26.590237 
L 562.119366 26.590237 
L 565.424964 26.590237 
L 568.730562 26.590237 
L 572.03616 26.590237 
L 575.341758 26.590237 
L 578.647356 26.590237 
L 581.952955 26.590237 
L 585.258553 26.590237 
L 588.564151 26.590237 
L 591.869749 26.590237 
L 595.175347 26.590237 
L 598.480945 26.590237 
L 601.786543 26.590237 
L 605.092141 26.590237 
L 608.397739 26.590237 
L 611.703337 26.590237 
L 615.008935 26.590237 
L 618.314533 26.590237 
L 621.620132 26.590237 
L 624.92573 26.590237 
L 628.231328 26.590237 
L 631.536926 26.590237 
L 634.842524 26.590237 
L 638.148122 26.590237 
L 641.45372 26.590237 
L 644.759318 26.590237 
L 648.064916 26.590237 
L 651.370514 26.590237 
L 654.676112 26.590237 
L 657.981711 26.590237 
L 661.287309 26.590237 
L 664.592907 26.590237 
L 667.898505 26.590237 
L 671.204103 26.590237 
L 674.509701 26.590237 
L 677.815299 26.590237 
L 681.120897 26.590237 
L 684.426495 26.590237 
L 687.732093 26.590237 
L 691.037691 26.590237 
L 694.343289 26.590237 
L 697.648888 26.590237 
L 700.954486 26.590237 
L 704.260084 26.590237 
L 707.565682 26.590237 
L 710.87128 26.590237 
L 714.176878 26.590237 
L 717.482476 26.590237 
L 720.788074 26.590237 
L 724.093672 26.590237 
L 727.39927 26.590237 
L 730.704868 26.590237 
L 734.010467 26.590237 
L 737.316065 26.590237 
L 740.621663 26.590237 
L 743.927261 26.590237 
L 747.232859 26.590237 
L 750.538457 26.590237 
L 753.844055 26.590237 
L 757.149653 26.590237 
L 760.455251 26.590237 
L 763.760849 26.590237 
L 767.066447 26.590237 
L 770.372045 26.590237 
L 773.677644 26.590237 
L 776.983242 26.590237 
L 780.28884 26.590237 
L 783.594438 26.590237 
L 786.900036 26.590237 
L 790.205634 26.590237 
L 793.511232 26.590237 
L 796.81683 26.590237 
L 800.122428 26.590237 
L 803.428026 26.590237 
L 806.733624 26.590237 
L 810.039222 26.590237 
L 813.344821 26.590237 
L 816.650419 26.590237 
L 819.956017 26.590237 
L 823.261615 26.590237 
L 826.567213 26.590237 
L 829.872811 26.590237 
L 833.178409 26.590237 
" clip-path="url(#p495ac74b00)" style="fill: none; stroke: #0000ff; stroke-width: 4"/>
   </g>
   <g id="patch_9">
    <path d="M 503.445 235.14 
L 503.445 15.12 
" style="fill: none; stroke: #000000; stroke-width: 3; stroke-linejoin: miter; stroke-linecap: square"/>
   </g>
   <g id="patch_10">
    <path d="M 848.88 235.14 
L 848.88 15.12 
" style="fill: none; stroke: #000000; stroke-width: 3; stroke-linejoin: miter; stroke-linecap: square"/>
   </g>
   <g id="patch_11">
    <path d="M 503.445 235.14 
L 848.88 235.14 
" style="fill: none; stroke: #000000; stroke-width: 3; stroke-linejoin: miter; stroke-linecap: square"/>
   </g>
   <g id="patch_12">
    <path d="M 503.445 15.12 
L 848.88 15.12 
" style="fill: none; stroke: #000000; stroke-width: 3; stroke-linejoin: miter; stroke-linecap: square"/>
   </g>
   <g id="legend_2">
    <g id="patch_13">
     <path d="M 513.245 228.14 
L 598.3825 228.14 
Q 601.1825 228.14 601.1825 225.34 
L 601.1825 206.190625 
Q 601.1825 203.390625 598.3825 203.390625 
L 513.245 203.390625 
Q 510.445 203.390625 510.445 206.190625 
L 510.445 225.34 
Q 510.445 228.14 513.245 228.14 
z
" style="fill: #ffffff; opacity: 0.8; stroke: #cccccc; stroke-width: 0.5; stroke-linejoin: miter"/>
    </g>
    <g id="line2d_48">
     <path d="M 516.045 214.728437 
L 530.045 214.728437 
L 544.045 214.728437 
" style="fill: none; stroke: #0000ff; stroke-width: 4"/>
    </g>
    <g id="text_28">
     <!-- vlinks -->
     <g transform="translate(555.245 219.628437) scale(0.14 -0.14)">
      <use xlink:href="#DejaVuSans-76"/>
      <use xlink:href="#DejaVuSans-6c" x="59.179688"/>
      <use xlink:href="#DejaVuSans-69" x="86.962891"/>
      <use xlink:href="#DejaVuSans-6e" x="114.746094"/>
      <use xlink:href="#DejaVuSans-6b" x="178.125"/>
      <use xlink:href="#DejaVuSans-73" x="236.035156"/>
     </g>
    </g>
   </g>
  </g>
 </g>
 <defs>
  <clipPath id="p9b67e678fa">
   <rect x="83.46" y="15.12" width="345.435" height="220.02"/>
  </clipPath>
  <clipPath id="p495ac74b00">
   <rect x="503.445" y="15.12" width="345.435" height="220.02"/>
  </clipPath>
 </defs>
</svg>
