<?xml version="1.0" encoding="utf-8" standalone="no"?>
<!DOCTYPE svg PUBLIC "-//W3C//DTD SVG 1.1//EN"
  "http://www.w3.org/Graphics/SVG/1.1/DTD/svg11.dtd">
<svg xmlns:xlink="http://www.w3.org/1999/xlink" width="864pt" height="288pt" viewBox="0 0 864 288" xmlns="http://www.w3.org/2000/svg" version="1.1">
 <metadata>
  <rdf:RDF xmlns:dc="http://purl.org/dc/elements/1.1/" xmlns:cc="http://creativecommons.org/ns#" xmlns:rdf="http://www.w3.org/1999/02/22-rdf-syntax-ns#">
   <cc:Work>
    <dc:type rdf:resource="http://purl.org/dc/dcmitype/StillImage"/>
    <dc:date>2024-08-30T20:48:55.091455</dc:date>
    <dc:format>image/svg+xml</dc:format>
    <dc:creator>
     <cc:Agent>
      <dc:title>Matplotlib v3.9.0, https://matplotlib.org/</dc:title>
     </cc:Agent>
    </dc:creator>
   </cc:Work>
  </rdf:RDF>
 </metadata>
 <defs>
  <style type="text/css">*{stroke-linejoin: round; stroke-linecap: butt}</style>
 </defs>
 <g id="figure_1">
  <g id="patch_1">
   <path d="M 0 288 
L 864 288 
L 864 0 
L 0 0 
z
" style="fill: #ffffff"/>
  </g>
  <g id="axes_1">
   <g id="patch_2">
    <path d="M 92.19 235.14 
L 433.17 235.14 
L 433.17 15.12 
L 92.19 15.12 
z
" style="fill: #ffffff"/>
   </g>
   <g id="matplotlib.axis_1">
    <g id="xtick_1">
     <g id="line2d_1">
      <path d="M 156.633589 235.14 
L 156.633589 15.12 
" clip-path="url(#pe22936d7dd)" style="fill: none; stroke: #000000"/>
     </g>
     <g id="line2d_2"/>
     <g id="text_1">
      <!-- 20 -->
      <g transform="translate(147.726089 249.277812) scale(0.14 -0.14)">
       <defs>
        <path id="DejaVuSans-32" d="M 1228 531 
L 3431 531 
L 3431 0 
L 469 0 
L 469 531 
Q 828 903 1448 1529 
Q 2069 2156 2228 2338 
Q 2531 2678 2651 2914 
Q 2772 3150 2772 3378 
Q 2772 3750 2511 3984 
Q 2250 4219 1831 4219 
Q 1534 4219 1204 4116 
Q 875 4013 500 3803 
L 500 4441 
Q 881 4594 1212 4672 
Q 1544 4750 1819 4750 
Q 2544 4750 2975 4387 
Q 3406 4025 3406 3419 
Q 3406 3131 3298 2873 
Q 3191 2616 2906 2266 
Q 2828 2175 2409 1742 
Q 1991 1309 1228 531 
z
" transform="scale(0.015625)"/>
        <path id="DejaVuSans-30" d="M 2034 4250 
Q 1547 4250 1301 3770 
Q 1056 3291 1056 2328 
Q 1056 1369 1301 889 
Q 1547 409 2034 409 
Q 2525 409 2770 889 
Q 3016 1369 3016 2328 
Q 3016 3291 2770 3770 
Q 2525 4250 2034 4250 
z
M 2034 4750 
Q 2819 4750 3233 4129 
Q 3647 3509 3647 2328 
Q 3647 1150 3233 529 
Q 2819 -91 2034 -91 
Q 1250 -91 836 529 
Q 422 1150 422 2328 
Q 422 3509 836 4129 
Q 1250 4750 2034 4750 
z
" transform="scale(0.015625)"/>
       </defs>
       <use xlink:href="#DejaVuSans-32"/>
       <use xlink:href="#DejaVuSans-30" x="63.623047"/>
      </g>
     </g>
    </g>
    <g id="xtick_2">
     <g id="line2d_3">
      <path d="M 221.892919 235.14 
L 221.892919 15.12 
" clip-path="url(#pe22936d7dd)" style="fill: none; stroke: #000000"/>
     </g>
     <g id="line2d_4"/>
     <g id="text_2">
      <!-- 40 -->
      <g transform="translate(212.985419 249.277812) scale(0.14 -0.14)">
       <defs>
        <path id="DejaVuSans-34" d="M 2419 4116 
L 825 1625 
L 2419 1625 
L 2419 4116 
z
M 2253 4666 
L 3047 4666 
L 3047 1625 
L 3713 1625 
L 3713 1100 
L 3047 1100 
L 3047 0 
L 2419 0 
L 2419 1100 
L 313 1100 
L 313 1709 
L 2253 4666 
z
" transform="scale(0.015625)"/>
       </defs>
       <use xlink:href="#DejaVuSans-34"/>
       <use xlink:href="#DejaVuSans-30" x="63.623047"/>
      </g>
     </g>
    </g>
    <g id="xtick_3">
     <g id="line2d_5">
      <path d="M 287.152249 235.14 
L 287.152249 15.12 
" clip-path="url(#pe22936d7dd)" style="fill: none; stroke: #000000"/>
     </g>
     <g id="line2d_6"/>
     <g id="text_3">
      <!-- 60 -->
      <g transform="translate(278.244749 249.277812) scale(0.14 -0.14)">
       <defs>
        <path id="DejaVuSans-36" d="M 2113 2584 
Q 1688 2584 1439 2293 
Q 1191 2003 1191 1497 
Q 1191 994 1439 701 
Q 1688 409 2113 409 
Q 2538 409 2786 701 
Q 3034 994 3034 1497 
Q 3034 2003 2786 2293 
Q 2538 2584 2113 2584 
z
M 3366 4563 
L 3366 3988 
Q 3128 4100 2886 4159 
Q 2644 4219 2406 4219 
Q 1781 4219 1451 3797 
Q 1122 3375 1075 2522 
Q 1259 2794 1537 2939 
Q 1816 3084 2150 3084 
Q 2853 3084 3261 2657 
Q 3669 2231 3669 1497 
Q 3669 778 3244 343 
Q 2819 -91 2113 -91 
Q 1303 -91 875 529 
Q 447 1150 447 2328 
Q 447 3434 972 4092 
Q 1497 4750 2381 4750 
Q 2619 4750 2861 4703 
Q 3103 4656 3366 4563 
z
" transform="scale(0.015625)"/>
       </defs>
       <use xlink:href="#DejaVuSans-36"/>
       <use xlink:href="#DejaVuSans-30" x="63.623047"/>
      </g>
     </g>
    </g>
    <g id="xtick_4">
     <g id="line2d_7">
      <path d="M 352.411579 235.14 
L 352.411579 15.12 
" clip-path="url(#pe22936d7dd)" style="fill: none; stroke: #000000"/>
     </g>
     <g id="line2d_8"/>
     <g id="text_4">
      <!-- 80 -->
      <g transform="translate(343.504079 249.277812) scale(0.14 -0.14)">
       <defs>
        <path id="DejaVuSans-38" d="M 2034 2216 
Q 1584 2216 1326 1975 
Q 1069 1734 1069 1313 
Q 1069 891 1326 650 
Q 1584 409 2034 409 
Q 2484 409 2743 651 
Q 3003 894 3003 1313 
Q 3003 1734 2745 1975 
Q 2488 2216 2034 2216 
z
M 1403 2484 
Q 997 2584 770 2862 
Q 544 3141 544 3541 
Q 544 4100 942 4425 
Q 1341 4750 2034 4750 
Q 2731 4750 3128 4425 
Q 3525 4100 3525 3541 
Q 3525 3141 3298 2862 
Q 3072 2584 2669 2484 
Q 3125 2378 3379 2068 
Q 3634 1759 3634 1313 
Q 3634 634 3220 271 
Q 2806 -91 2034 -91 
Q 1263 -91 848 271 
Q 434 634 434 1313 
Q 434 1759 690 2068 
Q 947 2378 1403 2484 
z
M 1172 3481 
Q 1172 3119 1398 2916 
Q 1625 2713 2034 2713 
Q 2441 2713 2670 2916 
Q 2900 3119 2900 3481 
Q 2900 3844 2670 4047 
Q 2441 4250 2034 4250 
Q 1625 4250 1398 4047 
Q 1172 3844 1172 3481 
z
" transform="scale(0.015625)"/>
       </defs>
       <use xlink:href="#DejaVuSans-38"/>
       <use xlink:href="#DejaVuSans-30" x="63.623047"/>
      </g>
     </g>
    </g>
    <g id="xtick_5">
     <g id="line2d_9">
      <path d="M 417.670909 235.14 
L 417.670909 15.12 
" clip-path="url(#pe22936d7dd)" style="fill: none; stroke: #000000"/>
     </g>
     <g id="line2d_10"/>
     <g id="text_5">
      <!-- 100 -->
      <g transform="translate(404.309659 249.277812) scale(0.14 -0.14)">
       <defs>
        <path id="DejaVuSans-31" d="M 794 531 
L 1825 531 
L 1825 4091 
L 703 3866 
L 703 4441 
L 1819 4666 
L 2450 4666 
L 2450 531 
L 3481 531 
L 3481 0 
L 794 0 
L 794 531 
z
" transform="scale(0.015625)"/>
       </defs>
       <use xlink:href="#DejaVuSans-31"/>
       <use xlink:href="#DejaVuSans-30" x="63.623047"/>
       <use xlink:href="#DejaVuSans-30" x="127.246094"/>
      </g>
     </g>
    </g>
    <g id="text_6">
     <!-- # of nodes -->
     <g transform="translate(216.864563 268.95475) scale(0.168 -0.168)">
      <defs>
       <path id="DejaVuSans-23" d="M 3272 2816 
L 2363 2816 
L 2100 1772 
L 3016 1772 
L 3272 2816 
z
M 2803 4594 
L 2478 3297 
L 3391 3297 
L 3719 4594 
L 4219 4594 
L 3897 3297 
L 4872 3297 
L 4872 2816 
L 3775 2816 
L 3519 1772 
L 4513 1772 
L 4513 1294 
L 3397 1294 
L 3072 0 
L 2572 0 
L 2894 1294 
L 1978 1294 
L 1656 0 
L 1153 0 
L 1478 1294 
L 494 1294 
L 494 1772 
L 1594 1772 
L 1856 2816 
L 850 2816 
L 850 3297 
L 1978 3297 
L 2297 4594 
L 2803 4594 
z
" transform="scale(0.015625)"/>
       <path id="DejaVuSans-20" transform="scale(0.015625)"/>
       <path id="DejaVuSans-6f" d="M 1959 3097 
Q 1497 3097 1228 2736 
Q 959 2375 959 1747 
Q 959 1119 1226 758 
Q 1494 397 1959 397 
Q 2419 397 2687 759 
Q 2956 1122 2956 1747 
Q 2956 2369 2687 2733 
Q 2419 3097 1959 3097 
z
M 1959 3584 
Q 2709 3584 3137 3096 
Q 3566 2609 3566 1747 
Q 3566 888 3137 398 
Q 2709 -91 1959 -91 
Q 1206 -91 779 398 
Q 353 888 353 1747 
Q 353 2609 779 3096 
Q 1206 3584 1959 3584 
z
" transform="scale(0.015625)"/>
       <path id="DejaVuSans-66" d="M 2375 4863 
L 2375 4384 
L 1825 4384 
Q 1516 4384 1395 4259 
Q 1275 4134 1275 3809 
L 1275 3500 
L 2222 3500 
L 2222 3053 
L 1275 3053 
L 1275 0 
L 697 0 
L 697 3053 
L 147 3053 
L 147 3500 
L 697 3500 
L 697 3744 
Q 697 4328 969 4595 
Q 1241 4863 1831 4863 
L 2375 4863 
z
" transform="scale(0.015625)"/>
       <path id="DejaVuSans-6e" d="M 3513 2113 
L 3513 0 
L 2938 0 
L 2938 2094 
Q 2938 2591 2744 2837 
Q 2550 3084 2163 3084 
Q 1697 3084 1428 2787 
Q 1159 2491 1159 1978 
L 1159 0 
L 581 0 
L 581 3500 
L 1159 3500 
L 1159 2956 
Q 1366 3272 1645 3428 
Q 1925 3584 2291 3584 
Q 2894 3584 3203 3211 
Q 3513 2838 3513 2113 
z
" transform="scale(0.015625)"/>
       <path id="DejaVuSans-64" d="M 2906 2969 
L 2906 4863 
L 3481 4863 
L 3481 0 
L 2906 0 
L 2906 525 
Q 2725 213 2448 61 
Q 2172 -91 1784 -91 
Q 1150 -91 751 415 
Q 353 922 353 1747 
Q 353 2572 751 3078 
Q 1150 3584 1784 3584 
Q 2172 3584 2448 3432 
Q 2725 3281 2906 2969 
z
M 947 1747 
Q 947 1113 1208 752 
Q 1469 391 1925 391 
Q 2381 391 2643 752 
Q 2906 1113 2906 1747 
Q 2906 2381 2643 2742 
Q 2381 3103 1925 3103 
Q 1469 3103 1208 2742 
Q 947 2381 947 1747 
z
" transform="scale(0.015625)"/>
       <path id="DejaVuSans-65" d="M 3597 1894 
L 3597 1613 
L 953 1613 
Q 991 1019 1311 708 
Q 1631 397 2203 397 
Q 2534 397 2845 478 
Q 3156 559 3463 722 
L 3463 178 
Q 3153 47 2828 -22 
Q 2503 -91 2169 -91 
Q 1331 -91 842 396 
Q 353 884 353 1716 
Q 353 2575 817 3079 
Q 1281 3584 2069 3584 
Q 2775 3584 3186 3129 
Q 3597 2675 3597 1894 
z
M 3022 2063 
Q 3016 2534 2758 2815 
Q 2500 3097 2075 3097 
Q 1594 3097 1305 2825 
Q 1016 2553 972 2059 
L 3022 2063 
z
" transform="scale(0.015625)"/>
       <path id="DejaVuSans-73" d="M 2834 3397 
L 2834 2853 
Q 2591 2978 2328 3040 
Q 2066 3103 1784 3103 
Q 1356 3103 1142 2972 
Q 928 2841 928 2578 
Q 928 2378 1081 2264 
Q 1234 2150 1697 2047 
L 1894 2003 
Q 2506 1872 2764 1633 
Q 3022 1394 3022 966 
Q 3022 478 2636 193 
Q 2250 -91 1575 -91 
Q 1294 -91 989 -36 
Q 684 19 347 128 
L 347 722 
Q 666 556 975 473 
Q 1284 391 1588 391 
Q 1994 391 2212 530 
Q 2431 669 2431 922 
Q 2431 1156 2273 1281 
Q 2116 1406 1581 1522 
L 1381 1569 
Q 847 1681 609 1914 
Q 372 2147 372 2553 
Q 372 3047 722 3315 
Q 1072 3584 1716 3584 
Q 2034 3584 2315 3537 
Q 2597 3491 2834 3397 
z
" transform="scale(0.015625)"/>
      </defs>
      <use xlink:href="#DejaVuSans-23"/>
      <use xlink:href="#DejaVuSans-20" x="83.789062"/>
      <use xlink:href="#DejaVuSans-6f" x="115.576172"/>
      <use xlink:href="#DejaVuSans-66" x="176.757812"/>
      <use xlink:href="#DejaVuSans-20" x="211.962891"/>
      <use xlink:href="#DejaVuSans-6e" x="243.75"/>
      <use xlink:href="#DejaVuSans-6f" x="307.128906"/>
      <use xlink:href="#DejaVuSans-64" x="368.310547"/>
      <use xlink:href="#DejaVuSans-65" x="431.787109"/>
      <use xlink:href="#DejaVuSans-73" x="493.310547"/>
     </g>
    </g>
   </g>
   <g id="matplotlib.axis_2">
    <g id="ytick_1">
     <g id="line2d_11">
      <path d="M 92.19 235.14 
L 433.17 235.14 
" clip-path="url(#pe22936d7dd)" style="fill: none; stroke: #000000"/>
     </g>
     <g id="line2d_12"/>
     <g id="text_7">
      <!-- 0 -->
      <g transform="translate(79.7825 240.458906) scale(0.14 -0.14)">
       <use xlink:href="#DejaVuSans-30"/>
      </g>
     </g>
    </g>
    <g id="ytick_2">
     <g id="line2d_13">
      <path d="M 92.19 192.833201 
L 433.17 192.833201 
" clip-path="url(#pe22936d7dd)" style="fill: none; stroke: #000000"/>
     </g>
     <g id="line2d_14"/>
     <g id="text_8">
      <!-- 20000 -->
      <g transform="translate(44.1525 198.152107) scale(0.14 -0.14)">
       <use xlink:href="#DejaVuSans-32"/>
       <use xlink:href="#DejaVuSans-30" x="63.623047"/>
       <use xlink:href="#DejaVuSans-30" x="127.246094"/>
       <use xlink:href="#DejaVuSans-30" x="190.869141"/>
       <use xlink:href="#DejaVuSans-30" x="254.492188"/>
      </g>
     </g>
    </g>
    <g id="ytick_3">
     <g id="line2d_15">
      <path d="M 92.19 150.526401 
L 433.17 150.526401 
" clip-path="url(#pe22936d7dd)" style="fill: none; stroke: #000000"/>
     </g>
     <g id="line2d_16"/>
     <g id="text_9">
      <!-- 40000 -->
      <g transform="translate(44.1525 155.845308) scale(0.14 -0.14)">
       <use xlink:href="#DejaVuSans-34"/>
       <use xlink:href="#DejaVuSans-30" x="63.623047"/>
       <use xlink:href="#DejaVuSans-30" x="127.246094"/>
       <use xlink:href="#DejaVuSans-30" x="190.869141"/>
       <use xlink:href="#DejaVuSans-30" x="254.492188"/>
      </g>
     </g>
    </g>
    <g id="ytick_4">
     <g id="line2d_17">
      <path d="M 92.19 108.219602 
L 433.17 108.219602 
" clip-path="url(#pe22936d7dd)" style="fill: none; stroke: #000000"/>
     </g>
     <g id="line2d_18"/>
     <g id="text_10">
      <!-- 60000 -->
      <g transform="translate(44.1525 113.538508) scale(0.14 -0.14)">
       <use xlink:href="#DejaVuSans-36"/>
       <use xlink:href="#DejaVuSans-30" x="63.623047"/>
       <use xlink:href="#DejaVuSans-30" x="127.246094"/>
       <use xlink:href="#DejaVuSans-30" x="190.869141"/>
       <use xlink:href="#DejaVuSans-30" x="254.492188"/>
      </g>
     </g>
    </g>
    <g id="ytick_5">
     <g id="line2d_19">
      <path d="M 92.19 65.912803 
L 433.17 65.912803 
" clip-path="url(#pe22936d7dd)" style="fill: none; stroke: #000000"/>
     </g>
     <g id="line2d_20"/>
     <g id="text_11">
      <!-- 80000 -->
      <g transform="translate(44.1525 71.231709) scale(0.14 -0.14)">
       <use xlink:href="#DejaVuSans-38"/>
       <use xlink:href="#DejaVuSans-30" x="63.623047"/>
       <use xlink:href="#DejaVuSans-30" x="127.246094"/>
       <use xlink:href="#DejaVuSans-30" x="190.869141"/>
       <use xlink:href="#DejaVuSans-30" x="254.492188"/>
      </g>
     </g>
    </g>
    <g id="ytick_6">
     <g id="line2d_21">
      <path d="M 92.19 23.606004 
L 433.17 23.606004 
" clip-path="url(#pe22936d7dd)" style="fill: none; stroke: #000000"/>
     </g>
     <g id="line2d_22"/>
     <g id="text_12">
      <!-- 100000 -->
      <g transform="translate(35.245 28.92491) scale(0.14 -0.14)">
       <use xlink:href="#DejaVuSans-31"/>
       <use xlink:href="#DejaVuSans-30" x="63.623047"/>
       <use xlink:href="#DejaVuSans-30" x="127.246094"/>
       <use xlink:href="#DejaVuSans-30" x="190.869141"/>
       <use xlink:href="#DejaVuSans-30" x="254.492188"/>
       <use xlink:href="#DejaVuSans-30" x="318.115234"/>
      </g>
     </g>
    </g>
    <g id="text_13">
     <!-- cMsgs sent -->
     <g transform="translate(27.751125 171.911438) rotate(-90) scale(0.168 -0.168)">
      <defs>
       <path id="DejaVuSans-63" d="M 3122 3366 
L 3122 2828 
Q 2878 2963 2633 3030 
Q 2388 3097 2138 3097 
Q 1578 3097 1268 2742 
Q 959 2388 959 1747 
Q 959 1106 1268 751 
Q 1578 397 2138 397 
Q 2388 397 2633 464 
Q 2878 531 3122 666 
L 3122 134 
Q 2881 22 2623 -34 
Q 2366 -91 2075 -91 
Q 1284 -91 818 406 
Q 353 903 353 1747 
Q 353 2603 823 3093 
Q 1294 3584 2113 3584 
Q 2378 3584 2631 3529 
Q 2884 3475 3122 3366 
z
" transform="scale(0.015625)"/>
       <path id="DejaVuSans-4d" d="M 628 4666 
L 1569 4666 
L 2759 1491 
L 3956 4666 
L 4897 4666 
L 4897 0 
L 4281 0 
L 4281 4097 
L 3078 897 
L 2444 897 
L 1241 4097 
L 1241 0 
L 628 0 
L 628 4666 
z
" transform="scale(0.015625)"/>
       <path id="DejaVuSans-67" d="M 2906 1791 
Q 2906 2416 2648 2759 
Q 2391 3103 1925 3103 
Q 1463 3103 1205 2759 
Q 947 2416 947 1791 
Q 947 1169 1205 825 
Q 1463 481 1925 481 
Q 2391 481 2648 825 
Q 2906 1169 2906 1791 
z
M 3481 434 
Q 3481 -459 3084 -895 
Q 2688 -1331 1869 -1331 
Q 1566 -1331 1297 -1286 
Q 1028 -1241 775 -1147 
L 775 -588 
Q 1028 -725 1275 -790 
Q 1522 -856 1778 -856 
Q 2344 -856 2625 -561 
Q 2906 -266 2906 331 
L 2906 616 
Q 2728 306 2450 153 
Q 2172 0 1784 0 
Q 1141 0 747 490 
Q 353 981 353 1791 
Q 353 2603 747 3093 
Q 1141 3584 1784 3584 
Q 2172 3584 2450 3431 
Q 2728 3278 2906 2969 
L 2906 3500 
L 3481 3500 
L 3481 434 
z
" transform="scale(0.015625)"/>
       <path id="DejaVuSans-74" d="M 1172 4494 
L 1172 3500 
L 2356 3500 
L 2356 3053 
L 1172 3053 
L 1172 1153 
Q 1172 725 1289 603 
Q 1406 481 1766 481 
L 2356 481 
L 2356 0 
L 1766 0 
Q 1100 0 847 248 
Q 594 497 594 1153 
L 594 3053 
L 172 3053 
L 172 3500 
L 594 3500 
L 594 4494 
L 1172 4494 
z
" transform="scale(0.015625)"/>
      </defs>
      <use xlink:href="#DejaVuSans-63"/>
      <use xlink:href="#DejaVuSans-4d" x="54.980469"/>
      <use xlink:href="#DejaVuSans-73" x="141.259766"/>
      <use xlink:href="#DejaVuSans-67" x="193.359375"/>
      <use xlink:href="#DejaVuSans-73" x="256.835938"/>
      <use xlink:href="#DejaVuSans-20" x="308.935547"/>
      <use xlink:href="#DejaVuSans-73" x="340.722656"/>
      <use xlink:href="#DejaVuSans-65" x="392.822266"/>
      <use xlink:href="#DejaVuSans-6e" x="454.345703"/>
      <use xlink:href="#DejaVuSans-74" x="517.724609"/>
     </g>
    </g>
   </g>
   <g id="line2d_23">
    <path d="M 107.689091 225.62097 
L 110.952057 223.50563 
L 114.215024 221.39029 
L 117.47799 219.27495 
L 120.740957 217.15961 
L 124.003923 215.04427 
L 127.26689 212.92893 
L 130.529856 210.81359 
L 133.792823 208.69825 
L 137.055789 206.58291 
L 140.318756 204.467571 
L 143.581722 202.352231 
L 146.844689 200.236891 
L 150.107656 198.121551 
L 153.370622 196.006211 
L 156.633589 193.890871 
L 159.896555 191.775531 
L 163.159522 189.660191 
L 166.422488 187.544851 
L 169.685455 185.429511 
L 172.948421 183.314171 
L 176.211388 181.198831 
L 179.474354 179.083491 
L 182.737321 176.968151 
L 186.000287 174.852811 
L 189.263254 172.737471 
L 192.52622 170.622131 
L 195.789187 168.511022 
L 199.052153 166.399913 
L 202.31512 164.288803 
L 205.578086 162.177694 
L 208.841053 160.064469 
L 212.104019 157.95336 
L 215.366986 155.846481 
L 218.629952 153.731141 
L 221.892919 151.622148 
L 225.155885 149.511038 
L 228.418852 147.397814 
L 231.681818 145.28882 
L 234.944785 143.175595 
L 238.207751 141.066601 
L 241.470718 138.955492 
L 244.733684 136.844383 
L 247.996651 134.735389 
L 251.259617 132.620049 
L 254.522584 130.51317 
L 257.78555 128.399945 
L 261.048517 126.290951 
L 264.311483 124.179842 
L 267.57445 122.064502 
L 270.837416 119.957624 
L 274.100383 117.842284 
L 277.363349 115.735405 
L 280.626316 113.620065 
L 283.889282 111.511071 
L 287.152249 109.399962 
L 290.415215 107.286737 
L 293.678182 105.179859 
L 296.941148 103.07298 
L 300.204115 100.968217 
L 303.467081 98.861338 
L 306.730048 96.745998 
L 309.993014 94.645466 
L 313.255981 92.538587 
L 316.518947 90.429593 
L 319.781914 88.322714 
L 323.04488 86.220067 
L 326.307847 84.108957 
L 329.570813 82.004194 
L 332.83378 79.8952 
L 336.096746 77.786206 
L 339.359713 75.685673 
L 342.622679 73.572449 
L 345.885646 71.467686 
L 349.148612 69.358692 
L 352.411579 67.249698 
L 355.674545 65.142819 
L 358.937512 63.040171 
L 362.200478 60.935408 
L 365.463445 58.826414 
L 368.726411 56.719535 
L 371.989378 54.610541 
L 375.252344 52.510009 
L 378.515311 50.401015 
L 381.778278 48.292021 
L 385.041244 46.189373 
L 388.304211 44.076148 
L 391.567177 41.9735 
L 394.830144 39.864507 
L 398.09311 37.761859 
L 401.356077 35.661326 
L 404.619043 33.560793 
L 407.88201 31.45603 
L 411.144976 29.353382 
L 414.407943 27.25285 
L 417.670909 25.143856 
" clip-path="url(#pe22936d7dd)" style="fill: none; stroke: #ff0000; stroke-width: 4"/>
   </g>
   <g id="patch_3">
    <path d="M 92.19 235.14 
L 92.19 15.12 
" style="fill: none; stroke: #000000; stroke-width: 3; stroke-linejoin: miter; stroke-linecap: square"/>
   </g>
   <g id="patch_4">
    <path d="M 433.17 235.14 
L 433.17 15.12 
" style="fill: none; stroke: #000000; stroke-width: 3; stroke-linejoin: miter; stroke-linecap: square"/>
   </g>
   <g id="patch_5">
    <path d="M 92.19 235.14 
L 433.17 235.14 
" style="fill: none; stroke: #000000; stroke-width: 3; stroke-linejoin: miter; stroke-linecap: square"/>
   </g>
   <g id="patch_6">
    <path d="M 92.19 15.12 
L 433.17 15.12 
" style="fill: none; stroke: #000000; stroke-width: 3; stroke-linejoin: miter; stroke-linecap: square"/>
   </g>
   <g id="legend_1">
    <g id="patch_7">
     <path d="M 101.99 46.869375 
L 209.015625 46.869375 
Q 211.815625 46.869375 211.815625 44.069375 
L 211.815625 24.92 
Q 211.815625 22.12 209.015625 22.12 
L 101.99 22.12 
Q 99.19 22.12 99.19 24.92 
L 99.19 44.069375 
Q 99.19 46.869375 101.99 46.869375 
z
" style="fill: #ffffff; opacity: 0.8; stroke: #cccccc; stroke-width: 0.5; stroke-linejoin: miter"/>
    </g>
    <g id="line2d_24">
     <path d="M 104.79 33.457812 
L 118.79 33.457812 
L 132.79 33.457812 
" style="fill: none; stroke: #ff0000; stroke-width: 4"/>
    </g>
    <g id="text_14">
     <!-- no vlinks -->
     <g transform="translate(143.99 38.357812) scale(0.14 -0.14)">
      <defs>
       <path id="DejaVuSans-76" d="M 191 3500 
L 800 3500 
L 1894 563 
L 2988 3500 
L 3597 3500 
L 2284 0 
L 1503 0 
L 191 3500 
z
" transform="scale(0.015625)"/>
       <path id="DejaVuSans-6c" d="M 603 4863 
L 1178 4863 
L 1178 0 
L 603 0 
L 603 4863 
z
" transform="scale(0.015625)"/>
       <path id="DejaVuSans-69" d="M 603 3500 
L 1178 3500 
L 1178 0 
L 603 0 
L 603 3500 
z
M 603 4863 
L 1178 4863 
L 1178 4134 
L 603 4134 
L 603 4863 
z
" transform="scale(0.015625)"/>
       <path id="DejaVuSans-6b" d="M 581 4863 
L 1159 4863 
L 1159 1991 
L 2875 3500 
L 3609 3500 
L 1753 1863 
L 3688 0 
L 2938 0 
L 1159 1709 
L 1159 0 
L 581 0 
L 581 4863 
z
" transform="scale(0.015625)"/>
      </defs>
      <use xlink:href="#DejaVuSans-6e"/>
      <use xlink:href="#DejaVuSans-6f" x="63.378906"/>
      <use xlink:href="#DejaVuSans-20" x="124.560547"/>
      <use xlink:href="#DejaVuSans-76" x="156.347656"/>
      <use xlink:href="#DejaVuSans-6c" x="215.527344"/>
      <use xlink:href="#DejaVuSans-69" x="243.310547"/>
      <use xlink:href="#DejaVuSans-6e" x="271.09375"/>
      <use xlink:href="#DejaVuSans-6b" x="334.472656"/>
      <use xlink:href="#DejaVuSans-73" x="392.382812"/>
     </g>
    </g>
   </g>
  </g>
  <g id="axes_2">
   <g id="patch_8">
    <path d="M 507.9 235.14 
L 848.88 235.14 
L 848.88 15.12 
L 507.9 15.12 
z
" style="fill: #ffffff"/>
   </g>
   <g id="matplotlib.axis_3">
    <g id="xtick_6">
     <g id="line2d_25">
      <path d="M 572.343589 235.14 
L 572.343589 15.12 
" clip-path="url(#p5eb7a3e402)" style="fill: none; stroke: #000000"/>
     </g>
     <g id="line2d_26"/>
     <g id="text_15">
      <!-- 20 -->
      <g transform="translate(563.436089 249.277812) scale(0.14 -0.14)">
       <use xlink:href="#DejaVuSans-32"/>
       <use xlink:href="#DejaVuSans-30" x="63.623047"/>
      </g>
     </g>
    </g>
    <g id="xtick_7">
     <g id="line2d_27">
      <path d="M 637.602919 235.14 
L 637.602919 15.12 
" clip-path="url(#p5eb7a3e402)" style="fill: none; stroke: #000000"/>
     </g>
     <g id="line2d_28"/>
     <g id="text_16">
      <!-- 40 -->
      <g transform="translate(628.695419 249.277812) scale(0.14 -0.14)">
       <use xlink:href="#DejaVuSans-34"/>
       <use xlink:href="#DejaVuSans-30" x="63.623047"/>
      </g>
     </g>
    </g>
    <g id="xtick_8">
     <g id="line2d_29">
      <path d="M 702.862249 235.14 
L 702.862249 15.12 
" clip-path="url(#p5eb7a3e402)" style="fill: none; stroke: #000000"/>
     </g>
     <g id="line2d_30"/>
     <g id="text_17">
      <!-- 60 -->
      <g transform="translate(693.954749 249.277812) scale(0.14 -0.14)">
       <use xlink:href="#DejaVuSans-36"/>
       <use xlink:href="#DejaVuSans-30" x="63.623047"/>
      </g>
     </g>
    </g>
    <g id="xtick_9">
     <g id="line2d_31">
      <path d="M 768.121579 235.14 
L 768.121579 15.12 
" clip-path="url(#p5eb7a3e402)" style="fill: none; stroke: #000000"/>
     </g>
     <g id="line2d_32"/>
     <g id="text_18">
      <!-- 80 -->
      <g transform="translate(759.214079 249.277812) scale(0.14 -0.14)">
       <use xlink:href="#DejaVuSans-38"/>
       <use xlink:href="#DejaVuSans-30" x="63.623047"/>
      </g>
     </g>
    </g>
    <g id="xtick_10">
     <g id="line2d_33">
      <path d="M 833.380909 235.14 
L 833.380909 15.12 
" clip-path="url(#p5eb7a3e402)" style="fill: none; stroke: #000000"/>
     </g>
     <g id="line2d_34"/>
     <g id="text_19">
      <!-- 100 -->
      <g transform="translate(820.019659 249.277812) scale(0.14 -0.14)">
       <use xlink:href="#DejaVuSans-31"/>
       <use xlink:href="#DejaVuSans-30" x="63.623047"/>
       <use xlink:href="#DejaVuSans-30" x="127.246094"/>
      </g>
     </g>
    </g>
    <g id="text_20">
     <!-- # of nodes -->
     <g transform="translate(632.574562 268.95475) scale(0.168 -0.168)">
      <use xlink:href="#DejaVuSans-23"/>
      <use xlink:href="#DejaVuSans-20" x="83.789062"/>
      <use xlink:href="#DejaVuSans-6f" x="115.576172"/>
      <use xlink:href="#DejaVuSans-66" x="176.757812"/>
      <use xlink:href="#DejaVuSans-20" x="211.962891"/>
      <use xlink:href="#DejaVuSans-6e" x="243.75"/>
      <use xlink:href="#DejaVuSans-6f" x="307.128906"/>
      <use xlink:href="#DejaVuSans-64" x="368.310547"/>
      <use xlink:href="#DejaVuSans-65" x="431.787109"/>
      <use xlink:href="#DejaVuSans-73" x="493.310547"/>
     </g>
    </g>
   </g>
   <g id="matplotlib.axis_4">
    <g id="ytick_7">
     <g id="line2d_35">
      <path d="M 507.9 235.14 
L 848.88 235.14 
" clip-path="url(#p5eb7a3e402)" style="fill: none; stroke: #000000"/>
     </g>
     <g id="line2d_36"/>
     <g id="text_21">
      <!-- 0 -->
      <g transform="translate(495.4925 240.458906) scale(0.14 -0.14)">
       <use xlink:href="#DejaVuSans-30"/>
      </g>
     </g>
    </g>
    <g id="ytick_8">
     <g id="line2d_37">
      <path d="M 507.9 175.675135 
L 848.88 175.675135 
" clip-path="url(#p5eb7a3e402)" style="fill: none; stroke: #000000"/>
     </g>
     <g id="line2d_38"/>
     <g id="text_22">
      <!-- 1000 -->
      <g transform="translate(468.77 180.994041) scale(0.14 -0.14)">
       <use xlink:href="#DejaVuSans-31"/>
       <use xlink:href="#DejaVuSans-30" x="63.623047"/>
       <use xlink:href="#DejaVuSans-30" x="127.246094"/>
       <use xlink:href="#DejaVuSans-30" x="190.869141"/>
      </g>
     </g>
    </g>
    <g id="ytick_9">
     <g id="line2d_39">
      <path d="M 507.9 116.21027 
L 848.88 116.21027 
" clip-path="url(#p5eb7a3e402)" style="fill: none; stroke: #000000"/>
     </g>
     <g id="line2d_40"/>
     <g id="text_23">
      <!-- 2000 -->
      <g transform="translate(468.77 121.529177) scale(0.14 -0.14)">
       <use xlink:href="#DejaVuSans-32"/>
       <use xlink:href="#DejaVuSans-30" x="63.623047"/>
       <use xlink:href="#DejaVuSans-30" x="127.246094"/>
       <use xlink:href="#DejaVuSans-30" x="190.869141"/>
      </g>
     </g>
    </g>
    <g id="ytick_10">
     <g id="line2d_41">
      <path d="M 507.9 56.745405 
L 848.88 56.745405 
" clip-path="url(#p5eb7a3e402)" style="fill: none; stroke: #000000"/>
     </g>
     <g id="line2d_42"/>
     <g id="text_24">
      <!-- 3000 -->
      <g transform="translate(468.77 62.064312) scale(0.14 -0.14)">
       <defs>
        <path id="DejaVuSans-33" d="M 2597 2516 
Q 3050 2419 3304 2112 
Q 3559 1806 3559 1356 
Q 3559 666 3084 287 
Q 2609 -91 1734 -91 
Q 1441 -91 1130 -33 
Q 819 25 488 141 
L 488 750 
Q 750 597 1062 519 
Q 1375 441 1716 441 
Q 2309 441 2620 675 
Q 2931 909 2931 1356 
Q 2931 1769 2642 2001 
Q 2353 2234 1838 2234 
L 1294 2234 
L 1294 2753 
L 1863 2753 
Q 2328 2753 2575 2939 
Q 2822 3125 2822 3475 
Q 2822 3834 2567 4026 
Q 2313 4219 1838 4219 
Q 1578 4219 1281 4162 
Q 984 4106 628 3988 
L 628 4550 
Q 988 4650 1302 4700 
Q 1616 4750 1894 4750 
Q 2613 4750 3031 4423 
Q 3450 4097 3450 3541 
Q 3450 3153 3228 2886 
Q 3006 2619 2597 2516 
z
" transform="scale(0.015625)"/>
       </defs>
       <use xlink:href="#DejaVuSans-33"/>
       <use xlink:href="#DejaVuSans-30" x="63.623047"/>
       <use xlink:href="#DejaVuSans-30" x="127.246094"/>
       <use xlink:href="#DejaVuSans-30" x="190.869141"/>
      </g>
     </g>
    </g>
    <g id="text_25">
     <!-- cMsgs sent -->
     <g transform="translate(461.276125 171.911438) rotate(-90) scale(0.168 -0.168)">
      <use xlink:href="#DejaVuSans-63"/>
      <use xlink:href="#DejaVuSans-4d" x="54.980469"/>
      <use xlink:href="#DejaVuSans-73" x="141.259766"/>
      <use xlink:href="#DejaVuSans-67" x="193.359375"/>
      <use xlink:href="#DejaVuSans-73" x="256.835938"/>
      <use xlink:href="#DejaVuSans-20" x="308.935547"/>
      <use xlink:href="#DejaVuSans-73" x="340.722656"/>
      <use xlink:href="#DejaVuSans-65" x="392.822266"/>
      <use xlink:href="#DejaVuSans-6e" x="454.345703"/>
      <use xlink:href="#DejaVuSans-74" x="517.724609"/>
     </g>
    </g>
   </g>
   <g id="line2d_43">
    <path d="M 523.399091 26.953508 
L 526.662057 26.953508 
L 529.925024 26.953508 
L 533.18799 26.953508 
L 536.450957 26.953508 
L 539.713923 26.953508 
L 542.97689 26.953508 
L 546.239856 26.953508 
L 549.502823 26.953508 
L 552.765789 26.953508 
L 556.028756 26.953508 
L 559.291722 26.953508 
L 562.554689 26.953508 
L 565.817656 26.953508 
L 569.080622 26.953508 
L 572.343589 26.953508 
L 575.606555 26.953508 
L 578.869522 26.953508 
L 582.132488 26.953508 
L 585.395455 26.953508 
L 588.658421 26.894043 
L 591.921388 26.894043 
L 595.184354 26.894043 
L 598.447321 26.894043 
L 601.710287 26.894043 
L 604.973254 26.894043 
L 608.23622 26.894043 
L 611.499187 26.894043 
L 614.762153 26.894043 
L 618.02512 26.894043 
L 621.288086 26.894043 
L 624.551053 26.894043 
L 627.814019 26.894043 
L 631.076986 26.894043 
L 634.339952 26.894043 
L 637.602919 26.894043 
L 640.865885 26.894043 
L 644.128852 26.894043 
L 647.391818 26.894043 
L 650.654785 26.894043 
L 653.917751 26.894043 
L 657.180718 26.834578 
L 660.443684 26.834578 
L 663.706651 26.834578 
L 666.969617 26.834578 
L 670.232584 26.834578 
L 673.49555 26.834578 
L 676.758517 26.834578 
L 680.021483 26.834578 
L 683.28445 26.834578 
L 686.547416 26.834578 
L 689.810383 26.834578 
L 693.073349 26.834578 
L 696.336316 26.834578 
L 699.599282 26.834578 
L 702.862249 26.834578 
L 706.125215 26.834578 
L 709.388182 26.834578 
L 712.651148 26.834578 
L 715.914115 26.834578 
L 719.177081 26.834578 
L 722.440048 26.775114 
L 725.703014 26.775114 
L 728.965981 26.775114 
L 732.228947 26.775114 
L 735.491914 26.775114 
L 738.75488 26.775114 
L 742.017847 26.775114 
L 745.280813 26.775114 
L 748.54378 26.775114 
L 751.806746 26.775114 
L 755.069713 26.775114 
L 758.332679 26.775114 
L 761.595646 26.775114 
L 764.858612 26.775114 
L 768.121579 26.775114 
L 771.384545 26.775114 
L 774.647512 26.775114 
L 777.910478 26.775114 
L 781.173445 26.775114 
L 784.436411 26.775114 
L 787.699378 26.715649 
L 790.962344 26.715649 
L 794.225311 26.715649 
L 797.488278 26.715649 
L 800.751244 26.715649 
L 804.014211 26.715649 
L 807.277177 26.715649 
L 810.540144 26.715649 
L 813.80311 26.715649 
L 817.066077 26.715649 
L 820.329043 26.715649 
L 823.59201 26.715649 
L 826.854976 26.715649 
L 830.117943 26.715649 
L 833.380909 26.715649 
" clip-path="url(#p5eb7a3e402)" style="fill: none; stroke: #0000ff; stroke-width: 4"/>
   </g>
   <g id="patch_9">
    <path d="M 507.9 235.14 
L 507.9 15.12 
" style="fill: none; stroke: #000000; stroke-width: 3; stroke-linejoin: miter; stroke-linecap: square"/>
   </g>
   <g id="patch_10">
    <path d="M 848.88 235.14 
L 848.88 15.12 
" style="fill: none; stroke: #000000; stroke-width: 3; stroke-linejoin: miter; stroke-linecap: square"/>
   </g>
   <g id="patch_11">
    <path d="M 507.9 235.14 
L 848.88 235.14 
" style="fill: none; stroke: #000000; stroke-width: 3; stroke-linejoin: miter; stroke-linecap: square"/>
   </g>
   <g id="patch_12">
    <path d="M 507.9 15.12 
L 848.88 15.12 
" style="fill: none; stroke: #000000; stroke-width: 3; stroke-linejoin: miter; stroke-linecap: square"/>
   </g>
   <g id="legend_2">
    <g id="patch_13">
     <path d="M 517.7 228.14 
L 602.8375 228.14 
Q 605.6375 228.14 605.6375 225.34 
L 605.6375 206.190625 
Q 605.6375 203.390625 602.8375 203.390625 
L 517.7 203.390625 
Q 514.9 203.390625 514.9 206.190625 
L 514.9 225.34 
Q 514.9 228.14 517.7 228.14 
z
" style="fill: #ffffff; opacity: 0.8; stroke: #cccccc; stroke-width: 0.5; stroke-linejoin: miter"/>
    </g>
    <g id="line2d_44">
     <path d="M 520.5 214.728437 
L 534.5 214.728437 
L 548.5 214.728437 
" style="fill: none; stroke: #0000ff; stroke-width: 4"/>
    </g>
    <g id="text_26">
     <!-- vlinks -->
     <g transform="translate(559.7 219.628437) scale(0.14 -0.14)">
      <use xlink:href="#DejaVuSans-76"/>
      <use xlink:href="#DejaVuSans-6c" x="59.179688"/>
      <use xlink:href="#DejaVuSans-69" x="86.962891"/>
      <use xlink:href="#DejaVuSans-6e" x="114.746094"/>
      <use xlink:href="#DejaVuSans-6b" x="178.125"/>
      <use xlink:href="#DejaVuSans-73" x="236.035156"/>
     </g>
    </g>
   </g>
  </g>
 </g>
 <defs>
  <clipPath id="pe22936d7dd">
   <rect x="92.19" y="15.12" width="340.98" height="220.02"/>
  </clipPath>
  <clipPath id="p5eb7a3e402">
   <rect x="507.9" y="15.12" width="340.98" height="220.02"/>
  </clipPath>
 </defs>
</svg>
