<?xml version="1.0" encoding="utf-8" standalone="no"?>
<!DOCTYPE svg PUBLIC "-//W3C//DTD SVG 1.1//EN"
  "http://www.w3.org/Graphics/SVG/1.1/DTD/svg11.dtd">
<svg xmlns:xlink="http://www.w3.org/1999/xlink" width="864pt" height="864pt" viewBox="0 0 864 864" xmlns="http://www.w3.org/2000/svg" version="1.1">
 <metadata>
  <rdf:RDF xmlns:dc="http://purl.org/dc/elements/1.1/" xmlns:cc="http://creativecommons.org/ns#" xmlns:rdf="http://www.w3.org/1999/02/22-rdf-syntax-ns#">
   <cc:Work>
    <dc:type rdf:resource="http://purl.org/dc/dcmitype/StillImage"/>
    <dc:date>2024-08-18T17:40:05.620260</dc:date>
    <dc:format>image/svg+xml</dc:format>
    <dc:creator>
     <cc:Agent>
      <dc:title>Matplotlib v3.9.0, https://matplotlib.org/</dc:title>
     </cc:Agent>
    </dc:creator>
   </cc:Work>
  </rdf:RDF>
 </metadata>
 <defs>
  <style type="text/css">*{stroke-linejoin: round; stroke-linecap: butt}</style>
 </defs>
 <g id="figure_1">
  <g id="patch_1">
   <path d="M 0 864 
L 864 864 
L 864 0 
L 0 0 
z
" style="fill: #ffffff"/>
  </g>
  <g id="axes_1">
   <g id="patch_2">
    <path d="M 84.882 244.606562 
L 425.4612 244.606562 
L 425.4612 16.426162 
L 84.882 16.426162 
z
" style="fill: #ffffff"/>
   </g>
   <g id="matplotlib.axis_1">
    <g id="xtick_1">
     <g id="line2d_1">
      <path d="M 149.769913 244.606562 
L 149.769913 16.426162 
" clip-path="url(#p5114794d37)" style="fill: none; stroke: #000000"/>
     </g>
     <g id="line2d_2"/>
     <g id="text_1">
      <!-- 20 -->
      <g transform="translate(140.862413 258.744374) scale(0.14 -0.14)">
       <defs>
        <path id="DejaVuSans-32" d="M 1228 531 
L 3431 531 
L 3431 0 
L 469 0 
L 469 531 
Q 828 903 1448 1529 
Q 2069 2156 2228 2338 
Q 2531 2678 2651 2914 
Q 2772 3150 2772 3378 
Q 2772 3750 2511 3984 
Q 2250 4219 1831 4219 
Q 1534 4219 1204 4116 
Q 875 4013 500 3803 
L 500 4441 
Q 881 4594 1212 4672 
Q 1544 4750 1819 4750 
Q 2544 4750 2975 4387 
Q 3406 4025 3406 3419 
Q 3406 3131 3298 2873 
Q 3191 2616 2906 2266 
Q 2828 2175 2409 1742 
Q 1991 1309 1228 531 
z
" transform="scale(0.015625)"/>
        <path id="DejaVuSans-30" d="M 2034 4250 
Q 1547 4250 1301 3770 
Q 1056 3291 1056 2328 
Q 1056 1369 1301 889 
Q 1547 409 2034 409 
Q 2525 409 2770 889 
Q 3016 1369 3016 2328 
Q 3016 3291 2770 3770 
Q 2525 4250 2034 4250 
z
M 2034 4750 
Q 2819 4750 3233 4129 
Q 3647 3509 3647 2328 
Q 3647 1150 3233 529 
Q 2819 -91 2034 -91 
Q 1250 -91 836 529 
Q 422 1150 422 2328 
Q 422 3509 836 4129 
Q 1250 4750 2034 4750 
z
" transform="scale(0.015625)"/>
       </defs>
       <use xlink:href="#DejaVuSans-32"/>
       <use xlink:href="#DejaVuSans-30" x="63.623047"/>
      </g>
     </g>
    </g>
    <g id="xtick_2">
     <g id="line2d_3">
      <path d="M 215.645968 244.606562 
L 215.645968 16.426162 
" clip-path="url(#p5114794d37)" style="fill: none; stroke: #000000"/>
     </g>
     <g id="line2d_4"/>
     <g id="text_2">
      <!-- 40 -->
      <g transform="translate(206.738468 258.744374) scale(0.14 -0.14)">
       <defs>
        <path id="DejaVuSans-34" d="M 2419 4116 
L 825 1625 
L 2419 1625 
L 2419 4116 
z
M 2253 4666 
L 3047 4666 
L 3047 1625 
L 3713 1625 
L 3713 1100 
L 3047 1100 
L 3047 0 
L 2419 0 
L 2419 1100 
L 313 1100 
L 313 1709 
L 2253 4666 
z
" transform="scale(0.015625)"/>
       </defs>
       <use xlink:href="#DejaVuSans-34"/>
       <use xlink:href="#DejaVuSans-30" x="63.623047"/>
      </g>
     </g>
    </g>
    <g id="xtick_3">
     <g id="line2d_5">
      <path d="M 281.522022 244.606562 
L 281.522022 16.426162 
" clip-path="url(#p5114794d37)" style="fill: none; stroke: #000000"/>
     </g>
     <g id="line2d_6"/>
     <g id="text_3">
      <!-- 60 -->
      <g transform="translate(272.614522 258.744374) scale(0.14 -0.14)">
       <defs>
        <path id="DejaVuSans-36" d="M 2113 2584 
Q 1688 2584 1439 2293 
Q 1191 2003 1191 1497 
Q 1191 994 1439 701 
Q 1688 409 2113 409 
Q 2538 409 2786 701 
Q 3034 994 3034 1497 
Q 3034 2003 2786 2293 
Q 2538 2584 2113 2584 
z
M 3366 4563 
L 3366 3988 
Q 3128 4100 2886 4159 
Q 2644 4219 2406 4219 
Q 1781 4219 1451 3797 
Q 1122 3375 1075 2522 
Q 1259 2794 1537 2939 
Q 1816 3084 2150 3084 
Q 2853 3084 3261 2657 
Q 3669 2231 3669 1497 
Q 3669 778 3244 343 
Q 2819 -91 2113 -91 
Q 1303 -91 875 529 
Q 447 1150 447 2328 
Q 447 3434 972 4092 
Q 1497 4750 2381 4750 
Q 2619 4750 2861 4703 
Q 3103 4656 3366 4563 
z
" transform="scale(0.015625)"/>
       </defs>
       <use xlink:href="#DejaVuSans-36"/>
       <use xlink:href="#DejaVuSans-30" x="63.623047"/>
      </g>
     </g>
    </g>
    <g id="xtick_4">
     <g id="line2d_7">
      <path d="M 347.398076 244.606562 
L 347.398076 16.426162 
" clip-path="url(#p5114794d37)" style="fill: none; stroke: #000000"/>
     </g>
     <g id="line2d_8"/>
     <g id="text_4">
      <!-- 80 -->
      <g transform="translate(338.490576 258.744374) scale(0.14 -0.14)">
       <defs>
        <path id="DejaVuSans-38" d="M 2034 2216 
Q 1584 2216 1326 1975 
Q 1069 1734 1069 1313 
Q 1069 891 1326 650 
Q 1584 409 2034 409 
Q 2484 409 2743 651 
Q 3003 894 3003 1313 
Q 3003 1734 2745 1975 
Q 2488 2216 2034 2216 
z
M 1403 2484 
Q 997 2584 770 2862 
Q 544 3141 544 3541 
Q 544 4100 942 4425 
Q 1341 4750 2034 4750 
Q 2731 4750 3128 4425 
Q 3525 4100 3525 3541 
Q 3525 3141 3298 2862 
Q 3072 2584 2669 2484 
Q 3125 2378 3379 2068 
Q 3634 1759 3634 1313 
Q 3634 634 3220 271 
Q 2806 -91 2034 -91 
Q 1263 -91 848 271 
Q 434 634 434 1313 
Q 434 1759 690 2068 
Q 947 2378 1403 2484 
z
M 1172 3481 
Q 1172 3119 1398 2916 
Q 1625 2713 2034 2713 
Q 2441 2713 2670 2916 
Q 2900 3119 2900 3481 
Q 2900 3844 2670 4047 
Q 2441 4250 2034 4250 
Q 1625 4250 1398 4047 
Q 1172 3844 1172 3481 
z
" transform="scale(0.015625)"/>
       </defs>
       <use xlink:href="#DejaVuSans-38"/>
       <use xlink:href="#DejaVuSans-30" x="63.623047"/>
      </g>
     </g>
    </g>
    <g id="xtick_5">
     <g id="line2d_9">
      <path d="M 413.27413 244.606562 
L 413.27413 16.426162 
" clip-path="url(#p5114794d37)" style="fill: none; stroke: #000000"/>
     </g>
     <g id="line2d_10"/>
     <g id="text_5">
      <!-- 100 -->
      <g transform="translate(399.91288 258.744374) scale(0.14 -0.14)">
       <defs>
        <path id="DejaVuSans-31" d="M 794 531 
L 1825 531 
L 1825 4091 
L 703 3866 
L 703 4441 
L 1819 4666 
L 2450 4666 
L 2450 531 
L 3481 531 
L 3481 0 
L 794 0 
L 794 531 
z
" transform="scale(0.015625)"/>
       </defs>
       <use xlink:href="#DejaVuSans-31"/>
       <use xlink:href="#DejaVuSans-30" x="63.623047"/>
       <use xlink:href="#DejaVuSans-30" x="127.246094"/>
      </g>
     </g>
    </g>
    <g id="text_6">
     <!-- # of nodes -->
     <g transform="translate(209.356163 278.421312) scale(0.168 -0.168)">
      <defs>
       <path id="DejaVuSans-23" d="M 3272 2816 
L 2363 2816 
L 2100 1772 
L 3016 1772 
L 3272 2816 
z
M 2803 4594 
L 2478 3297 
L 3391 3297 
L 3719 4594 
L 4219 4594 
L 3897 3297 
L 4872 3297 
L 4872 2816 
L 3775 2816 
L 3519 1772 
L 4513 1772 
L 4513 1294 
L 3397 1294 
L 3072 0 
L 2572 0 
L 2894 1294 
L 1978 1294 
L 1656 0 
L 1153 0 
L 1478 1294 
L 494 1294 
L 494 1772 
L 1594 1772 
L 1856 2816 
L 850 2816 
L 850 3297 
L 1978 3297 
L 2297 4594 
L 2803 4594 
z
" transform="scale(0.015625)"/>
       <path id="DejaVuSans-20" transform="scale(0.015625)"/>
       <path id="DejaVuSans-6f" d="M 1959 3097 
Q 1497 3097 1228 2736 
Q 959 2375 959 1747 
Q 959 1119 1226 758 
Q 1494 397 1959 397 
Q 2419 397 2687 759 
Q 2956 1122 2956 1747 
Q 2956 2369 2687 2733 
Q 2419 3097 1959 3097 
z
M 1959 3584 
Q 2709 3584 3137 3096 
Q 3566 2609 3566 1747 
Q 3566 888 3137 398 
Q 2709 -91 1959 -91 
Q 1206 -91 779 398 
Q 353 888 353 1747 
Q 353 2609 779 3096 
Q 1206 3584 1959 3584 
z
" transform="scale(0.015625)"/>
       <path id="DejaVuSans-66" d="M 2375 4863 
L 2375 4384 
L 1825 4384 
Q 1516 4384 1395 4259 
Q 1275 4134 1275 3809 
L 1275 3500 
L 2222 3500 
L 2222 3053 
L 1275 3053 
L 1275 0 
L 697 0 
L 697 3053 
L 147 3053 
L 147 3500 
L 697 3500 
L 697 3744 
Q 697 4328 969 4595 
Q 1241 4863 1831 4863 
L 2375 4863 
z
" transform="scale(0.015625)"/>
       <path id="DejaVuSans-6e" d="M 3513 2113 
L 3513 0 
L 2938 0 
L 2938 2094 
Q 2938 2591 2744 2837 
Q 2550 3084 2163 3084 
Q 1697 3084 1428 2787 
Q 1159 2491 1159 1978 
L 1159 0 
L 581 0 
L 581 3500 
L 1159 3500 
L 1159 2956 
Q 1366 3272 1645 3428 
Q 1925 3584 2291 3584 
Q 2894 3584 3203 3211 
Q 3513 2838 3513 2113 
z
" transform="scale(0.015625)"/>
       <path id="DejaVuSans-64" d="M 2906 2969 
L 2906 4863 
L 3481 4863 
L 3481 0 
L 2906 0 
L 2906 525 
Q 2725 213 2448 61 
Q 2172 -91 1784 -91 
Q 1150 -91 751 415 
Q 353 922 353 1747 
Q 353 2572 751 3078 
Q 1150 3584 1784 3584 
Q 2172 3584 2448 3432 
Q 2725 3281 2906 2969 
z
M 947 1747 
Q 947 1113 1208 752 
Q 1469 391 1925 391 
Q 2381 391 2643 752 
Q 2906 1113 2906 1747 
Q 2906 2381 2643 2742 
Q 2381 3103 1925 3103 
Q 1469 3103 1208 2742 
Q 947 2381 947 1747 
z
" transform="scale(0.015625)"/>
       <path id="DejaVuSans-65" d="M 3597 1894 
L 3597 1613 
L 953 1613 
Q 991 1019 1311 708 
Q 1631 397 2203 397 
Q 2534 397 2845 478 
Q 3156 559 3463 722 
L 3463 178 
Q 3153 47 2828 -22 
Q 2503 -91 2169 -91 
Q 1331 -91 842 396 
Q 353 884 353 1716 
Q 353 2575 817 3079 
Q 1281 3584 2069 3584 
Q 2775 3584 3186 3129 
Q 3597 2675 3597 1894 
z
M 3022 2063 
Q 3016 2534 2758 2815 
Q 2500 3097 2075 3097 
Q 1594 3097 1305 2825 
Q 1016 2553 972 2059 
L 3022 2063 
z
" transform="scale(0.015625)"/>
       <path id="DejaVuSans-73" d="M 2834 3397 
L 2834 2853 
Q 2591 2978 2328 3040 
Q 2066 3103 1784 3103 
Q 1356 3103 1142 2972 
Q 928 2841 928 2578 
Q 928 2378 1081 2264 
Q 1234 2150 1697 2047 
L 1894 2003 
Q 2506 1872 2764 1633 
Q 3022 1394 3022 966 
Q 3022 478 2636 193 
Q 2250 -91 1575 -91 
Q 1294 -91 989 -36 
Q 684 19 347 128 
L 347 722 
Q 666 556 975 473 
Q 1284 391 1588 391 
Q 1994 391 2212 530 
Q 2431 669 2431 922 
Q 2431 1156 2273 1281 
Q 2116 1406 1581 1522 
L 1381 1569 
Q 847 1681 609 1914 
Q 372 2147 372 2553 
Q 372 3047 722 3315 
Q 1072 3584 1716 3584 
Q 2034 3584 2315 3537 
Q 2597 3491 2834 3397 
z
" transform="scale(0.015625)"/>
      </defs>
      <use xlink:href="#DejaVuSans-23"/>
      <use xlink:href="#DejaVuSans-20" x="83.789062"/>
      <use xlink:href="#DejaVuSans-6f" x="115.576172"/>
      <use xlink:href="#DejaVuSans-66" x="176.757812"/>
      <use xlink:href="#DejaVuSans-20" x="211.962891"/>
      <use xlink:href="#DejaVuSans-6e" x="243.75"/>
      <use xlink:href="#DejaVuSans-6f" x="307.128906"/>
      <use xlink:href="#DejaVuSans-64" x="368.310547"/>
      <use xlink:href="#DejaVuSans-65" x="431.787109"/>
      <use xlink:href="#DejaVuSans-73" x="493.310547"/>
     </g>
    </g>
   </g>
   <g id="matplotlib.axis_2">
    <g id="ytick_1">
     <g id="line2d_11">
      <path d="M 84.882 244.606562 
L 425.4612 244.606562 
" clip-path="url(#p5114794d37)" style="fill: none; stroke: #000000"/>
     </g>
     <g id="line2d_12"/>
     <g id="text_7">
      <!-- 0 -->
      <g transform="translate(72.4745 249.925468) scale(0.14 -0.14)">
       <use xlink:href="#DejaVuSans-30"/>
      </g>
     </g>
    </g>
    <g id="ytick_2">
     <g id="line2d_13">
      <path d="M 84.882 188.696026 
L 425.4612 188.696026 
" clip-path="url(#p5114794d37)" style="fill: none; stroke: #000000"/>
     </g>
     <g id="line2d_14"/>
     <g id="text_8">
      <!-- 5000 -->
      <g transform="translate(45.752 194.014932) scale(0.14 -0.14)">
       <defs>
        <path id="DejaVuSans-35" d="M 691 4666 
L 3169 4666 
L 3169 4134 
L 1269 4134 
L 1269 2991 
Q 1406 3038 1543 3061 
Q 1681 3084 1819 3084 
Q 2600 3084 3056 2656 
Q 3513 2228 3513 1497 
Q 3513 744 3044 326 
Q 2575 -91 1722 -91 
Q 1428 -91 1123 -41 
Q 819 9 494 109 
L 494 744 
Q 775 591 1075 516 
Q 1375 441 1709 441 
Q 2250 441 2565 725 
Q 2881 1009 2881 1497 
Q 2881 1984 2565 2268 
Q 2250 2553 1709 2553 
Q 1456 2553 1204 2497 
Q 953 2441 691 2322 
L 691 4666 
z
" transform="scale(0.015625)"/>
       </defs>
       <use xlink:href="#DejaVuSans-35"/>
       <use xlink:href="#DejaVuSans-30" x="63.623047"/>
       <use xlink:href="#DejaVuSans-30" x="127.246094"/>
       <use xlink:href="#DejaVuSans-30" x="190.869141"/>
      </g>
     </g>
    </g>
    <g id="ytick_3">
     <g id="line2d_15">
      <path d="M 84.882 132.785491 
L 425.4612 132.785491 
" clip-path="url(#p5114794d37)" style="fill: none; stroke: #000000"/>
     </g>
     <g id="line2d_16"/>
     <g id="text_9">
      <!-- 10000 -->
      <g transform="translate(36.8445 138.104397) scale(0.14 -0.14)">
       <use xlink:href="#DejaVuSans-31"/>
       <use xlink:href="#DejaVuSans-30" x="63.623047"/>
       <use xlink:href="#DejaVuSans-30" x="127.246094"/>
       <use xlink:href="#DejaVuSans-30" x="190.869141"/>
       <use xlink:href="#DejaVuSans-30" x="254.492188"/>
      </g>
     </g>
    </g>
    <g id="ytick_4">
     <g id="line2d_17">
      <path d="M 84.882 76.874955 
L 425.4612 76.874955 
" clip-path="url(#p5114794d37)" style="fill: none; stroke: #000000"/>
     </g>
     <g id="line2d_18"/>
     <g id="text_10">
      <!-- 15000 -->
      <g transform="translate(36.8445 82.193861) scale(0.14 -0.14)">
       <use xlink:href="#DejaVuSans-31"/>
       <use xlink:href="#DejaVuSans-35" x="63.623047"/>
       <use xlink:href="#DejaVuSans-30" x="127.246094"/>
       <use xlink:href="#DejaVuSans-30" x="190.869141"/>
       <use xlink:href="#DejaVuSans-30" x="254.492188"/>
      </g>
     </g>
    </g>
    <g id="ytick_5">
     <g id="line2d_19">
      <path d="M 84.882 20.96442 
L 425.4612 20.96442 
" clip-path="url(#p5114794d37)" style="fill: none; stroke: #000000"/>
     </g>
     <g id="line2d_20"/>
     <g id="text_11">
      <!-- 20000 -->
      <g transform="translate(36.8445 26.283326) scale(0.14 -0.14)">
       <use xlink:href="#DejaVuSans-32"/>
       <use xlink:href="#DejaVuSans-30" x="63.623047"/>
       <use xlink:href="#DejaVuSans-30" x="127.246094"/>
       <use xlink:href="#DejaVuSans-30" x="190.869141"/>
       <use xlink:href="#DejaVuSans-30" x="254.492188"/>
      </g>
     </g>
    </g>
    <g id="text_12">
     <!-- classical messages sent -->
     <g transform="translate(29.350625 231.429237) rotate(-90) scale(0.168 -0.168)">
      <defs>
       <path id="DejaVuSans-63" d="M 3122 3366 
L 3122 2828 
Q 2878 2963 2633 3030 
Q 2388 3097 2138 3097 
Q 1578 3097 1268 2742 
Q 959 2388 959 1747 
Q 959 1106 1268 751 
Q 1578 397 2138 397 
Q 2388 397 2633 464 
Q 2878 531 3122 666 
L 3122 134 
Q 2881 22 2623 -34 
Q 2366 -91 2075 -91 
Q 1284 -91 818 406 
Q 353 903 353 1747 
Q 353 2603 823 3093 
Q 1294 3584 2113 3584 
Q 2378 3584 2631 3529 
Q 2884 3475 3122 3366 
z
" transform="scale(0.015625)"/>
       <path id="DejaVuSans-6c" d="M 603 4863 
L 1178 4863 
L 1178 0 
L 603 0 
L 603 4863 
z
" transform="scale(0.015625)"/>
       <path id="DejaVuSans-61" d="M 2194 1759 
Q 1497 1759 1228 1600 
Q 959 1441 959 1056 
Q 959 750 1161 570 
Q 1363 391 1709 391 
Q 2188 391 2477 730 
Q 2766 1069 2766 1631 
L 2766 1759 
L 2194 1759 
z
M 3341 1997 
L 3341 0 
L 2766 0 
L 2766 531 
Q 2569 213 2275 61 
Q 1981 -91 1556 -91 
Q 1019 -91 701 211 
Q 384 513 384 1019 
Q 384 1609 779 1909 
Q 1175 2209 1959 2209 
L 2766 2209 
L 2766 2266 
Q 2766 2663 2505 2880 
Q 2244 3097 1772 3097 
Q 1472 3097 1187 3025 
Q 903 2953 641 2809 
L 641 3341 
Q 956 3463 1253 3523 
Q 1550 3584 1831 3584 
Q 2591 3584 2966 3190 
Q 3341 2797 3341 1997 
z
" transform="scale(0.015625)"/>
       <path id="DejaVuSans-69" d="M 603 3500 
L 1178 3500 
L 1178 0 
L 603 0 
L 603 3500 
z
M 603 4863 
L 1178 4863 
L 1178 4134 
L 603 4134 
L 603 4863 
z
" transform="scale(0.015625)"/>
       <path id="DejaVuSans-6d" d="M 3328 2828 
Q 3544 3216 3844 3400 
Q 4144 3584 4550 3584 
Q 5097 3584 5394 3201 
Q 5691 2819 5691 2113 
L 5691 0 
L 5113 0 
L 5113 2094 
Q 5113 2597 4934 2840 
Q 4756 3084 4391 3084 
Q 3944 3084 3684 2787 
Q 3425 2491 3425 1978 
L 3425 0 
L 2847 0 
L 2847 2094 
Q 2847 2600 2669 2842 
Q 2491 3084 2119 3084 
Q 1678 3084 1418 2786 
Q 1159 2488 1159 1978 
L 1159 0 
L 581 0 
L 581 3500 
L 1159 3500 
L 1159 2956 
Q 1356 3278 1631 3431 
Q 1906 3584 2284 3584 
Q 2666 3584 2933 3390 
Q 3200 3197 3328 2828 
z
" transform="scale(0.015625)"/>
       <path id="DejaVuSans-67" d="M 2906 1791 
Q 2906 2416 2648 2759 
Q 2391 3103 1925 3103 
Q 1463 3103 1205 2759 
Q 947 2416 947 1791 
Q 947 1169 1205 825 
Q 1463 481 1925 481 
Q 2391 481 2648 825 
Q 2906 1169 2906 1791 
z
M 3481 434 
Q 3481 -459 3084 -895 
Q 2688 -1331 1869 -1331 
Q 1566 -1331 1297 -1286 
Q 1028 -1241 775 -1147 
L 775 -588 
Q 1028 -725 1275 -790 
Q 1522 -856 1778 -856 
Q 2344 -856 2625 -561 
Q 2906 -266 2906 331 
L 2906 616 
Q 2728 306 2450 153 
Q 2172 0 1784 0 
Q 1141 0 747 490 
Q 353 981 353 1791 
Q 353 2603 747 3093 
Q 1141 3584 1784 3584 
Q 2172 3584 2450 3431 
Q 2728 3278 2906 2969 
L 2906 3500 
L 3481 3500 
L 3481 434 
z
" transform="scale(0.015625)"/>
       <path id="DejaVuSans-74" d="M 1172 4494 
L 1172 3500 
L 2356 3500 
L 2356 3053 
L 1172 3053 
L 1172 1153 
Q 1172 725 1289 603 
Q 1406 481 1766 481 
L 2356 481 
L 2356 0 
L 1766 0 
Q 1100 0 847 248 
Q 594 497 594 1153 
L 594 3053 
L 172 3053 
L 172 3500 
L 594 3500 
L 594 4494 
L 1172 4494 
z
" transform="scale(0.015625)"/>
      </defs>
      <use xlink:href="#DejaVuSans-63"/>
      <use xlink:href="#DejaVuSans-6c" x="54.980469"/>
      <use xlink:href="#DejaVuSans-61" x="82.763672"/>
      <use xlink:href="#DejaVuSans-73" x="144.042969"/>
      <use xlink:href="#DejaVuSans-73" x="196.142578"/>
      <use xlink:href="#DejaVuSans-69" x="248.242188"/>
      <use xlink:href="#DejaVuSans-63" x="276.025391"/>
      <use xlink:href="#DejaVuSans-61" x="331.005859"/>
      <use xlink:href="#DejaVuSans-6c" x="392.285156"/>
      <use xlink:href="#DejaVuSans-20" x="420.068359"/>
      <use xlink:href="#DejaVuSans-6d" x="451.855469"/>
      <use xlink:href="#DejaVuSans-65" x="549.267578"/>
      <use xlink:href="#DejaVuSans-73" x="610.791016"/>
      <use xlink:href="#DejaVuSans-73" x="662.890625"/>
      <use xlink:href="#DejaVuSans-61" x="714.990234"/>
      <use xlink:href="#DejaVuSans-67" x="776.269531"/>
      <use xlink:href="#DejaVuSans-65" x="839.746094"/>
      <use xlink:href="#DejaVuSans-73" x="901.269531"/>
      <use xlink:href="#DejaVuSans-20" x="953.369141"/>
      <use xlink:href="#DejaVuSans-73" x="985.15625"/>
      <use xlink:href="#DejaVuSans-65" x="1037.255859"/>
      <use xlink:href="#DejaVuSans-6e" x="1098.779297"/>
      <use xlink:href="#DejaVuSans-74" x="1162.158203"/>
     </g>
    </g>
   </g>
   <g id="line2d_21">
    <path d="M 100.362873 234.542665 
L 103.656675 232.306244 
L 106.950478 230.069822 
L 110.244281 227.833401 
L 113.538084 225.59698 
L 116.831886 223.360558 
L 120.125689 221.124137 
L 123.419492 218.887715 
L 126.713294 216.651294 
L 130.007097 214.414872 
L 133.3009 212.178451 
L 136.594703 209.94203 
L 139.888505 207.705608 
L 143.182308 205.469187 
L 146.476111 203.232765 
L 149.769913 200.996344 
L 153.063716 198.759922 
L 156.357519 196.523501 
L 159.651321 194.28708 
L 162.945124 192.050658 
L 166.238927 189.814237 
L 169.53273 187.577815 
L 172.826532 185.341394 
L 176.120335 183.104973 
L 179.414138 180.868551 
L 182.70794 178.63213 
L 186.001743 176.395708 
L 189.295546 174.192833 
L 192.589349 171.956412 
L 195.883151 169.753537 
L 199.176954 167.528297 
L 202.470757 165.31424 
L 205.764559 163.100183 
L 209.058362 160.886126 
L 212.352165 158.683251 
L 215.645968 156.458011 
L 218.93977 154.243954 
L 222.233573 152.052261 
L 225.527376 149.838204 
L 228.821178 147.612965 
L 232.114981 145.398907 
L 235.408784 143.173668 
L 238.702587 140.959611 
L 241.996389 138.756736 
L 245.290192 136.553861 
L 248.583995 134.339804 
L 251.877797 132.114564 
L 255.1716 129.889325 
L 258.465403 127.68645 
L 261.759205 125.472393 
L 265.053008 123.247153 
L 268.346811 121.033096 
L 271.640614 118.830221 
L 274.934416 116.616164 
L 278.228219 114.402107 
L 281.522022 112.188049 
L 284.815824 109.973992 
L 288.109627 107.759935 
L 291.40343 105.55706 
L 294.697233 103.365367 
L 297.991035 101.196038 
L 301.284838 99.004345 
L 304.578641 96.790288 
L 307.872443 94.620959 
L 311.166246 92.418084 
L 314.460049 90.226391 
L 317.753852 88.034698 
L 321.047654 85.843005 
L 324.341457 83.64013 
L 327.63526 81.448437 
L 330.929062 79.279108 
L 334.222865 77.076233 
L 337.516668 74.906904 
L 340.81047 72.681665 
L 344.104273 70.523518 
L 347.398076 68.298279 
L 350.691879 66.12895 
L 353.985681 63.903711 
L 357.279484 61.745564 
L 360.573287 59.542689 
L 363.867089 57.350996 
L 367.160892 55.170485 
L 370.454695 52.96761 
L 373.748498 50.798281 
L 377.0423 48.584224 
L 380.336103 46.392531 
L 383.629906 44.21202 
L 386.923708 42.009145 
L 390.217511 39.839816 
L 393.511314 37.670488 
L 396.805117 35.467613 
L 400.098919 33.298284 
L 403.392722 31.162501 
L 406.686525 28.98199 
L 409.980327 26.812662 
" clip-path="url(#p5114794d37)" style="fill: none; stroke: #ff0000; stroke-width: 4"/>
   </g>
   <g id="patch_3">
    <path d="M 84.882 244.606562 
L 84.882 16.426162 
" style="fill: none; stroke: #000000; stroke-width: 3; stroke-linejoin: miter; stroke-linecap: square"/>
   </g>
   <g id="patch_4">
    <path d="M 425.4612 244.606562 
L 425.4612 16.426162 
" style="fill: none; stroke: #000000; stroke-width: 3; stroke-linejoin: miter; stroke-linecap: square"/>
   </g>
   <g id="patch_5">
    <path d="M 84.882 244.606562 
L 425.4612 244.606562 
" style="fill: none; stroke: #000000; stroke-width: 3; stroke-linejoin: miter; stroke-linecap: square"/>
   </g>
   <g id="patch_6">
    <path d="M 84.882 16.426162 
L 425.4612 16.426162 
" style="fill: none; stroke: #000000; stroke-width: 3; stroke-linejoin: miter; stroke-linecap: square"/>
   </g>
   <g id="legend_1">
    <g id="patch_7">
     <path d="M 94.682 48.175537 
L 201.707625 48.175537 
Q 204.507625 48.175537 204.507625 45.375537 
L 204.507625 26.226162 
Q 204.507625 23.426162 201.707625 23.426162 
L 94.682 23.426162 
Q 91.882 23.426162 91.882 26.226162 
L 91.882 45.375537 
Q 91.882 48.175537 94.682 48.175537 
z
" style="fill: #ffffff; opacity: 0.8; stroke: #cccccc; stroke-width: 0.5; stroke-linejoin: miter"/>
    </g>
    <g id="line2d_22">
     <path d="M 97.482 34.763974 
L 111.482 34.763974 
L 125.482 34.763974 
" style="fill: none; stroke: #ff0000; stroke-width: 4"/>
    </g>
    <g id="text_13">
     <!-- no vlinks -->
     <g transform="translate(136.682 39.663974) scale(0.14 -0.14)">
      <defs>
       <path id="DejaVuSans-76" d="M 191 3500 
L 800 3500 
L 1894 563 
L 2988 3500 
L 3597 3500 
L 2284 0 
L 1503 0 
L 191 3500 
z
" transform="scale(0.015625)"/>
       <path id="DejaVuSans-6b" d="M 581 4863 
L 1159 4863 
L 1159 1991 
L 2875 3500 
L 3609 3500 
L 1753 1863 
L 3688 0 
L 2938 0 
L 1159 1709 
L 1159 0 
L 581 0 
L 581 4863 
z
" transform="scale(0.015625)"/>
      </defs>
      <use xlink:href="#DejaVuSans-6e"/>
      <use xlink:href="#DejaVuSans-6f" x="63.378906"/>
      <use xlink:href="#DejaVuSans-20" x="124.560547"/>
      <use xlink:href="#DejaVuSans-76" x="156.347656"/>
      <use xlink:href="#DejaVuSans-6c" x="215.527344"/>
      <use xlink:href="#DejaVuSans-69" x="243.310547"/>
      <use xlink:href="#DejaVuSans-6e" x="271.09375"/>
      <use xlink:href="#DejaVuSans-6b" x="334.472656"/>
      <use xlink:href="#DejaVuSans-73" x="392.382812"/>
     </g>
    </g>
   </g>
  </g>
  <g id="axes_2">
   <g id="patch_8">
    <path d="M 507.252 244.606562 
L 847.8312 244.606562 
L 847.8312 16.426162 
L 507.252 16.426162 
z
" style="fill: #ffffff"/>
   </g>
   <g id="matplotlib.axis_3">
    <g id="xtick_6">
     <g id="line2d_23">
      <path d="M 572.139913 244.606562 
L 572.139913 16.426162 
" clip-path="url(#p4c0d854530)" style="fill: none; stroke: #000000"/>
     </g>
     <g id="line2d_24"/>
     <g id="text_14">
      <!-- 20 -->
      <g transform="translate(563.232413 258.744374) scale(0.14 -0.14)">
       <use xlink:href="#DejaVuSans-32"/>
       <use xlink:href="#DejaVuSans-30" x="63.623047"/>
      </g>
     </g>
    </g>
    <g id="xtick_7">
     <g id="line2d_25">
      <path d="M 638.015968 244.606562 
L 638.015968 16.426162 
" clip-path="url(#p4c0d854530)" style="fill: none; stroke: #000000"/>
     </g>
     <g id="line2d_26"/>
     <g id="text_15">
      <!-- 40 -->
      <g transform="translate(629.108468 258.744374) scale(0.14 -0.14)">
       <use xlink:href="#DejaVuSans-34"/>
       <use xlink:href="#DejaVuSans-30" x="63.623047"/>
      </g>
     </g>
    </g>
    <g id="xtick_8">
     <g id="line2d_27">
      <path d="M 703.892022 244.606562 
L 703.892022 16.426162 
" clip-path="url(#p4c0d854530)" style="fill: none; stroke: #000000"/>
     </g>
     <g id="line2d_28"/>
     <g id="text_16">
      <!-- 60 -->
      <g transform="translate(694.984522 258.744374) scale(0.14 -0.14)">
       <use xlink:href="#DejaVuSans-36"/>
       <use xlink:href="#DejaVuSans-30" x="63.623047"/>
      </g>
     </g>
    </g>
    <g id="xtick_9">
     <g id="line2d_29">
      <path d="M 769.768076 244.606562 
L 769.768076 16.426162 
" clip-path="url(#p4c0d854530)" style="fill: none; stroke: #000000"/>
     </g>
     <g id="line2d_30"/>
     <g id="text_17">
      <!-- 80 -->
      <g transform="translate(760.860576 258.744374) scale(0.14 -0.14)">
       <use xlink:href="#DejaVuSans-38"/>
       <use xlink:href="#DejaVuSans-30" x="63.623047"/>
      </g>
     </g>
    </g>
    <g id="xtick_10">
     <g id="line2d_31">
      <path d="M 835.64413 244.606562 
L 835.64413 16.426162 
" clip-path="url(#p4c0d854530)" style="fill: none; stroke: #000000"/>
     </g>
     <g id="line2d_32"/>
     <g id="text_18">
      <!-- 100 -->
      <g transform="translate(822.28288 258.744374) scale(0.14 -0.14)">
       <use xlink:href="#DejaVuSans-31"/>
       <use xlink:href="#DejaVuSans-30" x="63.623047"/>
       <use xlink:href="#DejaVuSans-30" x="127.246094"/>
      </g>
     </g>
    </g>
    <g id="text_19">
     <!-- # of nodes -->
     <g transform="translate(631.726163 278.421312) scale(0.168 -0.168)">
      <use xlink:href="#DejaVuSans-23"/>
      <use xlink:href="#DejaVuSans-20" x="83.789062"/>
      <use xlink:href="#DejaVuSans-6f" x="115.576172"/>
      <use xlink:href="#DejaVuSans-66" x="176.757812"/>
      <use xlink:href="#DejaVuSans-20" x="211.962891"/>
      <use xlink:href="#DejaVuSans-6e" x="243.75"/>
      <use xlink:href="#DejaVuSans-6f" x="307.128906"/>
      <use xlink:href="#DejaVuSans-64" x="368.310547"/>
      <use xlink:href="#DejaVuSans-65" x="431.787109"/>
      <use xlink:href="#DejaVuSans-73" x="493.310547"/>
     </g>
    </g>
   </g>
   <g id="matplotlib.axis_4">
    <g id="ytick_6">
     <g id="line2d_33">
      <path d="M 507.252 244.606562 
L 847.8312 244.606562 
" clip-path="url(#p4c0d854530)" style="fill: none; stroke: #000000"/>
     </g>
     <g id="line2d_34"/>
     <g id="text_20">
      <!-- 0 -->
      <g transform="translate(494.8445 249.925468) scale(0.14 -0.14)">
       <use xlink:href="#DejaVuSans-30"/>
      </g>
     </g>
    </g>
    <g id="ytick_7">
     <g id="line2d_35">
      <path d="M 507.252 212.345795 
L 847.8312 212.345795 
" clip-path="url(#p4c0d854530)" style="fill: none; stroke: #000000"/>
     </g>
     <g id="line2d_36"/>
     <g id="text_21">
      <!-- 100 -->
      <g transform="translate(477.0295 217.664702) scale(0.14 -0.14)">
       <use xlink:href="#DejaVuSans-31"/>
       <use xlink:href="#DejaVuSans-30" x="63.623047"/>
       <use xlink:href="#DejaVuSans-30" x="127.246094"/>
      </g>
     </g>
    </g>
    <g id="ytick_8">
     <g id="line2d_37">
      <path d="M 507.252 180.085029 
L 847.8312 180.085029 
" clip-path="url(#p4c0d854530)" style="fill: none; stroke: #000000"/>
     </g>
     <g id="line2d_38"/>
     <g id="text_22">
      <!-- 200 -->
      <g transform="translate(477.0295 185.403935) scale(0.14 -0.14)">
       <use xlink:href="#DejaVuSans-32"/>
       <use xlink:href="#DejaVuSans-30" x="63.623047"/>
       <use xlink:href="#DejaVuSans-30" x="127.246094"/>
      </g>
     </g>
    </g>
    <g id="ytick_9">
     <g id="line2d_39">
      <path d="M 507.252 147.824263 
L 847.8312 147.824263 
" clip-path="url(#p4c0d854530)" style="fill: none; stroke: #000000"/>
     </g>
     <g id="line2d_40"/>
     <g id="text_23">
      <!-- 300 -->
      <g transform="translate(477.0295 153.143169) scale(0.14 -0.14)">
       <defs>
        <path id="DejaVuSans-33" d="M 2597 2516 
Q 3050 2419 3304 2112 
Q 3559 1806 3559 1356 
Q 3559 666 3084 287 
Q 2609 -91 1734 -91 
Q 1441 -91 1130 -33 
Q 819 25 488 141 
L 488 750 
Q 750 597 1062 519 
Q 1375 441 1716 441 
Q 2309 441 2620 675 
Q 2931 909 2931 1356 
Q 2931 1769 2642 2001 
Q 2353 2234 1838 2234 
L 1294 2234 
L 1294 2753 
L 1863 2753 
Q 2328 2753 2575 2939 
Q 2822 3125 2822 3475 
Q 2822 3834 2567 4026 
Q 2313 4219 1838 4219 
Q 1578 4219 1281 4162 
Q 984 4106 628 3988 
L 628 4550 
Q 988 4650 1302 4700 
Q 1616 4750 1894 4750 
Q 2613 4750 3031 4423 
Q 3450 4097 3450 3541 
Q 3450 3153 3228 2886 
Q 3006 2619 2597 2516 
z
" transform="scale(0.015625)"/>
       </defs>
       <use xlink:href="#DejaVuSans-33"/>
       <use xlink:href="#DejaVuSans-30" x="63.623047"/>
       <use xlink:href="#DejaVuSans-30" x="127.246094"/>
      </g>
     </g>
    </g>
    <g id="ytick_10">
     <g id="line2d_41">
      <path d="M 507.252 115.563496 
L 847.8312 115.563496 
" clip-path="url(#p4c0d854530)" style="fill: none; stroke: #000000"/>
     </g>
     <g id="line2d_42"/>
     <g id="text_24">
      <!-- 400 -->
      <g transform="translate(477.0295 120.882403) scale(0.14 -0.14)">
       <use xlink:href="#DejaVuSans-34"/>
       <use xlink:href="#DejaVuSans-30" x="63.623047"/>
       <use xlink:href="#DejaVuSans-30" x="127.246094"/>
      </g>
     </g>
    </g>
    <g id="ytick_11">
     <g id="line2d_43">
      <path d="M 507.252 83.30273 
L 847.8312 83.30273 
" clip-path="url(#p4c0d854530)" style="fill: none; stroke: #000000"/>
     </g>
     <g id="line2d_44"/>
     <g id="text_25">
      <!-- 500 -->
      <g transform="translate(477.0295 88.621636) scale(0.14 -0.14)">
       <use xlink:href="#DejaVuSans-35"/>
       <use xlink:href="#DejaVuSans-30" x="63.623047"/>
       <use xlink:href="#DejaVuSans-30" x="127.246094"/>
      </g>
     </g>
    </g>
    <g id="ytick_12">
     <g id="line2d_45">
      <path d="M 507.252 51.041964 
L 847.8312 51.041964 
" clip-path="url(#p4c0d854530)" style="fill: none; stroke: #000000"/>
     </g>
     <g id="line2d_46"/>
     <g id="text_26">
      <!-- 600 -->
      <g transform="translate(477.0295 56.36087) scale(0.14 -0.14)">
       <use xlink:href="#DejaVuSans-36"/>
       <use xlink:href="#DejaVuSans-30" x="63.623047"/>
       <use xlink:href="#DejaVuSans-30" x="127.246094"/>
      </g>
     </g>
    </g>
    <g id="ytick_13">
     <g id="line2d_47">
      <path d="M 507.252 18.781197 
L 847.8312 18.781197 
" clip-path="url(#p4c0d854530)" style="fill: none; stroke: #000000"/>
     </g>
     <g id="line2d_48"/>
     <g id="text_27">
      <!-- 700 -->
      <g transform="translate(477.0295 24.100104) scale(0.14 -0.14)">
       <defs>
        <path id="DejaVuSans-37" d="M 525 4666 
L 3525 4666 
L 3525 4397 
L 1831 0 
L 1172 0 
L 2766 4134 
L 525 4134 
L 525 4666 
z
" transform="scale(0.015625)"/>
       </defs>
       <use xlink:href="#DejaVuSans-37"/>
       <use xlink:href="#DejaVuSans-30" x="63.623047"/>
       <use xlink:href="#DejaVuSans-30" x="127.246094"/>
      </g>
     </g>
    </g>
    <g id="text_28">
     <!-- classical messages sent -->
     <g transform="translate(469.535625 231.429237) rotate(-90) scale(0.168 -0.168)">
      <use xlink:href="#DejaVuSans-63"/>
      <use xlink:href="#DejaVuSans-6c" x="54.980469"/>
      <use xlink:href="#DejaVuSans-61" x="82.763672"/>
      <use xlink:href="#DejaVuSans-73" x="144.042969"/>
      <use xlink:href="#DejaVuSans-73" x="196.142578"/>
      <use xlink:href="#DejaVuSans-69" x="248.242188"/>
      <use xlink:href="#DejaVuSans-63" x="276.025391"/>
      <use xlink:href="#DejaVuSans-61" x="331.005859"/>
      <use xlink:href="#DejaVuSans-6c" x="392.285156"/>
      <use xlink:href="#DejaVuSans-20" x="420.068359"/>
      <use xlink:href="#DejaVuSans-6d" x="451.855469"/>
      <use xlink:href="#DejaVuSans-65" x="549.267578"/>
      <use xlink:href="#DejaVuSans-73" x="610.791016"/>
      <use xlink:href="#DejaVuSans-73" x="662.890625"/>
      <use xlink:href="#DejaVuSans-61" x="714.990234"/>
      <use xlink:href="#DejaVuSans-67" x="776.269531"/>
      <use xlink:href="#DejaVuSans-65" x="839.746094"/>
      <use xlink:href="#DejaVuSans-73" x="901.269531"/>
      <use xlink:href="#DejaVuSans-20" x="953.369141"/>
      <use xlink:href="#DejaVuSans-73" x="985.15625"/>
      <use xlink:href="#DejaVuSans-65" x="1037.255859"/>
      <use xlink:href="#DejaVuSans-6e" x="1098.779297"/>
      <use xlink:href="#DejaVuSans-74" x="1162.158203"/>
     </g>
    </g>
   </g>
   <g id="line2d_49">
    <path d="M 522.732873 18.45859 
L 526.026675 18.45859 
L 529.320478 18.45859 
L 532.614281 18.45859 
L 535.908084 18.45859 
L 539.201886 18.45859 
L 542.495689 18.45859 
L 545.789492 18.45859 
L 549.083294 18.45859 
L 552.377097 18.45859 
L 555.6709 18.45859 
L 558.964703 18.45859 
L 562.258505 18.45859 
L 565.552308 18.45859 
L 568.846111 18.45859 
L 572.139913 18.135982 
L 575.433716 18.135982 
L 578.727519 18.135982 
L 582.021321 18.135982 
L 585.315124 18.135982 
L 588.608927 18.135982 
L 591.90273 18.135982 
L 595.196532 18.135982 
L 598.490335 18.135982 
L 601.784138 18.135982 
L 605.07794 18.135982 
L 608.371743 18.135982 
L 611.665546 18.135982 
L 614.959349 18.135982 
L 618.253151 18.135982 
L 621.546954 17.813374 
L 624.840757 17.813374 
L 628.134559 17.813374 
L 631.428362 17.813374 
L 634.722165 17.813374 
L 638.015968 17.813374 
L 641.30977 17.813374 
L 644.603573 17.813374 
L 647.897376 17.813374 
L 651.191178 17.813374 
L 654.484981 17.813374 
L 657.778784 17.813374 
L 661.072587 17.813374 
L 664.366389 17.813374 
L 667.660192 17.813374 
L 670.953995 17.490767 
L 674.247797 17.490767 
L 677.5416 17.490767 
L 680.835403 17.490767 
L 684.129205 17.490767 
L 687.423008 17.490767 
L 690.716811 17.490767 
L 694.010614 17.490767 
L 697.304416 17.490767 
L 700.598219 17.490767 
L 703.892022 17.490767 
L 707.185824 17.490767 
L 710.479627 17.490767 
L 713.77343 17.490767 
L 717.067233 17.490767 
L 720.361035 17.490767 
L 723.654838 17.168159 
L 726.948641 17.168159 
L 730.242443 17.168159 
L 733.536246 17.168159 
L 736.830049 17.168159 
L 740.123852 17.168159 
L 743.417654 17.168159 
L 746.711457 17.168159 
L 750.00526 17.168159 
L 753.299062 17.168159 
L 756.592865 17.168159 
L 759.886668 17.168159 
L 763.18047 17.168159 
L 766.474273 17.168159 
L 769.768076 17.168159 
L 773.061879 16.845551 
L 776.355681 16.845551 
L 779.649484 16.845551 
L 782.943287 16.845551 
L 786.237089 16.845551 
L 789.530892 16.845551 
L 792.824695 16.845551 
L 796.118498 16.845551 
L 799.4123 16.845551 
L 802.706103 16.845551 
L 805.999906 16.845551 
L 809.293708 16.845551 
L 812.587511 16.845551 
L 815.881314 16.845551 
L 819.175117 16.845551 
L 822.468919 16.522944 
L 825.762722 16.522944 
L 829.056525 16.522944 
L 832.350327 16.522944 
" clip-path="url(#p4c0d854530)" style="fill: none; stroke: #0000ff; stroke-width: 4"/>
   </g>
   <g id="patch_9">
    <path d="M 507.252 244.606562 
L 507.252 16.426162 
" style="fill: none; stroke: #000000; stroke-width: 3; stroke-linejoin: miter; stroke-linecap: square"/>
   </g>
   <g id="patch_10">
    <path d="M 847.8312 244.606562 
L 847.8312 16.426162 
" style="fill: none; stroke: #000000; stroke-width: 3; stroke-linejoin: miter; stroke-linecap: square"/>
   </g>
   <g id="patch_11">
    <path d="M 507.252 244.606562 
L 847.8312 244.606562 
" style="fill: none; stroke: #000000; stroke-width: 3; stroke-linejoin: miter; stroke-linecap: square"/>
   </g>
   <g id="patch_12">
    <path d="M 507.252 16.426162 
L 847.8312 16.426162 
" style="fill: none; stroke: #000000; stroke-width: 3; stroke-linejoin: miter; stroke-linecap: square"/>
   </g>
   <g id="legend_2">
    <g id="patch_13">
     <path d="M 752.8937 48.175537 
L 838.0312 48.175537 
Q 840.8312 48.175537 840.8312 45.375537 
L 840.8312 26.226162 
Q 840.8312 23.426162 838.0312 23.426162 
L 752.8937 23.426162 
Q 750.0937 23.426162 750.0937 26.226162 
L 750.0937 45.375537 
Q 750.0937 48.175537 752.8937 48.175537 
z
" style="fill: #ffffff; opacity: 0.8; stroke: #cccccc; stroke-width: 0.5; stroke-linejoin: miter"/>
    </g>
    <g id="line2d_50">
     <path d="M 755.6937 34.763974 
L 769.6937 34.763974 
L 783.6937 34.763974 
" style="fill: none; stroke: #0000ff; stroke-width: 4"/>
    </g>
    <g id="text_29">
     <!-- vlinks -->
     <g transform="translate(794.8937 39.663974) scale(0.14 -0.14)">
      <use xlink:href="#DejaVuSans-76"/>
      <use xlink:href="#DejaVuSans-6c" x="59.179688"/>
      <use xlink:href="#DejaVuSans-69" x="86.962891"/>
      <use xlink:href="#DejaVuSans-6e" x="114.746094"/>
      <use xlink:href="#DejaVuSans-6b" x="178.125"/>
      <use xlink:href="#DejaVuSans-73" x="236.035156"/>
     </g>
    </g>
   </g>
  </g>
  <g id="axes_3">
   <g id="patch_14">
    <path d="M 84.882 527.873281 
L 425.4612 527.873281 
L 425.4612 299.692881 
L 84.882 299.692881 
z
" style="fill: #ffffff"/>
   </g>
   <g id="matplotlib.axis_5">
    <g id="xtick_11">
     <g id="line2d_51">
      <path d="M 149.769913 527.873281 
L 149.769913 299.692881 
" clip-path="url(#p53686b6685)" style="fill: none; stroke: #000000"/>
     </g>
     <g id="line2d_52"/>
     <g id="text_30">
      <!-- 20 -->
      <g transform="translate(140.862413 542.011093) scale(0.14 -0.14)">
       <use xlink:href="#DejaVuSans-32"/>
       <use xlink:href="#DejaVuSans-30" x="63.623047"/>
      </g>
     </g>
    </g>
    <g id="xtick_12">
     <g id="line2d_53">
      <path d="M 215.645968 527.873281 
L 215.645968 299.692881 
" clip-path="url(#p53686b6685)" style="fill: none; stroke: #000000"/>
     </g>
     <g id="line2d_54"/>
     <g id="text_31">
      <!-- 40 -->
      <g transform="translate(206.738468 542.011093) scale(0.14 -0.14)">
       <use xlink:href="#DejaVuSans-34"/>
       <use xlink:href="#DejaVuSans-30" x="63.623047"/>
      </g>
     </g>
    </g>
    <g id="xtick_13">
     <g id="line2d_55">
      <path d="M 281.522022 527.873281 
L 281.522022 299.692881 
" clip-path="url(#p53686b6685)" style="fill: none; stroke: #000000"/>
     </g>
     <g id="line2d_56"/>
     <g id="text_32">
      <!-- 60 -->
      <g transform="translate(272.614522 542.011093) scale(0.14 -0.14)">
       <use xlink:href="#DejaVuSans-36"/>
       <use xlink:href="#DejaVuSans-30" x="63.623047"/>
      </g>
     </g>
    </g>
    <g id="xtick_14">
     <g id="line2d_57">
      <path d="M 347.398076 527.873281 
L 347.398076 299.692881 
" clip-path="url(#p53686b6685)" style="fill: none; stroke: #000000"/>
     </g>
     <g id="line2d_58"/>
     <g id="text_33">
      <!-- 80 -->
      <g transform="translate(338.490576 542.011093) scale(0.14 -0.14)">
       <use xlink:href="#DejaVuSans-38"/>
       <use xlink:href="#DejaVuSans-30" x="63.623047"/>
      </g>
     </g>
    </g>
    <g id="xtick_15">
     <g id="line2d_59">
      <path d="M 413.27413 527.873281 
L 413.27413 299.692881 
" clip-path="url(#p53686b6685)" style="fill: none; stroke: #000000"/>
     </g>
     <g id="line2d_60"/>
     <g id="text_34">
      <!-- 100 -->
      <g transform="translate(399.91288 542.011093) scale(0.14 -0.14)">
       <use xlink:href="#DejaVuSans-31"/>
       <use xlink:href="#DejaVuSans-30" x="63.623047"/>
       <use xlink:href="#DejaVuSans-30" x="127.246094"/>
      </g>
     </g>
    </g>
    <g id="text_35">
     <!-- # of nodes -->
     <g transform="translate(209.356163 561.688031) scale(0.168 -0.168)">
      <use xlink:href="#DejaVuSans-23"/>
      <use xlink:href="#DejaVuSans-20" x="83.789062"/>
      <use xlink:href="#DejaVuSans-6f" x="115.576172"/>
      <use xlink:href="#DejaVuSans-66" x="176.757812"/>
      <use xlink:href="#DejaVuSans-20" x="211.962891"/>
      <use xlink:href="#DejaVuSans-6e" x="243.75"/>
      <use xlink:href="#DejaVuSans-6f" x="307.128906"/>
      <use xlink:href="#DejaVuSans-64" x="368.310547"/>
      <use xlink:href="#DejaVuSans-65" x="431.787109"/>
      <use xlink:href="#DejaVuSans-73" x="493.310547"/>
     </g>
    </g>
   </g>
   <g id="matplotlib.axis_6">
    <g id="ytick_14">
     <g id="line2d_61">
      <path d="M 84.882 527.873281 
L 425.4612 527.873281 
" clip-path="url(#p53686b6685)" style="fill: none; stroke: #000000"/>
     </g>
     <g id="line2d_62"/>
     <g id="text_36">
      <!-- 0 -->
      <g transform="translate(72.4745 533.192187) scale(0.14 -0.14)">
       <use xlink:href="#DejaVuSans-30"/>
      </g>
     </g>
    </g>
    <g id="ytick_15">
     <g id="line2d_63">
      <path d="M 84.882 482.940843 
L 425.4612 482.940843 
" clip-path="url(#p53686b6685)" style="fill: none; stroke: #000000"/>
     </g>
     <g id="line2d_64"/>
     <g id="text_37">
      <!-- 2000 -->
      <g transform="translate(45.752 488.259749) scale(0.14 -0.14)">
       <use xlink:href="#DejaVuSans-32"/>
       <use xlink:href="#DejaVuSans-30" x="63.623047"/>
       <use xlink:href="#DejaVuSans-30" x="127.246094"/>
       <use xlink:href="#DejaVuSans-30" x="190.869141"/>
      </g>
     </g>
    </g>
    <g id="ytick_16">
     <g id="line2d_65">
      <path d="M 84.882 438.008405 
L 425.4612 438.008405 
" clip-path="url(#p53686b6685)" style="fill: none; stroke: #000000"/>
     </g>
     <g id="line2d_66"/>
     <g id="text_38">
      <!-- 4000 -->
      <g transform="translate(45.752 443.327311) scale(0.14 -0.14)">
       <use xlink:href="#DejaVuSans-34"/>
       <use xlink:href="#DejaVuSans-30" x="63.623047"/>
       <use xlink:href="#DejaVuSans-30" x="127.246094"/>
       <use xlink:href="#DejaVuSans-30" x="190.869141"/>
      </g>
     </g>
    </g>
    <g id="ytick_17">
     <g id="line2d_67">
      <path d="M 84.882 393.075967 
L 425.4612 393.075967 
" clip-path="url(#p53686b6685)" style="fill: none; stroke: #000000"/>
     </g>
     <g id="line2d_68"/>
     <g id="text_39">
      <!-- 6000 -->
      <g transform="translate(45.752 398.394873) scale(0.14 -0.14)">
       <use xlink:href="#DejaVuSans-36"/>
       <use xlink:href="#DejaVuSans-30" x="63.623047"/>
       <use xlink:href="#DejaVuSans-30" x="127.246094"/>
       <use xlink:href="#DejaVuSans-30" x="190.869141"/>
      </g>
     </g>
    </g>
    <g id="ytick_18">
     <g id="line2d_69">
      <path d="M 84.882 348.143529 
L 425.4612 348.143529 
" clip-path="url(#p53686b6685)" style="fill: none; stroke: #000000"/>
     </g>
     <g id="line2d_70"/>
     <g id="text_40">
      <!-- 8000 -->
      <g transform="translate(45.752 353.462435) scale(0.14 -0.14)">
       <use xlink:href="#DejaVuSans-38"/>
       <use xlink:href="#DejaVuSans-30" x="63.623047"/>
       <use xlink:href="#DejaVuSans-30" x="127.246094"/>
       <use xlink:href="#DejaVuSans-30" x="190.869141"/>
      </g>
     </g>
    </g>
    <g id="ytick_19">
     <g id="line2d_71">
      <path d="M 84.882 303.211091 
L 425.4612 303.211091 
" clip-path="url(#p53686b6685)" style="fill: none; stroke: #000000"/>
     </g>
     <g id="line2d_72"/>
     <g id="text_41">
      <!-- 10000 -->
      <g transform="translate(36.8445 308.529997) scale(0.14 -0.14)">
       <use xlink:href="#DejaVuSans-31"/>
       <use xlink:href="#DejaVuSans-30" x="63.623047"/>
       <use xlink:href="#DejaVuSans-30" x="127.246094"/>
       <use xlink:href="#DejaVuSans-30" x="190.869141"/>
       <use xlink:href="#DejaVuSans-30" x="254.492188"/>
      </g>
     </g>
    </g>
    <g id="text_42">
     <!-- qubits sent -->
     <g transform="translate(29.350625 460.605206) rotate(-90) scale(0.168 -0.168)">
      <defs>
       <path id="DejaVuSans-71" d="M 947 1747 
Q 947 1113 1208 752 
Q 1469 391 1925 391 
Q 2381 391 2643 752 
Q 2906 1113 2906 1747 
Q 2906 2381 2643 2742 
Q 2381 3103 1925 3103 
Q 1469 3103 1208 2742 
Q 947 2381 947 1747 
z
M 2906 525 
Q 2725 213 2448 61 
Q 2172 -91 1784 -91 
Q 1150 -91 751 415 
Q 353 922 353 1747 
Q 353 2572 751 3078 
Q 1150 3584 1784 3584 
Q 2172 3584 2448 3432 
Q 2725 3281 2906 2969 
L 2906 3500 
L 3481 3500 
L 3481 -1331 
L 2906 -1331 
L 2906 525 
z
" transform="scale(0.015625)"/>
       <path id="DejaVuSans-75" d="M 544 1381 
L 544 3500 
L 1119 3500 
L 1119 1403 
Q 1119 906 1312 657 
Q 1506 409 1894 409 
Q 2359 409 2629 706 
Q 2900 1003 2900 1516 
L 2900 3500 
L 3475 3500 
L 3475 0 
L 2900 0 
L 2900 538 
Q 2691 219 2414 64 
Q 2138 -91 1772 -91 
Q 1169 -91 856 284 
Q 544 659 544 1381 
z
M 1991 3584 
L 1991 3584 
z
" transform="scale(0.015625)"/>
       <path id="DejaVuSans-62" d="M 3116 1747 
Q 3116 2381 2855 2742 
Q 2594 3103 2138 3103 
Q 1681 3103 1420 2742 
Q 1159 2381 1159 1747 
Q 1159 1113 1420 752 
Q 1681 391 2138 391 
Q 2594 391 2855 752 
Q 3116 1113 3116 1747 
z
M 1159 2969 
Q 1341 3281 1617 3432 
Q 1894 3584 2278 3584 
Q 2916 3584 3314 3078 
Q 3713 2572 3713 1747 
Q 3713 922 3314 415 
Q 2916 -91 2278 -91 
Q 1894 -91 1617 61 
Q 1341 213 1159 525 
L 1159 0 
L 581 0 
L 581 4863 
L 1159 4863 
L 1159 2969 
z
" transform="scale(0.015625)"/>
      </defs>
      <use xlink:href="#DejaVuSans-71"/>
      <use xlink:href="#DejaVuSans-75" x="63.476562"/>
      <use xlink:href="#DejaVuSans-62" x="126.855469"/>
      <use xlink:href="#DejaVuSans-69" x="190.332031"/>
      <use xlink:href="#DejaVuSans-74" x="218.115234"/>
      <use xlink:href="#DejaVuSans-73" x="257.324219"/>
      <use xlink:href="#DejaVuSans-20" x="309.423828"/>
      <use xlink:href="#DejaVuSans-73" x="341.210938"/>
      <use xlink:href="#DejaVuSans-65" x="393.310547"/>
      <use xlink:href="#DejaVuSans-6e" x="454.833984"/>
      <use xlink:href="#DejaVuSans-74" x="518.212891"/>
     </g>
    </g>
   </g>
   <g id="line2d_73">
    <path d="M 100.362873 518.886793 
L 103.656675 516.640171 
L 106.950478 514.393549 
L 110.244281 512.146927 
L 113.538084 509.900306 
L 116.831886 507.653684 
L 120.125689 505.407062 
L 123.419492 503.16044 
L 126.713294 500.913818 
L 130.007097 498.667196 
L 133.3009 496.420574 
L 136.594703 494.173952 
L 139.888505 491.92733 
L 143.182308 489.680708 
L 146.476111 487.434087 
L 149.769913 485.187465 
L 153.063716 482.940843 
L 156.357519 480.694221 
L 159.651321 478.447599 
L 162.945124 476.200977 
L 166.238927 473.954355 
L 169.53273 471.707733 
L 172.826532 469.461111 
L 176.120335 467.214489 
L 179.414138 464.967868 
L 182.70794 462.721246 
L 186.001743 460.474624 
L 189.295546 458.228002 
L 192.589349 456.003846 
L 195.883151 453.77969 
L 199.176954 451.555535 
L 202.470757 449.308913 
L 205.764559 447.107223 
L 209.058362 444.883068 
L 212.352165 442.658912 
L 215.645968 440.434756 
L 218.93977 438.210601 
L 222.233573 435.986445 
L 225.527376 433.762289 
L 228.821178 431.538134 
L 232.114981 429.313978 
L 235.408784 427.089822 
L 238.702587 424.865667 
L 241.996389 422.641511 
L 245.290192 420.417355 
L 248.583995 418.1932 
L 251.877797 415.969044 
L 255.1716 413.744888 
L 258.465403 411.520733 
L 261.759205 409.296577 
L 265.053008 407.072421 
L 268.346811 404.848265 
L 271.640614 402.62411 
L 274.934416 400.399954 
L 278.228219 398.175798 
L 281.522022 395.951643 
L 284.815824 393.727487 
L 288.109627 391.503331 
L 291.40343 389.279176 
L 294.697233 387.05502 
L 297.991035 384.875797 
L 301.284838 382.674107 
L 304.578641 380.449952 
L 307.872443 378.270728 
L 311.166246 376.069039 
L 314.460049 373.867349 
L 317.753852 371.66566 
L 321.047654 369.463971 
L 324.341457 367.262281 
L 327.63526 365.060592 
L 330.929062 362.858902 
L 334.222865 360.634746 
L 337.516668 358.455523 
L 340.81047 356.253834 
L 344.104273 354.052144 
L 347.398076 351.850455 
L 350.691879 349.648765 
L 353.985681 347.42461 
L 357.279484 345.245386 
L 360.573287 343.043697 
L 363.867089 340.819541 
L 367.160892 338.640318 
L 370.454695 336.438629 
L 373.748498 334.236939 
L 377.0423 332.03525 
L 380.336103 329.83356 
L 383.629906 327.631871 
L 386.923708 325.430181 
L 390.217511 323.228492 
L 393.511314 321.026802 
L 396.805117 318.847579 
L 400.098919 316.668356 
L 403.392722 314.489133 
L 406.686525 312.332376 
L 409.980327 310.130686 
" clip-path="url(#p53686b6685)" style="fill: none; stroke: #ff0000; stroke-width: 4"/>
   </g>
   <g id="patch_15">
    <path d="M 84.882 527.873281 
L 84.882 299.692881 
" style="fill: none; stroke: #000000; stroke-width: 3; stroke-linejoin: miter; stroke-linecap: square"/>
   </g>
   <g id="patch_16">
    <path d="M 425.4612 527.873281 
L 425.4612 299.692881 
" style="fill: none; stroke: #000000; stroke-width: 3; stroke-linejoin: miter; stroke-linecap: square"/>
   </g>
   <g id="patch_17">
    <path d="M 84.882 527.873281 
L 425.4612 527.873281 
" style="fill: none; stroke: #000000; stroke-width: 3; stroke-linejoin: miter; stroke-linecap: square"/>
   </g>
   <g id="patch_18">
    <path d="M 84.882 299.692881 
L 425.4612 299.692881 
" style="fill: none; stroke: #000000; stroke-width: 3; stroke-linejoin: miter; stroke-linecap: square"/>
   </g>
   <g id="legend_3">
    <g id="patch_19">
     <path d="M 94.682 331.442256 
L 201.707625 331.442256 
Q 204.507625 331.442256 204.507625 328.642256 
L 204.507625 309.492881 
Q 204.507625 306.692881 201.707625 306.692881 
L 94.682 306.692881 
Q 91.882 306.692881 91.882 309.492881 
L 91.882 328.642256 
Q 91.882 331.442256 94.682 331.442256 
z
" style="fill: #ffffff; opacity: 0.8; stroke: #cccccc; stroke-width: 0.5; stroke-linejoin: miter"/>
    </g>
    <g id="line2d_74">
     <path d="M 97.482 318.030693 
L 111.482 318.030693 
L 125.482 318.030693 
" style="fill: none; stroke: #ff0000; stroke-width: 4"/>
    </g>
    <g id="text_43">
     <!-- no vlinks -->
     <g transform="translate(136.682 322.930693) scale(0.14 -0.14)">
      <use xlink:href="#DejaVuSans-6e"/>
      <use xlink:href="#DejaVuSans-6f" x="63.378906"/>
      <use xlink:href="#DejaVuSans-20" x="124.560547"/>
      <use xlink:href="#DejaVuSans-76" x="156.347656"/>
      <use xlink:href="#DejaVuSans-6c" x="215.527344"/>
      <use xlink:href="#DejaVuSans-69" x="243.310547"/>
      <use xlink:href="#DejaVuSans-6e" x="271.09375"/>
      <use xlink:href="#DejaVuSans-6b" x="334.472656"/>
      <use xlink:href="#DejaVuSans-73" x="392.382812"/>
     </g>
    </g>
   </g>
  </g>
  <g id="axes_4">
   <g id="patch_20">
    <path d="M 507.252 527.873281 
L 847.8312 527.873281 
L 847.8312 299.692881 
L 507.252 299.692881 
z
" style="fill: #ffffff"/>
   </g>
   <g id="matplotlib.axis_7">
    <g id="xtick_16">
     <g id="line2d_75">
      <path d="M 572.139913 527.873281 
L 572.139913 299.692881 
" clip-path="url(#p79fa6c12cd)" style="fill: none; stroke: #000000"/>
     </g>
     <g id="line2d_76"/>
     <g id="text_44">
      <!-- 20 -->
      <g transform="translate(563.232413 542.011093) scale(0.14 -0.14)">
       <use xlink:href="#DejaVuSans-32"/>
       <use xlink:href="#DejaVuSans-30" x="63.623047"/>
      </g>
     </g>
    </g>
    <g id="xtick_17">
     <g id="line2d_77">
      <path d="M 638.015968 527.873281 
L 638.015968 299.692881 
" clip-path="url(#p79fa6c12cd)" style="fill: none; stroke: #000000"/>
     </g>
     <g id="line2d_78"/>
     <g id="text_45">
      <!-- 40 -->
      <g transform="translate(629.108468 542.011093) scale(0.14 -0.14)">
       <use xlink:href="#DejaVuSans-34"/>
       <use xlink:href="#DejaVuSans-30" x="63.623047"/>
      </g>
     </g>
    </g>
    <g id="xtick_18">
     <g id="line2d_79">
      <path d="M 703.892022 527.873281 
L 703.892022 299.692881 
" clip-path="url(#p79fa6c12cd)" style="fill: none; stroke: #000000"/>
     </g>
     <g id="line2d_80"/>
     <g id="text_46">
      <!-- 60 -->
      <g transform="translate(694.984522 542.011093) scale(0.14 -0.14)">
       <use xlink:href="#DejaVuSans-36"/>
       <use xlink:href="#DejaVuSans-30" x="63.623047"/>
      </g>
     </g>
    </g>
    <g id="xtick_19">
     <g id="line2d_81">
      <path d="M 769.768076 527.873281 
L 769.768076 299.692881 
" clip-path="url(#p79fa6c12cd)" style="fill: none; stroke: #000000"/>
     </g>
     <g id="line2d_82"/>
     <g id="text_47">
      <!-- 80 -->
      <g transform="translate(760.860576 542.011093) scale(0.14 -0.14)">
       <use xlink:href="#DejaVuSans-38"/>
       <use xlink:href="#DejaVuSans-30" x="63.623047"/>
      </g>
     </g>
    </g>
    <g id="xtick_20">
     <g id="line2d_83">
      <path d="M 835.64413 527.873281 
L 835.64413 299.692881 
" clip-path="url(#p79fa6c12cd)" style="fill: none; stroke: #000000"/>
     </g>
     <g id="line2d_84"/>
     <g id="text_48">
      <!-- 100 -->
      <g transform="translate(822.28288 542.011093) scale(0.14 -0.14)">
       <use xlink:href="#DejaVuSans-31"/>
       <use xlink:href="#DejaVuSans-30" x="63.623047"/>
       <use xlink:href="#DejaVuSans-30" x="127.246094"/>
      </g>
     </g>
    </g>
    <g id="text_49">
     <!-- # of nodes -->
     <g transform="translate(631.726163 561.688031) scale(0.168 -0.168)">
      <use xlink:href="#DejaVuSans-23"/>
      <use xlink:href="#DejaVuSans-20" x="83.789062"/>
      <use xlink:href="#DejaVuSans-6f" x="115.576172"/>
      <use xlink:href="#DejaVuSans-66" x="176.757812"/>
      <use xlink:href="#DejaVuSans-20" x="211.962891"/>
      <use xlink:href="#DejaVuSans-6e" x="243.75"/>
      <use xlink:href="#DejaVuSans-6f" x="307.128906"/>
      <use xlink:href="#DejaVuSans-64" x="368.310547"/>
      <use xlink:href="#DejaVuSans-65" x="431.787109"/>
      <use xlink:href="#DejaVuSans-73" x="493.310547"/>
     </g>
    </g>
   </g>
   <g id="matplotlib.axis_8">
    <g id="ytick_20">
     <g id="line2d_85">
      <path d="M 507.252 527.873281 
L 847.8312 527.873281 
" clip-path="url(#p79fa6c12cd)" style="fill: none; stroke: #000000"/>
     </g>
     <g id="line2d_86"/>
     <g id="text_50">
      <!-- 0 -->
      <g transform="translate(494.8445 533.192187) scale(0.14 -0.14)">
       <use xlink:href="#DejaVuSans-30"/>
      </g>
     </g>
    </g>
    <g id="ytick_21">
     <g id="line2d_87">
      <path d="M 507.252 473.802096 
L 847.8312 473.802096 
" clip-path="url(#p79fa6c12cd)" style="fill: none; stroke: #000000"/>
     </g>
     <g id="line2d_88"/>
     <g id="text_51">
      <!-- 50 -->
      <g transform="translate(485.937 479.121002) scale(0.14 -0.14)">
       <use xlink:href="#DejaVuSans-35"/>
       <use xlink:href="#DejaVuSans-30" x="63.623047"/>
      </g>
     </g>
    </g>
    <g id="ytick_22">
     <g id="line2d_89">
      <path d="M 507.252 419.730911 
L 847.8312 419.730911 
" clip-path="url(#p79fa6c12cd)" style="fill: none; stroke: #000000"/>
     </g>
     <g id="line2d_90"/>
     <g id="text_52">
      <!-- 100 -->
      <g transform="translate(477.0295 425.049817) scale(0.14 -0.14)">
       <use xlink:href="#DejaVuSans-31"/>
       <use xlink:href="#DejaVuSans-30" x="63.623047"/>
       <use xlink:href="#DejaVuSans-30" x="127.246094"/>
      </g>
     </g>
    </g>
    <g id="ytick_23">
     <g id="line2d_91">
      <path d="M 507.252 365.659726 
L 847.8312 365.659726 
" clip-path="url(#p79fa6c12cd)" style="fill: none; stroke: #000000"/>
     </g>
     <g id="line2d_92"/>
     <g id="text_53">
      <!-- 150 -->
      <g transform="translate(477.0295 370.978632) scale(0.14 -0.14)">
       <use xlink:href="#DejaVuSans-31"/>
       <use xlink:href="#DejaVuSans-35" x="63.623047"/>
       <use xlink:href="#DejaVuSans-30" x="127.246094"/>
      </g>
     </g>
    </g>
    <g id="ytick_24">
     <g id="line2d_93">
      <path d="M 507.252 311.588541 
L 847.8312 311.588541 
" clip-path="url(#p79fa6c12cd)" style="fill: none; stroke: #000000"/>
     </g>
     <g id="line2d_94"/>
     <g id="text_54">
      <!-- 200 -->
      <g transform="translate(477.0295 316.907448) scale(0.14 -0.14)">
       <use xlink:href="#DejaVuSans-32"/>
       <use xlink:href="#DejaVuSans-30" x="63.623047"/>
       <use xlink:href="#DejaVuSans-30" x="127.246094"/>
      </g>
     </g>
    </g>
    <g id="text_55">
     <!-- qubits sent -->
     <g transform="translate(469.535625 460.605206) rotate(-90) scale(0.168 -0.168)">
      <use xlink:href="#DejaVuSans-71"/>
      <use xlink:href="#DejaVuSans-75" x="63.476562"/>
      <use xlink:href="#DejaVuSans-62" x="126.855469"/>
      <use xlink:href="#DejaVuSans-69" x="190.332031"/>
      <use xlink:href="#DejaVuSans-74" x="218.115234"/>
      <use xlink:href="#DejaVuSans-73" x="257.324219"/>
      <use xlink:href="#DejaVuSans-20" x="309.423828"/>
      <use xlink:href="#DejaVuSans-73" x="341.210938"/>
      <use xlink:href="#DejaVuSans-65" x="393.310547"/>
      <use xlink:href="#DejaVuSans-6e" x="454.833984"/>
      <use xlink:href="#DejaVuSans-74" x="518.212891"/>
     </g>
    </g>
   </g>
   <g id="line2d_95">
    <path d="M 522.732873 311.588541 
L 526.026675 311.588541 
L 529.320478 311.588541 
L 532.614281 311.588541 
L 535.908084 311.588541 
L 539.201886 311.588541 
L 542.495689 311.588541 
L 545.789492 311.588541 
L 549.083294 311.588541 
L 552.377097 311.588541 
L 555.6709 311.588541 
L 558.964703 311.588541 
L 562.258505 311.588541 
L 565.552308 311.588541 
L 568.846111 311.588541 
L 572.139913 311.588541 
L 575.433716 311.588541 
L 578.727519 311.588541 
L 582.021321 311.588541 
L 585.315124 311.588541 
L 588.608927 311.588541 
L 591.90273 311.588541 
L 595.196532 311.588541 
L 598.490335 311.588541 
L 601.784138 311.588541 
L 605.07794 311.588541 
L 608.371743 311.588541 
L 611.665546 311.588541 
L 614.959349 311.588541 
L 618.253151 311.588541 
L 621.546954 311.588541 
L 624.840757 311.588541 
L 628.134559 311.588541 
L 631.428362 311.588541 
L 634.722165 311.588541 
L 638.015968 311.588541 
L 641.30977 311.588541 
L 644.603573 311.588541 
L 647.897376 311.588541 
L 651.191178 311.588541 
L 654.484981 311.588541 
L 657.778784 311.588541 
L 661.072587 311.588541 
L 664.366389 311.588541 
L 667.660192 311.588541 
L 670.953995 311.588541 
L 674.247797 311.588541 
L 677.5416 311.588541 
L 680.835403 311.588541 
L 684.129205 311.588541 
L 687.423008 311.588541 
L 690.716811 311.588541 
L 694.010614 311.588541 
L 697.304416 311.588541 
L 700.598219 311.588541 
L 703.892022 311.588541 
L 707.185824 311.588541 
L 710.479627 311.588541 
L 713.77343 311.588541 
L 717.067233 311.588541 
L 720.361035 311.588541 
L 723.654838 311.588541 
L 726.948641 311.588541 
L 730.242443 311.588541 
L 733.536246 311.588541 
L 736.830049 311.588541 
L 740.123852 311.588541 
L 743.417654 311.588541 
L 746.711457 311.588541 
L 750.00526 311.588541 
L 753.299062 311.588541 
L 756.592865 311.588541 
L 759.886668 311.588541 
L 763.18047 311.588541 
L 766.474273 311.588541 
L 769.768076 311.588541 
L 773.061879 311.588541 
L 776.355681 311.588541 
L 779.649484 311.588541 
L 782.943287 311.588541 
L 786.237089 311.588541 
L 789.530892 311.588541 
L 792.824695 311.588541 
L 796.118498 311.588541 
L 799.4123 311.588541 
L 802.706103 311.588541 
L 805.999906 311.588541 
L 809.293708 311.588541 
L 812.587511 311.588541 
L 815.881314 311.588541 
L 819.175117 311.588541 
L 822.468919 311.588541 
L 825.762722 311.588541 
L 829.056525 311.588541 
L 832.350327 311.588541 
" clip-path="url(#p79fa6c12cd)" style="fill: none; stroke: #0000ff; stroke-width: 4"/>
   </g>
   <g id="patch_21">
    <path d="M 507.252 527.873281 
L 507.252 299.692881 
" style="fill: none; stroke: #000000; stroke-width: 3; stroke-linejoin: miter; stroke-linecap: square"/>
   </g>
   <g id="patch_22">
    <path d="M 847.8312 527.873281 
L 847.8312 299.692881 
" style="fill: none; stroke: #000000; stroke-width: 3; stroke-linejoin: miter; stroke-linecap: square"/>
   </g>
   <g id="patch_23">
    <path d="M 507.252 527.873281 
L 847.8312 527.873281 
" style="fill: none; stroke: #000000; stroke-width: 3; stroke-linejoin: miter; stroke-linecap: square"/>
   </g>
   <g id="patch_24">
    <path d="M 507.252 299.692881 
L 847.8312 299.692881 
" style="fill: none; stroke: #000000; stroke-width: 3; stroke-linejoin: miter; stroke-linecap: square"/>
   </g>
   <g id="legend_4">
    <g id="patch_25">
     <path d="M 517.052 520.873281 
L 602.1895 520.873281 
Q 604.9895 520.873281 604.9895 518.073281 
L 604.9895 498.923906 
Q 604.9895 496.123906 602.1895 496.123906 
L 517.052 496.123906 
Q 514.252 496.123906 514.252 498.923906 
L 514.252 518.073281 
Q 514.252 520.873281 517.052 520.873281 
z
" style="fill: #ffffff; opacity: 0.8; stroke: #cccccc; stroke-width: 0.5; stroke-linejoin: miter"/>
    </g>
    <g id="line2d_96">
     <path d="M 519.852 507.461718 
L 533.852 507.461718 
L 547.852 507.461718 
" style="fill: none; stroke: #0000ff; stroke-width: 4"/>
    </g>
    <g id="text_56">
     <!-- vlinks -->
     <g transform="translate(559.052 512.361718) scale(0.14 -0.14)">
      <use xlink:href="#DejaVuSans-76"/>
      <use xlink:href="#DejaVuSans-6c" x="59.179688"/>
      <use xlink:href="#DejaVuSans-69" x="86.962891"/>
      <use xlink:href="#DejaVuSans-6e" x="114.746094"/>
      <use xlink:href="#DejaVuSans-6b" x="178.125"/>
      <use xlink:href="#DejaVuSans-73" x="236.035156"/>
     </g>
    </g>
   </g>
  </g>
  <g id="axes_5">
   <g id="patch_26">
    <path d="M 84.882 811.14 
L 425.4612 811.14 
L 425.4612 582.9596 
L 84.882 582.9596 
z
" style="fill: #ffffff"/>
   </g>
   <g id="matplotlib.axis_9">
    <g id="xtick_21">
     <g id="line2d_97">
      <path d="M 149.769913 811.14 
L 149.769913 582.9596 
" clip-path="url(#pd57e64dba5)" style="fill: none; stroke: #000000"/>
     </g>
     <g id="line2d_98"/>
     <g id="text_57">
      <!-- 20 -->
      <g transform="translate(140.862413 825.277812) scale(0.14 -0.14)">
       <use xlink:href="#DejaVuSans-32"/>
       <use xlink:href="#DejaVuSans-30" x="63.623047"/>
      </g>
     </g>
    </g>
    <g id="xtick_22">
     <g id="line2d_99">
      <path d="M 215.645968 811.14 
L 215.645968 582.9596 
" clip-path="url(#pd57e64dba5)" style="fill: none; stroke: #000000"/>
     </g>
     <g id="line2d_100"/>
     <g id="text_58">
      <!-- 40 -->
      <g transform="translate(206.738468 825.277812) scale(0.14 -0.14)">
       <use xlink:href="#DejaVuSans-34"/>
       <use xlink:href="#DejaVuSans-30" x="63.623047"/>
      </g>
     </g>
    </g>
    <g id="xtick_23">
     <g id="line2d_101">
      <path d="M 281.522022 811.14 
L 281.522022 582.9596 
" clip-path="url(#pd57e64dba5)" style="fill: none; stroke: #000000"/>
     </g>
     <g id="line2d_102"/>
     <g id="text_59">
      <!-- 60 -->
      <g transform="translate(272.614522 825.277812) scale(0.14 -0.14)">
       <use xlink:href="#DejaVuSans-36"/>
       <use xlink:href="#DejaVuSans-30" x="63.623047"/>
      </g>
     </g>
    </g>
    <g id="xtick_24">
     <g id="line2d_103">
      <path d="M 347.398076 811.14 
L 347.398076 582.9596 
" clip-path="url(#pd57e64dba5)" style="fill: none; stroke: #000000"/>
     </g>
     <g id="line2d_104"/>
     <g id="text_60">
      <!-- 80 -->
      <g transform="translate(338.490576 825.277812) scale(0.14 -0.14)">
       <use xlink:href="#DejaVuSans-38"/>
       <use xlink:href="#DejaVuSans-30" x="63.623047"/>
      </g>
     </g>
    </g>
    <g id="xtick_25">
     <g id="line2d_105">
      <path d="M 413.27413 811.14 
L 413.27413 582.9596 
" clip-path="url(#pd57e64dba5)" style="fill: none; stroke: #000000"/>
     </g>
     <g id="line2d_106"/>
     <g id="text_61">
      <!-- 100 -->
      <g transform="translate(399.91288 825.277812) scale(0.14 -0.14)">
       <use xlink:href="#DejaVuSans-31"/>
       <use xlink:href="#DejaVuSans-30" x="63.623047"/>
       <use xlink:href="#DejaVuSans-30" x="127.246094"/>
      </g>
     </g>
    </g>
    <g id="text_62">
     <!-- # of nodes -->
     <g transform="translate(209.356163 844.95475) scale(0.168 -0.168)">
      <use xlink:href="#DejaVuSans-23"/>
      <use xlink:href="#DejaVuSans-20" x="83.789062"/>
      <use xlink:href="#DejaVuSans-6f" x="115.576172"/>
      <use xlink:href="#DejaVuSans-66" x="176.757812"/>
      <use xlink:href="#DejaVuSans-20" x="211.962891"/>
      <use xlink:href="#DejaVuSans-6e" x="243.75"/>
      <use xlink:href="#DejaVuSans-6f" x="307.128906"/>
      <use xlink:href="#DejaVuSans-64" x="368.310547"/>
      <use xlink:href="#DejaVuSans-65" x="431.787109"/>
      <use xlink:href="#DejaVuSans-73" x="493.310547"/>
     </g>
    </g>
   </g>
   <g id="matplotlib.axis_10">
    <g id="ytick_25">
     <g id="line2d_107">
      <path d="M 84.882 811.14 
L 425.4612 811.14 
" clip-path="url(#pd57e64dba5)" style="fill: none; stroke: #000000"/>
     </g>
     <g id="line2d_108"/>
     <g id="text_63">
      <!-- 0 -->
      <g transform="translate(72.4745 816.458906) scale(0.14 -0.14)">
       <use xlink:href="#DejaVuSans-30"/>
      </g>
     </g>
    </g>
    <g id="ytick_26">
     <g id="line2d_109">
      <path d="M 84.882 767.110322 
L 425.4612 767.110322 
" clip-path="url(#pd57e64dba5)" style="fill: none; stroke: #000000"/>
     </g>
     <g id="line2d_110"/>
     <g id="text_64">
      <!-- 20 -->
      <g transform="translate(63.567 772.429229) scale(0.14 -0.14)">
       <use xlink:href="#DejaVuSans-32"/>
       <use xlink:href="#DejaVuSans-30" x="63.623047"/>
      </g>
     </g>
    </g>
    <g id="ytick_27">
     <g id="line2d_111">
      <path d="M 84.882 723.080645 
L 425.4612 723.080645 
" clip-path="url(#pd57e64dba5)" style="fill: none; stroke: #000000"/>
     </g>
     <g id="line2d_112"/>
     <g id="text_65">
      <!-- 40 -->
      <g transform="translate(63.567 728.399551) scale(0.14 -0.14)">
       <use xlink:href="#DejaVuSans-34"/>
       <use xlink:href="#DejaVuSans-30" x="63.623047"/>
      </g>
     </g>
    </g>
    <g id="ytick_28">
     <g id="line2d_113">
      <path d="M 84.882 679.050967 
L 425.4612 679.050967 
" clip-path="url(#pd57e64dba5)" style="fill: none; stroke: #000000"/>
     </g>
     <g id="line2d_114"/>
     <g id="text_66">
      <!-- 60 -->
      <g transform="translate(63.567 684.369873) scale(0.14 -0.14)">
       <use xlink:href="#DejaVuSans-36"/>
       <use xlink:href="#DejaVuSans-30" x="63.623047"/>
      </g>
     </g>
    </g>
    <g id="ytick_29">
     <g id="line2d_115">
      <path d="M 84.882 635.021289 
L 425.4612 635.021289 
" clip-path="url(#pd57e64dba5)" style="fill: none; stroke: #000000"/>
     </g>
     <g id="line2d_116"/>
     <g id="text_67">
      <!-- 80 -->
      <g transform="translate(63.567 640.340196) scale(0.14 -0.14)">
       <use xlink:href="#DejaVuSans-38"/>
       <use xlink:href="#DejaVuSans-30" x="63.623047"/>
      </g>
     </g>
    </g>
    <g id="ytick_30">
     <g id="line2d_117">
      <path d="M 84.882 590.991612 
L 425.4612 590.991612 
" clip-path="url(#pd57e64dba5)" style="fill: none; stroke: #000000"/>
     </g>
     <g id="line2d_118"/>
     <g id="text_68">
      <!-- 100 -->
      <g transform="translate(54.6595 596.310518) scale(0.14 -0.14)">
       <use xlink:href="#DejaVuSans-31"/>
       <use xlink:href="#DejaVuSans-30" x="63.623047"/>
       <use xlink:href="#DejaVuSans-30" x="127.246094"/>
      </g>
     </g>
    </g>
    <g id="text_69">
     <!-- # of swap -->
     <g transform="translate(28.3533 739.250612) rotate(-90) scale(0.168 -0.168)">
      <defs>
       <path id="DejaVuSans-77" d="M 269 3500 
L 844 3500 
L 1563 769 
L 2278 3500 
L 2956 3500 
L 3675 769 
L 4391 3500 
L 4966 3500 
L 4050 0 
L 3372 0 
L 2619 2869 
L 1863 0 
L 1184 0 
L 269 3500 
z
" transform="scale(0.015625)"/>
       <path id="DejaVuSans-70" d="M 1159 525 
L 1159 -1331 
L 581 -1331 
L 581 3500 
L 1159 3500 
L 1159 2969 
Q 1341 3281 1617 3432 
Q 1894 3584 2278 3584 
Q 2916 3584 3314 3078 
Q 3713 2572 3713 1747 
Q 3713 922 3314 415 
Q 2916 -91 2278 -91 
Q 1894 -91 1617 61 
Q 1341 213 1159 525 
z
M 3116 1747 
Q 3116 2381 2855 2742 
Q 2594 3103 2138 3103 
Q 1681 3103 1420 2742 
Q 1159 2381 1159 1747 
Q 1159 1113 1420 752 
Q 1681 391 2138 391 
Q 2594 391 2855 752 
Q 3116 1113 3116 1747 
z
" transform="scale(0.015625)"/>
      </defs>
      <use xlink:href="#DejaVuSans-23"/>
      <use xlink:href="#DejaVuSans-20" x="83.789062"/>
      <use xlink:href="#DejaVuSans-6f" x="115.576172"/>
      <use xlink:href="#DejaVuSans-66" x="176.757812"/>
      <use xlink:href="#DejaVuSans-20" x="211.962891"/>
      <use xlink:href="#DejaVuSans-73" x="243.75"/>
      <use xlink:href="#DejaVuSans-77" x="295.849609"/>
      <use xlink:href="#DejaVuSans-61" x="377.636719"/>
      <use xlink:href="#DejaVuSans-70" x="438.916016"/>
     </g>
     <!-- operations -->
     <g transform="translate(47.165625 741.757487) rotate(-90) scale(0.168 -0.168)">
      <defs>
       <path id="DejaVuSans-72" d="M 2631 2963 
Q 2534 3019 2420 3045 
Q 2306 3072 2169 3072 
Q 1681 3072 1420 2755 
Q 1159 2438 1159 1844 
L 1159 0 
L 581 0 
L 581 3500 
L 1159 3500 
L 1159 2956 
Q 1341 3275 1631 3429 
Q 1922 3584 2338 3584 
Q 2397 3584 2469 3576 
Q 2541 3569 2628 3553 
L 2631 2963 
z
" transform="scale(0.015625)"/>
      </defs>
      <use xlink:href="#DejaVuSans-6f"/>
      <use xlink:href="#DejaVuSans-70" x="61.181641"/>
      <use xlink:href="#DejaVuSans-65" x="124.658203"/>
      <use xlink:href="#DejaVuSans-72" x="186.181641"/>
      <use xlink:href="#DejaVuSans-61" x="227.294922"/>
      <use xlink:href="#DejaVuSans-74" x="288.574219"/>
      <use xlink:href="#DejaVuSans-69" x="327.783203"/>
      <use xlink:href="#DejaVuSans-6f" x="355.566406"/>
      <use xlink:href="#DejaVuSans-6e" x="416.748047"/>
      <use xlink:href="#DejaVuSans-73" x="480.126953"/>
     </g>
    </g>
   </g>
   <g id="line2d_119">
    <path d="M 100.362873 804.535548 
L 103.656675 802.334064 
L 106.950478 800.132581 
L 110.244281 797.931097 
L 113.538084 795.729613 
L 116.831886 793.528129 
L 120.125689 791.326645 
L 123.419492 789.125161 
L 126.713294 786.923677 
L 130.007097 784.722193 
L 133.3009 782.52071 
L 136.594703 780.319226 
L 139.888505 778.117742 
L 143.182308 775.916258 
L 146.476111 773.714774 
L 149.769913 771.51329 
L 153.063716 769.311806 
L 156.357519 767.110322 
L 159.651321 764.908838 
L 162.945124 762.707355 
L 166.238927 760.505871 
L 169.53273 758.304387 
L 172.826532 756.102903 
L 176.120335 753.901419 
L 179.414138 751.699935 
L 182.70794 749.498451 
L 186.001743 747.296967 
L 189.295546 744.450604 
L 192.589349 742.226883 
L 195.883151 740.047637 
L 199.176954 737.823916 
L 202.470757 735.622432 
L 205.764559 733.420948 
L 209.058362 731.219464 
L 212.352165 729.040217 
L 215.645968 726.816496 
L 218.93977 724.615012 
L 222.233573 722.435766 
L 225.527376 720.234282 
L 228.821178 718.032798 
L 232.114981 715.831314 
L 235.408784 713.607593 
L 238.702587 711.406109 
L 241.996389 709.226862 
L 245.290192 707.025378 
L 248.583995 704.823895 
L 251.877797 702.622411 
L 255.1716 700.39869 
L 258.465403 698.219443 
L 261.759205 696.017959 
L 265.053008 693.794238 
L 268.346811 691.592754 
L 271.640614 689.413507 
L 274.934416 687.212023 
L 278.228219 685.01054 
L 281.522022 682.809056 
L 284.815824 680.607572 
L 288.109627 677.05166 
L 291.40343 674.827712 
L 294.697233 672.626228 
L 297.991035 670.447209 
L 301.284838 668.245725 
L 304.578641 666.021777 
L 307.872443 663.842757 
L 311.166246 661.641273 
L 314.460049 659.439789 
L 317.753852 657.215841 
L 321.047654 655.014357 
L 324.341457 652.812873 
L 327.63526 650.61139 
L 330.929062 648.43237 
L 334.222865 646.208422 
L 337.516668 644.029402 
L 340.81047 641.805454 
L 344.104273 639.626434 
L 347.398076 637.402486 
L 350.691879 635.223466 
L 353.985681 632.977054 
L 357.279484 630.820499 
L 360.573287 628.596551 
L 363.867089 626.395067 
L 367.160892 624.216047 
L 370.454695 622.014563 
L 373.748498 619.813079 
L 377.0423 617.589131 
L 380.336103 615.387647 
L 383.629906 613.208628 
L 386.923708 611.007144 
L 390.217511 606.719739 
L 393.511314 604.518255 
L 396.805117 602.27138 
L 400.098919 600.069896 
L 403.392722 597.913803 
L 406.686525 595.689624 
L 409.980327 593.510836 
" clip-path="url(#pd57e64dba5)" style="fill: none; stroke: #ff0000; stroke-width: 4"/>
   </g>
   <g id="patch_27">
    <path d="M 84.882 811.14 
L 84.882 582.9596 
" style="fill: none; stroke: #000000; stroke-width: 3; stroke-linejoin: miter; stroke-linecap: square"/>
   </g>
   <g id="patch_28">
    <path d="M 425.4612 811.14 
L 425.4612 582.9596 
" style="fill: none; stroke: #000000; stroke-width: 3; stroke-linejoin: miter; stroke-linecap: square"/>
   </g>
   <g id="patch_29">
    <path d="M 84.882 811.14 
L 425.4612 811.14 
" style="fill: none; stroke: #000000; stroke-width: 3; stroke-linejoin: miter; stroke-linecap: square"/>
   </g>
   <g id="patch_30">
    <path d="M 84.882 582.9596 
L 425.4612 582.9596 
" style="fill: none; stroke: #000000; stroke-width: 3; stroke-linejoin: miter; stroke-linecap: square"/>
   </g>
   <g id="legend_5">
    <g id="patch_31">
     <path d="M 94.682 614.708975 
L 201.707625 614.708975 
Q 204.507625 614.708975 204.507625 611.908975 
L 204.507625 592.7596 
Q 204.507625 589.9596 201.707625 589.9596 
L 94.682 589.9596 
Q 91.882 589.9596 91.882 592.7596 
L 91.882 611.908975 
Q 91.882 614.708975 94.682 614.708975 
z
" style="fill: #ffffff; opacity: 0.8; stroke: #cccccc; stroke-width: 0.5; stroke-linejoin: miter"/>
    </g>
    <g id="line2d_120">
     <path d="M 97.482 601.297412 
L 111.482 601.297412 
L 125.482 601.297412 
" style="fill: none; stroke: #ff0000; stroke-width: 4"/>
    </g>
    <g id="text_70">
     <!-- no vlinks -->
     <g transform="translate(136.682 606.197412) scale(0.14 -0.14)">
      <use xlink:href="#DejaVuSans-6e"/>
      <use xlink:href="#DejaVuSans-6f" x="63.378906"/>
      <use xlink:href="#DejaVuSans-20" x="124.560547"/>
      <use xlink:href="#DejaVuSans-76" x="156.347656"/>
      <use xlink:href="#DejaVuSans-6c" x="215.527344"/>
      <use xlink:href="#DejaVuSans-69" x="243.310547"/>
      <use xlink:href="#DejaVuSans-6e" x="271.09375"/>
      <use xlink:href="#DejaVuSans-6b" x="334.472656"/>
      <use xlink:href="#DejaVuSans-73" x="392.382812"/>
     </g>
    </g>
   </g>
  </g>
  <g id="axes_6">
   <g id="patch_32">
    <path d="M 507.252 811.14 
L 847.8312 811.14 
L 847.8312 582.9596 
L 507.252 582.9596 
z
" style="fill: #ffffff"/>
   </g>
   <g id="matplotlib.axis_11">
    <g id="xtick_26">
     <g id="line2d_121">
      <path d="M 572.139913 811.14 
L 572.139913 582.9596 
" clip-path="url(#p79b2e18460)" style="fill: none; stroke: #000000"/>
     </g>
     <g id="line2d_122"/>
     <g id="text_71">
      <!-- 20 -->
      <g transform="translate(563.232413 825.277812) scale(0.14 -0.14)">
       <use xlink:href="#DejaVuSans-32"/>
       <use xlink:href="#DejaVuSans-30" x="63.623047"/>
      </g>
     </g>
    </g>
    <g id="xtick_27">
     <g id="line2d_123">
      <path d="M 638.015968 811.14 
L 638.015968 582.9596 
" clip-path="url(#p79b2e18460)" style="fill: none; stroke: #000000"/>
     </g>
     <g id="line2d_124"/>
     <g id="text_72">
      <!-- 40 -->
      <g transform="translate(629.108468 825.277812) scale(0.14 -0.14)">
       <use xlink:href="#DejaVuSans-34"/>
       <use xlink:href="#DejaVuSans-30" x="63.623047"/>
      </g>
     </g>
    </g>
    <g id="xtick_28">
     <g id="line2d_125">
      <path d="M 703.892022 811.14 
L 703.892022 582.9596 
" clip-path="url(#p79b2e18460)" style="fill: none; stroke: #000000"/>
     </g>
     <g id="line2d_126"/>
     <g id="text_73">
      <!-- 60 -->
      <g transform="translate(694.984522 825.277812) scale(0.14 -0.14)">
       <use xlink:href="#DejaVuSans-36"/>
       <use xlink:href="#DejaVuSans-30" x="63.623047"/>
      </g>
     </g>
    </g>
    <g id="xtick_29">
     <g id="line2d_127">
      <path d="M 769.768076 811.14 
L 769.768076 582.9596 
" clip-path="url(#p79b2e18460)" style="fill: none; stroke: #000000"/>
     </g>
     <g id="line2d_128"/>
     <g id="text_74">
      <!-- 80 -->
      <g transform="translate(760.860576 825.277812) scale(0.14 -0.14)">
       <use xlink:href="#DejaVuSans-38"/>
       <use xlink:href="#DejaVuSans-30" x="63.623047"/>
      </g>
     </g>
    </g>
    <g id="xtick_30">
     <g id="line2d_129">
      <path d="M 835.64413 811.14 
L 835.64413 582.9596 
" clip-path="url(#p79b2e18460)" style="fill: none; stroke: #000000"/>
     </g>
     <g id="line2d_130"/>
     <g id="text_75">
      <!-- 100 -->
      <g transform="translate(822.28288 825.277812) scale(0.14 -0.14)">
       <use xlink:href="#DejaVuSans-31"/>
       <use xlink:href="#DejaVuSans-30" x="63.623047"/>
       <use xlink:href="#DejaVuSans-30" x="127.246094"/>
      </g>
     </g>
    </g>
    <g id="text_76">
     <!-- # of nodes -->
     <g transform="translate(631.726163 844.95475) scale(0.168 -0.168)">
      <use xlink:href="#DejaVuSans-23"/>
      <use xlink:href="#DejaVuSans-20" x="83.789062"/>
      <use xlink:href="#DejaVuSans-6f" x="115.576172"/>
      <use xlink:href="#DejaVuSans-66" x="176.757812"/>
      <use xlink:href="#DejaVuSans-20" x="211.962891"/>
      <use xlink:href="#DejaVuSans-6e" x="243.75"/>
      <use xlink:href="#DejaVuSans-6f" x="307.128906"/>
      <use xlink:href="#DejaVuSans-64" x="368.310547"/>
      <use xlink:href="#DejaVuSans-65" x="431.787109"/>
      <use xlink:href="#DejaVuSans-73" x="493.310547"/>
     </g>
    </g>
   </g>
   <g id="matplotlib.axis_12">
    <g id="ytick_31">
     <g id="line2d_131">
      <path d="M 507.252 811.14 
L 847.8312 811.14 
" clip-path="url(#p79b2e18460)" style="fill: none; stroke: #000000"/>
     </g>
     <g id="line2d_132"/>
     <g id="text_77">
      <!-- 0.0 -->
      <g transform="translate(481.487625 816.458906) scale(0.14 -0.14)">
       <defs>
        <path id="DejaVuSans-2e" d="M 684 794 
L 1344 794 
L 1344 0 
L 684 0 
L 684 794 
z
" transform="scale(0.015625)"/>
       </defs>
       <use xlink:href="#DejaVuSans-30"/>
       <use xlink:href="#DejaVuSans-2e" x="63.623047"/>
       <use xlink:href="#DejaVuSans-30" x="95.410156"/>
      </g>
     </g>
    </g>
    <g id="ytick_32">
     <g id="line2d_133">
      <path d="M 507.252 757.068815 
L 847.8312 757.068815 
" clip-path="url(#p79b2e18460)" style="fill: none; stroke: #000000"/>
     </g>
     <g id="line2d_134"/>
     <g id="text_78">
      <!-- 0.5 -->
      <g transform="translate(481.487625 762.387721) scale(0.14 -0.14)">
       <use xlink:href="#DejaVuSans-30"/>
       <use xlink:href="#DejaVuSans-2e" x="63.623047"/>
       <use xlink:href="#DejaVuSans-35" x="95.410156"/>
      </g>
     </g>
    </g>
    <g id="ytick_33">
     <g id="line2d_135">
      <path d="M 507.252 702.99763 
L 847.8312 702.99763 
" clip-path="url(#p79b2e18460)" style="fill: none; stroke: #000000"/>
     </g>
     <g id="line2d_136"/>
     <g id="text_79">
      <!-- 1.0 -->
      <g transform="translate(481.487625 708.316537) scale(0.14 -0.14)">
       <use xlink:href="#DejaVuSans-31"/>
       <use xlink:href="#DejaVuSans-2e" x="63.623047"/>
       <use xlink:href="#DejaVuSans-30" x="95.410156"/>
      </g>
     </g>
    </g>
    <g id="ytick_34">
     <g id="line2d_137">
      <path d="M 507.252 648.926445 
L 847.8312 648.926445 
" clip-path="url(#p79b2e18460)" style="fill: none; stroke: #000000"/>
     </g>
     <g id="line2d_138"/>
     <g id="text_80">
      <!-- 1.5 -->
      <g transform="translate(481.487625 654.245352) scale(0.14 -0.14)">
       <use xlink:href="#DejaVuSans-31"/>
       <use xlink:href="#DejaVuSans-2e" x="63.623047"/>
       <use xlink:href="#DejaVuSans-35" x="95.410156"/>
      </g>
     </g>
    </g>
    <g id="ytick_35">
     <g id="line2d_139">
      <path d="M 507.252 594.855261 
L 847.8312 594.855261 
" clip-path="url(#p79b2e18460)" style="fill: none; stroke: #000000"/>
     </g>
     <g id="line2d_140"/>
     <g id="text_81">
      <!-- 2.0 -->
      <g transform="translate(481.487625 600.174167) scale(0.14 -0.14)">
       <use xlink:href="#DejaVuSans-32"/>
       <use xlink:href="#DejaVuSans-2e" x="63.623047"/>
       <use xlink:href="#DejaVuSans-30" x="95.410156"/>
      </g>
     </g>
    </g>
    <g id="text_82">
     <!-- # of swap -->
     <g transform="translate(455.181425 739.250612) rotate(-90) scale(0.168 -0.168)">
      <use xlink:href="#DejaVuSans-23"/>
      <use xlink:href="#DejaVuSans-20" x="83.789062"/>
      <use xlink:href="#DejaVuSans-6f" x="115.576172"/>
      <use xlink:href="#DejaVuSans-66" x="176.757812"/>
      <use xlink:href="#DejaVuSans-20" x="211.962891"/>
      <use xlink:href="#DejaVuSans-73" x="243.75"/>
      <use xlink:href="#DejaVuSans-77" x="295.849609"/>
      <use xlink:href="#DejaVuSans-61" x="377.636719"/>
      <use xlink:href="#DejaVuSans-70" x="438.916016"/>
     </g>
     <!-- operations -->
     <g transform="translate(473.99375 741.757487) rotate(-90) scale(0.168 -0.168)">
      <use xlink:href="#DejaVuSans-6f"/>
      <use xlink:href="#DejaVuSans-70" x="61.181641"/>
      <use xlink:href="#DejaVuSans-65" x="124.658203"/>
      <use xlink:href="#DejaVuSans-72" x="186.181641"/>
      <use xlink:href="#DejaVuSans-61" x="227.294922"/>
      <use xlink:href="#DejaVuSans-74" x="288.574219"/>
      <use xlink:href="#DejaVuSans-69" x="327.783203"/>
      <use xlink:href="#DejaVuSans-6f" x="355.566406"/>
      <use xlink:href="#DejaVuSans-6e" x="416.748047"/>
      <use xlink:href="#DejaVuSans-73" x="480.126953"/>
     </g>
    </g>
   </g>
   <g id="line2d_141">
    <path d="M 522.732873 594.855261 
L 526.026675 594.855261 
L 529.320478 594.855261 
L 532.614281 594.855261 
L 535.908084 594.855261 
L 539.201886 594.855261 
L 542.495689 594.855261 
L 545.789492 594.855261 
L 549.083294 594.855261 
L 552.377097 594.855261 
L 555.6709 594.855261 
L 558.964703 594.855261 
L 562.258505 594.855261 
L 565.552308 594.855261 
L 568.846111 594.855261 
L 572.139913 594.855261 
L 575.433716 594.855261 
L 578.727519 594.855261 
L 582.021321 594.855261 
L 585.315124 594.855261 
L 588.608927 594.855261 
L 591.90273 594.855261 
L 595.196532 594.855261 
L 598.490335 594.855261 
L 601.784138 594.855261 
L 605.07794 594.855261 
L 608.371743 594.855261 
L 611.665546 594.855261 
L 614.959349 594.855261 
L 618.253151 594.855261 
L 621.546954 594.855261 
L 624.840757 594.855261 
L 628.134559 594.855261 
L 631.428362 594.855261 
L 634.722165 594.855261 
L 638.015968 594.855261 
L 641.30977 594.855261 
L 644.603573 594.855261 
L 647.897376 594.855261 
L 651.191178 594.855261 
L 654.484981 594.855261 
L 657.778784 594.855261 
L 661.072587 594.855261 
L 664.366389 594.855261 
L 667.660192 594.855261 
L 670.953995 594.855261 
L 674.247797 594.855261 
L 677.5416 594.855261 
L 680.835403 594.855261 
L 684.129205 594.855261 
L 687.423008 594.855261 
L 690.716811 594.855261 
L 694.010614 594.855261 
L 697.304416 594.855261 
L 700.598219 594.855261 
L 703.892022 594.855261 
L 707.185824 594.855261 
L 710.479627 594.855261 
L 713.77343 594.855261 
L 717.067233 594.855261 
L 720.361035 594.855261 
L 723.654838 594.855261 
L 726.948641 594.855261 
L 730.242443 594.855261 
L 733.536246 594.855261 
L 736.830049 594.855261 
L 740.123852 594.855261 
L 743.417654 594.855261 
L 746.711457 594.855261 
L 750.00526 594.855261 
L 753.299062 594.855261 
L 756.592865 594.855261 
L 759.886668 594.855261 
L 763.18047 594.855261 
L 766.474273 594.855261 
L 769.768076 594.855261 
L 773.061879 594.855261 
L 776.355681 594.855261 
L 779.649484 594.855261 
L 782.943287 594.855261 
L 786.237089 594.855261 
L 789.530892 594.855261 
L 792.824695 594.855261 
L 796.118498 594.855261 
L 799.4123 594.855261 
L 802.706103 594.855261 
L 805.999906 594.855261 
L 809.293708 594.855261 
L 812.587511 594.855261 
L 815.881314 594.855261 
L 819.175117 594.855261 
L 822.468919 594.855261 
L 825.762722 594.855261 
L 829.056525 594.855261 
L 832.350327 594.855261 
" clip-path="url(#p79b2e18460)" style="fill: none; stroke: #0000ff; stroke-width: 4"/>
   </g>
   <g id="patch_33">
    <path d="M 507.252 811.14 
L 507.252 582.9596 
" style="fill: none; stroke: #000000; stroke-width: 3; stroke-linejoin: miter; stroke-linecap: square"/>
   </g>
   <g id="patch_34">
    <path d="M 847.8312 811.14 
L 847.8312 582.9596 
" style="fill: none; stroke: #000000; stroke-width: 3; stroke-linejoin: miter; stroke-linecap: square"/>
   </g>
   <g id="patch_35">
    <path d="M 507.252 811.14 
L 847.8312 811.14 
" style="fill: none; stroke: #000000; stroke-width: 3; stroke-linejoin: miter; stroke-linecap: square"/>
   </g>
   <g id="patch_36">
    <path d="M 507.252 582.9596 
L 847.8312 582.9596 
" style="fill: none; stroke: #000000; stroke-width: 3; stroke-linejoin: miter; stroke-linecap: square"/>
   </g>
   <g id="legend_6">
    <g id="patch_37">
     <path d="M 517.052 804.14 
L 602.1895 804.14 
Q 604.9895 804.14 604.9895 801.34 
L 604.9895 782.190625 
Q 604.9895 779.390625 602.1895 779.390625 
L 517.052 779.390625 
Q 514.252 779.390625 514.252 782.190625 
L 514.252 801.34 
Q 514.252 804.14 517.052 804.14 
z
" style="fill: #ffffff; opacity: 0.8; stroke: #cccccc; stroke-width: 0.5; stroke-linejoin: miter"/>
    </g>
    <g id="line2d_142">
     <path d="M 519.852 790.728438 
L 533.852 790.728438 
L 547.852 790.728438 
" style="fill: none; stroke: #0000ff; stroke-width: 4"/>
    </g>
    <g id="text_83">
     <!-- vlinks -->
     <g transform="translate(559.052 795.628438) scale(0.14 -0.14)">
      <use xlink:href="#DejaVuSans-76"/>
      <use xlink:href="#DejaVuSans-6c" x="59.179688"/>
      <use xlink:href="#DejaVuSans-69" x="86.962891"/>
      <use xlink:href="#DejaVuSans-6e" x="114.746094"/>
      <use xlink:href="#DejaVuSans-6b" x="178.125"/>
      <use xlink:href="#DejaVuSans-73" x="236.035156"/>
     </g>
    </g>
   </g>
  </g>
 </g>
 <defs>
  <clipPath id="p5114794d37">
   <rect x="84.882" y="16.426162" width="340.5792" height="228.1804"/>
  </clipPath>
  <clipPath id="p4c0d854530">
   <rect x="507.252" y="16.426162" width="340.5792" height="228.1804"/>
  </clipPath>
  <clipPath id="p53686b6685">
   <rect x="84.882" y="299.692881" width="340.5792" height="228.1804"/>
  </clipPath>
  <clipPath id="p79fa6c12cd">
   <rect x="507.252" y="299.692881" width="340.5792" height="228.1804"/>
  </clipPath>
  <clipPath id="pd57e64dba5">
   <rect x="84.882" y="582.9596" width="340.5792" height="228.1804"/>
  </clipPath>
  <clipPath id="p79b2e18460">
   <rect x="507.252" y="582.9596" width="340.5792" height="228.1804"/>
  </clipPath>
 </defs>
</svg>
