<?xml version="1.0" encoding="utf-8" standalone="no"?>
<!DOCTYPE svg PUBLIC "-//W3C//DTD SVG 1.1//EN"
  "http://www.w3.org/Graphics/SVG/1.1/DTD/svg11.dtd">
<svg xmlns:xlink="http://www.w3.org/1999/xlink" width="460.8pt" height="345.6pt" viewBox="0 0 460.8 345.6" xmlns="http://www.w3.org/2000/svg" version="1.1">
 <metadata>
  <rdf:RDF xmlns:dc="http://purl.org/dc/elements/1.1/" xmlns:cc="http://creativecommons.org/ns#" xmlns:rdf="http://www.w3.org/1999/02/22-rdf-syntax-ns#">
   <cc:Work>
    <dc:type rdf:resource="http://purl.org/dc/dcmitype/StillImage"/>
    <dc:date>2024-09-02T18:10:06.003998</dc:date>
    <dc:format>image/svg+xml</dc:format>
    <dc:creator>
     <cc:Agent>
      <dc:title>Matplotlib v3.9.0, https://matplotlib.org/</dc:title>
     </cc:Agent>
    </dc:creator>
   </cc:Work>
  </rdf:RDF>
 </metadata>
 <defs>
  <style type="text/css">*{stroke-linejoin: round; stroke-linecap: butt}</style>
 </defs>
 <g id="figure_1">
  <g id="patch_1">
   <path d="M 0 345.6 
L 460.8 345.6 
L 460.8 0 
L 0 0 
z
" style="fill: #ffffff"/>
  </g>
  <g id="axes_1">
   <g id="patch_2">
    <path d="M 92.19 292.74 
L 445.68 292.74 
L 445.68 15.12 
L 92.19 15.12 
z
" style="fill: #ffffff"/>
   </g>
   <g id="matplotlib.axis_1">
    <g id="xtick_1">
     <g id="line2d_1">
      <path d="M 158.997919 292.74 
L 158.997919 15.12 
" clip-path="url(#p16d3e8bf4d)" style="fill: none; stroke: #000000; stroke-opacity: 0.7; stroke-width: 0.5"/>
     </g>
     <g id="line2d_2"/>
     <g id="text_1">
      <!-- 20 -->
      <g transform="translate(150.090419 306.877812) scale(0.14 -0.14)">
       <defs>
        <path id="DejaVuSans-32" d="M 1228 531 
L 3431 531 
L 3431 0 
L 469 0 
L 469 531 
Q 828 903 1448 1529 
Q 2069 2156 2228 2338 
Q 2531 2678 2651 2914 
Q 2772 3150 2772 3378 
Q 2772 3750 2511 3984 
Q 2250 4219 1831 4219 
Q 1534 4219 1204 4116 
Q 875 4013 500 3803 
L 500 4441 
Q 881 4594 1212 4672 
Q 1544 4750 1819 4750 
Q 2544 4750 2975 4387 
Q 3406 4025 3406 3419 
Q 3406 3131 3298 2873 
Q 3191 2616 2906 2266 
Q 2828 2175 2409 1742 
Q 1991 1309 1228 531 
z
" transform="scale(0.015625)"/>
        <path id="DejaVuSans-30" d="M 2034 4250 
Q 1547 4250 1301 3770 
Q 1056 3291 1056 2328 
Q 1056 1369 1301 889 
Q 1547 409 2034 409 
Q 2525 409 2770 889 
Q 3016 1369 3016 2328 
Q 3016 3291 2770 3770 
Q 2525 4250 2034 4250 
z
M 2034 4750 
Q 2819 4750 3233 4129 
Q 3647 3509 3647 2328 
Q 3647 1150 3233 529 
Q 2819 -91 2034 -91 
Q 1250 -91 836 529 
Q 422 1150 422 2328 
Q 422 3509 836 4129 
Q 1250 4750 2034 4750 
z
" transform="scale(0.015625)"/>
       </defs>
       <use xlink:href="#DejaVuSans-32"/>
       <use xlink:href="#DejaVuSans-30" x="63.623047"/>
      </g>
     </g>
    </g>
    <g id="xtick_2">
     <g id="line2d_3">
      <path d="M 226.651507 292.74 
L 226.651507 15.12 
" clip-path="url(#p16d3e8bf4d)" style="fill: none; stroke: #000000; stroke-opacity: 0.7; stroke-width: 0.5"/>
     </g>
     <g id="line2d_4"/>
     <g id="text_2">
      <!-- 40 -->
      <g transform="translate(217.744007 306.877812) scale(0.14 -0.14)">
       <defs>
        <path id="DejaVuSans-34" d="M 2419 4116 
L 825 1625 
L 2419 1625 
L 2419 4116 
z
M 2253 4666 
L 3047 4666 
L 3047 1625 
L 3713 1625 
L 3713 1100 
L 3047 1100 
L 3047 0 
L 2419 0 
L 2419 1100 
L 313 1100 
L 313 1709 
L 2253 4666 
z
" transform="scale(0.015625)"/>
       </defs>
       <use xlink:href="#DejaVuSans-34"/>
       <use xlink:href="#DejaVuSans-30" x="63.623047"/>
      </g>
     </g>
    </g>
    <g id="xtick_3">
     <g id="line2d_5">
      <path d="M 294.305096 292.74 
L 294.305096 15.12 
" clip-path="url(#p16d3e8bf4d)" style="fill: none; stroke: #000000; stroke-opacity: 0.7; stroke-width: 0.5"/>
     </g>
     <g id="line2d_6"/>
     <g id="text_3">
      <!-- 60 -->
      <g transform="translate(285.397596 306.877812) scale(0.14 -0.14)">
       <defs>
        <path id="DejaVuSans-36" d="M 2113 2584 
Q 1688 2584 1439 2293 
Q 1191 2003 1191 1497 
Q 1191 994 1439 701 
Q 1688 409 2113 409 
Q 2538 409 2786 701 
Q 3034 994 3034 1497 
Q 3034 2003 2786 2293 
Q 2538 2584 2113 2584 
z
M 3366 4563 
L 3366 3988 
Q 3128 4100 2886 4159 
Q 2644 4219 2406 4219 
Q 1781 4219 1451 3797 
Q 1122 3375 1075 2522 
Q 1259 2794 1537 2939 
Q 1816 3084 2150 3084 
Q 2853 3084 3261 2657 
Q 3669 2231 3669 1497 
Q 3669 778 3244 343 
Q 2819 -91 2113 -91 
Q 1303 -91 875 529 
Q 447 1150 447 2328 
Q 447 3434 972 4092 
Q 1497 4750 2381 4750 
Q 2619 4750 2861 4703 
Q 3103 4656 3366 4563 
z
" transform="scale(0.015625)"/>
       </defs>
       <use xlink:href="#DejaVuSans-36"/>
       <use xlink:href="#DejaVuSans-30" x="63.623047"/>
      </g>
     </g>
    </g>
    <g id="xtick_4">
     <g id="line2d_7">
      <path d="M 361.958684 292.74 
L 361.958684 15.12 
" clip-path="url(#p16d3e8bf4d)" style="fill: none; stroke: #000000; stroke-opacity: 0.7; stroke-width: 0.5"/>
     </g>
     <g id="line2d_8"/>
     <g id="text_4">
      <!-- 80 -->
      <g transform="translate(353.051184 306.877812) scale(0.14 -0.14)">
       <defs>
        <path id="DejaVuSans-38" d="M 2034 2216 
Q 1584 2216 1326 1975 
Q 1069 1734 1069 1313 
Q 1069 891 1326 650 
Q 1584 409 2034 409 
Q 2484 409 2743 651 
Q 3003 894 3003 1313 
Q 3003 1734 2745 1975 
Q 2488 2216 2034 2216 
z
M 1403 2484 
Q 997 2584 770 2862 
Q 544 3141 544 3541 
Q 544 4100 942 4425 
Q 1341 4750 2034 4750 
Q 2731 4750 3128 4425 
Q 3525 4100 3525 3541 
Q 3525 3141 3298 2862 
Q 3072 2584 2669 2484 
Q 3125 2378 3379 2068 
Q 3634 1759 3634 1313 
Q 3634 634 3220 271 
Q 2806 -91 2034 -91 
Q 1263 -91 848 271 
Q 434 634 434 1313 
Q 434 1759 690 2068 
Q 947 2378 1403 2484 
z
M 1172 3481 
Q 1172 3119 1398 2916 
Q 1625 2713 2034 2713 
Q 2441 2713 2670 2916 
Q 2900 3119 2900 3481 
Q 2900 3844 2670 4047 
Q 2441 4250 2034 4250 
Q 1625 4250 1398 4047 
Q 1172 3844 1172 3481 
z
" transform="scale(0.015625)"/>
       </defs>
       <use xlink:href="#DejaVuSans-38"/>
       <use xlink:href="#DejaVuSans-30" x="63.623047"/>
      </g>
     </g>
    </g>
    <g id="xtick_5">
     <g id="line2d_9">
      <path d="M 429.612273 292.74 
L 429.612273 15.12 
" clip-path="url(#p16d3e8bf4d)" style="fill: none; stroke: #000000; stroke-opacity: 0.7; stroke-width: 0.5"/>
     </g>
     <g id="line2d_10"/>
     <g id="text_5">
      <!-- 100 -->
      <g transform="translate(416.251023 306.877812) scale(0.14 -0.14)">
       <defs>
        <path id="DejaVuSans-31" d="M 794 531 
L 1825 531 
L 1825 4091 
L 703 3866 
L 703 4441 
L 1819 4666 
L 2450 4666 
L 2450 531 
L 3481 531 
L 3481 0 
L 794 0 
L 794 531 
z
" transform="scale(0.015625)"/>
       </defs>
       <use xlink:href="#DejaVuSans-31"/>
       <use xlink:href="#DejaVuSans-30" x="63.623047"/>
       <use xlink:href="#DejaVuSans-30" x="127.246094"/>
      </g>
     </g>
    </g>
    <g id="text_6">
     <!-- # of nodes -->
     <g transform="translate(218.16225 326.55475) scale(0.168 -0.168)">
      <defs>
       <path id="DejaVuSans-Bold-23" d="M 2847 4594 
L 2547 3391 
L 3372 3391 
L 3675 4594 
L 4366 4594 
L 4063 3391 
L 4928 3391 
L 4928 2725 
L 3897 2725 
L 3681 1869 
L 4569 1869 
L 4569 1197 
L 3519 1197 
L 3219 0 
L 2528 0 
L 2828 1197 
L 2003 1197 
L 1703 0 
L 1006 0 
L 1306 1197 
L 434 1197 
L 434 1869 
L 1459 1869 
L 1678 2725 
L 794 2725 
L 794 3391 
L 1850 3391 
L 2150 4594 
L 2847 4594 
z
M 3200 2725 
L 2375 2725 
L 2156 1869 
L 2981 1869 
L 3200 2725 
z
" transform="scale(0.015625)"/>
       <path id="DejaVuSans-Bold-20" transform="scale(0.015625)"/>
       <path id="DejaVuSans-Bold-6f" d="M 2203 2784 
Q 1831 2784 1636 2517 
Q 1441 2250 1441 1747 
Q 1441 1244 1636 976 
Q 1831 709 2203 709 
Q 2569 709 2762 976 
Q 2956 1244 2956 1747 
Q 2956 2250 2762 2517 
Q 2569 2784 2203 2784 
z
M 2203 3584 
Q 3106 3584 3614 3096 
Q 4122 2609 4122 1747 
Q 4122 884 3614 396 
Q 3106 -91 2203 -91 
Q 1297 -91 786 396 
Q 275 884 275 1747 
Q 275 2609 786 3096 
Q 1297 3584 2203 3584 
z
" transform="scale(0.015625)"/>
       <path id="DejaVuSans-Bold-66" d="M 2841 4863 
L 2841 4128 
L 2222 4128 
Q 1984 4128 1890 4042 
Q 1797 3956 1797 3744 
L 1797 3500 
L 2753 3500 
L 2753 2700 
L 1797 2700 
L 1797 0 
L 678 0 
L 678 2700 
L 122 2700 
L 122 3500 
L 678 3500 
L 678 3744 
Q 678 4316 997 4589 
Q 1316 4863 1984 4863 
L 2841 4863 
z
" transform="scale(0.015625)"/>
       <path id="DejaVuSans-Bold-6e" d="M 4056 2131 
L 4056 0 
L 2931 0 
L 2931 347 
L 2931 1631 
Q 2931 2084 2911 2256 
Q 2891 2428 2841 2509 
Q 2775 2619 2662 2680 
Q 2550 2741 2406 2741 
Q 2056 2741 1856 2470 
Q 1656 2200 1656 1722 
L 1656 0 
L 538 0 
L 538 3500 
L 1656 3500 
L 1656 2988 
Q 1909 3294 2193 3439 
Q 2478 3584 2822 3584 
Q 3428 3584 3742 3212 
Q 4056 2841 4056 2131 
z
" transform="scale(0.015625)"/>
       <path id="DejaVuSans-Bold-64" d="M 2919 2988 
L 2919 4863 
L 4044 4863 
L 4044 0 
L 2919 0 
L 2919 506 
Q 2688 197 2409 53 
Q 2131 -91 1766 -91 
Q 1119 -91 703 423 
Q 288 938 288 1747 
Q 288 2556 703 3070 
Q 1119 3584 1766 3584 
Q 2128 3584 2408 3439 
Q 2688 3294 2919 2988 
z
M 2181 722 
Q 2541 722 2730 984 
Q 2919 1247 2919 1747 
Q 2919 2247 2730 2509 
Q 2541 2772 2181 2772 
Q 1825 2772 1636 2509 
Q 1447 2247 1447 1747 
Q 1447 1247 1636 984 
Q 1825 722 2181 722 
z
" transform="scale(0.015625)"/>
       <path id="DejaVuSans-Bold-65" d="M 4031 1759 
L 4031 1441 
L 1416 1441 
Q 1456 1047 1700 850 
Q 1944 653 2381 653 
Q 2734 653 3104 758 
Q 3475 863 3866 1075 
L 3866 213 
Q 3469 63 3072 -14 
Q 2675 -91 2278 -91 
Q 1328 -91 801 392 
Q 275 875 275 1747 
Q 275 2603 792 3093 
Q 1309 3584 2216 3584 
Q 3041 3584 3536 3087 
Q 4031 2591 4031 1759 
z
M 2881 2131 
Q 2881 2450 2695 2645 
Q 2509 2841 2209 2841 
Q 1884 2841 1681 2658 
Q 1478 2475 1428 2131 
L 2881 2131 
z
" transform="scale(0.015625)"/>
       <path id="DejaVuSans-Bold-73" d="M 3272 3391 
L 3272 2541 
Q 2913 2691 2578 2766 
Q 2244 2841 1947 2841 
Q 1628 2841 1473 2761 
Q 1319 2681 1319 2516 
Q 1319 2381 1436 2309 
Q 1553 2238 1856 2203 
L 2053 2175 
Q 2913 2066 3209 1816 
Q 3506 1566 3506 1031 
Q 3506 472 3093 190 
Q 2681 -91 1863 -91 
Q 1516 -91 1145 -36 
Q 775 19 384 128 
L 384 978 
Q 719 816 1070 734 
Q 1422 653 1784 653 
Q 2113 653 2278 743 
Q 2444 834 2444 1013 
Q 2444 1163 2330 1236 
Q 2216 1309 1875 1350 
L 1678 1375 
Q 931 1469 631 1722 
Q 331 1975 331 2491 
Q 331 3047 712 3315 
Q 1094 3584 1881 3584 
Q 2191 3584 2531 3537 
Q 2872 3491 3272 3391 
z
" transform="scale(0.015625)"/>
      </defs>
      <use xlink:href="#DejaVuSans-Bold-23"/>
      <use xlink:href="#DejaVuSans-Bold-20" x="83.789062"/>
      <use xlink:href="#DejaVuSans-Bold-6f" x="118.603516"/>
      <use xlink:href="#DejaVuSans-Bold-66" x="187.304688"/>
      <use xlink:href="#DejaVuSans-Bold-20" x="230.810547"/>
      <use xlink:href="#DejaVuSans-Bold-6e" x="265.625"/>
      <use xlink:href="#DejaVuSans-Bold-6f" x="336.816406"/>
      <use xlink:href="#DejaVuSans-Bold-64" x="405.517578"/>
      <use xlink:href="#DejaVuSans-Bold-65" x="477.099609"/>
      <use xlink:href="#DejaVuSans-Bold-73" x="544.921875"/>
     </g>
    </g>
   </g>
   <g id="matplotlib.axis_2">
    <g id="ytick_1">
     <g id="line2d_11">
      <path d="M 92.19 292.74 
L 445.68 292.74 
" clip-path="url(#p16d3e8bf4d)" style="fill: none; stroke: #000000; stroke-opacity: 0.7; stroke-width: 0.5"/>
     </g>
     <g id="line2d_12"/>
     <g id="text_7">
      <!-- 0 -->
      <g transform="translate(79.7825 298.058906) scale(0.14 -0.14)">
       <use xlink:href="#DejaVuSans-30"/>
      </g>
     </g>
    </g>
    <g id="ytick_2">
     <g id="line2d_13">
      <path d="M 92.19 239.383142 
L 445.68 239.383142 
" clip-path="url(#p16d3e8bf4d)" style="fill: none; stroke: #000000; stroke-opacity: 0.7; stroke-width: 0.5"/>
     </g>
     <g id="line2d_14"/>
     <g id="text_8">
      <!-- 20000 -->
      <g transform="translate(44.1525 244.702048) scale(0.14 -0.14)">
       <use xlink:href="#DejaVuSans-32"/>
       <use xlink:href="#DejaVuSans-30" x="63.623047"/>
       <use xlink:href="#DejaVuSans-30" x="127.246094"/>
       <use xlink:href="#DejaVuSans-30" x="190.869141"/>
       <use xlink:href="#DejaVuSans-30" x="254.492188"/>
      </g>
     </g>
    </g>
    <g id="ytick_3">
     <g id="line2d_15">
      <path d="M 92.19 186.026284 
L 445.68 186.026284 
" clip-path="url(#p16d3e8bf4d)" style="fill: none; stroke: #000000; stroke-opacity: 0.7; stroke-width: 0.5"/>
     </g>
     <g id="line2d_16"/>
     <g id="text_9">
      <!-- 40000 -->
      <g transform="translate(44.1525 191.345191) scale(0.14 -0.14)">
       <use xlink:href="#DejaVuSans-34"/>
       <use xlink:href="#DejaVuSans-30" x="63.623047"/>
       <use xlink:href="#DejaVuSans-30" x="127.246094"/>
       <use xlink:href="#DejaVuSans-30" x="190.869141"/>
       <use xlink:href="#DejaVuSans-30" x="254.492188"/>
      </g>
     </g>
    </g>
    <g id="ytick_4">
     <g id="line2d_17">
      <path d="M 92.19 132.669426 
L 445.68 132.669426 
" clip-path="url(#p16d3e8bf4d)" style="fill: none; stroke: #000000; stroke-opacity: 0.7; stroke-width: 0.5"/>
     </g>
     <g id="line2d_18"/>
     <g id="text_10">
      <!-- 60000 -->
      <g transform="translate(44.1525 137.988333) scale(0.14 -0.14)">
       <use xlink:href="#DejaVuSans-36"/>
       <use xlink:href="#DejaVuSans-30" x="63.623047"/>
       <use xlink:href="#DejaVuSans-30" x="127.246094"/>
       <use xlink:href="#DejaVuSans-30" x="190.869141"/>
       <use xlink:href="#DejaVuSans-30" x="254.492188"/>
      </g>
     </g>
    </g>
    <g id="ytick_5">
     <g id="line2d_19">
      <path d="M 92.19 79.312569 
L 445.68 79.312569 
" clip-path="url(#p16d3e8bf4d)" style="fill: none; stroke: #000000; stroke-opacity: 0.7; stroke-width: 0.5"/>
     </g>
     <g id="line2d_20"/>
     <g id="text_11">
      <!-- 80000 -->
      <g transform="translate(44.1525 84.631475) scale(0.14 -0.14)">
       <use xlink:href="#DejaVuSans-38"/>
       <use xlink:href="#DejaVuSans-30" x="63.623047"/>
       <use xlink:href="#DejaVuSans-30" x="127.246094"/>
       <use xlink:href="#DejaVuSans-30" x="190.869141"/>
       <use xlink:href="#DejaVuSans-30" x="254.492188"/>
      </g>
     </g>
    </g>
    <g id="ytick_6">
     <g id="line2d_21">
      <path d="M 92.19 25.955711 
L 445.68 25.955711 
" clip-path="url(#p16d3e8bf4d)" style="fill: none; stroke: #000000; stroke-opacity: 0.7; stroke-width: 0.5"/>
     </g>
     <g id="line2d_22"/>
     <g id="text_12">
      <!-- 100000 -->
      <g transform="translate(35.245 31.274617) scale(0.14 -0.14)">
       <use xlink:href="#DejaVuSans-31"/>
       <use xlink:href="#DejaVuSans-30" x="63.623047"/>
       <use xlink:href="#DejaVuSans-30" x="127.246094"/>
       <use xlink:href="#DejaVuSans-30" x="190.869141"/>
       <use xlink:href="#DejaVuSans-30" x="254.492188"/>
       <use xlink:href="#DejaVuSans-30" x="318.115234"/>
      </g>
     </g>
    </g>
    <g id="text_13">
     <!-- cMsgs sent -->
     <g transform="translate(27.619875 206.895937) rotate(-90) scale(0.168 -0.168)">
      <defs>
       <path id="DejaVuSans-Bold-63" d="M 3366 3391 
L 3366 2478 
Q 3138 2634 2908 2709 
Q 2678 2784 2431 2784 
Q 1963 2784 1702 2511 
Q 1441 2238 1441 1747 
Q 1441 1256 1702 982 
Q 1963 709 2431 709 
Q 2694 709 2930 787 
Q 3166 866 3366 1019 
L 3366 103 
Q 3103 6 2833 -42 
Q 2563 -91 2291 -91 
Q 1344 -91 809 395 
Q 275 881 275 1747 
Q 275 2613 809 3098 
Q 1344 3584 2291 3584 
Q 2566 3584 2833 3536 
Q 3100 3488 3366 3391 
z
" transform="scale(0.015625)"/>
       <path id="DejaVuSans-Bold-4d" d="M 588 4666 
L 2119 4666 
L 3181 2169 
L 4250 4666 
L 5778 4666 
L 5778 0 
L 4641 0 
L 4641 3413 
L 3566 897 
L 2803 897 
L 1728 3413 
L 1728 0 
L 588 0 
L 588 4666 
z
" transform="scale(0.015625)"/>
       <path id="DejaVuSans-Bold-67" d="M 2919 594 
Q 2688 288 2409 144 
Q 2131 0 1766 0 
Q 1125 0 706 504 
Q 288 1009 288 1791 
Q 288 2575 706 3076 
Q 1125 3578 1766 3578 
Q 2131 3578 2409 3434 
Q 2688 3291 2919 2981 
L 2919 3500 
L 4044 3500 
L 4044 353 
Q 4044 -491 3511 -936 
Q 2978 -1381 1966 -1381 
Q 1638 -1381 1331 -1331 
Q 1025 -1281 716 -1178 
L 716 -306 
Q 1009 -475 1290 -558 
Q 1572 -641 1856 -641 
Q 2406 -641 2662 -400 
Q 2919 -159 2919 353 
L 2919 594 
z
M 2181 2772 
Q 1834 2772 1640 2515 
Q 1447 2259 1447 1791 
Q 1447 1309 1634 1061 
Q 1822 813 2181 813 
Q 2531 813 2725 1069 
Q 2919 1325 2919 1791 
Q 2919 2259 2725 2515 
Q 2531 2772 2181 2772 
z
" transform="scale(0.015625)"/>
       <path id="DejaVuSans-Bold-74" d="M 1759 4494 
L 1759 3500 
L 2913 3500 
L 2913 2700 
L 1759 2700 
L 1759 1216 
Q 1759 972 1856 886 
Q 1953 800 2241 800 
L 2816 800 
L 2816 0 
L 1856 0 
Q 1194 0 917 276 
Q 641 553 641 1216 
L 641 2700 
L 84 2700 
L 84 3500 
L 641 3500 
L 641 4494 
L 1759 4494 
z
" transform="scale(0.015625)"/>
      </defs>
      <use xlink:href="#DejaVuSans-Bold-63"/>
      <use xlink:href="#DejaVuSans-Bold-4d" x="59.277344"/>
      <use xlink:href="#DejaVuSans-Bold-73" x="158.789062"/>
      <use xlink:href="#DejaVuSans-Bold-67" x="218.310547"/>
      <use xlink:href="#DejaVuSans-Bold-73" x="289.892578"/>
      <use xlink:href="#DejaVuSans-Bold-20" x="349.414062"/>
      <use xlink:href="#DejaVuSans-Bold-73" x="384.228516"/>
      <use xlink:href="#DejaVuSans-Bold-65" x="443.75"/>
      <use xlink:href="#DejaVuSans-Bold-6e" x="511.572266"/>
      <use xlink:href="#DejaVuSans-Bold-74" x="582.763672"/>
     </g>
    </g>
   </g>
   <g id="line2d_23">
    <path d="M 108.257727 280.734707 
L 125.171124 267.395493 
L 142.084522 254.056278 
L 158.997919 240.717064 
L 175.911316 227.377849 
L 192.824713 214.038635 
L 209.73811 200.720763 
L 226.651507 187.408227 
L 243.564904 174.095691 
L 260.478301 160.785823 
L 277.391699 147.473287 
L 294.305096 134.158083 
L 311.218493 120.866889 
L 328.13189 107.575696 
L 345.045287 94.287171 
L 361.958684 80.998645 
L 378.872081 67.718123 
L 395.785478 54.437601 
L 412.698876 41.159747 
L 429.612273 27.895232 
" clip-path="url(#p16d3e8bf4d)" style="fill: none; stroke: #ff0000; stroke-opacity: 0.8; stroke-width: 2"/>
    <defs>
     <path id="m4a4e8fbce2" d="M 0 3 
C 0.795609 3 1.55874 2.683901 2.12132 2.12132 
C 2.683901 1.55874 3 0.795609 3 0 
C 3 -0.795609 2.683901 -1.55874 2.12132 -2.12132 
C 1.55874 -2.683901 0.795609 -3 0 -3 
C -0.795609 -3 -1.55874 -2.683901 -2.12132 -2.12132 
C -2.683901 -1.55874 -3 -0.795609 -3 0 
C -3 0.795609 -2.683901 1.55874 -2.12132 2.12132 
C -1.55874 2.683901 -0.795609 3 0 3 
z
" style="stroke: #ff0000; stroke-opacity: 0.8"/>
    </defs>
    <g clip-path="url(#p16d3e8bf4d)">
     <use xlink:href="#m4a4e8fbce2" x="108.257727" y="280.734707" style="fill: #ff0000; fill-opacity: 0.8; stroke: #ff0000; stroke-opacity: 0.8"/>
     <use xlink:href="#m4a4e8fbce2" x="125.171124" y="267.395493" style="fill: #ff0000; fill-opacity: 0.8; stroke: #ff0000; stroke-opacity: 0.8"/>
     <use xlink:href="#m4a4e8fbce2" x="142.084522" y="254.056278" style="fill: #ff0000; fill-opacity: 0.8; stroke: #ff0000; stroke-opacity: 0.8"/>
     <use xlink:href="#m4a4e8fbce2" x="158.997919" y="240.717064" style="fill: #ff0000; fill-opacity: 0.8; stroke: #ff0000; stroke-opacity: 0.8"/>
     <use xlink:href="#m4a4e8fbce2" x="175.911316" y="227.377849" style="fill: #ff0000; fill-opacity: 0.8; stroke: #ff0000; stroke-opacity: 0.8"/>
     <use xlink:href="#m4a4e8fbce2" x="192.824713" y="214.038635" style="fill: #ff0000; fill-opacity: 0.8; stroke: #ff0000; stroke-opacity: 0.8"/>
     <use xlink:href="#m4a4e8fbce2" x="209.73811" y="200.720763" style="fill: #ff0000; fill-opacity: 0.8; stroke: #ff0000; stroke-opacity: 0.8"/>
     <use xlink:href="#m4a4e8fbce2" x="226.651507" y="187.408227" style="fill: #ff0000; fill-opacity: 0.8; stroke: #ff0000; stroke-opacity: 0.8"/>
     <use xlink:href="#m4a4e8fbce2" x="243.564904" y="174.095691" style="fill: #ff0000; fill-opacity: 0.8; stroke: #ff0000; stroke-opacity: 0.8"/>
     <use xlink:href="#m4a4e8fbce2" x="260.478301" y="160.785823" style="fill: #ff0000; fill-opacity: 0.8; stroke: #ff0000; stroke-opacity: 0.8"/>
     <use xlink:href="#m4a4e8fbce2" x="277.391699" y="147.473287" style="fill: #ff0000; fill-opacity: 0.8; stroke: #ff0000; stroke-opacity: 0.8"/>
     <use xlink:href="#m4a4e8fbce2" x="294.305096" y="134.158083" style="fill: #ff0000; fill-opacity: 0.8; stroke: #ff0000; stroke-opacity: 0.8"/>
     <use xlink:href="#m4a4e8fbce2" x="311.218493" y="120.866889" style="fill: #ff0000; fill-opacity: 0.8; stroke: #ff0000; stroke-opacity: 0.8"/>
     <use xlink:href="#m4a4e8fbce2" x="328.13189" y="107.575696" style="fill: #ff0000; fill-opacity: 0.8; stroke: #ff0000; stroke-opacity: 0.8"/>
     <use xlink:href="#m4a4e8fbce2" x="345.045287" y="94.287171" style="fill: #ff0000; fill-opacity: 0.8; stroke: #ff0000; stroke-opacity: 0.8"/>
     <use xlink:href="#m4a4e8fbce2" x="361.958684" y="80.998645" style="fill: #ff0000; fill-opacity: 0.8; stroke: #ff0000; stroke-opacity: 0.8"/>
     <use xlink:href="#m4a4e8fbce2" x="378.872081" y="67.718123" style="fill: #ff0000; fill-opacity: 0.8; stroke: #ff0000; stroke-opacity: 0.8"/>
     <use xlink:href="#m4a4e8fbce2" x="395.785478" y="54.437601" style="fill: #ff0000; fill-opacity: 0.8; stroke: #ff0000; stroke-opacity: 0.8"/>
     <use xlink:href="#m4a4e8fbce2" x="412.698876" y="41.159747" style="fill: #ff0000; fill-opacity: 0.8; stroke: #ff0000; stroke-opacity: 0.8"/>
     <use xlink:href="#m4a4e8fbce2" x="429.612273" y="27.895232" style="fill: #ff0000; fill-opacity: 0.8; stroke: #ff0000; stroke-opacity: 0.8"/>
    </g>
   </g>
   <g id="line2d_24">
    <path d="M 108.257727 283.399882 
L 125.171124 283.399882 
L 142.084522 283.399882 
L 158.997919 283.399882 
L 175.911316 283.397214 
L 192.824713 283.397214 
L 209.73811 283.397214 
L 226.651507 283.397214 
L 243.564904 283.397214 
L 260.478301 283.394546 
L 277.391699 283.394546 
L 294.305096 283.394546 
L 311.218493 283.394546 
L 328.13189 283.391879 
L 345.045287 283.391879 
L 361.958684 283.391879 
L 378.872081 283.391879 
L 395.785478 283.389211 
L 412.698876 283.389211 
L 429.612273 283.389211 
" clip-path="url(#p16d3e8bf4d)" style="fill: none; stroke: #0000ff; stroke-opacity: 0.8; stroke-width: 2"/>
    <defs>
     <path id="m6d96646947" d="M -3 3 
L 3 3 
L 3 -3 
L -3 -3 
z
" style="stroke: #0000ff; stroke-opacity: 0.8; stroke-linejoin: miter"/>
    </defs>
    <g clip-path="url(#p16d3e8bf4d)">
     <use xlink:href="#m6d96646947" x="108.257727" y="283.399882" style="fill: #0000ff; fill-opacity: 0.8; stroke: #0000ff; stroke-opacity: 0.8; stroke-linejoin: miter"/>
     <use xlink:href="#m6d96646947" x="125.171124" y="283.399882" style="fill: #0000ff; fill-opacity: 0.8; stroke: #0000ff; stroke-opacity: 0.8; stroke-linejoin: miter"/>
     <use xlink:href="#m6d96646947" x="142.084522" y="283.399882" style="fill: #0000ff; fill-opacity: 0.8; stroke: #0000ff; stroke-opacity: 0.8; stroke-linejoin: miter"/>
     <use xlink:href="#m6d96646947" x="158.997919" y="283.399882" style="fill: #0000ff; fill-opacity: 0.8; stroke: #0000ff; stroke-opacity: 0.8; stroke-linejoin: miter"/>
     <use xlink:href="#m6d96646947" x="175.911316" y="283.397214" style="fill: #0000ff; fill-opacity: 0.8; stroke: #0000ff; stroke-opacity: 0.8; stroke-linejoin: miter"/>
     <use xlink:href="#m6d96646947" x="192.824713" y="283.397214" style="fill: #0000ff; fill-opacity: 0.8; stroke: #0000ff; stroke-opacity: 0.8; stroke-linejoin: miter"/>
     <use xlink:href="#m6d96646947" x="209.73811" y="283.397214" style="fill: #0000ff; fill-opacity: 0.8; stroke: #0000ff; stroke-opacity: 0.8; stroke-linejoin: miter"/>
     <use xlink:href="#m6d96646947" x="226.651507" y="283.397214" style="fill: #0000ff; fill-opacity: 0.8; stroke: #0000ff; stroke-opacity: 0.8; stroke-linejoin: miter"/>
     <use xlink:href="#m6d96646947" x="243.564904" y="283.397214" style="fill: #0000ff; fill-opacity: 0.8; stroke: #0000ff; stroke-opacity: 0.8; stroke-linejoin: miter"/>
     <use xlink:href="#m6d96646947" x="260.478301" y="283.394546" style="fill: #0000ff; fill-opacity: 0.8; stroke: #0000ff; stroke-opacity: 0.8; stroke-linejoin: miter"/>
     <use xlink:href="#m6d96646947" x="277.391699" y="283.394546" style="fill: #0000ff; fill-opacity: 0.8; stroke: #0000ff; stroke-opacity: 0.8; stroke-linejoin: miter"/>
     <use xlink:href="#m6d96646947" x="294.305096" y="283.394546" style="fill: #0000ff; fill-opacity: 0.8; stroke: #0000ff; stroke-opacity: 0.8; stroke-linejoin: miter"/>
     <use xlink:href="#m6d96646947" x="311.218493" y="283.394546" style="fill: #0000ff; fill-opacity: 0.8; stroke: #0000ff; stroke-opacity: 0.8; stroke-linejoin: miter"/>
     <use xlink:href="#m6d96646947" x="328.13189" y="283.391879" style="fill: #0000ff; fill-opacity: 0.8; stroke: #0000ff; stroke-opacity: 0.8; stroke-linejoin: miter"/>
     <use xlink:href="#m6d96646947" x="345.045287" y="283.391879" style="fill: #0000ff; fill-opacity: 0.8; stroke: #0000ff; stroke-opacity: 0.8; stroke-linejoin: miter"/>
     <use xlink:href="#m6d96646947" x="361.958684" y="283.391879" style="fill: #0000ff; fill-opacity: 0.8; stroke: #0000ff; stroke-opacity: 0.8; stroke-linejoin: miter"/>
     <use xlink:href="#m6d96646947" x="378.872081" y="283.391879" style="fill: #0000ff; fill-opacity: 0.8; stroke: #0000ff; stroke-opacity: 0.8; stroke-linejoin: miter"/>
     <use xlink:href="#m6d96646947" x="395.785478" y="283.389211" style="fill: #0000ff; fill-opacity: 0.8; stroke: #0000ff; stroke-opacity: 0.8; stroke-linejoin: miter"/>
     <use xlink:href="#m6d96646947" x="412.698876" y="283.389211" style="fill: #0000ff; fill-opacity: 0.8; stroke: #0000ff; stroke-opacity: 0.8; stroke-linejoin: miter"/>
     <use xlink:href="#m6d96646947" x="429.612273" y="283.389211" style="fill: #0000ff; fill-opacity: 0.8; stroke: #0000ff; stroke-opacity: 0.8; stroke-linejoin: miter"/>
    </g>
   </g>
   <g id="patch_3">
    <path d="M 92.19 292.74 
L 92.19 15.12 
" style="fill: none; stroke: #000000; stroke-width: 3; stroke-linejoin: miter; stroke-linecap: square"/>
   </g>
   <g id="patch_4">
    <path d="M 445.68 292.74 
L 445.68 15.12 
" style="fill: none; stroke: #000000; stroke-width: 3; stroke-linejoin: miter; stroke-linecap: square"/>
   </g>
   <g id="patch_5">
    <path d="M 92.19 292.74 
L 445.68 292.74 
" style="fill: none; stroke: #000000; stroke-width: 3; stroke-linejoin: miter; stroke-linecap: square"/>
   </g>
   <g id="patch_6">
    <path d="M 92.19 15.12 
L 445.68 15.12 
" style="fill: none; stroke: #000000; stroke-width: 3; stroke-linejoin: miter; stroke-linecap: square"/>
   </g>
   <g id="patch_7">
    <path d="M 362.282331 259.21313 
Q 362.133881 270.30709 362.00039 280.283116 
" style="fill: none; stroke: #000000; stroke-linecap: round"/>
    <path d="M 364.464399 275.515658 
L 362.00039 280.283116 
L 359.664829 275.451434 
" style="fill: none; stroke: #000000; stroke-linecap: round"/>
   </g>
   <g id="text_14">
    <!-- constant at 3501 -->
    <g transform="translate(311.218493 252.722357) scale(0.12 -0.12)">
     <defs>
      <path id="DejaVuSans-63" d="M 3122 3366 
L 3122 2828 
Q 2878 2963 2633 3030 
Q 2388 3097 2138 3097 
Q 1578 3097 1268 2742 
Q 959 2388 959 1747 
Q 959 1106 1268 751 
Q 1578 397 2138 397 
Q 2388 397 2633 464 
Q 2878 531 3122 666 
L 3122 134 
Q 2881 22 2623 -34 
Q 2366 -91 2075 -91 
Q 1284 -91 818 406 
Q 353 903 353 1747 
Q 353 2603 823 3093 
Q 1294 3584 2113 3584 
Q 2378 3584 2631 3529 
Q 2884 3475 3122 3366 
z
" transform="scale(0.015625)"/>
      <path id="DejaVuSans-6f" d="M 1959 3097 
Q 1497 3097 1228 2736 
Q 959 2375 959 1747 
Q 959 1119 1226 758 
Q 1494 397 1959 397 
Q 2419 397 2687 759 
Q 2956 1122 2956 1747 
Q 2956 2369 2687 2733 
Q 2419 3097 1959 3097 
z
M 1959 3584 
Q 2709 3584 3137 3096 
Q 3566 2609 3566 1747 
Q 3566 888 3137 398 
Q 2709 -91 1959 -91 
Q 1206 -91 779 398 
Q 353 888 353 1747 
Q 353 2609 779 3096 
Q 1206 3584 1959 3584 
z
" transform="scale(0.015625)"/>
      <path id="DejaVuSans-6e" d="M 3513 2113 
L 3513 0 
L 2938 0 
L 2938 2094 
Q 2938 2591 2744 2837 
Q 2550 3084 2163 3084 
Q 1697 3084 1428 2787 
Q 1159 2491 1159 1978 
L 1159 0 
L 581 0 
L 581 3500 
L 1159 3500 
L 1159 2956 
Q 1366 3272 1645 3428 
Q 1925 3584 2291 3584 
Q 2894 3584 3203 3211 
Q 3513 2838 3513 2113 
z
" transform="scale(0.015625)"/>
      <path id="DejaVuSans-73" d="M 2834 3397 
L 2834 2853 
Q 2591 2978 2328 3040 
Q 2066 3103 1784 3103 
Q 1356 3103 1142 2972 
Q 928 2841 928 2578 
Q 928 2378 1081 2264 
Q 1234 2150 1697 2047 
L 1894 2003 
Q 2506 1872 2764 1633 
Q 3022 1394 3022 966 
Q 3022 478 2636 193 
Q 2250 -91 1575 -91 
Q 1294 -91 989 -36 
Q 684 19 347 128 
L 347 722 
Q 666 556 975 473 
Q 1284 391 1588 391 
Q 1994 391 2212 530 
Q 2431 669 2431 922 
Q 2431 1156 2273 1281 
Q 2116 1406 1581 1522 
L 1381 1569 
Q 847 1681 609 1914 
Q 372 2147 372 2553 
Q 372 3047 722 3315 
Q 1072 3584 1716 3584 
Q 2034 3584 2315 3537 
Q 2597 3491 2834 3397 
z
" transform="scale(0.015625)"/>
      <path id="DejaVuSans-74" d="M 1172 4494 
L 1172 3500 
L 2356 3500 
L 2356 3053 
L 1172 3053 
L 1172 1153 
Q 1172 725 1289 603 
Q 1406 481 1766 481 
L 2356 481 
L 2356 0 
L 1766 0 
Q 1100 0 847 248 
Q 594 497 594 1153 
L 594 3053 
L 172 3053 
L 172 3500 
L 594 3500 
L 594 4494 
L 1172 4494 
z
" transform="scale(0.015625)"/>
      <path id="DejaVuSans-61" d="M 2194 1759 
Q 1497 1759 1228 1600 
Q 959 1441 959 1056 
Q 959 750 1161 570 
Q 1363 391 1709 391 
Q 2188 391 2477 730 
Q 2766 1069 2766 1631 
L 2766 1759 
L 2194 1759 
z
M 3341 1997 
L 3341 0 
L 2766 0 
L 2766 531 
Q 2569 213 2275 61 
Q 1981 -91 1556 -91 
Q 1019 -91 701 211 
Q 384 513 384 1019 
Q 384 1609 779 1909 
Q 1175 2209 1959 2209 
L 2766 2209 
L 2766 2266 
Q 2766 2663 2505 2880 
Q 2244 3097 1772 3097 
Q 1472 3097 1187 3025 
Q 903 2953 641 2809 
L 641 3341 
Q 956 3463 1253 3523 
Q 1550 3584 1831 3584 
Q 2591 3584 2966 3190 
Q 3341 2797 3341 1997 
z
" transform="scale(0.015625)"/>
      <path id="DejaVuSans-20" transform="scale(0.015625)"/>
      <path id="DejaVuSans-33" d="M 2597 2516 
Q 3050 2419 3304 2112 
Q 3559 1806 3559 1356 
Q 3559 666 3084 287 
Q 2609 -91 1734 -91 
Q 1441 -91 1130 -33 
Q 819 25 488 141 
L 488 750 
Q 750 597 1062 519 
Q 1375 441 1716 441 
Q 2309 441 2620 675 
Q 2931 909 2931 1356 
Q 2931 1769 2642 2001 
Q 2353 2234 1838 2234 
L 1294 2234 
L 1294 2753 
L 1863 2753 
Q 2328 2753 2575 2939 
Q 2822 3125 2822 3475 
Q 2822 3834 2567 4026 
Q 2313 4219 1838 4219 
Q 1578 4219 1281 4162 
Q 984 4106 628 3988 
L 628 4550 
Q 988 4650 1302 4700 
Q 1616 4750 1894 4750 
Q 2613 4750 3031 4423 
Q 3450 4097 3450 3541 
Q 3450 3153 3228 2886 
Q 3006 2619 2597 2516 
z
" transform="scale(0.015625)"/>
      <path id="DejaVuSans-35" d="M 691 4666 
L 3169 4666 
L 3169 4134 
L 1269 4134 
L 1269 2991 
Q 1406 3038 1543 3061 
Q 1681 3084 1819 3084 
Q 2600 3084 3056 2656 
Q 3513 2228 3513 1497 
Q 3513 744 3044 326 
Q 2575 -91 1722 -91 
Q 1428 -91 1123 -41 
Q 819 9 494 109 
L 494 744 
Q 775 591 1075 516 
Q 1375 441 1709 441 
Q 2250 441 2565 725 
Q 2881 1009 2881 1497 
Q 2881 1984 2565 2268 
Q 2250 2553 1709 2553 
Q 1456 2553 1204 2497 
Q 953 2441 691 2322 
L 691 4666 
z
" transform="scale(0.015625)"/>
     </defs>
     <use xlink:href="#DejaVuSans-63"/>
     <use xlink:href="#DejaVuSans-6f" x="54.980469"/>
     <use xlink:href="#DejaVuSans-6e" x="116.162109"/>
     <use xlink:href="#DejaVuSans-73" x="179.541016"/>
     <use xlink:href="#DejaVuSans-74" x="231.640625"/>
     <use xlink:href="#DejaVuSans-61" x="270.849609"/>
     <use xlink:href="#DejaVuSans-6e" x="332.128906"/>
     <use xlink:href="#DejaVuSans-74" x="395.507812"/>
     <use xlink:href="#DejaVuSans-20" x="434.716797"/>
     <use xlink:href="#DejaVuSans-61" x="466.503906"/>
     <use xlink:href="#DejaVuSans-74" x="527.783203"/>
     <use xlink:href="#DejaVuSans-20" x="566.992188"/>
     <use xlink:href="#DejaVuSans-33" x="598.779297"/>
     <use xlink:href="#DejaVuSans-35" x="662.402344"/>
     <use xlink:href="#DejaVuSans-30" x="726.025391"/>
     <use xlink:href="#DejaVuSans-31" x="789.648438"/>
    </g>
   </g>
   <g id="legend_1">
    <g id="patch_8">
     <path d="M 101.99 67.41875 
L 209.015625 67.41875 
Q 211.815625 67.41875 211.815625 64.61875 
L 211.815625 24.92 
Q 211.815625 22.12 209.015625 22.12 
L 101.99 22.12 
Q 99.19 22.12 99.19 24.92 
L 99.19 64.61875 
Q 99.19 67.41875 101.99 67.41875 
z
" style="fill: #ffffff; opacity: 0.8; stroke: #cccccc; stroke-width: 0.5; stroke-linejoin: miter"/>
    </g>
    <g id="line2d_25">
     <path d="M 104.79 33.457813 
L 118.79 33.457813 
L 132.79 33.457813 
" style="fill: none; stroke: #ff0000; stroke-opacity: 0.8; stroke-width: 2"/>
     <g>
      <use xlink:href="#m4a4e8fbce2" x="118.79" y="33.457813" style="fill: #ff0000; fill-opacity: 0.8; stroke: #ff0000; stroke-opacity: 0.8"/>
     </g>
    </g>
    <g id="text_15">
     <!-- no vlinks -->
     <g transform="translate(143.99 38.357813) scale(0.14 -0.14)">
      <defs>
       <path id="DejaVuSans-76" d="M 191 3500 
L 800 3500 
L 1894 563 
L 2988 3500 
L 3597 3500 
L 2284 0 
L 1503 0 
L 191 3500 
z
" transform="scale(0.015625)"/>
       <path id="DejaVuSans-6c" d="M 603 4863 
L 1178 4863 
L 1178 0 
L 603 0 
L 603 4863 
z
" transform="scale(0.015625)"/>
       <path id="DejaVuSans-69" d="M 603 3500 
L 1178 3500 
L 1178 0 
L 603 0 
L 603 3500 
z
M 603 4863 
L 1178 4863 
L 1178 4134 
L 603 4134 
L 603 4863 
z
" transform="scale(0.015625)"/>
       <path id="DejaVuSans-6b" d="M 581 4863 
L 1159 4863 
L 1159 1991 
L 2875 3500 
L 3609 3500 
L 1753 1863 
L 3688 0 
L 2938 0 
L 1159 1709 
L 1159 0 
L 581 0 
L 581 4863 
z
" transform="scale(0.015625)"/>
      </defs>
      <use xlink:href="#DejaVuSans-6e"/>
      <use xlink:href="#DejaVuSans-6f" x="63.378906"/>
      <use xlink:href="#DejaVuSans-20" x="124.560547"/>
      <use xlink:href="#DejaVuSans-76" x="156.347656"/>
      <use xlink:href="#DejaVuSans-6c" x="215.527344"/>
      <use xlink:href="#DejaVuSans-69" x="243.310547"/>
      <use xlink:href="#DejaVuSans-6e" x="271.09375"/>
      <use xlink:href="#DejaVuSans-6b" x="334.472656"/>
      <use xlink:href="#DejaVuSans-73" x="392.382812"/>
     </g>
    </g>
    <g id="line2d_26">
     <path d="M 104.79 54.007188 
L 118.79 54.007188 
L 132.79 54.007188 
" style="fill: none; stroke: #0000ff; stroke-opacity: 0.8; stroke-width: 2"/>
     <g>
      <use xlink:href="#m6d96646947" x="118.79" y="54.007188" style="fill: #0000ff; fill-opacity: 0.8; stroke: #0000ff; stroke-opacity: 0.8; stroke-linejoin: miter"/>
     </g>
    </g>
    <g id="text_16">
     <!-- vlinks -->
     <g transform="translate(143.99 58.907188) scale(0.14 -0.14)">
      <use xlink:href="#DejaVuSans-76"/>
      <use xlink:href="#DejaVuSans-6c" x="59.179688"/>
      <use xlink:href="#DejaVuSans-69" x="86.962891"/>
      <use xlink:href="#DejaVuSans-6e" x="114.746094"/>
      <use xlink:href="#DejaVuSans-6b" x="178.125"/>
      <use xlink:href="#DejaVuSans-73" x="236.035156"/>
     </g>
    </g>
   </g>
  </g>
 </g>
 <defs>
  <clipPath id="p16d3e8bf4d">
   <rect x="92.19" y="15.12" width="353.49" height="277.62"/>
  </clipPath>
 </defs>
</svg>
