<?xml version="1.0" encoding="utf-8" standalone="no"?>
<!DOCTYPE svg PUBLIC "-//W3C//DTD SVG 1.1//EN"
  "http://www.w3.org/Graphics/SVG/1.1/DTD/svg11.dtd">
<svg xmlns:xlink="http://www.w3.org/1999/xlink" width="460.8pt" height="345.6pt" viewBox="0 0 460.8 345.6" xmlns="http://www.w3.org/2000/svg" version="1.1">
 <metadata>
  <rdf:RDF xmlns:dc="http://purl.org/dc/elements/1.1/" xmlns:cc="http://creativecommons.org/ns#" xmlns:rdf="http://www.w3.org/1999/02/22-rdf-syntax-ns#">
   <cc:Work>
    <dc:type rdf:resource="http://purl.org/dc/dcmitype/StillImage"/>
    <dc:date>2024-09-02T18:14:53.095590</dc:date>
    <dc:format>image/svg+xml</dc:format>
    <dc:creator>
     <cc:Agent>
      <dc:title>Matplotlib v3.9.0, https://matplotlib.org/</dc:title>
     </cc:Agent>
    </dc:creator>
   </cc:Work>
  </rdf:RDF>
 </metadata>
 <defs>
  <style type="text/css">*{stroke-linejoin: round; stroke-linecap: butt}</style>
 </defs>
 <g id="figure_1">
  <g id="patch_1">
   <path d="M 0 345.6 
L 460.8 345.6 
L 460.8 0 
L 0 0 
z
" style="fill: #ffffff"/>
  </g>
  <g id="axes_1">
   <g id="patch_2">
    <path d="M 65.73 292.74 
L 445.68 292.74 
L 445.68 15.12 
L 65.73 15.12 
z
" style="fill: #ffffff"/>
   </g>
   <g id="matplotlib.axis_1">
    <g id="xtick_1">
     <g id="line2d_1">
      <path d="M 137.538732 292.74 
L 137.538732 15.12 
" clip-path="url(#p9c17d88511)" style="fill: none; stroke: #000000; stroke-opacity: 0.7; stroke-width: 0.5"/>
     </g>
     <g id="line2d_2"/>
     <g id="text_1">
      <!-- 20 -->
      <g transform="translate(128.631232 306.877812) scale(0.14 -0.14)">
       <defs>
        <path id="DejaVuSans-32" d="M 1228 531 
L 3431 531 
L 3431 0 
L 469 0 
L 469 531 
Q 828 903 1448 1529 
Q 2069 2156 2228 2338 
Q 2531 2678 2651 2914 
Q 2772 3150 2772 3378 
Q 2772 3750 2511 3984 
Q 2250 4219 1831 4219 
Q 1534 4219 1204 4116 
Q 875 4013 500 3803 
L 500 4441 
Q 881 4594 1212 4672 
Q 1544 4750 1819 4750 
Q 2544 4750 2975 4387 
Q 3406 4025 3406 3419 
Q 3406 3131 3298 2873 
Q 3191 2616 2906 2266 
Q 2828 2175 2409 1742 
Q 1991 1309 1228 531 
z
" transform="scale(0.015625)"/>
        <path id="DejaVuSans-30" d="M 2034 4250 
Q 1547 4250 1301 3770 
Q 1056 3291 1056 2328 
Q 1056 1369 1301 889 
Q 1547 409 2034 409 
Q 2525 409 2770 889 
Q 3016 1369 3016 2328 
Q 3016 3291 2770 3770 
Q 2525 4250 2034 4250 
z
M 2034 4750 
Q 2819 4750 3233 4129 
Q 3647 3509 3647 2328 
Q 3647 1150 3233 529 
Q 2819 -91 2034 -91 
Q 1250 -91 836 529 
Q 422 1150 422 2328 
Q 422 3509 836 4129 
Q 1250 4750 2034 4750 
z
" transform="scale(0.015625)"/>
       </defs>
       <use xlink:href="#DejaVuSans-32"/>
       <use xlink:href="#DejaVuSans-30" x="63.623047"/>
      </g>
     </g>
    </g>
    <g id="xtick_2">
     <g id="line2d_3">
      <path d="M 210.256435 292.74 
L 210.256435 15.12 
" clip-path="url(#p9c17d88511)" style="fill: none; stroke: #000000; stroke-opacity: 0.7; stroke-width: 0.5"/>
     </g>
     <g id="line2d_4"/>
     <g id="text_2">
      <!-- 40 -->
      <g transform="translate(201.348935 306.877812) scale(0.14 -0.14)">
       <defs>
        <path id="DejaVuSans-34" d="M 2419 4116 
L 825 1625 
L 2419 1625 
L 2419 4116 
z
M 2253 4666 
L 3047 4666 
L 3047 1625 
L 3713 1625 
L 3713 1100 
L 3047 1100 
L 3047 0 
L 2419 0 
L 2419 1100 
L 313 1100 
L 313 1709 
L 2253 4666 
z
" transform="scale(0.015625)"/>
       </defs>
       <use xlink:href="#DejaVuSans-34"/>
       <use xlink:href="#DejaVuSans-30" x="63.623047"/>
      </g>
     </g>
    </g>
    <g id="xtick_3">
     <g id="line2d_5">
      <path d="M 282.974139 292.74 
L 282.974139 15.12 
" clip-path="url(#p9c17d88511)" style="fill: none; stroke: #000000; stroke-opacity: 0.7; stroke-width: 0.5"/>
     </g>
     <g id="line2d_6"/>
     <g id="text_3">
      <!-- 60 -->
      <g transform="translate(274.066639 306.877812) scale(0.14 -0.14)">
       <defs>
        <path id="DejaVuSans-36" d="M 2113 2584 
Q 1688 2584 1439 2293 
Q 1191 2003 1191 1497 
Q 1191 994 1439 701 
Q 1688 409 2113 409 
Q 2538 409 2786 701 
Q 3034 994 3034 1497 
Q 3034 2003 2786 2293 
Q 2538 2584 2113 2584 
z
M 3366 4563 
L 3366 3988 
Q 3128 4100 2886 4159 
Q 2644 4219 2406 4219 
Q 1781 4219 1451 3797 
Q 1122 3375 1075 2522 
Q 1259 2794 1537 2939 
Q 1816 3084 2150 3084 
Q 2853 3084 3261 2657 
Q 3669 2231 3669 1497 
Q 3669 778 3244 343 
Q 2819 -91 2113 -91 
Q 1303 -91 875 529 
Q 447 1150 447 2328 
Q 447 3434 972 4092 
Q 1497 4750 2381 4750 
Q 2619 4750 2861 4703 
Q 3103 4656 3366 4563 
z
" transform="scale(0.015625)"/>
       </defs>
       <use xlink:href="#DejaVuSans-36"/>
       <use xlink:href="#DejaVuSans-30" x="63.623047"/>
      </g>
     </g>
    </g>
    <g id="xtick_4">
     <g id="line2d_7">
      <path d="M 355.691842 292.74 
L 355.691842 15.12 
" clip-path="url(#p9c17d88511)" style="fill: none; stroke: #000000; stroke-opacity: 0.7; stroke-width: 0.5"/>
     </g>
     <g id="line2d_8"/>
     <g id="text_4">
      <!-- 80 -->
      <g transform="translate(346.784342 306.877812) scale(0.14 -0.14)">
       <defs>
        <path id="DejaVuSans-38" d="M 2034 2216 
Q 1584 2216 1326 1975 
Q 1069 1734 1069 1313 
Q 1069 891 1326 650 
Q 1584 409 2034 409 
Q 2484 409 2743 651 
Q 3003 894 3003 1313 
Q 3003 1734 2745 1975 
Q 2488 2216 2034 2216 
z
M 1403 2484 
Q 997 2584 770 2862 
Q 544 3141 544 3541 
Q 544 4100 942 4425 
Q 1341 4750 2034 4750 
Q 2731 4750 3128 4425 
Q 3525 4100 3525 3541 
Q 3525 3141 3298 2862 
Q 3072 2584 2669 2484 
Q 3125 2378 3379 2068 
Q 3634 1759 3634 1313 
Q 3634 634 3220 271 
Q 2806 -91 2034 -91 
Q 1263 -91 848 271 
Q 434 634 434 1313 
Q 434 1759 690 2068 
Q 947 2378 1403 2484 
z
M 1172 3481 
Q 1172 3119 1398 2916 
Q 1625 2713 2034 2713 
Q 2441 2713 2670 2916 
Q 2900 3119 2900 3481 
Q 2900 3844 2670 4047 
Q 2441 4250 2034 4250 
Q 1625 4250 1398 4047 
Q 1172 3844 1172 3481 
z
" transform="scale(0.015625)"/>
       </defs>
       <use xlink:href="#DejaVuSans-38"/>
       <use xlink:href="#DejaVuSans-30" x="63.623047"/>
      </g>
     </g>
    </g>
    <g id="xtick_5">
     <g id="line2d_9">
      <path d="M 428.409545 292.74 
L 428.409545 15.12 
" clip-path="url(#p9c17d88511)" style="fill: none; stroke: #000000; stroke-opacity: 0.7; stroke-width: 0.5"/>
     </g>
     <g id="line2d_10"/>
     <g id="text_5">
      <!-- 100 -->
      <g transform="translate(415.048295 306.877812) scale(0.14 -0.14)">
       <defs>
        <path id="DejaVuSans-31" d="M 794 531 
L 1825 531 
L 1825 4091 
L 703 3866 
L 703 4441 
L 1819 4666 
L 2450 4666 
L 2450 531 
L 3481 531 
L 3481 0 
L 794 0 
L 794 531 
z
" transform="scale(0.015625)"/>
       </defs>
       <use xlink:href="#DejaVuSans-31"/>
       <use xlink:href="#DejaVuSans-30" x="63.623047"/>
       <use xlink:href="#DejaVuSans-30" x="127.246094"/>
      </g>
     </g>
    </g>
    <g id="text_6">
     <!-- # of nodes -->
     <g transform="translate(204.93225 326.55475) scale(0.168 -0.168)">
      <defs>
       <path id="DejaVuSans-Bold-23" d="M 2847 4594 
L 2547 3391 
L 3372 3391 
L 3675 4594 
L 4366 4594 
L 4063 3391 
L 4928 3391 
L 4928 2725 
L 3897 2725 
L 3681 1869 
L 4569 1869 
L 4569 1197 
L 3519 1197 
L 3219 0 
L 2528 0 
L 2828 1197 
L 2003 1197 
L 1703 0 
L 1006 0 
L 1306 1197 
L 434 1197 
L 434 1869 
L 1459 1869 
L 1678 2725 
L 794 2725 
L 794 3391 
L 1850 3391 
L 2150 4594 
L 2847 4594 
z
M 3200 2725 
L 2375 2725 
L 2156 1869 
L 2981 1869 
L 3200 2725 
z
" transform="scale(0.015625)"/>
       <path id="DejaVuSans-Bold-20" transform="scale(0.015625)"/>
       <path id="DejaVuSans-Bold-6f" d="M 2203 2784 
Q 1831 2784 1636 2517 
Q 1441 2250 1441 1747 
Q 1441 1244 1636 976 
Q 1831 709 2203 709 
Q 2569 709 2762 976 
Q 2956 1244 2956 1747 
Q 2956 2250 2762 2517 
Q 2569 2784 2203 2784 
z
M 2203 3584 
Q 3106 3584 3614 3096 
Q 4122 2609 4122 1747 
Q 4122 884 3614 396 
Q 3106 -91 2203 -91 
Q 1297 -91 786 396 
Q 275 884 275 1747 
Q 275 2609 786 3096 
Q 1297 3584 2203 3584 
z
" transform="scale(0.015625)"/>
       <path id="DejaVuSans-Bold-66" d="M 2841 4863 
L 2841 4128 
L 2222 4128 
Q 1984 4128 1890 4042 
Q 1797 3956 1797 3744 
L 1797 3500 
L 2753 3500 
L 2753 2700 
L 1797 2700 
L 1797 0 
L 678 0 
L 678 2700 
L 122 2700 
L 122 3500 
L 678 3500 
L 678 3744 
Q 678 4316 997 4589 
Q 1316 4863 1984 4863 
L 2841 4863 
z
" transform="scale(0.015625)"/>
       <path id="DejaVuSans-Bold-6e" d="M 4056 2131 
L 4056 0 
L 2931 0 
L 2931 347 
L 2931 1631 
Q 2931 2084 2911 2256 
Q 2891 2428 2841 2509 
Q 2775 2619 2662 2680 
Q 2550 2741 2406 2741 
Q 2056 2741 1856 2470 
Q 1656 2200 1656 1722 
L 1656 0 
L 538 0 
L 538 3500 
L 1656 3500 
L 1656 2988 
Q 1909 3294 2193 3439 
Q 2478 3584 2822 3584 
Q 3428 3584 3742 3212 
Q 4056 2841 4056 2131 
z
" transform="scale(0.015625)"/>
       <path id="DejaVuSans-Bold-64" d="M 2919 2988 
L 2919 4863 
L 4044 4863 
L 4044 0 
L 2919 0 
L 2919 506 
Q 2688 197 2409 53 
Q 2131 -91 1766 -91 
Q 1119 -91 703 423 
Q 288 938 288 1747 
Q 288 2556 703 3070 
Q 1119 3584 1766 3584 
Q 2128 3584 2408 3439 
Q 2688 3294 2919 2988 
z
M 2181 722 
Q 2541 722 2730 984 
Q 2919 1247 2919 1747 
Q 2919 2247 2730 2509 
Q 2541 2772 2181 2772 
Q 1825 2772 1636 2509 
Q 1447 2247 1447 1747 
Q 1447 1247 1636 984 
Q 1825 722 2181 722 
z
" transform="scale(0.015625)"/>
       <path id="DejaVuSans-Bold-65" d="M 4031 1759 
L 4031 1441 
L 1416 1441 
Q 1456 1047 1700 850 
Q 1944 653 2381 653 
Q 2734 653 3104 758 
Q 3475 863 3866 1075 
L 3866 213 
Q 3469 63 3072 -14 
Q 2675 -91 2278 -91 
Q 1328 -91 801 392 
Q 275 875 275 1747 
Q 275 2603 792 3093 
Q 1309 3584 2216 3584 
Q 3041 3584 3536 3087 
Q 4031 2591 4031 1759 
z
M 2881 2131 
Q 2881 2450 2695 2645 
Q 2509 2841 2209 2841 
Q 1884 2841 1681 2658 
Q 1478 2475 1428 2131 
L 2881 2131 
z
" transform="scale(0.015625)"/>
       <path id="DejaVuSans-Bold-73" d="M 3272 3391 
L 3272 2541 
Q 2913 2691 2578 2766 
Q 2244 2841 1947 2841 
Q 1628 2841 1473 2761 
Q 1319 2681 1319 2516 
Q 1319 2381 1436 2309 
Q 1553 2238 1856 2203 
L 2053 2175 
Q 2913 2066 3209 1816 
Q 3506 1566 3506 1031 
Q 3506 472 3093 190 
Q 2681 -91 1863 -91 
Q 1516 -91 1145 -36 
Q 775 19 384 128 
L 384 978 
Q 719 816 1070 734 
Q 1422 653 1784 653 
Q 2113 653 2278 743 
Q 2444 834 2444 1013 
Q 2444 1163 2330 1236 
Q 2216 1309 1875 1350 
L 1678 1375 
Q 931 1469 631 1722 
Q 331 1975 331 2491 
Q 331 3047 712 3315 
Q 1094 3584 1881 3584 
Q 2191 3584 2531 3537 
Q 2872 3491 3272 3391 
z
" transform="scale(0.015625)"/>
      </defs>
      <use xlink:href="#DejaVuSans-Bold-23"/>
      <use xlink:href="#DejaVuSans-Bold-20" x="83.789062"/>
      <use xlink:href="#DejaVuSans-Bold-6f" x="118.603516"/>
      <use xlink:href="#DejaVuSans-Bold-66" x="187.304688"/>
      <use xlink:href="#DejaVuSans-Bold-20" x="230.810547"/>
      <use xlink:href="#DejaVuSans-Bold-6e" x="265.625"/>
      <use xlink:href="#DejaVuSans-Bold-6f" x="336.816406"/>
      <use xlink:href="#DejaVuSans-Bold-64" x="405.517578"/>
      <use xlink:href="#DejaVuSans-Bold-65" x="477.099609"/>
      <use xlink:href="#DejaVuSans-Bold-73" x="544.921875"/>
     </g>
    </g>
   </g>
   <g id="matplotlib.axis_2">
    <g id="ytick_1">
     <g id="line2d_11">
      <path d="M 65.73 292.74 
L 445.68 292.74 
" clip-path="url(#p9c17d88511)" style="fill: none; stroke: #000000; stroke-opacity: 0.7; stroke-width: 0.5"/>
     </g>
     <g id="line2d_12"/>
     <g id="text_7">
      <!-- 0 -->
      <g transform="translate(53.3225 298.058906) scale(0.14 -0.14)">
       <use xlink:href="#DejaVuSans-30"/>
      </g>
     </g>
    </g>
    <g id="ytick_2">
     <g id="line2d_13">
      <path d="M 65.73 238.929596 
L 445.68 238.929596 
" clip-path="url(#p9c17d88511)" style="fill: none; stroke: #000000; stroke-opacity: 0.7; stroke-width: 0.5"/>
     </g>
     <g id="line2d_14"/>
     <g id="text_8">
      <!-- 20 -->
      <g transform="translate(44.415 244.248502) scale(0.14 -0.14)">
       <use xlink:href="#DejaVuSans-32"/>
       <use xlink:href="#DejaVuSans-30" x="63.623047"/>
      </g>
     </g>
    </g>
    <g id="ytick_3">
     <g id="line2d_15">
      <path d="M 65.73 185.119192 
L 445.68 185.119192 
" clip-path="url(#p9c17d88511)" style="fill: none; stroke: #000000; stroke-opacity: 0.7; stroke-width: 0.5"/>
     </g>
     <g id="line2d_16"/>
     <g id="text_9">
      <!-- 40 -->
      <g transform="translate(44.415 190.438098) scale(0.14 -0.14)">
       <use xlink:href="#DejaVuSans-34"/>
       <use xlink:href="#DejaVuSans-30" x="63.623047"/>
      </g>
     </g>
    </g>
    <g id="ytick_4">
     <g id="line2d_17">
      <path d="M 65.73 131.308788 
L 445.68 131.308788 
" clip-path="url(#p9c17d88511)" style="fill: none; stroke: #000000; stroke-opacity: 0.7; stroke-width: 0.5"/>
     </g>
     <g id="line2d_18"/>
     <g id="text_10">
      <!-- 60 -->
      <g transform="translate(44.415 136.627695) scale(0.14 -0.14)">
       <use xlink:href="#DejaVuSans-36"/>
       <use xlink:href="#DejaVuSans-30" x="63.623047"/>
      </g>
     </g>
    </g>
    <g id="ytick_5">
     <g id="line2d_19">
      <path d="M 65.73 77.498384 
L 445.68 77.498384 
" clip-path="url(#p9c17d88511)" style="fill: none; stroke: #000000; stroke-opacity: 0.7; stroke-width: 0.5"/>
     </g>
     <g id="line2d_20"/>
     <g id="text_11">
      <!-- 80 -->
      <g transform="translate(44.415 82.817291) scale(0.14 -0.14)">
       <use xlink:href="#DejaVuSans-38"/>
       <use xlink:href="#DejaVuSans-30" x="63.623047"/>
      </g>
     </g>
    </g>
    <g id="ytick_6">
     <g id="line2d_21">
      <path d="M 65.73 23.687981 
L 445.68 23.687981 
" clip-path="url(#p9c17d88511)" style="fill: none; stroke: #000000; stroke-opacity: 0.7; stroke-width: 0.5"/>
     </g>
     <g id="line2d_22"/>
     <g id="text_12">
      <!-- 100 -->
      <g transform="translate(35.5075 29.006887) scale(0.14 -0.14)">
       <use xlink:href="#DejaVuSans-31"/>
       <use xlink:href="#DejaVuSans-30" x="63.623047"/>
       <use xlink:href="#DejaVuSans-30" x="127.246094"/>
      </g>
     </g>
    </g>
    <g id="text_13">
     <!-- Avg. # of swaps -->
     <g transform="translate(27.882375 229.48275) rotate(-90) scale(0.168 -0.168)">
      <defs>
       <path id="DejaVuSans-Bold-41" d="M 3419 850 
L 1538 850 
L 1241 0 
L 31 0 
L 1759 4666 
L 3194 4666 
L 4922 0 
L 3713 0 
L 3419 850 
z
M 1838 1716 
L 3116 1716 
L 2478 3572 
L 1838 1716 
z
" transform="scale(0.015625)"/>
       <path id="DejaVuSans-Bold-76" d="M 97 3500 
L 1216 3500 
L 2088 1081 
L 2956 3500 
L 4078 3500 
L 2700 0 
L 1472 0 
L 97 3500 
z
" transform="scale(0.015625)"/>
       <path id="DejaVuSans-Bold-67" d="M 2919 594 
Q 2688 288 2409 144 
Q 2131 0 1766 0 
Q 1125 0 706 504 
Q 288 1009 288 1791 
Q 288 2575 706 3076 
Q 1125 3578 1766 3578 
Q 2131 3578 2409 3434 
Q 2688 3291 2919 2981 
L 2919 3500 
L 4044 3500 
L 4044 353 
Q 4044 -491 3511 -936 
Q 2978 -1381 1966 -1381 
Q 1638 -1381 1331 -1331 
Q 1025 -1281 716 -1178 
L 716 -306 
Q 1009 -475 1290 -558 
Q 1572 -641 1856 -641 
Q 2406 -641 2662 -400 
Q 2919 -159 2919 353 
L 2919 594 
z
M 2181 2772 
Q 1834 2772 1640 2515 
Q 1447 2259 1447 1791 
Q 1447 1309 1634 1061 
Q 1822 813 2181 813 
Q 2531 813 2725 1069 
Q 2919 1325 2919 1791 
Q 2919 2259 2725 2515 
Q 2531 2772 2181 2772 
z
" transform="scale(0.015625)"/>
       <path id="DejaVuSans-Bold-2e" d="M 653 1209 
L 1778 1209 
L 1778 0 
L 653 0 
L 653 1209 
z
" transform="scale(0.015625)"/>
       <path id="DejaVuSans-Bold-77" d="M 225 3500 
L 1313 3500 
L 1900 1088 
L 2491 3500 
L 3425 3500 
L 4013 1113 
L 4603 3500 
L 5691 3500 
L 4769 0 
L 3547 0 
L 2956 2406 
L 2369 0 
L 1147 0 
L 225 3500 
z
" transform="scale(0.015625)"/>
       <path id="DejaVuSans-Bold-61" d="M 2106 1575 
Q 1756 1575 1579 1456 
Q 1403 1338 1403 1106 
Q 1403 894 1545 773 
Q 1688 653 1941 653 
Q 2256 653 2472 879 
Q 2688 1106 2688 1447 
L 2688 1575 
L 2106 1575 
z
M 3816 1997 
L 3816 0 
L 2688 0 
L 2688 519 
Q 2463 200 2181 54 
Q 1900 -91 1497 -91 
Q 953 -91 614 226 
Q 275 544 275 1050 
Q 275 1666 698 1953 
Q 1122 2241 2028 2241 
L 2688 2241 
L 2688 2328 
Q 2688 2594 2478 2717 
Q 2269 2841 1825 2841 
Q 1466 2841 1156 2769 
Q 847 2697 581 2553 
L 581 3406 
Q 941 3494 1303 3539 
Q 1666 3584 2028 3584 
Q 2975 3584 3395 3211 
Q 3816 2838 3816 1997 
z
" transform="scale(0.015625)"/>
       <path id="DejaVuSans-Bold-70" d="M 1656 506 
L 1656 -1331 
L 538 -1331 
L 538 3500 
L 1656 3500 
L 1656 2988 
Q 1888 3294 2169 3439 
Q 2450 3584 2816 3584 
Q 3463 3584 3878 3070 
Q 4294 2556 4294 1747 
Q 4294 938 3878 423 
Q 3463 -91 2816 -91 
Q 2450 -91 2169 54 
Q 1888 200 1656 506 
z
M 2400 2772 
Q 2041 2772 1848 2508 
Q 1656 2244 1656 1747 
Q 1656 1250 1848 986 
Q 2041 722 2400 722 
Q 2759 722 2948 984 
Q 3138 1247 3138 1747 
Q 3138 2247 2948 2509 
Q 2759 2772 2400 2772 
z
" transform="scale(0.015625)"/>
      </defs>
      <use xlink:href="#DejaVuSans-Bold-41"/>
      <use xlink:href="#DejaVuSans-Bold-76" x="73.767578"/>
      <use xlink:href="#DejaVuSans-Bold-67" x="138.953125"/>
      <use xlink:href="#DejaVuSans-Bold-2e" x="210.535156"/>
      <use xlink:href="#DejaVuSans-Bold-20" x="248.523438"/>
      <use xlink:href="#DejaVuSans-Bold-23" x="283.337891"/>
      <use xlink:href="#DejaVuSans-Bold-20" x="367.126953"/>
      <use xlink:href="#DejaVuSans-Bold-6f" x="401.941406"/>
      <use xlink:href="#DejaVuSans-Bold-66" x="470.642578"/>
      <use xlink:href="#DejaVuSans-Bold-20" x="514.148438"/>
      <use xlink:href="#DejaVuSans-Bold-73" x="548.962891"/>
      <use xlink:href="#DejaVuSans-Bold-77" x="608.484375"/>
      <use xlink:href="#DejaVuSans-Bold-61" x="700.867188"/>
      <use xlink:href="#DejaVuSans-Bold-70" x="768.347656"/>
      <use xlink:href="#DejaVuSans-Bold-73" x="839.929688"/>
     </g>
    </g>
   </g>
   <g id="line2d_23">
    <path d="M 83.000455 284.668439 
L 101.17988 271.215838 
L 119.359306 257.763237 
L 137.538732 244.310636 
L 155.718158 230.858036 
L 173.897584 217.405435 
L 192.07701 203.796471 
L 210.256435 190.34387 
L 228.435861 176.891269 
L 246.615287 163.438668 
L 264.794713 149.986067 
L 282.974139 136.533466 
L 301.153565 122.756392 
L 319.33299 109.298388 
L 337.512416 95.845787 
L 355.691842 82.387784 
L 373.871268 68.940585 
L 392.050694 55.493387 
L 410.23012 41.541774 
L 428.409545 28.08376 
" clip-path="url(#p9c17d88511)" style="fill: none; stroke: #ff0000; stroke-opacity: 0.8; stroke-width: 2"/>
    <defs>
     <path id="mcc64608c0a" d="M 0 3 
C 0.795609 3 1.55874 2.683901 2.12132 2.12132 
C 2.683901 1.55874 3 0.795609 3 0 
C 3 -0.795609 2.683901 -1.55874 2.12132 -2.12132 
C 1.55874 -2.683901 0.795609 -3 0 -3 
C -0.795609 -3 -1.55874 -2.683901 -2.12132 -2.12132 
C -2.683901 -1.55874 -3 -0.795609 -3 0 
C -3 0.795609 -2.683901 1.55874 -2.12132 2.12132 
C -1.55874 2.683901 -0.795609 3 0 3 
z
" style="stroke: #ff0000; stroke-opacity: 0.8"/>
    </defs>
    <g clip-path="url(#p9c17d88511)">
     <use xlink:href="#mcc64608c0a" x="83.000455" y="284.668439" style="fill: #ff0000; fill-opacity: 0.8; stroke: #ff0000; stroke-opacity: 0.8"/>
     <use xlink:href="#mcc64608c0a" x="101.17988" y="271.215838" style="fill: #ff0000; fill-opacity: 0.8; stroke: #ff0000; stroke-opacity: 0.8"/>
     <use xlink:href="#mcc64608c0a" x="119.359306" y="257.763237" style="fill: #ff0000; fill-opacity: 0.8; stroke: #ff0000; stroke-opacity: 0.8"/>
     <use xlink:href="#mcc64608c0a" x="137.538732" y="244.310636" style="fill: #ff0000; fill-opacity: 0.8; stroke: #ff0000; stroke-opacity: 0.8"/>
     <use xlink:href="#mcc64608c0a" x="155.718158" y="230.858036" style="fill: #ff0000; fill-opacity: 0.8; stroke: #ff0000; stroke-opacity: 0.8"/>
     <use xlink:href="#mcc64608c0a" x="173.897584" y="217.405435" style="fill: #ff0000; fill-opacity: 0.8; stroke: #ff0000; stroke-opacity: 0.8"/>
     <use xlink:href="#mcc64608c0a" x="192.07701" y="203.796471" style="fill: #ff0000; fill-opacity: 0.8; stroke: #ff0000; stroke-opacity: 0.8"/>
     <use xlink:href="#mcc64608c0a" x="210.256435" y="190.34387" style="fill: #ff0000; fill-opacity: 0.8; stroke: #ff0000; stroke-opacity: 0.8"/>
     <use xlink:href="#mcc64608c0a" x="228.435861" y="176.891269" style="fill: #ff0000; fill-opacity: 0.8; stroke: #ff0000; stroke-opacity: 0.8"/>
     <use xlink:href="#mcc64608c0a" x="246.615287" y="163.438668" style="fill: #ff0000; fill-opacity: 0.8; stroke: #ff0000; stroke-opacity: 0.8"/>
     <use xlink:href="#mcc64608c0a" x="264.794713" y="149.986067" style="fill: #ff0000; fill-opacity: 0.8; stroke: #ff0000; stroke-opacity: 0.8"/>
     <use xlink:href="#mcc64608c0a" x="282.974139" y="136.533466" style="fill: #ff0000; fill-opacity: 0.8; stroke: #ff0000; stroke-opacity: 0.8"/>
     <use xlink:href="#mcc64608c0a" x="301.153565" y="122.756392" style="fill: #ff0000; fill-opacity: 0.8; stroke: #ff0000; stroke-opacity: 0.8"/>
     <use xlink:href="#mcc64608c0a" x="319.33299" y="109.298388" style="fill: #ff0000; fill-opacity: 0.8; stroke: #ff0000; stroke-opacity: 0.8"/>
     <use xlink:href="#mcc64608c0a" x="337.512416" y="95.845787" style="fill: #ff0000; fill-opacity: 0.8; stroke: #ff0000; stroke-opacity: 0.8"/>
     <use xlink:href="#mcc64608c0a" x="355.691842" y="82.387784" style="fill: #ff0000; fill-opacity: 0.8; stroke: #ff0000; stroke-opacity: 0.8"/>
     <use xlink:href="#mcc64608c0a" x="373.871268" y="68.940585" style="fill: #ff0000; fill-opacity: 0.8; stroke: #ff0000; stroke-opacity: 0.8"/>
     <use xlink:href="#mcc64608c0a" x="392.050694" y="55.493387" style="fill: #ff0000; fill-opacity: 0.8; stroke: #ff0000; stroke-opacity: 0.8"/>
     <use xlink:href="#mcc64608c0a" x="410.23012" y="41.541774" style="fill: #ff0000; fill-opacity: 0.8; stroke: #ff0000; stroke-opacity: 0.8"/>
     <use xlink:href="#mcc64608c0a" x="428.409545" y="28.08376" style="fill: #ff0000; fill-opacity: 0.8; stroke: #ff0000; stroke-opacity: 0.8"/>
    </g>
   </g>
   <g id="line2d_24">
    <path d="M 83.000455 287.35896 
L 101.17988 287.35896 
L 119.359306 287.35896 
L 137.538732 287.35896 
L 155.718158 287.35896 
L 173.897584 287.35896 
L 192.07701 287.35896 
L 210.256435 287.35896 
L 228.435861 287.35896 
L 246.615287 287.35896 
L 264.794713 287.35896 
L 282.974139 287.35896 
L 301.153565 287.35896 
L 319.33299 287.35896 
L 337.512416 287.35896 
L 355.691842 287.35896 
L 373.871268 287.35896 
L 392.050694 287.35896 
L 410.23012 287.35896 
L 428.409545 287.35896 
" clip-path="url(#p9c17d88511)" style="fill: none; stroke: #0000ff; stroke-opacity: 0.8; stroke-width: 2"/>
    <defs>
     <path id="m95e8fb78f6" d="M -3 3 
L 3 3 
L 3 -3 
L -3 -3 
z
" style="stroke: #0000ff; stroke-opacity: 0.8; stroke-linejoin: miter"/>
    </defs>
    <g clip-path="url(#p9c17d88511)">
     <use xlink:href="#m95e8fb78f6" x="83.000455" y="287.35896" style="fill: #0000ff; fill-opacity: 0.8; stroke: #0000ff; stroke-opacity: 0.8; stroke-linejoin: miter"/>
     <use xlink:href="#m95e8fb78f6" x="101.17988" y="287.35896" style="fill: #0000ff; fill-opacity: 0.8; stroke: #0000ff; stroke-opacity: 0.8; stroke-linejoin: miter"/>
     <use xlink:href="#m95e8fb78f6" x="119.359306" y="287.35896" style="fill: #0000ff; fill-opacity: 0.8; stroke: #0000ff; stroke-opacity: 0.8; stroke-linejoin: miter"/>
     <use xlink:href="#m95e8fb78f6" x="137.538732" y="287.35896" style="fill: #0000ff; fill-opacity: 0.8; stroke: #0000ff; stroke-opacity: 0.8; stroke-linejoin: miter"/>
     <use xlink:href="#m95e8fb78f6" x="155.718158" y="287.35896" style="fill: #0000ff; fill-opacity: 0.8; stroke: #0000ff; stroke-opacity: 0.8; stroke-linejoin: miter"/>
     <use xlink:href="#m95e8fb78f6" x="173.897584" y="287.35896" style="fill: #0000ff; fill-opacity: 0.8; stroke: #0000ff; stroke-opacity: 0.8; stroke-linejoin: miter"/>
     <use xlink:href="#m95e8fb78f6" x="192.07701" y="287.35896" style="fill: #0000ff; fill-opacity: 0.8; stroke: #0000ff; stroke-opacity: 0.8; stroke-linejoin: miter"/>
     <use xlink:href="#m95e8fb78f6" x="210.256435" y="287.35896" style="fill: #0000ff; fill-opacity: 0.8; stroke: #0000ff; stroke-opacity: 0.8; stroke-linejoin: miter"/>
     <use xlink:href="#m95e8fb78f6" x="228.435861" y="287.35896" style="fill: #0000ff; fill-opacity: 0.8; stroke: #0000ff; stroke-opacity: 0.8; stroke-linejoin: miter"/>
     <use xlink:href="#m95e8fb78f6" x="246.615287" y="287.35896" style="fill: #0000ff; fill-opacity: 0.8; stroke: #0000ff; stroke-opacity: 0.8; stroke-linejoin: miter"/>
     <use xlink:href="#m95e8fb78f6" x="264.794713" y="287.35896" style="fill: #0000ff; fill-opacity: 0.8; stroke: #0000ff; stroke-opacity: 0.8; stroke-linejoin: miter"/>
     <use xlink:href="#m95e8fb78f6" x="282.974139" y="287.35896" style="fill: #0000ff; fill-opacity: 0.8; stroke: #0000ff; stroke-opacity: 0.8; stroke-linejoin: miter"/>
     <use xlink:href="#m95e8fb78f6" x="301.153565" y="287.35896" style="fill: #0000ff; fill-opacity: 0.8; stroke: #0000ff; stroke-opacity: 0.8; stroke-linejoin: miter"/>
     <use xlink:href="#m95e8fb78f6" x="319.33299" y="287.35896" style="fill: #0000ff; fill-opacity: 0.8; stroke: #0000ff; stroke-opacity: 0.8; stroke-linejoin: miter"/>
     <use xlink:href="#m95e8fb78f6" x="337.512416" y="287.35896" style="fill: #0000ff; fill-opacity: 0.8; stroke: #0000ff; stroke-opacity: 0.8; stroke-linejoin: miter"/>
     <use xlink:href="#m95e8fb78f6" x="355.691842" y="287.35896" style="fill: #0000ff; fill-opacity: 0.8; stroke: #0000ff; stroke-opacity: 0.8; stroke-linejoin: miter"/>
     <use xlink:href="#m95e8fb78f6" x="373.871268" y="287.35896" style="fill: #0000ff; fill-opacity: 0.8; stroke: #0000ff; stroke-opacity: 0.8; stroke-linejoin: miter"/>
     <use xlink:href="#m95e8fb78f6" x="392.050694" y="287.35896" style="fill: #0000ff; fill-opacity: 0.8; stroke: #0000ff; stroke-opacity: 0.8; stroke-linejoin: miter"/>
     <use xlink:href="#m95e8fb78f6" x="410.23012" y="287.35896" style="fill: #0000ff; fill-opacity: 0.8; stroke: #0000ff; stroke-opacity: 0.8; stroke-linejoin: miter"/>
     <use xlink:href="#m95e8fb78f6" x="428.409545" y="287.35896" style="fill: #0000ff; fill-opacity: 0.8; stroke: #0000ff; stroke-opacity: 0.8; stroke-linejoin: miter"/>
    </g>
   </g>
   <g id="patch_3">
    <path d="M 65.73 292.74 
L 65.73 15.12 
" style="fill: none; stroke: #000000; stroke-width: 3; stroke-linejoin: miter; stroke-linecap: square"/>
   </g>
   <g id="patch_4">
    <path d="M 445.68 292.74 
L 445.68 15.12 
" style="fill: none; stroke: #000000; stroke-width: 3; stroke-linejoin: miter; stroke-linecap: square"/>
   </g>
   <g id="patch_5">
    <path d="M 65.73 292.74 
L 445.68 292.74 
" style="fill: none; stroke: #000000; stroke-width: 3; stroke-linejoin: miter; stroke-linecap: square"/>
   </g>
   <g id="patch_6">
    <path d="M 65.73 15.12 
L 445.68 15.12 
" style="fill: none; stroke: #000000; stroke-width: 3; stroke-linejoin: miter; stroke-linecap: square"/>
   </g>
   <g id="patch_7">
    <path d="M 358.209393 258.871365 
Q 357.038664 272.118861 355.966356 284.252665 
" style="fill: none; stroke: #000000; stroke-linecap: round"/>
    <path d="M 358.779585 279.682572 
L 355.966356 284.252665 
L 353.99822 279.260026 
" style="fill: none; stroke: #000000; stroke-linecap: round"/>
   </g>
   <g id="text_14">
    <!-- constant at 2 -->
    <g transform="translate(319.33299 252.382197) scale(0.12 -0.12)">
     <defs>
      <path id="DejaVuSans-63" d="M 3122 3366 
L 3122 2828 
Q 2878 2963 2633 3030 
Q 2388 3097 2138 3097 
Q 1578 3097 1268 2742 
Q 959 2388 959 1747 
Q 959 1106 1268 751 
Q 1578 397 2138 397 
Q 2388 397 2633 464 
Q 2878 531 3122 666 
L 3122 134 
Q 2881 22 2623 -34 
Q 2366 -91 2075 -91 
Q 1284 -91 818 406 
Q 353 903 353 1747 
Q 353 2603 823 3093 
Q 1294 3584 2113 3584 
Q 2378 3584 2631 3529 
Q 2884 3475 3122 3366 
z
" transform="scale(0.015625)"/>
      <path id="DejaVuSans-6f" d="M 1959 3097 
Q 1497 3097 1228 2736 
Q 959 2375 959 1747 
Q 959 1119 1226 758 
Q 1494 397 1959 397 
Q 2419 397 2687 759 
Q 2956 1122 2956 1747 
Q 2956 2369 2687 2733 
Q 2419 3097 1959 3097 
z
M 1959 3584 
Q 2709 3584 3137 3096 
Q 3566 2609 3566 1747 
Q 3566 888 3137 398 
Q 2709 -91 1959 -91 
Q 1206 -91 779 398 
Q 353 888 353 1747 
Q 353 2609 779 3096 
Q 1206 3584 1959 3584 
z
" transform="scale(0.015625)"/>
      <path id="DejaVuSans-6e" d="M 3513 2113 
L 3513 0 
L 2938 0 
L 2938 2094 
Q 2938 2591 2744 2837 
Q 2550 3084 2163 3084 
Q 1697 3084 1428 2787 
Q 1159 2491 1159 1978 
L 1159 0 
L 581 0 
L 581 3500 
L 1159 3500 
L 1159 2956 
Q 1366 3272 1645 3428 
Q 1925 3584 2291 3584 
Q 2894 3584 3203 3211 
Q 3513 2838 3513 2113 
z
" transform="scale(0.015625)"/>
      <path id="DejaVuSans-73" d="M 2834 3397 
L 2834 2853 
Q 2591 2978 2328 3040 
Q 2066 3103 1784 3103 
Q 1356 3103 1142 2972 
Q 928 2841 928 2578 
Q 928 2378 1081 2264 
Q 1234 2150 1697 2047 
L 1894 2003 
Q 2506 1872 2764 1633 
Q 3022 1394 3022 966 
Q 3022 478 2636 193 
Q 2250 -91 1575 -91 
Q 1294 -91 989 -36 
Q 684 19 347 128 
L 347 722 
Q 666 556 975 473 
Q 1284 391 1588 391 
Q 1994 391 2212 530 
Q 2431 669 2431 922 
Q 2431 1156 2273 1281 
Q 2116 1406 1581 1522 
L 1381 1569 
Q 847 1681 609 1914 
Q 372 2147 372 2553 
Q 372 3047 722 3315 
Q 1072 3584 1716 3584 
Q 2034 3584 2315 3537 
Q 2597 3491 2834 3397 
z
" transform="scale(0.015625)"/>
      <path id="DejaVuSans-74" d="M 1172 4494 
L 1172 3500 
L 2356 3500 
L 2356 3053 
L 1172 3053 
L 1172 1153 
Q 1172 725 1289 603 
Q 1406 481 1766 481 
L 2356 481 
L 2356 0 
L 1766 0 
Q 1100 0 847 248 
Q 594 497 594 1153 
L 594 3053 
L 172 3053 
L 172 3500 
L 594 3500 
L 594 4494 
L 1172 4494 
z
" transform="scale(0.015625)"/>
      <path id="DejaVuSans-61" d="M 2194 1759 
Q 1497 1759 1228 1600 
Q 959 1441 959 1056 
Q 959 750 1161 570 
Q 1363 391 1709 391 
Q 2188 391 2477 730 
Q 2766 1069 2766 1631 
L 2766 1759 
L 2194 1759 
z
M 3341 1997 
L 3341 0 
L 2766 0 
L 2766 531 
Q 2569 213 2275 61 
Q 1981 -91 1556 -91 
Q 1019 -91 701 211 
Q 384 513 384 1019 
Q 384 1609 779 1909 
Q 1175 2209 1959 2209 
L 2766 2209 
L 2766 2266 
Q 2766 2663 2505 2880 
Q 2244 3097 1772 3097 
Q 1472 3097 1187 3025 
Q 903 2953 641 2809 
L 641 3341 
Q 956 3463 1253 3523 
Q 1550 3584 1831 3584 
Q 2591 3584 2966 3190 
Q 3341 2797 3341 1997 
z
" transform="scale(0.015625)"/>
      <path id="DejaVuSans-20" transform="scale(0.015625)"/>
     </defs>
     <use xlink:href="#DejaVuSans-63"/>
     <use xlink:href="#DejaVuSans-6f" x="54.980469"/>
     <use xlink:href="#DejaVuSans-6e" x="116.162109"/>
     <use xlink:href="#DejaVuSans-73" x="179.541016"/>
     <use xlink:href="#DejaVuSans-74" x="231.640625"/>
     <use xlink:href="#DejaVuSans-61" x="270.849609"/>
     <use xlink:href="#DejaVuSans-6e" x="332.128906"/>
     <use xlink:href="#DejaVuSans-74" x="395.507812"/>
     <use xlink:href="#DejaVuSans-20" x="434.716797"/>
     <use xlink:href="#DejaVuSans-61" x="466.503906"/>
     <use xlink:href="#DejaVuSans-74" x="527.783203"/>
     <use xlink:href="#DejaVuSans-20" x="566.992188"/>
     <use xlink:href="#DejaVuSans-32" x="598.779297"/>
    </g>
   </g>
   <g id="legend_1">
    <g id="patch_8">
     <path d="M 75.53 67.41875 
L 182.555625 67.41875 
Q 185.355625 67.41875 185.355625 64.61875 
L 185.355625 24.92 
Q 185.355625 22.12 182.555625 22.12 
L 75.53 22.12 
Q 72.73 22.12 72.73 24.92 
L 72.73 64.61875 
Q 72.73 67.41875 75.53 67.41875 
z
" style="fill: #ffffff; opacity: 0.8; stroke: #cccccc; stroke-width: 0.5; stroke-linejoin: miter"/>
    </g>
    <g id="line2d_25">
     <path d="M 78.33 33.457813 
L 92.33 33.457813 
L 106.33 33.457813 
" style="fill: none; stroke: #ff0000; stroke-opacity: 0.8; stroke-width: 2"/>
     <g>
      <use xlink:href="#mcc64608c0a" x="92.33" y="33.457813" style="fill: #ff0000; fill-opacity: 0.8; stroke: #ff0000; stroke-opacity: 0.8"/>
     </g>
    </g>
    <g id="text_15">
     <!-- no vlinks -->
     <g transform="translate(117.53 38.357813) scale(0.14 -0.14)">
      <defs>
       <path id="DejaVuSans-76" d="M 191 3500 
L 800 3500 
L 1894 563 
L 2988 3500 
L 3597 3500 
L 2284 0 
L 1503 0 
L 191 3500 
z
" transform="scale(0.015625)"/>
       <path id="DejaVuSans-6c" d="M 603 4863 
L 1178 4863 
L 1178 0 
L 603 0 
L 603 4863 
z
" transform="scale(0.015625)"/>
       <path id="DejaVuSans-69" d="M 603 3500 
L 1178 3500 
L 1178 0 
L 603 0 
L 603 3500 
z
M 603 4863 
L 1178 4863 
L 1178 4134 
L 603 4134 
L 603 4863 
z
" transform="scale(0.015625)"/>
       <path id="DejaVuSans-6b" d="M 581 4863 
L 1159 4863 
L 1159 1991 
L 2875 3500 
L 3609 3500 
L 1753 1863 
L 3688 0 
L 2938 0 
L 1159 1709 
L 1159 0 
L 581 0 
L 581 4863 
z
" transform="scale(0.015625)"/>
      </defs>
      <use xlink:href="#DejaVuSans-6e"/>
      <use xlink:href="#DejaVuSans-6f" x="63.378906"/>
      <use xlink:href="#DejaVuSans-20" x="124.560547"/>
      <use xlink:href="#DejaVuSans-76" x="156.347656"/>
      <use xlink:href="#DejaVuSans-6c" x="215.527344"/>
      <use xlink:href="#DejaVuSans-69" x="243.310547"/>
      <use xlink:href="#DejaVuSans-6e" x="271.09375"/>
      <use xlink:href="#DejaVuSans-6b" x="334.472656"/>
      <use xlink:href="#DejaVuSans-73" x="392.382812"/>
     </g>
    </g>
    <g id="line2d_26">
     <path d="M 78.33 54.007188 
L 92.33 54.007188 
L 106.33 54.007188 
" style="fill: none; stroke: #0000ff; stroke-opacity: 0.8; stroke-width: 2"/>
     <g>
      <use xlink:href="#m95e8fb78f6" x="92.33" y="54.007188" style="fill: #0000ff; fill-opacity: 0.8; stroke: #0000ff; stroke-opacity: 0.8; stroke-linejoin: miter"/>
     </g>
    </g>
    <g id="text_16">
     <!-- vlinks -->
     <g transform="translate(117.53 58.907188) scale(0.14 -0.14)">
      <use xlink:href="#DejaVuSans-76"/>
      <use xlink:href="#DejaVuSans-6c" x="59.179688"/>
      <use xlink:href="#DejaVuSans-69" x="86.962891"/>
      <use xlink:href="#DejaVuSans-6e" x="114.746094"/>
      <use xlink:href="#DejaVuSans-6b" x="178.125"/>
      <use xlink:href="#DejaVuSans-73" x="236.035156"/>
     </g>
    </g>
   </g>
  </g>
 </g>
 <defs>
  <clipPath id="p9c17d88511">
   <rect x="65.73" y="15.12" width="379.95" height="277.62"/>
  </clipPath>
 </defs>
</svg>
