<?xml version="1.0" encoding="utf-8" standalone="no"?>
<!DOCTYPE svg PUBLIC "-//W3C//DTD SVG 1.1//EN"
  "http://www.w3.org/Graphics/SVG/1.1/DTD/svg11.dtd">
<svg xmlns:xlink="http://www.w3.org/1999/xlink" width="460.8pt" height="345.6pt" viewBox="0 0 460.8 345.6" xmlns="http://www.w3.org/2000/svg" version="1.1">
 <metadata>
  <rdf:RDF xmlns:dc="http://purl.org/dc/elements/1.1/" xmlns:cc="http://creativecommons.org/ns#" xmlns:rdf="http://www.w3.org/1999/02/22-rdf-syntax-ns#">
   <cc:Work>
    <dc:type rdf:resource="http://purl.org/dc/dcmitype/StillImage"/>
    <dc:date>2024-09-02T17:31:39.965003</dc:date>
    <dc:format>image/svg+xml</dc:format>
    <dc:creator>
     <cc:Agent>
      <dc:title>Matplotlib v3.9.0, https://matplotlib.org/</dc:title>
     </cc:Agent>
    </dc:creator>
   </cc:Work>
  </rdf:RDF>
 </metadata>
 <defs>
  <style type="text/css">*{stroke-linejoin: round; stroke-linecap: butt}</style>
 </defs>
 <g id="figure_1">
  <g id="patch_1">
   <path d="M 0 345.6 
L 460.8 345.6 
L 460.8 0 
L 0 0 
z
" style="fill: #ffffff"/>
  </g>
  <g id="axes_1">
   <g id="patch_2">
    <path d="M 70.32 292.74 
L 445.68 292.74 
L 445.68 15.12 
L 70.32 15.12 
z
" style="fill: #ffffff"/>
   </g>
   <g id="matplotlib.axis_1">
    <g id="xtick_1">
     <g id="line2d_1">
      <path d="M 125.29697 292.74 
L 125.29697 15.12 
" clip-path="url(#p5ea84bf244)" style="fill: none; stroke: #000000; stroke-opacity: 0.7; stroke-width: 0.5"/>
     </g>
     <g id="line2d_2"/>
     <g id="text_1">
      <!-- 100 -->
      <g transform="translate(111.93572 306.877812) scale(0.14 -0.14)">
       <defs>
        <path id="DejaVuSans-31" d="M 794 531 
L 1825 531 
L 1825 4091 
L 703 3866 
L 703 4441 
L 1819 4666 
L 2450 4666 
L 2450 531 
L 3481 531 
L 3481 0 
L 794 0 
L 794 531 
z
" transform="scale(0.015625)"/>
        <path id="DejaVuSans-30" d="M 2034 4250 
Q 1547 4250 1301 3770 
Q 1056 3291 1056 2328 
Q 1056 1369 1301 889 
Q 1547 409 2034 409 
Q 2525 409 2770 889 
Q 3016 1369 3016 2328 
Q 3016 3291 2770 3770 
Q 2525 4250 2034 4250 
z
M 2034 4750 
Q 2819 4750 3233 4129 
Q 3647 3509 3647 2328 
Q 3647 1150 3233 529 
Q 2819 -91 2034 -91 
Q 1250 -91 836 529 
Q 422 1150 422 2328 
Q 422 3509 836 4129 
Q 1250 4750 2034 4750 
z
" transform="scale(0.015625)"/>
       </defs>
       <use xlink:href="#DejaVuSans-31"/>
       <use xlink:href="#DejaVuSans-30" x="63.623047"/>
       <use xlink:href="#DejaVuSans-30" x="127.246094"/>
      </g>
     </g>
    </g>
    <g id="xtick_2">
     <g id="line2d_3">
      <path d="M 201.127273 292.74 
L 201.127273 15.12 
" clip-path="url(#p5ea84bf244)" style="fill: none; stroke: #000000; stroke-opacity: 0.7; stroke-width: 0.5"/>
     </g>
     <g id="line2d_4"/>
     <g id="text_2">
      <!-- 200 -->
      <g transform="translate(187.766023 306.877812) scale(0.14 -0.14)">
       <defs>
        <path id="DejaVuSans-32" d="M 1228 531 
L 3431 531 
L 3431 0 
L 469 0 
L 469 531 
Q 828 903 1448 1529 
Q 2069 2156 2228 2338 
Q 2531 2678 2651 2914 
Q 2772 3150 2772 3378 
Q 2772 3750 2511 3984 
Q 2250 4219 1831 4219 
Q 1534 4219 1204 4116 
Q 875 4013 500 3803 
L 500 4441 
Q 881 4594 1212 4672 
Q 1544 4750 1819 4750 
Q 2544 4750 2975 4387 
Q 3406 4025 3406 3419 
Q 3406 3131 3298 2873 
Q 3191 2616 2906 2266 
Q 2828 2175 2409 1742 
Q 1991 1309 1228 531 
z
" transform="scale(0.015625)"/>
       </defs>
       <use xlink:href="#DejaVuSans-32"/>
       <use xlink:href="#DejaVuSans-30" x="63.623047"/>
       <use xlink:href="#DejaVuSans-30" x="127.246094"/>
      </g>
     </g>
    </g>
    <g id="xtick_3">
     <g id="line2d_5">
      <path d="M 276.957576 292.74 
L 276.957576 15.12 
" clip-path="url(#p5ea84bf244)" style="fill: none; stroke: #000000; stroke-opacity: 0.7; stroke-width: 0.5"/>
     </g>
     <g id="line2d_6"/>
     <g id="text_3">
      <!-- 300 -->
      <g transform="translate(263.596326 306.877812) scale(0.14 -0.14)">
       <defs>
        <path id="DejaVuSans-33" d="M 2597 2516 
Q 3050 2419 3304 2112 
Q 3559 1806 3559 1356 
Q 3559 666 3084 287 
Q 2609 -91 1734 -91 
Q 1441 -91 1130 -33 
Q 819 25 488 141 
L 488 750 
Q 750 597 1062 519 
Q 1375 441 1716 441 
Q 2309 441 2620 675 
Q 2931 909 2931 1356 
Q 2931 1769 2642 2001 
Q 2353 2234 1838 2234 
L 1294 2234 
L 1294 2753 
L 1863 2753 
Q 2328 2753 2575 2939 
Q 2822 3125 2822 3475 
Q 2822 3834 2567 4026 
Q 2313 4219 1838 4219 
Q 1578 4219 1281 4162 
Q 984 4106 628 3988 
L 628 4550 
Q 988 4650 1302 4700 
Q 1616 4750 1894 4750 
Q 2613 4750 3031 4423 
Q 3450 4097 3450 3541 
Q 3450 3153 3228 2886 
Q 3006 2619 2597 2516 
z
" transform="scale(0.015625)"/>
       </defs>
       <use xlink:href="#DejaVuSans-33"/>
       <use xlink:href="#DejaVuSans-30" x="63.623047"/>
       <use xlink:href="#DejaVuSans-30" x="127.246094"/>
      </g>
     </g>
    </g>
    <g id="xtick_4">
     <g id="line2d_7">
      <path d="M 352.787879 292.74 
L 352.787879 15.12 
" clip-path="url(#p5ea84bf244)" style="fill: none; stroke: #000000; stroke-opacity: 0.7; stroke-width: 0.5"/>
     </g>
     <g id="line2d_8"/>
     <g id="text_4">
      <!-- 400 -->
      <g transform="translate(339.426629 306.877812) scale(0.14 -0.14)">
       <defs>
        <path id="DejaVuSans-34" d="M 2419 4116 
L 825 1625 
L 2419 1625 
L 2419 4116 
z
M 2253 4666 
L 3047 4666 
L 3047 1625 
L 3713 1625 
L 3713 1100 
L 3047 1100 
L 3047 0 
L 2419 0 
L 2419 1100 
L 313 1100 
L 313 1709 
L 2253 4666 
z
" transform="scale(0.015625)"/>
       </defs>
       <use xlink:href="#DejaVuSans-34"/>
       <use xlink:href="#DejaVuSans-30" x="63.623047"/>
       <use xlink:href="#DejaVuSans-30" x="127.246094"/>
      </g>
     </g>
    </g>
    <g id="xtick_5">
     <g id="line2d_9">
      <path d="M 428.618182 292.74 
L 428.618182 15.12 
" clip-path="url(#p5ea84bf244)" style="fill: none; stroke: #000000; stroke-opacity: 0.7; stroke-width: 0.5"/>
     </g>
     <g id="line2d_10"/>
     <g id="text_5">
      <!-- 500 -->
      <g transform="translate(415.256932 306.877812) scale(0.14 -0.14)">
       <defs>
        <path id="DejaVuSans-35" d="M 691 4666 
L 3169 4666 
L 3169 4134 
L 1269 4134 
L 1269 2991 
Q 1406 3038 1543 3061 
Q 1681 3084 1819 3084 
Q 2600 3084 3056 2656 
Q 3513 2228 3513 1497 
Q 3513 744 3044 326 
Q 2575 -91 1722 -91 
Q 1428 -91 1123 -41 
Q 819 9 494 109 
L 494 744 
Q 775 591 1075 516 
Q 1375 441 1709 441 
Q 2250 441 2565 725 
Q 2881 1009 2881 1497 
Q 2881 1984 2565 2268 
Q 2250 2553 1709 2553 
Q 1456 2553 1204 2497 
Q 953 2441 691 2322 
L 691 4666 
z
" transform="scale(0.015625)"/>
       </defs>
       <use xlink:href="#DejaVuSans-35"/>
       <use xlink:href="#DejaVuSans-30" x="63.623047"/>
       <use xlink:href="#DejaVuSans-30" x="127.246094"/>
      </g>
     </g>
    </g>
    <g id="text_6">
     <!-- # of nodes -->
     <g transform="translate(207.22725 326.55475) scale(0.168 -0.168)">
      <defs>
       <path id="DejaVuSans-Bold-23" d="M 2847 4594 
L 2547 3391 
L 3372 3391 
L 3675 4594 
L 4366 4594 
L 4063 3391 
L 4928 3391 
L 4928 2725 
L 3897 2725 
L 3681 1869 
L 4569 1869 
L 4569 1197 
L 3519 1197 
L 3219 0 
L 2528 0 
L 2828 1197 
L 2003 1197 
L 1703 0 
L 1006 0 
L 1306 1197 
L 434 1197 
L 434 1869 
L 1459 1869 
L 1678 2725 
L 794 2725 
L 794 3391 
L 1850 3391 
L 2150 4594 
L 2847 4594 
z
M 3200 2725 
L 2375 2725 
L 2156 1869 
L 2981 1869 
L 3200 2725 
z
" transform="scale(0.015625)"/>
       <path id="DejaVuSans-Bold-20" transform="scale(0.015625)"/>
       <path id="DejaVuSans-Bold-6f" d="M 2203 2784 
Q 1831 2784 1636 2517 
Q 1441 2250 1441 1747 
Q 1441 1244 1636 976 
Q 1831 709 2203 709 
Q 2569 709 2762 976 
Q 2956 1244 2956 1747 
Q 2956 2250 2762 2517 
Q 2569 2784 2203 2784 
z
M 2203 3584 
Q 3106 3584 3614 3096 
Q 4122 2609 4122 1747 
Q 4122 884 3614 396 
Q 3106 -91 2203 -91 
Q 1297 -91 786 396 
Q 275 884 275 1747 
Q 275 2609 786 3096 
Q 1297 3584 2203 3584 
z
" transform="scale(0.015625)"/>
       <path id="DejaVuSans-Bold-66" d="M 2841 4863 
L 2841 4128 
L 2222 4128 
Q 1984 4128 1890 4042 
Q 1797 3956 1797 3744 
L 1797 3500 
L 2753 3500 
L 2753 2700 
L 1797 2700 
L 1797 0 
L 678 0 
L 678 2700 
L 122 2700 
L 122 3500 
L 678 3500 
L 678 3744 
Q 678 4316 997 4589 
Q 1316 4863 1984 4863 
L 2841 4863 
z
" transform="scale(0.015625)"/>
       <path id="DejaVuSans-Bold-6e" d="M 4056 2131 
L 4056 0 
L 2931 0 
L 2931 347 
L 2931 1631 
Q 2931 2084 2911 2256 
Q 2891 2428 2841 2509 
Q 2775 2619 2662 2680 
Q 2550 2741 2406 2741 
Q 2056 2741 1856 2470 
Q 1656 2200 1656 1722 
L 1656 0 
L 538 0 
L 538 3500 
L 1656 3500 
L 1656 2988 
Q 1909 3294 2193 3439 
Q 2478 3584 2822 3584 
Q 3428 3584 3742 3212 
Q 4056 2841 4056 2131 
z
" transform="scale(0.015625)"/>
       <path id="DejaVuSans-Bold-64" d="M 2919 2988 
L 2919 4863 
L 4044 4863 
L 4044 0 
L 2919 0 
L 2919 506 
Q 2688 197 2409 53 
Q 2131 -91 1766 -91 
Q 1119 -91 703 423 
Q 288 938 288 1747 
Q 288 2556 703 3070 
Q 1119 3584 1766 3584 
Q 2128 3584 2408 3439 
Q 2688 3294 2919 2988 
z
M 2181 722 
Q 2541 722 2730 984 
Q 2919 1247 2919 1747 
Q 2919 2247 2730 2509 
Q 2541 2772 2181 2772 
Q 1825 2772 1636 2509 
Q 1447 2247 1447 1747 
Q 1447 1247 1636 984 
Q 1825 722 2181 722 
z
" transform="scale(0.015625)"/>
       <path id="DejaVuSans-Bold-65" d="M 4031 1759 
L 4031 1441 
L 1416 1441 
Q 1456 1047 1700 850 
Q 1944 653 2381 653 
Q 2734 653 3104 758 
Q 3475 863 3866 1075 
L 3866 213 
Q 3469 63 3072 -14 
Q 2675 -91 2278 -91 
Q 1328 -91 801 392 
Q 275 875 275 1747 
Q 275 2603 792 3093 
Q 1309 3584 2216 3584 
Q 3041 3584 3536 3087 
Q 4031 2591 4031 1759 
z
M 2881 2131 
Q 2881 2450 2695 2645 
Q 2509 2841 2209 2841 
Q 1884 2841 1681 2658 
Q 1478 2475 1428 2131 
L 2881 2131 
z
" transform="scale(0.015625)"/>
       <path id="DejaVuSans-Bold-73" d="M 3272 3391 
L 3272 2541 
Q 2913 2691 2578 2766 
Q 2244 2841 1947 2841 
Q 1628 2841 1473 2761 
Q 1319 2681 1319 2516 
Q 1319 2381 1436 2309 
Q 1553 2238 1856 2203 
L 2053 2175 
Q 2913 2066 3209 1816 
Q 3506 1566 3506 1031 
Q 3506 472 3093 190 
Q 2681 -91 1863 -91 
Q 1516 -91 1145 -36 
Q 775 19 384 128 
L 384 978 
Q 719 816 1070 734 
Q 1422 653 1784 653 
Q 2113 653 2278 743 
Q 2444 834 2444 1013 
Q 2444 1163 2330 1236 
Q 2216 1309 1875 1350 
L 1678 1375 
Q 931 1469 631 1722 
Q 331 1975 331 2491 
Q 331 3047 712 3315 
Q 1094 3584 1881 3584 
Q 2191 3584 2531 3537 
Q 2872 3491 3272 3391 
z
" transform="scale(0.015625)"/>
      </defs>
      <use xlink:href="#DejaVuSans-Bold-23"/>
      <use xlink:href="#DejaVuSans-Bold-20" x="83.789062"/>
      <use xlink:href="#DejaVuSans-Bold-6f" x="118.603516"/>
      <use xlink:href="#DejaVuSans-Bold-66" x="187.304688"/>
      <use xlink:href="#DejaVuSans-Bold-20" x="230.810547"/>
      <use xlink:href="#DejaVuSans-Bold-6e" x="265.625"/>
      <use xlink:href="#DejaVuSans-Bold-6f" x="336.816406"/>
      <use xlink:href="#DejaVuSans-Bold-64" x="405.517578"/>
      <use xlink:href="#DejaVuSans-Bold-65" x="477.099609"/>
      <use xlink:href="#DejaVuSans-Bold-73" x="544.921875"/>
     </g>
    </g>
   </g>
   <g id="matplotlib.axis_2">
    <g id="ytick_1">
     <g id="line2d_11">
      <path d="M 70.32 267.660958 
L 445.68 267.660958 
" clip-path="url(#p5ea84bf244)" style="fill: none; stroke: #000000; stroke-opacity: 0.7; stroke-width: 0.5"/>
     </g>
     <g id="line2d_12"/>
     <g id="text_7">
      <!-- 0.88 -->
      <g transform="translate(35.648125 272.979864) scale(0.14 -0.14)">
       <defs>
        <path id="DejaVuSans-2e" d="M 684 794 
L 1344 794 
L 1344 0 
L 684 0 
L 684 794 
z
" transform="scale(0.015625)"/>
        <path id="DejaVuSans-38" d="M 2034 2216 
Q 1584 2216 1326 1975 
Q 1069 1734 1069 1313 
Q 1069 891 1326 650 
Q 1584 409 2034 409 
Q 2484 409 2743 651 
Q 3003 894 3003 1313 
Q 3003 1734 2745 1975 
Q 2488 2216 2034 2216 
z
M 1403 2484 
Q 997 2584 770 2862 
Q 544 3141 544 3541 
Q 544 4100 942 4425 
Q 1341 4750 2034 4750 
Q 2731 4750 3128 4425 
Q 3525 4100 3525 3541 
Q 3525 3141 3298 2862 
Q 3072 2584 2669 2484 
Q 3125 2378 3379 2068 
Q 3634 1759 3634 1313 
Q 3634 634 3220 271 
Q 2806 -91 2034 -91 
Q 1263 -91 848 271 
Q 434 634 434 1313 
Q 434 1759 690 2068 
Q 947 2378 1403 2484 
z
M 1172 3481 
Q 1172 3119 1398 2916 
Q 1625 2713 2034 2713 
Q 2441 2713 2670 2916 
Q 2900 3119 2900 3481 
Q 2900 3844 2670 4047 
Q 2441 4250 2034 4250 
Q 1625 4250 1398 4047 
Q 1172 3844 1172 3481 
z
" transform="scale(0.015625)"/>
       </defs>
       <use xlink:href="#DejaVuSans-30"/>
       <use xlink:href="#DejaVuSans-2e" x="63.623047"/>
       <use xlink:href="#DejaVuSans-38" x="95.410156"/>
       <use xlink:href="#DejaVuSans-38" x="159.033203"/>
      </g>
     </g>
    </g>
    <g id="ytick_2">
     <g id="line2d_13">
      <path d="M 70.32 231.541453 
L 445.68 231.541453 
" clip-path="url(#p5ea84bf244)" style="fill: none; stroke: #000000; stroke-opacity: 0.7; stroke-width: 0.5"/>
     </g>
     <g id="line2d_14"/>
     <g id="text_8">
      <!-- 0.89 -->
      <g transform="translate(35.648125 236.86036) scale(0.14 -0.14)">
       <defs>
        <path id="DejaVuSans-39" d="M 703 97 
L 703 672 
Q 941 559 1184 500 
Q 1428 441 1663 441 
Q 2288 441 2617 861 
Q 2947 1281 2994 2138 
Q 2813 1869 2534 1725 
Q 2256 1581 1919 1581 
Q 1219 1581 811 2004 
Q 403 2428 403 3163 
Q 403 3881 828 4315 
Q 1253 4750 1959 4750 
Q 2769 4750 3195 4129 
Q 3622 3509 3622 2328 
Q 3622 1225 3098 567 
Q 2575 -91 1691 -91 
Q 1453 -91 1209 -44 
Q 966 3 703 97 
z
M 1959 2075 
Q 2384 2075 2632 2365 
Q 2881 2656 2881 3163 
Q 2881 3666 2632 3958 
Q 2384 4250 1959 4250 
Q 1534 4250 1286 3958 
Q 1038 3666 1038 3163 
Q 1038 2656 1286 2365 
Q 1534 2075 1959 2075 
z
" transform="scale(0.015625)"/>
       </defs>
       <use xlink:href="#DejaVuSans-30"/>
       <use xlink:href="#DejaVuSans-2e" x="63.623047"/>
       <use xlink:href="#DejaVuSans-38" x="95.410156"/>
       <use xlink:href="#DejaVuSans-39" x="159.033203"/>
      </g>
     </g>
    </g>
    <g id="ytick_3">
     <g id="line2d_15">
      <path d="M 70.32 195.421949 
L 445.68 195.421949 
" clip-path="url(#p5ea84bf244)" style="fill: none; stroke: #000000; stroke-opacity: 0.7; stroke-width: 0.5"/>
     </g>
     <g id="line2d_16"/>
     <g id="text_9">
      <!-- 0.90 -->
      <g transform="translate(35.648125 200.740855) scale(0.14 -0.14)">
       <use xlink:href="#DejaVuSans-30"/>
       <use xlink:href="#DejaVuSans-2e" x="63.623047"/>
       <use xlink:href="#DejaVuSans-39" x="95.410156"/>
       <use xlink:href="#DejaVuSans-30" x="159.033203"/>
      </g>
     </g>
    </g>
    <g id="ytick_4">
     <g id="line2d_17">
      <path d="M 70.32 159.302444 
L 445.68 159.302444 
" clip-path="url(#p5ea84bf244)" style="fill: none; stroke: #000000; stroke-opacity: 0.7; stroke-width: 0.5"/>
     </g>
     <g id="line2d_18"/>
     <g id="text_10">
      <!-- 0.91 -->
      <g transform="translate(35.648125 164.621351) scale(0.14 -0.14)">
       <use xlink:href="#DejaVuSans-30"/>
       <use xlink:href="#DejaVuSans-2e" x="63.623047"/>
       <use xlink:href="#DejaVuSans-39" x="95.410156"/>
       <use xlink:href="#DejaVuSans-31" x="159.033203"/>
      </g>
     </g>
    </g>
    <g id="ytick_5">
     <g id="line2d_19">
      <path d="M 70.32 123.18294 
L 445.68 123.18294 
" clip-path="url(#p5ea84bf244)" style="fill: none; stroke: #000000; stroke-opacity: 0.7; stroke-width: 0.5"/>
     </g>
     <g id="line2d_20"/>
     <g id="text_11">
      <!-- 0.92 -->
      <g transform="translate(35.648125 128.501846) scale(0.14 -0.14)">
       <use xlink:href="#DejaVuSans-30"/>
       <use xlink:href="#DejaVuSans-2e" x="63.623047"/>
       <use xlink:href="#DejaVuSans-39" x="95.410156"/>
       <use xlink:href="#DejaVuSans-32" x="159.033203"/>
      </g>
     </g>
    </g>
    <g id="ytick_6">
     <g id="line2d_21">
      <path d="M 70.32 87.063435 
L 445.68 87.063435 
" clip-path="url(#p5ea84bf244)" style="fill: none; stroke: #000000; stroke-opacity: 0.7; stroke-width: 0.5"/>
     </g>
     <g id="line2d_22"/>
     <g id="text_12">
      <!-- 0.93 -->
      <g transform="translate(35.648125 92.382342) scale(0.14 -0.14)">
       <use xlink:href="#DejaVuSans-30"/>
       <use xlink:href="#DejaVuSans-2e" x="63.623047"/>
       <use xlink:href="#DejaVuSans-39" x="95.410156"/>
       <use xlink:href="#DejaVuSans-33" x="159.033203"/>
      </g>
     </g>
    </g>
    <g id="ytick_7">
     <g id="line2d_23">
      <path d="M 70.32 50.943931 
L 445.68 50.943931 
" clip-path="url(#p5ea84bf244)" style="fill: none; stroke: #000000; stroke-opacity: 0.7; stroke-width: 0.5"/>
     </g>
     <g id="line2d_24"/>
     <g id="text_13">
      <!-- 0.94 -->
      <g transform="translate(35.648125 56.262837) scale(0.14 -0.14)">
       <use xlink:href="#DejaVuSans-30"/>
       <use xlink:href="#DejaVuSans-2e" x="63.623047"/>
       <use xlink:href="#DejaVuSans-39" x="95.410156"/>
       <use xlink:href="#DejaVuSans-34" x="159.033203"/>
      </g>
     </g>
    </g>
    <g id="text_14">
     <!-- Fidelity -->
     <g transform="translate(28.023 189.507937) rotate(-90) scale(0.168 -0.168)">
      <defs>
       <path id="DejaVuSans-Bold-46" d="M 588 4666 
L 3834 4666 
L 3834 3756 
L 1791 3756 
L 1791 2888 
L 3713 2888 
L 3713 1978 
L 1791 1978 
L 1791 0 
L 588 0 
L 588 4666 
z
" transform="scale(0.015625)"/>
       <path id="DejaVuSans-Bold-69" d="M 538 3500 
L 1656 3500 
L 1656 0 
L 538 0 
L 538 3500 
z
M 538 4863 
L 1656 4863 
L 1656 3950 
L 538 3950 
L 538 4863 
z
" transform="scale(0.015625)"/>
       <path id="DejaVuSans-Bold-6c" d="M 538 4863 
L 1656 4863 
L 1656 0 
L 538 0 
L 538 4863 
z
" transform="scale(0.015625)"/>
       <path id="DejaVuSans-Bold-74" d="M 1759 4494 
L 1759 3500 
L 2913 3500 
L 2913 2700 
L 1759 2700 
L 1759 1216 
Q 1759 972 1856 886 
Q 1953 800 2241 800 
L 2816 800 
L 2816 0 
L 1856 0 
Q 1194 0 917 276 
Q 641 553 641 1216 
L 641 2700 
L 84 2700 
L 84 3500 
L 641 3500 
L 641 4494 
L 1759 4494 
z
" transform="scale(0.015625)"/>
       <path id="DejaVuSans-Bold-79" d="M 78 3500 
L 1197 3500 
L 2138 1125 
L 2938 3500 
L 4056 3500 
L 2584 -331 
Q 2363 -916 2067 -1148 
Q 1772 -1381 1288 -1381 
L 641 -1381 
L 641 -647 
L 991 -647 
Q 1275 -647 1404 -556 
Q 1534 -466 1606 -231 
L 1638 -134 
L 78 3500 
z
" transform="scale(0.015625)"/>
      </defs>
      <use xlink:href="#DejaVuSans-Bold-46"/>
      <use xlink:href="#DejaVuSans-Bold-69" x="68.310547"/>
      <use xlink:href="#DejaVuSans-Bold-64" x="102.587891"/>
      <use xlink:href="#DejaVuSans-Bold-65" x="174.169922"/>
      <use xlink:href="#DejaVuSans-Bold-6c" x="241.992188"/>
      <use xlink:href="#DejaVuSans-Bold-69" x="276.269531"/>
      <use xlink:href="#DejaVuSans-Bold-74" x="310.546875"/>
      <use xlink:href="#DejaVuSans-Bold-79" x="358.349609"/>
     </g>
    </g>
   </g>
   <g id="line2d_25">
    <path d="M 87.381818 49.159902 
L 106.339394 102.163148 
L 125.29697 119.421938 
L 144.254545 119.756154 
L 163.212121 105.201525 
L 182.169697 192.088925 
L 201.127273 162.27988 
L 220.084848 166.818579 
L 239.042424 201.176123 
L 258 205.612277 
L 276.957576 209.445202 
L 295.915152 138.316512 
L 314.872727 212.370156 
L 333.830303 121.27505 
L 352.787879 169.366302 
L 371.745455 280.120909 
L 390.70303 202.304184 
L 409.660606 187.378037 
L 428.618182 181.986942 
" clip-path="url(#p5ea84bf244)" style="fill: none; stroke-dasharray: 2,3.3; stroke-dashoffset: 0; stroke: #ff0000; stroke-opacity: 0.4; stroke-width: 2"/>
    <defs>
     <path id="mc1f22b2ee3" d="M 0 3 
C 0.795609 3 1.55874 2.683901 2.12132 2.12132 
C 2.683901 1.55874 3 0.795609 3 0 
C 3 -0.795609 2.683901 -1.55874 2.12132 -2.12132 
C 1.55874 -2.683901 0.795609 -3 0 -3 
C -0.795609 -3 -1.55874 -2.683901 -2.12132 -2.12132 
C -2.683901 -1.55874 -3 -0.795609 -3 0 
C -3 0.795609 -2.683901 1.55874 -2.12132 2.12132 
C -1.55874 2.683901 -0.795609 3 0 3 
z
" style="stroke: #ff0000; stroke-opacity: 0.4"/>
    </defs>
    <g clip-path="url(#p5ea84bf244)">
     <use xlink:href="#mc1f22b2ee3" x="87.381818" y="49.159902" style="fill: #ff0000; fill-opacity: 0.4; stroke: #ff0000; stroke-opacity: 0.4"/>
     <use xlink:href="#mc1f22b2ee3" x="106.339394" y="102.163148" style="fill: #ff0000; fill-opacity: 0.4; stroke: #ff0000; stroke-opacity: 0.4"/>
     <use xlink:href="#mc1f22b2ee3" x="125.29697" y="119.421938" style="fill: #ff0000; fill-opacity: 0.4; stroke: #ff0000; stroke-opacity: 0.4"/>
     <use xlink:href="#mc1f22b2ee3" x="144.254545" y="119.756154" style="fill: #ff0000; fill-opacity: 0.4; stroke: #ff0000; stroke-opacity: 0.4"/>
     <use xlink:href="#mc1f22b2ee3" x="163.212121" y="105.201525" style="fill: #ff0000; fill-opacity: 0.4; stroke: #ff0000; stroke-opacity: 0.4"/>
     <use xlink:href="#mc1f22b2ee3" x="182.169697" y="192.088925" style="fill: #ff0000; fill-opacity: 0.4; stroke: #ff0000; stroke-opacity: 0.4"/>
     <use xlink:href="#mc1f22b2ee3" x="201.127273" y="162.27988" style="fill: #ff0000; fill-opacity: 0.4; stroke: #ff0000; stroke-opacity: 0.4"/>
     <use xlink:href="#mc1f22b2ee3" x="220.084848" y="166.818579" style="fill: #ff0000; fill-opacity: 0.4; stroke: #ff0000; stroke-opacity: 0.4"/>
     <use xlink:href="#mc1f22b2ee3" x="239.042424" y="201.176123" style="fill: #ff0000; fill-opacity: 0.4; stroke: #ff0000; stroke-opacity: 0.4"/>
     <use xlink:href="#mc1f22b2ee3" x="258" y="205.612277" style="fill: #ff0000; fill-opacity: 0.4; stroke: #ff0000; stroke-opacity: 0.4"/>
     <use xlink:href="#mc1f22b2ee3" x="276.957576" y="209.445202" style="fill: #ff0000; fill-opacity: 0.4; stroke: #ff0000; stroke-opacity: 0.4"/>
     <use xlink:href="#mc1f22b2ee3" x="295.915152" y="138.316512" style="fill: #ff0000; fill-opacity: 0.4; stroke: #ff0000; stroke-opacity: 0.4"/>
     <use xlink:href="#mc1f22b2ee3" x="314.872727" y="212.370156" style="fill: #ff0000; fill-opacity: 0.4; stroke: #ff0000; stroke-opacity: 0.4"/>
     <use xlink:href="#mc1f22b2ee3" x="333.830303" y="121.27505" style="fill: #ff0000; fill-opacity: 0.4; stroke: #ff0000; stroke-opacity: 0.4"/>
     <use xlink:href="#mc1f22b2ee3" x="352.787879" y="169.366302" style="fill: #ff0000; fill-opacity: 0.4; stroke: #ff0000; stroke-opacity: 0.4"/>
     <use xlink:href="#mc1f22b2ee3" x="371.745455" y="280.120909" style="fill: #ff0000; fill-opacity: 0.4; stroke: #ff0000; stroke-opacity: 0.4"/>
     <use xlink:href="#mc1f22b2ee3" x="390.70303" y="202.304184" style="fill: #ff0000; fill-opacity: 0.4; stroke: #ff0000; stroke-opacity: 0.4"/>
     <use xlink:href="#mc1f22b2ee3" x="409.660606" y="187.378037" style="fill: #ff0000; fill-opacity: 0.4; stroke: #ff0000; stroke-opacity: 0.4"/>
     <use xlink:href="#mc1f22b2ee3" x="428.618182" y="181.986942" style="fill: #ff0000; fill-opacity: 0.4; stroke: #ff0000; stroke-opacity: 0.4"/>
    </g>
   </g>
   <g id="line2d_26">
    <path d="M 87.381818 55.238341 
L 90.82865 61.720231 
L 94.275482 67.906357 
L 97.722314 73.810212 
L 101.169146 79.444678 
L 104.615978 84.822046 
L 108.06281 89.954047 
L 111.509642 94.851878 
L 114.956474 99.526224 
L 118.403306 103.987282 
L 121.850138 108.244784 
L 125.29697 112.308018 
L 128.743802 116.185849 
L 132.190634 119.886737 
L 135.637466 123.418755 
L 139.084298 126.789609 
L 142.531129 130.006653 
L 145.977961 133.076904 
L 149.424793 136.007062 
L 152.871625 138.803518 
L 156.318457 141.472373 
L 159.765289 144.01945 
L 163.212121 146.450305 
L 166.658953 148.770242 
L 170.105785 150.984321 
L 173.552617 153.097373 
L 176.999449 155.114007 
L 180.446281 157.038623 
L 183.893113 158.87542 
L 187.339945 160.628405 
L 190.786777 162.301403 
L 194.233609 163.898062 
L 197.680441 165.421866 
L 201.127273 166.87614 
L 204.574105 168.264057 
L 208.020937 169.588643 
L 211.467769 170.85279 
L 214.914601 172.059253 
L 218.361433 173.210667 
L 221.808264 174.309542 
L 225.255096 175.358276 
L 228.701928 176.359157 
L 232.14876 177.314369 
L 235.595592 178.225994 
L 239.042424 179.096023 
L 242.489256 179.926352 
L 245.936088 180.718794 
L 249.38292 181.475078 
L 252.829752 182.196852 
L 256.276584 182.885692 
L 259.723416 183.543101 
L 263.170248 184.170513 
L 266.61708 184.769296 
L 270.063912 185.340757 
L 273.510744 185.886143 
L 276.957576 186.406643 
L 280.404408 186.903393 
L 283.85124 187.377476 
L 287.298072 187.829927 
L 290.744904 188.261733 
L 294.191736 188.673836 
L 297.638567 189.067135 
L 301.085399 189.442488 
L 304.532231 189.800714 
L 307.979063 190.142594 
L 311.425895 190.468874 
L 314.872727 190.780267 
L 318.319559 191.07745 
L 321.766391 191.361074 
L 325.213223 191.631755 
L 328.660055 191.890086 
L 332.106887 192.136629 
L 335.553719 192.371923 
L 339.000551 192.59648 
L 342.447383 192.810791 
L 345.894215 193.015323 
L 349.341047 193.210522 
L 352.787879 193.396814 
L 356.234711 193.574606 
L 359.681543 193.744286 
L 363.128375 193.906223 
L 366.575207 194.060771 
L 370.022039 194.208267 
L 373.468871 194.349032 
L 376.915702 194.483375 
L 380.362534 194.611588 
L 383.809366 194.73395 
L 387.256198 194.850729 
L 390.70303 194.96218 
L 394.149862 195.068545 
L 397.596694 195.170057 
L 401.043526 195.266937 
L 404.490358 195.359396 
L 407.93719 195.447636 
L 411.384022 195.53185 
L 414.830854 195.612222 
L 418.277686 195.688926 
L 421.724518 195.76213 
L 425.17135 195.831994 
L 428.618182 195.89867 
" clip-path="url(#p5ea84bf244)" style="fill: none; stroke: #ff0000; stroke-opacity: 0.8; stroke-width: 3"/>
   </g>
   <g id="line2d_27">
    <path d="M 87.381818 38.671187 
L 106.339394 54.34752 
L 125.29697 119.419176 
L 144.254545 108.582343 
L 163.212121 105.199637 
L 182.169697 184.780078 
L 201.127273 179.033275 
L 220.084848 219.609996 
L 239.042424 174.167631 
L 258 200.249002 
L 276.957576 206.181124 
L 295.915152 132.545497 
L 314.872727 206.709499 
L 333.830303 114.81053 
L 352.787879 172.261233 
L 371.745455 236.262834 
L 390.70303 245.696488 
L 409.660606 187.586637 
L 428.618182 177.355583 
" clip-path="url(#p5ea84bf244)" style="fill: none; stroke-dasharray: 2,3.3; stroke-dashoffset: 0; stroke: #0000ff; stroke-opacity: 0.4; stroke-width: 2"/>
    <defs>
     <path id="mcb15a48adf" d="M -3 3 
L 3 3 
L 3 -3 
L -3 -3 
z
" style="stroke: #0000ff; stroke-opacity: 0.4; stroke-linejoin: miter"/>
    </defs>
    <g clip-path="url(#p5ea84bf244)">
     <use xlink:href="#mcb15a48adf" x="87.381818" y="38.671187" style="fill: #0000ff; fill-opacity: 0.4; stroke: #0000ff; stroke-opacity: 0.4; stroke-linejoin: miter"/>
     <use xlink:href="#mcb15a48adf" x="106.339394" y="54.34752" style="fill: #0000ff; fill-opacity: 0.4; stroke: #0000ff; stroke-opacity: 0.4; stroke-linejoin: miter"/>
     <use xlink:href="#mcb15a48adf" x="125.29697" y="119.419176" style="fill: #0000ff; fill-opacity: 0.4; stroke: #0000ff; stroke-opacity: 0.4; stroke-linejoin: miter"/>
     <use xlink:href="#mcb15a48adf" x="144.254545" y="108.582343" style="fill: #0000ff; fill-opacity: 0.4; stroke: #0000ff; stroke-opacity: 0.4; stroke-linejoin: miter"/>
     <use xlink:href="#mcb15a48adf" x="163.212121" y="105.199637" style="fill: #0000ff; fill-opacity: 0.4; stroke: #0000ff; stroke-opacity: 0.4; stroke-linejoin: miter"/>
     <use xlink:href="#mcb15a48adf" x="182.169697" y="184.780078" style="fill: #0000ff; fill-opacity: 0.4; stroke: #0000ff; stroke-opacity: 0.4; stroke-linejoin: miter"/>
     <use xlink:href="#mcb15a48adf" x="201.127273" y="179.033275" style="fill: #0000ff; fill-opacity: 0.4; stroke: #0000ff; stroke-opacity: 0.4; stroke-linejoin: miter"/>
     <use xlink:href="#mcb15a48adf" x="220.084848" y="219.609996" style="fill: #0000ff; fill-opacity: 0.4; stroke: #0000ff; stroke-opacity: 0.4; stroke-linejoin: miter"/>
     <use xlink:href="#mcb15a48adf" x="239.042424" y="174.167631" style="fill: #0000ff; fill-opacity: 0.4; stroke: #0000ff; stroke-opacity: 0.4; stroke-linejoin: miter"/>
     <use xlink:href="#mcb15a48adf" x="258" y="200.249002" style="fill: #0000ff; fill-opacity: 0.4; stroke: #0000ff; stroke-opacity: 0.4; stroke-linejoin: miter"/>
     <use xlink:href="#mcb15a48adf" x="276.957576" y="206.181124" style="fill: #0000ff; fill-opacity: 0.4; stroke: #0000ff; stroke-opacity: 0.4; stroke-linejoin: miter"/>
     <use xlink:href="#mcb15a48adf" x="295.915152" y="132.545497" style="fill: #0000ff; fill-opacity: 0.4; stroke: #0000ff; stroke-opacity: 0.4; stroke-linejoin: miter"/>
     <use xlink:href="#mcb15a48adf" x="314.872727" y="206.709499" style="fill: #0000ff; fill-opacity: 0.4; stroke: #0000ff; stroke-opacity: 0.4; stroke-linejoin: miter"/>
     <use xlink:href="#mcb15a48adf" x="333.830303" y="114.81053" style="fill: #0000ff; fill-opacity: 0.4; stroke: #0000ff; stroke-opacity: 0.4; stroke-linejoin: miter"/>
     <use xlink:href="#mcb15a48adf" x="352.787879" y="172.261233" style="fill: #0000ff; fill-opacity: 0.4; stroke: #0000ff; stroke-opacity: 0.4; stroke-linejoin: miter"/>
     <use xlink:href="#mcb15a48adf" x="371.745455" y="236.262834" style="fill: #0000ff; fill-opacity: 0.4; stroke: #0000ff; stroke-opacity: 0.4; stroke-linejoin: miter"/>
     <use xlink:href="#mcb15a48adf" x="390.70303" y="245.696488" style="fill: #0000ff; fill-opacity: 0.4; stroke: #0000ff; stroke-opacity: 0.4; stroke-linejoin: miter"/>
     <use xlink:href="#mcb15a48adf" x="409.660606" y="187.586637" style="fill: #0000ff; fill-opacity: 0.4; stroke: #0000ff; stroke-opacity: 0.4; stroke-linejoin: miter"/>
     <use xlink:href="#mcb15a48adf" x="428.618182" y="177.355583" style="fill: #0000ff; fill-opacity: 0.4; stroke: #0000ff; stroke-opacity: 0.4; stroke-linejoin: miter"/>
    </g>
   </g>
   <g id="line2d_28">
    <path d="M 87.381818 27.739091 
L 90.82865 36.646426 
L 94.275482 45.079382 
L 97.722314 53.063223 
L 101.169146 60.621866 
L 104.615978 67.777958 
L 108.06281 74.552936 
L 111.509642 80.967098 
L 114.956474 87.03966 
L 118.403306 92.788815 
L 121.850138 98.231786 
L 125.29697 103.384879 
L 128.743802 108.263533 
L 132.190634 112.882364 
L 135.637466 117.255209 
L 139.084298 121.395169 
L 142.531129 125.314646 
L 145.977961 129.025383 
L 149.424793 132.538496 
L 152.871625 135.864511 
L 156.318457 139.013392 
L 159.765289 141.994572 
L 163.212121 144.816983 
L 166.658953 147.48908 
L 170.105785 150.018869 
L 173.552617 152.413929 
L 176.999449 154.681434 
L 180.446281 156.828179 
L 183.893113 158.860594 
L 187.339945 160.784768 
L 190.786777 162.606466 
L 194.233609 164.331146 
L 197.680441 165.963974 
L 201.127273 167.509843 
L 204.574105 168.973382 
L 208.020937 170.358978 
L 211.467769 171.670781 
L 214.914601 172.912721 
L 218.361433 174.088518 
L 221.808264 175.201696 
L 225.255096 176.25559 
L 228.701928 177.253356 
L 232.14876 178.197983 
L 235.595592 179.092303 
L 239.042424 179.938993 
L 242.489256 180.740592 
L 245.936088 181.499499 
L 249.38292 182.217989 
L 252.829752 182.898214 
L 256.276584 183.542213 
L 259.723416 184.151914 
L 263.170248 184.729144 
L 266.61708 185.275632 
L 270.063912 185.793016 
L 273.510744 186.282846 
L 276.957576 186.746588 
L 280.404408 187.185633 
L 283.85124 187.601296 
L 287.298072 187.994821 
L 290.744904 188.367389 
L 294.191736 188.720115 
L 297.638567 189.054055 
L 301.085399 189.370211 
L 304.532231 189.669529 
L 307.979063 189.952906 
L 311.425895 190.221192 
L 314.872727 190.475189 
L 318.319559 190.715659 
L 321.766391 190.943323 
L 325.213223 191.158861 
L 328.660055 191.362921 
L 332.106887 191.556113 
L 335.553719 191.739016 
L 339.000551 191.912179 
L 342.447383 192.076119 
L 345.894215 192.231328 
L 349.341047 192.378271 
L 352.787879 192.517389 
L 356.234711 192.649097 
L 359.681543 192.773791 
L 363.128375 192.891844 
L 366.575207 193.00361 
L 370.022039 193.109424 
L 373.468871 193.209602 
L 376.915702 193.304445 
L 380.362534 193.394237 
L 383.809366 193.479247 
L 387.256198 193.55973 
L 390.70303 193.635926 
L 394.149862 193.708064 
L 397.596694 193.77636 
L 401.043526 193.84102 
L 404.490358 193.902235 
L 407.93719 193.960191 
L 411.384022 194.015059 
L 414.830854 194.067006 
L 418.277686 194.116186 
L 421.724518 194.162747 
L 425.17135 194.206828 
L 428.618182 194.248562 
" clip-path="url(#p5ea84bf244)" style="fill: none; stroke: #0000ff; stroke-opacity: 0.8; stroke-width: 3"/>
   </g>
   <g id="patch_3">
    <path d="M 70.32 292.74 
L 70.32 15.12 
" style="fill: none; stroke: #000000; stroke-width: 3; stroke-linejoin: miter; stroke-linecap: square"/>
   </g>
   <g id="patch_4">
    <path d="M 445.68 292.74 
L 445.68 15.12 
" style="fill: none; stroke: #000000; stroke-width: 3; stroke-linejoin: miter; stroke-linecap: square"/>
   </g>
   <g id="patch_5">
    <path d="M 70.32 292.74 
L 445.68 292.74 
" style="fill: none; stroke: #000000; stroke-width: 3; stroke-linejoin: miter; stroke-linecap: square"/>
   </g>
   <g id="patch_6">
    <path d="M 70.32 15.12 
L 445.68 15.12 
" style="fill: none; stroke: #000000; stroke-width: 3; stroke-linejoin: miter; stroke-linecap: square"/>
   </g>
   <g id="legend_1">
    <g id="patch_7">
     <path d="M 328.854375 67.41875 
L 435.88 67.41875 
Q 438.68 67.41875 438.68 64.61875 
L 438.68 24.92 
Q 438.68 22.12 435.88 22.12 
L 328.854375 22.12 
Q 326.054375 22.12 326.054375 24.92 
L 326.054375 64.61875 
Q 326.054375 67.41875 328.854375 67.41875 
z
" style="fill: #ffffff; opacity: 0.8; stroke: #cccccc; stroke-width: 0.5; stroke-linejoin: miter"/>
    </g>
    <g id="line2d_29">
     <path d="M 331.654375 33.457813 
L 345.654375 33.457813 
L 359.654375 33.457813 
" style="fill: none; stroke-dasharray: 2,3.3; stroke-dashoffset: 0; stroke: #ff0000; stroke-opacity: 0.4; stroke-width: 2"/>
     <g>
      <use xlink:href="#mc1f22b2ee3" x="345.654375" y="33.457813" style="fill: #ff0000; fill-opacity: 0.4; stroke: #ff0000; stroke-opacity: 0.4"/>
     </g>
    </g>
    <g id="text_15">
     <!-- no vlinks -->
     <g transform="translate(370.854375 38.357813) scale(0.14 -0.14)">
      <defs>
       <path id="DejaVuSans-6e" d="M 3513 2113 
L 3513 0 
L 2938 0 
L 2938 2094 
Q 2938 2591 2744 2837 
Q 2550 3084 2163 3084 
Q 1697 3084 1428 2787 
Q 1159 2491 1159 1978 
L 1159 0 
L 581 0 
L 581 3500 
L 1159 3500 
L 1159 2956 
Q 1366 3272 1645 3428 
Q 1925 3584 2291 3584 
Q 2894 3584 3203 3211 
Q 3513 2838 3513 2113 
z
" transform="scale(0.015625)"/>
       <path id="DejaVuSans-6f" d="M 1959 3097 
Q 1497 3097 1228 2736 
Q 959 2375 959 1747 
Q 959 1119 1226 758 
Q 1494 397 1959 397 
Q 2419 397 2687 759 
Q 2956 1122 2956 1747 
Q 2956 2369 2687 2733 
Q 2419 3097 1959 3097 
z
M 1959 3584 
Q 2709 3584 3137 3096 
Q 3566 2609 3566 1747 
Q 3566 888 3137 398 
Q 2709 -91 1959 -91 
Q 1206 -91 779 398 
Q 353 888 353 1747 
Q 353 2609 779 3096 
Q 1206 3584 1959 3584 
z
" transform="scale(0.015625)"/>
       <path id="DejaVuSans-20" transform="scale(0.015625)"/>
       <path id="DejaVuSans-76" d="M 191 3500 
L 800 3500 
L 1894 563 
L 2988 3500 
L 3597 3500 
L 2284 0 
L 1503 0 
L 191 3500 
z
" transform="scale(0.015625)"/>
       <path id="DejaVuSans-6c" d="M 603 4863 
L 1178 4863 
L 1178 0 
L 603 0 
L 603 4863 
z
" transform="scale(0.015625)"/>
       <path id="DejaVuSans-69" d="M 603 3500 
L 1178 3500 
L 1178 0 
L 603 0 
L 603 3500 
z
M 603 4863 
L 1178 4863 
L 1178 4134 
L 603 4134 
L 603 4863 
z
" transform="scale(0.015625)"/>
       <path id="DejaVuSans-6b" d="M 581 4863 
L 1159 4863 
L 1159 1991 
L 2875 3500 
L 3609 3500 
L 1753 1863 
L 3688 0 
L 2938 0 
L 1159 1709 
L 1159 0 
L 581 0 
L 581 4863 
z
" transform="scale(0.015625)"/>
       <path id="DejaVuSans-73" d="M 2834 3397 
L 2834 2853 
Q 2591 2978 2328 3040 
Q 2066 3103 1784 3103 
Q 1356 3103 1142 2972 
Q 928 2841 928 2578 
Q 928 2378 1081 2264 
Q 1234 2150 1697 2047 
L 1894 2003 
Q 2506 1872 2764 1633 
Q 3022 1394 3022 966 
Q 3022 478 2636 193 
Q 2250 -91 1575 -91 
Q 1294 -91 989 -36 
Q 684 19 347 128 
L 347 722 
Q 666 556 975 473 
Q 1284 391 1588 391 
Q 1994 391 2212 530 
Q 2431 669 2431 922 
Q 2431 1156 2273 1281 
Q 2116 1406 1581 1522 
L 1381 1569 
Q 847 1681 609 1914 
Q 372 2147 372 2553 
Q 372 3047 722 3315 
Q 1072 3584 1716 3584 
Q 2034 3584 2315 3537 
Q 2597 3491 2834 3397 
z
" transform="scale(0.015625)"/>
      </defs>
      <use xlink:href="#DejaVuSans-6e"/>
      <use xlink:href="#DejaVuSans-6f" x="63.378906"/>
      <use xlink:href="#DejaVuSans-20" x="124.560547"/>
      <use xlink:href="#DejaVuSans-76" x="156.347656"/>
      <use xlink:href="#DejaVuSans-6c" x="215.527344"/>
      <use xlink:href="#DejaVuSans-69" x="243.310547"/>
      <use xlink:href="#DejaVuSans-6e" x="271.09375"/>
      <use xlink:href="#DejaVuSans-6b" x="334.472656"/>
      <use xlink:href="#DejaVuSans-73" x="392.382812"/>
     </g>
    </g>
    <g id="line2d_30">
     <path d="M 331.654375 54.007188 
L 345.654375 54.007188 
L 359.654375 54.007188 
" style="fill: none; stroke-dasharray: 2,3.3; stroke-dashoffset: 0; stroke: #0000ff; stroke-opacity: 0.4; stroke-width: 2"/>
     <g>
      <use xlink:href="#mcb15a48adf" x="345.654375" y="54.007188" style="fill: #0000ff; fill-opacity: 0.4; stroke: #0000ff; stroke-opacity: 0.4; stroke-linejoin: miter"/>
     </g>
    </g>
    <g id="text_16">
     <!-- vlinks -->
     <g transform="translate(370.854375 58.907188) scale(0.14 -0.14)">
      <use xlink:href="#DejaVuSans-76"/>
      <use xlink:href="#DejaVuSans-6c" x="59.179688"/>
      <use xlink:href="#DejaVuSans-69" x="86.962891"/>
      <use xlink:href="#DejaVuSans-6e" x="114.746094"/>
      <use xlink:href="#DejaVuSans-6b" x="178.125"/>
      <use xlink:href="#DejaVuSans-73" x="236.035156"/>
     </g>
    </g>
   </g>
  </g>
 </g>
 <defs>
  <clipPath id="p5ea84bf244">
   <rect x="70.32" y="15.12" width="375.36" height="277.62"/>
  </clipPath>
 </defs>
</svg>
