<?xml version="1.0" encoding="utf-8" standalone="no"?>
<!DOCTYPE svg PUBLIC "-//W3C//DTD SVG 1.1//EN"
  "http://www.w3.org/Graphics/SVG/1.1/DTD/svg11.dtd">
<svg xmlns:xlink="http://www.w3.org/1999/xlink" width="460.8pt" height="345.6pt" viewBox="0 0 460.8 345.6" xmlns="http://www.w3.org/2000/svg" version="1.1">
 <metadata>
  <rdf:RDF xmlns:dc="http://purl.org/dc/elements/1.1/" xmlns:cc="http://creativecommons.org/ns#" xmlns:rdf="http://www.w3.org/1999/02/22-rdf-syntax-ns#">
   <cc:Work>
    <dc:type rdf:resource="http://purl.org/dc/dcmitype/StillImage"/>
    <dc:date>2024-09-02T18:25:48.361120</dc:date>
    <dc:format>image/svg+xml</dc:format>
    <dc:creator>
     <cc:Agent>
      <dc:title>Matplotlib v3.9.0, https://matplotlib.org/</dc:title>
     </cc:Agent>
    </dc:creator>
   </cc:Work>
  </rdf:RDF>
 </metadata>
 <defs>
  <style type="text/css">*{stroke-linejoin: round; stroke-linecap: butt}</style>
 </defs>
 <g id="figure_1">
  <g id="patch_1">
   <path d="M 0 345.6 
L 460.8 345.6 
L 460.8 0 
L 0 0 
z
" style="fill: #ffffff"/>
  </g>
  <g id="axes_1">
   <g id="LineCollection_1">
    <path d="M 88.589752 174.528 
L 162.374876 174.528 
" clip-path="url(#p0a83fb201e)" style="fill: none; stroke: #808080; stroke-width: 3"/>
    <path d="M 162.374876 174.528 
L 236.16 174.528 
" clip-path="url(#p0a83fb201e)" style="fill: none; stroke-dasharray: 2,3.3; stroke-dashoffset: 0; stroke: #808080; stroke-width: 2"/>
    <path d="M 236.16 174.528 
L 309.945124 174.528 
" clip-path="url(#p0a83fb201e)" style="fill: none; stroke-dasharray: 2,3.3; stroke-dashoffset: 0; stroke: #808080; stroke-width: 2"/>
    <path d="M 309.945124 174.528 
L 383.730248 174.528 
" clip-path="url(#p0a83fb201e)" style="fill: none; stroke: #808080; stroke-width: 3"/>
   </g>
   <g id="patch_2">
    <path d="M 163.795726 175.93517 
Q 236.16015 246.906101 306.928142 177.500572 
" clip-path="url(#p0a83fb201e)" style="fill: none; stroke: #0000ff; stroke-width: 2; stroke-linecap: round"/>
    <path d="M 302.671957 178.873483 
L 306.928142 177.500572 
L 305.47276 181.729267 
z
" clip-path="url(#p0a83fb201e)" style="fill: #0000ff; stroke: #0000ff; stroke-width: 2; stroke-linecap: round"/>
   </g>
   <g id="PathCollection_1">
    <defs>
     <path id="C0_0_0b60bab311" d="M 0 22.36068 
C 5.930122 22.36068 11.618159 20.004617 15.811388 15.811388 
C 20.004617 11.618159 22.36068 5.930122 22.36068 -0 
C 22.36068 -5.930122 20.004617 -11.618159 15.811388 -15.811388 
C 11.618159 -20.004617 5.930122 -22.36068 0 -22.36068 
C -5.930122 -22.36068 -11.618159 -20.004617 -15.811388 -15.811388 
C -20.004617 -11.618159 -22.36068 -5.930122 -22.36068 0 
C -22.36068 5.930122 -20.004617 11.618159 -15.811388 15.811388 
C -11.618159 20.004617 -5.930122 22.36068 0 22.36068 
z
"/>
    </defs>
    <g clip-path="url(#p0a83fb201e)">
     <use xlink:href="#C0_0_0b60bab311" x="88.589752" y="174.528" style="fill: #ffffff; stroke: #000000; stroke-width: 2"/>
    </g>
    <g clip-path="url(#p0a83fb201e)">
     <use xlink:href="#C0_0_0b60bab311" x="162.374876" y="174.528" style="fill: #ffffff; stroke: #000000; stroke-width: 2"/>
    </g>
    <g clip-path="url(#p0a83fb201e)">
     <use xlink:href="#C0_0_0b60bab311" x="236.16" y="174.528" style="fill: #ffffff; stroke: #ffffff; stroke-width: 2"/>
    </g>
    <g clip-path="url(#p0a83fb201e)">
     <use xlink:href="#C0_0_0b60bab311" x="309.945124" y="174.528" style="fill: #ffffff; stroke: #000000; stroke-width: 2"/>
    </g>
    <g clip-path="url(#p0a83fb201e)">
     <use xlink:href="#C0_0_0b60bab311" x="383.730248" y="174.528" style="fill: #ffffff; stroke: #000000; stroke-width: 2"/>
    </g>
   </g>
   <g id="text_1">
    <g clip-path="url(#p0a83fb201e)">
     <!-- 1 -->
     <g transform="translate(83.023502 178.943) scale(0.16 -0.16)">
      <defs>
       <path id="DejaVuSans-Bold-31" d="M 750 831 
L 1813 831 
L 1813 3847 
L 722 3622 
L 722 4441 
L 1806 4666 
L 2950 4666 
L 2950 831 
L 4013 831 
L 4013 0 
L 750 0 
L 750 831 
z
" transform="scale(0.015625)"/>
      </defs>
      <use xlink:href="#DejaVuSans-Bold-31"/>
     </g>
    </g>
   </g>
   <g id="text_2">
    <g clip-path="url(#p0a83fb201e)">
     <!-- 2 -->
     <g transform="translate(156.808626 178.943) scale(0.16 -0.16)">
      <defs>
       <path id="DejaVuSans-Bold-32" d="M 1844 884 
L 3897 884 
L 3897 0 
L 506 0 
L 506 884 
L 2209 2388 
Q 2438 2594 2547 2791 
Q 2656 2988 2656 3200 
Q 2656 3528 2436 3728 
Q 2216 3928 1850 3928 
Q 1569 3928 1234 3808 
Q 900 3688 519 3450 
L 519 4475 
Q 925 4609 1322 4679 
Q 1719 4750 2100 4750 
Q 2938 4750 3402 4381 
Q 3866 4013 3866 3353 
Q 3866 2972 3669 2642 
Q 3472 2313 2841 1759 
L 1844 884 
z
" transform="scale(0.015625)"/>
      </defs>
      <use xlink:href="#DejaVuSans-Bold-32"/>
     </g>
    </g>
   </g>
   <g id="text_3">
    <g clip-path="url(#p0a83fb201e)">
     <!-- n-1 -->
     <g transform="translate(295.363874 178.943) scale(0.16 -0.16)">
      <defs>
       <path id="DejaVuSans-Bold-6e" d="M 4056 2131 
L 4056 0 
L 2931 0 
L 2931 347 
L 2931 1631 
Q 2931 2084 2911 2256 
Q 2891 2428 2841 2509 
Q 2775 2619 2662 2680 
Q 2550 2741 2406 2741 
Q 2056 2741 1856 2470 
Q 1656 2200 1656 1722 
L 1656 0 
L 538 0 
L 538 3500 
L 1656 3500 
L 1656 2988 
Q 1909 3294 2193 3439 
Q 2478 3584 2822 3584 
Q 3428 3584 3742 3212 
Q 4056 2841 4056 2131 
z
" transform="scale(0.015625)"/>
       <path id="DejaVuSans-Bold-2d" d="M 347 2297 
L 2309 2297 
L 2309 1388 
L 347 1388 
L 347 2297 
z
" transform="scale(0.015625)"/>
      </defs>
      <use xlink:href="#DejaVuSans-Bold-6e"/>
      <use xlink:href="#DejaVuSans-Bold-2d" x="71.191406"/>
      <use xlink:href="#DejaVuSans-Bold-31" x="112.695312"/>
     </g>
    </g>
   </g>
   <g id="text_4">
    <g clip-path="url(#p0a83fb201e)">
     <!-- n -->
     <g transform="translate(378.035248 178.943) scale(0.16 -0.16)">
      <use xlink:href="#DejaVuSans-Bold-6e"/>
     </g>
    </g>
   </g>
   <g id="text_5">
    <!-- vlink -->
    <g style="fill: #0000ff" transform="translate(217.2775 1626.048) scale(0.16 -0.16)">
     <defs>
      <path id="DejaVuSans-76" d="M 191 3500 
L 800 3500 
L 1894 563 
L 2988 3500 
L 3597 3500 
L 2284 0 
L 1503 0 
L 191 3500 
z
" transform="scale(0.015625)"/>
      <path id="DejaVuSans-6c" d="M 603 4863 
L 1178 4863 
L 1178 0 
L 603 0 
L 603 4863 
z
" transform="scale(0.015625)"/>
      <path id="DejaVuSans-69" d="M 603 3500 
L 1178 3500 
L 1178 0 
L 603 0 
L 603 3500 
z
M 603 4863 
L 1178 4863 
L 1178 4134 
L 603 4134 
L 603 4863 
z
" transform="scale(0.015625)"/>
      <path id="DejaVuSans-6e" d="M 3513 2113 
L 3513 0 
L 2938 0 
L 2938 2094 
Q 2938 2591 2744 2837 
Q 2550 3084 2163 3084 
Q 1697 3084 1428 2787 
Q 1159 2491 1159 1978 
L 1159 0 
L 581 0 
L 581 3500 
L 1159 3500 
L 1159 2956 
Q 1366 3272 1645 3428 
Q 1925 3584 2291 3584 
Q 2894 3584 3203 3211 
Q 3513 2838 3513 2113 
z
" transform="scale(0.015625)"/>
      <path id="DejaVuSans-6b" d="M 581 4863 
L 1159 4863 
L 1159 1991 
L 2875 3500 
L 3609 3500 
L 1753 1863 
L 3688 0 
L 2938 0 
L 1159 1709 
L 1159 0 
L 581 0 
L 581 4863 
z
" transform="scale(0.015625)"/>
     </defs>
     <use xlink:href="#DejaVuSans-76"/>
     <use xlink:href="#DejaVuSans-6c" x="59.179688"/>
     <use xlink:href="#DejaVuSans-69" x="86.962891"/>
     <use xlink:href="#DejaVuSans-6e" x="114.746094"/>
     <use xlink:href="#DejaVuSans-6b" x="178.125"/>
    </g>
   </g>
  </g>
 </g>
 <defs>
  <clipPath id="p0a83fb201e">
   <rect x="57.6" y="41.472" width="357.12" height="266.112"/>
  </clipPath>
 </defs>
</svg>
